%TF.GenerationSoftware,Altium Limited,Altium Designer,24.7.2 (38)*%
G04 Layer_Color=8388736*
%FSLAX45Y45*%
%MOMM*%
%TF.SameCoordinates,9240EED7-9CEB-46DE-ACC5-CDE2BC50BDCE*%
%TF.FilePolarity,Negative*%
%TF.FileFunction,Soldermask,Top*%
%TF.Part,Single*%
G01*
G75*
%TA.AperFunction,NonConductor*%
%ADD19C,0.12443*%
%ADD20C,1.50000*%
%ADD21R,11.80000X2.90000*%
%TA.AperFunction,SMDPad,CuDef*%
%ADD22C,2.00000*%
%TA.AperFunction,ConnectorPad*%
%ADD23R,5.65000X2.65000*%
%ADD24R,5.65000X1.35000*%
%TA.AperFunction,WasherPad*%
%ADD25C,2.15000*%
%ADD26C,0.75000*%
D19*
X9222729Y4859858D02*
G03*
X8730001Y4799999I-242728J-59859D01*
G01*
X9227666Y1681076D02*
G03*
X7630001Y1620004I-797665J-61077D01*
G01*
X8242816Y3367522D02*
G03*
X9226294Y3419229I487185J112476D01*
G01*
X8748204Y4706347D02*
G03*
X9222593Y4739590I231796J93652D01*
G01*
X7642155Y1481080D02*
G03*
X9227760Y1560168I787846J138918D01*
G01*
X9226277Y3540900D02*
G03*
X8230000Y3480000I-496277J-60903D01*
G01*
X1210001Y3479997D02*
X8230001D01*
X1210002Y4799999D02*
X8730001D01*
X1210000Y1619999D02*
X7630001D01*
X1209999Y6119998D02*
X8180000Y6120000D01*
X1210000Y7439999D02*
X8610000Y7440000D01*
X1210001Y8760001D02*
X8870000Y8760000D01*
X1210000Y3479996D02*
X1210000Y3479997D01*
X8230000D01*
D20*
X1484602Y1039998D02*
G03*
X1630383Y1100383I0J206165D01*
G01*
X1898579Y1269999D02*
G03*
X1730292Y1200292I0J-237994D01*
G01*
X1630383Y2139615D02*
G03*
X1484602Y2200000I-145781J-145781D01*
G01*
X1730291Y2039707D02*
G03*
X1898580Y1969999I168289J168289D01*
G01*
X1484603Y4219997D02*
G03*
X1630384Y4280382I0J206165D01*
G01*
X1898580Y4449998D02*
G03*
X1730293Y4380291I0J-237994D01*
G01*
X1630384Y5319614D02*
G03*
X1484603Y5379999I-145781J-145781D01*
G01*
X1730292Y5219706D02*
G03*
X1898581Y5149998I168289J168289D01*
G01*
X1484602Y5539998D02*
G03*
X1630383Y5600383I0J206165D01*
G01*
X1898579Y5769999D02*
G03*
X1730292Y5700292I0J-237994D01*
G01*
X1630383Y6639616D02*
G03*
X1484602Y6700000I-145781J-145781D01*
G01*
X1730291Y6539707D02*
G03*
X1898580Y6469999I168289J168289D01*
G01*
X1484604Y8179998D02*
G03*
X1630385Y8240383I0J206165D01*
G01*
X1898581Y8409999D02*
G03*
X1730294Y8340292I0J-237994D01*
G01*
X1730292Y7859708D02*
G03*
X1898581Y7790000I168289J168289D01*
G01*
X1630383Y7959617D02*
G03*
X1484602Y8020001I-145781J-145781D01*
G01*
X1630385Y9279617D02*
G03*
X1484604Y9340001I-145781J-145781D01*
G01*
X1725609Y9184393D02*
G03*
X1905209Y9110001I179600J179600D01*
G01*
X1898580Y7090000D02*
G03*
X1730292Y7020293I0J-237994D01*
G01*
X1484602Y6859999D02*
G03*
X1630383Y6920384I0J206165D01*
G01*
X1730291Y3899705D02*
G03*
X1898580Y3829998I168289J168289D01*
G01*
X1630383Y3999614D02*
G03*
X1484602Y4059998I-145781J-145781D01*
G01*
X1898579Y3129998D02*
G03*
X1730292Y3060291I0J-237994D01*
G01*
X1484602Y2899997D02*
G03*
X1630383Y2960381I0J206165D01*
G01*
X8105000Y5619998D02*
Y5769998D01*
X8105000Y6469999D02*
Y6620000D01*
X1898580Y6469999D02*
X8105000D01*
X660000Y1039999D02*
Y2200000D01*
X1630383Y1100383D02*
X1730292Y1200292D01*
X1898579Y1269998D02*
X7350000Y1269999D01*
X660000Y1039999D02*
X1484602Y1039998D01*
X660000Y2199999D02*
X1484602Y2200000D01*
X1630383Y2139615D02*
X1730291Y2039707D01*
X1898580Y1969999D02*
X7350000D01*
X660001Y4219998D02*
Y5379999D01*
X1630384Y4280382D02*
X1730293Y4380291D01*
X1898580Y4449997D02*
X8730000Y4449998D01*
X660001Y4219998D02*
X1484603Y4219997D01*
X660001Y5379998D02*
X1484603Y5379999D01*
X1630384Y5319614D02*
X1730292Y5219706D01*
X1898581Y5149998D02*
X8738547D01*
X660000Y5539999D02*
Y6700000D01*
X1630383Y5600383D02*
X1730292Y5700292D01*
X1898579Y5769999D02*
X8105000Y5769999D01*
X660000Y5539999D02*
X1484602Y5539998D01*
X660000Y6699999D02*
X1484602Y6700000D01*
X1630383Y6639616D02*
X1730291Y6539707D01*
X660002Y8179999D02*
X1484604Y8179998D01*
X1630385Y8240383D02*
X1730294Y8340292D01*
X1898581Y7790000D02*
X8260000D01*
X1630383Y7959617D02*
X1730292Y7859708D01*
X660001Y8020000D02*
X1484602Y8020001D01*
X1898581Y8409999D02*
X8690000D01*
X660002Y8179999D02*
Y9340000D01*
X1630385Y9279617D02*
X1725609Y9184393D01*
X1905209Y9110001D02*
X2060001Y9110000D01*
X8690000D01*
X660001Y6860000D02*
X1484602Y6859999D01*
X660002Y9340000D02*
X1484604Y9340001D01*
X1898580Y7090000D02*
X8260000Y7090000D01*
X1630383Y6920384D02*
X1730292Y7020293D01*
X660001Y6860000D02*
Y8020001D01*
X1630383Y2960381D02*
X1730292Y3060291D01*
X1630383Y3999614D02*
X1730291Y3899705D01*
X660000Y2899998D02*
Y4059999D01*
X1898579Y3129997D02*
X7650175Y3129998D01*
X1898580Y3829998D02*
X7650175D01*
X660000Y4059998D02*
X1484602Y4059998D01*
X660000Y2899998D02*
X1484602Y2899997D01*
D21*
X4720000Y485000D02*
D03*
D22*
X2299999Y779999D02*
D03*
X7140000Y779998D02*
D03*
Y9599999D02*
D03*
X2300000Y9600000D02*
D03*
D23*
X965000Y3054998D02*
D03*
Y3904998D02*
D03*
X965001Y4374999D02*
D03*
Y5224999D02*
D03*
X965000Y2045000D02*
D03*
Y1195000D02*
D03*
Y4375000D02*
D03*
Y5225000D02*
D03*
X965000Y8335000D02*
D03*
Y9185000D02*
D03*
X965000Y7015000D02*
D03*
Y7865000D02*
D03*
Y6545000D02*
D03*
Y5695000D02*
D03*
Y3905000D02*
D03*
Y3055000D02*
D03*
D24*
X965000Y3479998D02*
D03*
X965001Y4799999D02*
D03*
X965000Y1620000D02*
D03*
Y4800000D02*
D03*
X965000Y8760000D02*
D03*
X965000Y7440000D02*
D03*
Y6120000D02*
D03*
Y3480000D02*
D03*
D25*
X250000Y250000D02*
D03*
X9750000D02*
D03*
Y9750000D02*
D03*
X250000D02*
D03*
D26*
X7230000Y9169999D02*
D03*
X7050000D02*
D03*
X7140000D02*
D03*
X6960000D02*
D03*
X7320000D02*
D03*
X7230000Y7849999D02*
D03*
X7050000D02*
D03*
X7140000D02*
D03*
X6960000D02*
D03*
X7320000D02*
D03*
X7230000Y8349999D02*
D03*
X7050000D02*
D03*
X7140000D02*
D03*
X6960000D02*
D03*
X7320000D02*
D03*
Y7029999D02*
D03*
X6960000D02*
D03*
X7140000D02*
D03*
X7050000D02*
D03*
X7230000D02*
D03*
X7320000Y6529999D02*
D03*
X6960000D02*
D03*
X7140000D02*
D03*
X7050000D02*
D03*
X7230000D02*
D03*
X2390000Y6530000D02*
D03*
X2210000D02*
D03*
X2300000D02*
D03*
X2120000D02*
D03*
X2480000D02*
D03*
X4810000D02*
D03*
X4630000D02*
D03*
X4720000D02*
D03*
X4540000D02*
D03*
X4900000D02*
D03*
X7229999Y5209998D02*
D03*
X7049999D02*
D03*
X7139999D02*
D03*
X6959999D02*
D03*
X7319999D02*
D03*
X7229999Y5709998D02*
D03*
X7049999D02*
D03*
X7139999D02*
D03*
X6959999D02*
D03*
X7319999D02*
D03*
X7320000Y4389997D02*
D03*
X6960000D02*
D03*
X7140000D02*
D03*
X7050000D02*
D03*
X7230000D02*
D03*
X7320000Y3889997D02*
D03*
X6960000D02*
D03*
X7140000D02*
D03*
X7050000D02*
D03*
X7230000D02*
D03*
X7320000Y3069995D02*
D03*
X6959999D02*
D03*
X7139999D02*
D03*
X7049999D02*
D03*
X7230000D02*
D03*
X4719999Y1209999D02*
D03*
X7230000Y2029999D02*
D03*
X7050000D02*
D03*
X7140000D02*
D03*
X6960000D02*
D03*
X7320000D02*
D03*
X7230000Y1209998D02*
D03*
X7050000D02*
D03*
X7140000D02*
D03*
X6960000D02*
D03*
X7320000D02*
D03*
X4900000Y2030000D02*
D03*
X4540000D02*
D03*
X4720000D02*
D03*
X4630000D02*
D03*
X4810000D02*
D03*
X2390000D02*
D03*
X2210000D02*
D03*
X2300000D02*
D03*
X2120000D02*
D03*
X2480000D02*
D03*
X2119999Y1209999D02*
D03*
X2389999D02*
D03*
X2209999D02*
D03*
X2299999D02*
D03*
X2479999D02*
D03*
X4899999D02*
D03*
X4539999D02*
D03*
X4629999D02*
D03*
X4809999D02*
D03*
X4809999Y3069997D02*
D03*
X4629999D02*
D03*
X4719999D02*
D03*
X4539999D02*
D03*
X4899999D02*
D03*
X2480000D02*
D03*
X2299999D02*
D03*
X2209999D02*
D03*
X2390000D02*
D03*
X2119999D02*
D03*
X2480000Y3889998D02*
D03*
X2120000D02*
D03*
X2300000D02*
D03*
X2210000D02*
D03*
X2390000D02*
D03*
X4810000D02*
D03*
X4630000D02*
D03*
X4720000D02*
D03*
X4540000D02*
D03*
X4900000D02*
D03*
X4810000Y4389998D02*
D03*
X4630000D02*
D03*
X4720000D02*
D03*
X4540000D02*
D03*
X4900000D02*
D03*
X2480000D02*
D03*
X2300000D02*
D03*
X2210000D02*
D03*
X2390000D02*
D03*
X2120000D02*
D03*
X2119999Y5709999D02*
D03*
X2389999D02*
D03*
X2209999D02*
D03*
X2299999D02*
D03*
X2479999D02*
D03*
X4899999D02*
D03*
X4539999D02*
D03*
X4719999D02*
D03*
X4629999D02*
D03*
X4809999D02*
D03*
X2120000Y7850000D02*
D03*
X2210000D02*
D03*
X2300000D02*
D03*
X2390000D02*
D03*
X2480000D02*
D03*
X4899999Y5209999D02*
D03*
X4539999D02*
D03*
X4719999D02*
D03*
X4629999D02*
D03*
X4809999D02*
D03*
X2389999D02*
D03*
X2209999D02*
D03*
X2299999D02*
D03*
X2119999D02*
D03*
X2479999D02*
D03*
X2390000Y7030000D02*
D03*
X2210000D02*
D03*
X2300000D02*
D03*
X2120000D02*
D03*
X2480000D02*
D03*
X4900000D02*
D03*
X4540000D02*
D03*
X4720000D02*
D03*
X4630000D02*
D03*
X4810000D02*
D03*
X4900000Y9170000D02*
D03*
X4540000D02*
D03*
X4720000D02*
D03*
X4630000D02*
D03*
X4810000D02*
D03*
X2480000D02*
D03*
X2120000D02*
D03*
X2300000D02*
D03*
X2210000D02*
D03*
X2390000D02*
D03*
X4900000Y8350000D02*
D03*
X4540000D02*
D03*
X4720000D02*
D03*
X4630000D02*
D03*
X4810000D02*
D03*
Y7850000D02*
D03*
X4630000D02*
D03*
X4720000D02*
D03*
X4540000D02*
D03*
X4900000D02*
D03*
X2390000Y8350000D02*
D03*
X2210000D02*
D03*
X2300000D02*
D03*
X2120000D02*
D03*
X2480000D02*
D03*
%TF.MD5,f11aa07e30a67fdf633b71d3ea49172e*%
M02*
