%TF.GenerationSoftware,Altium Limited,Altium Designer,24.7.2 (38)*%
G04 Layer_Color=32896*
%FSLAX45Y45*%
%MOMM*%
%TF.SameCoordinates,9240EED7-9CEB-46DE-ACC5-CDE2BC50BDCE*%
%TF.FilePolarity,Positive*%
%TF.FileFunction,Legend,Bot*%
%TF.Part,Single*%
G01*
G75*
%TA.AperFunction,NonConductor*%
%ADD19C,0.12443*%
G36*
X4528343Y2627680D02*
X4524254D01*
Y2619503D01*
X4520166D01*
Y2611326D01*
X4516078D01*
Y2603149D01*
X4507901D01*
Y2599061D01*
X4487459D01*
Y2594972D01*
X4467017D01*
Y2590884D01*
X4446575D01*
Y2586796D01*
X4442486D01*
Y2513205D01*
X4446575D01*
Y2509116D01*
X4462928D01*
Y2505028D01*
X4487459D01*
Y2500939D01*
X4507901D01*
Y2496851D01*
X4516078D01*
Y2484586D01*
X4520166D01*
Y2476409D01*
X4524254D01*
Y2464144D01*
X4528343D01*
Y2455967D01*
X4532431D01*
Y2435525D01*
X4528343D01*
Y2427348D01*
X4524254D01*
Y2423260D01*
X4520166D01*
Y2415083D01*
X4516078D01*
Y2410994D01*
X4511989D01*
Y2402818D01*
X4507901D01*
Y2398729D01*
X4503812D01*
Y2394641D01*
X4499724D01*
Y2386464D01*
X4495635D01*
Y2382376D01*
X4499724D01*
Y2374199D01*
X4503812D01*
Y2370111D01*
X4507901D01*
Y2366022D01*
X4511989D01*
Y2361934D01*
X4516078D01*
Y2357845D01*
X4520166D01*
Y2353757D01*
X4524254D01*
Y2349669D01*
X4528343D01*
Y2345580D01*
X4532431D01*
Y2341492D01*
X4536520D01*
Y2337403D01*
X4540608D01*
Y2333315D01*
X4548785D01*
Y2329226D01*
X4552873D01*
Y2333315D01*
X4561050D01*
Y2337403D01*
X4565138D01*
Y2341492D01*
X4569227D01*
Y2345580D01*
X4577403D01*
Y2349669D01*
X4581492D01*
Y2353757D01*
X4589669D01*
Y2357845D01*
X4593757D01*
Y2361934D01*
X4601934D01*
Y2366022D01*
X4614199D01*
Y2361934D01*
X4622376D01*
Y2357845D01*
X4630553D01*
Y2353757D01*
X4638729D01*
Y2361934D01*
X4642818D01*
Y2374199D01*
X4646906D01*
Y2382376D01*
X4650995D01*
Y2390552D01*
X4655083D01*
Y2402818D01*
X4659171D01*
Y2410994D01*
X4663260D01*
Y2423260D01*
X4667348D01*
Y2431437D01*
X4671437D01*
Y2439613D01*
X4675525D01*
Y2451879D01*
X4679613D01*
Y2460055D01*
X4683702D01*
Y2472320D01*
X4687790D01*
Y2480497D01*
X4679613D01*
Y2484586D01*
X4675525D01*
Y2488674D01*
X4671437D01*
Y2492763D01*
X4663260D01*
Y2496851D01*
X4659171D01*
Y2505028D01*
X4655083D01*
Y2509116D01*
X4650995D01*
Y2517293D01*
X4646906D01*
Y2525470D01*
X4642818D01*
Y2574531D01*
X4646906D01*
Y2582707D01*
X4650995D01*
Y2590884D01*
X4655083D01*
Y2594972D01*
X4659171D01*
Y2599061D01*
X4663260D01*
Y2603149D01*
X4667348D01*
Y2607238D01*
X4671437D01*
Y2611326D01*
X4675525D01*
Y2615414D01*
X4683702D01*
Y2619503D01*
X4695967D01*
Y2623591D01*
X4736851D01*
Y2619503D01*
X4749116D01*
Y2615414D01*
X4757293D01*
Y2611326D01*
X4761381D01*
Y2607238D01*
X4765470D01*
Y2603149D01*
X4769558D01*
Y2599061D01*
X4773647D01*
Y2594972D01*
X4777735D01*
Y2590884D01*
X4781823D01*
Y2582707D01*
X4785912D01*
Y2570442D01*
X4790000D01*
Y2529558D01*
X4785912D01*
Y2517293D01*
X4781823D01*
Y2509116D01*
X4777735D01*
Y2505028D01*
X4773647D01*
Y2496851D01*
X4765470D01*
Y2492763D01*
X4761381D01*
Y2488674D01*
X4757293D01*
Y2484586D01*
X4753205D01*
Y2480497D01*
X4745028D01*
Y2468232D01*
X4749116D01*
Y2460055D01*
X4753205D01*
Y2447790D01*
X4757293D01*
Y2439613D01*
X4761381D01*
Y2431437D01*
X4765470D01*
Y2419171D01*
X4769558D01*
Y2410994D01*
X4773647D01*
Y2398729D01*
X4777735D01*
Y2390552D01*
X4781823D01*
Y2382376D01*
X4785912D01*
Y2370111D01*
X4790000D01*
Y2361934D01*
X4794088D01*
Y2353757D01*
X4802265D01*
Y2357845D01*
X4810442D01*
Y2361934D01*
X4814531D01*
Y2366022D01*
X4830884D01*
Y2361934D01*
X4839061D01*
Y2357845D01*
X4843149D01*
Y2353757D01*
X4847238D01*
Y2349669D01*
X4855414D01*
Y2345580D01*
X4859503D01*
Y2341492D01*
X4867680D01*
Y2337403D01*
X4871768D01*
Y2333315D01*
X4879945D01*
Y2329226D01*
X4884033D01*
Y2333315D01*
X4888122D01*
Y2337403D01*
X4892210D01*
Y2341492D01*
X4896299D01*
Y2345580D01*
X4900387D01*
Y2349669D01*
X4904475D01*
Y2353757D01*
X4908564D01*
Y2357845D01*
X4912652D01*
Y2361934D01*
X4916740D01*
Y2366022D01*
X4920829D01*
Y2370111D01*
X4924917D01*
Y2374199D01*
X4929006D01*
Y2378287D01*
X4933094D01*
Y2382376D01*
X4937182D01*
Y2386464D01*
X4933094D01*
Y2390552D01*
X4929006D01*
Y2398729D01*
X4924917D01*
Y2402818D01*
X4920829D01*
Y2410994D01*
X4916740D01*
Y2415083D01*
X4912652D01*
Y2423260D01*
X4908564D01*
Y2427348D01*
X4904475D01*
Y2431437D01*
X4900387D01*
Y2439613D01*
X4896299D01*
Y2447790D01*
X4900387D01*
Y2455967D01*
X4904475D01*
Y2468232D01*
X4908564D01*
Y2476409D01*
X4912652D01*
Y2488674D01*
X4916740D01*
Y2496851D01*
X4924917D01*
Y2500939D01*
X4945359D01*
Y2505028D01*
X4965801D01*
Y2509116D01*
X4986243D01*
Y2513205D01*
X4990332D01*
Y2586796D01*
X4986243D01*
Y2590884D01*
X4965801D01*
Y2594972D01*
X4945359D01*
Y2599061D01*
X4920829D01*
Y2603149D01*
X4916740D01*
Y2607238D01*
X4912652D01*
Y2615414D01*
X4908564D01*
Y2627680D01*
X4904475D01*
Y2635856D01*
X4900387D01*
Y2648122D01*
X4896299D01*
Y2660387D01*
X4900387D01*
Y2664475D01*
X4904475D01*
Y2672652D01*
X4908564D01*
Y2676740D01*
X4912652D01*
Y2684917D01*
X4916740D01*
Y2689006D01*
X4920829D01*
Y2697182D01*
X4924917D01*
Y2701271D01*
X4929006D01*
Y2709447D01*
X4933094D01*
Y2713536D01*
X4937182D01*
Y2717624D01*
X4933094D01*
Y2721713D01*
X4929006D01*
Y2725801D01*
X4924917D01*
Y2729890D01*
X4920829D01*
Y2733978D01*
X4916740D01*
Y2738066D01*
X4912652D01*
Y2742155D01*
X4908564D01*
Y2746243D01*
X4904475D01*
Y2750332D01*
X4900387D01*
Y2754420D01*
X4896299D01*
Y2758508D01*
X4892210D01*
Y2762597D01*
X4888122D01*
Y2766685D01*
X4884033D01*
Y2770773D01*
X4879945D01*
Y2766685D01*
X4871768D01*
Y2762597D01*
X4867680D01*
Y2758508D01*
X4859503D01*
Y2754420D01*
X4855414D01*
Y2750332D01*
X4851326D01*
Y2746243D01*
X4843149D01*
Y2742155D01*
X4839061D01*
Y2738066D01*
X4830884D01*
Y2733978D01*
X4826796D01*
Y2729890D01*
X4810442D01*
Y2733978D01*
X4802265D01*
Y2738066D01*
X4790000D01*
Y2742155D01*
X4781823D01*
Y2746243D01*
X4769558D01*
Y2754420D01*
X4765470D01*
Y2774862D01*
X4761381D01*
Y2799392D01*
X4757293D01*
Y2819834D01*
X4753205D01*
Y2823923D01*
X4675525D01*
Y2803481D01*
X4671437D01*
Y2778950D01*
X4667348D01*
Y2758508D01*
X4663260D01*
Y2746243D01*
X4650995D01*
Y2742155D01*
X4642818D01*
Y2738066D01*
X4630553D01*
Y2733978D01*
X4622376D01*
Y2729890D01*
X4606022D01*
Y2733978D01*
X4601934D01*
Y2738066D01*
X4593757D01*
Y2742155D01*
X4589669D01*
Y2746243D01*
X4581492D01*
Y2750332D01*
X4577403D01*
Y2754420D01*
X4569227D01*
Y2758508D01*
X4565138D01*
Y2762597D01*
X4556961D01*
Y2766685D01*
X4552873D01*
Y2770773D01*
X4548785D01*
Y2766685D01*
X4540608D01*
Y2762597D01*
X4536520D01*
Y2758508D01*
X4532431D01*
Y2754420D01*
X4528343D01*
Y2750332D01*
X4524254D01*
Y2746243D01*
X4520166D01*
Y2742155D01*
X4516078D01*
Y2738066D01*
X4511989D01*
Y2733978D01*
X4507901D01*
Y2729890D01*
X4503812D01*
Y2725801D01*
X4499724D01*
Y2717624D01*
X4495635D01*
Y2713536D01*
X4499724D01*
Y2705359D01*
X4503812D01*
Y2701271D01*
X4507901D01*
Y2697182D01*
X4511989D01*
Y2689006D01*
X4516078D01*
Y2684917D01*
X4520166D01*
Y2676740D01*
X4524254D01*
Y2672652D01*
X4528343D01*
Y2664475D01*
X4532431D01*
Y2660387D01*
X4536520D01*
Y2648122D01*
X4532431D01*
Y2639945D01*
X4528343D01*
Y2631768D01*
Y2627680D01*
D02*
G37*
G36*
X9149193Y1669998D02*
X9307579Y1670000D01*
X9308589Y1657525D01*
X9309600Y1632515D01*
X9309600Y1607484D01*
X9308589Y1582474D01*
X9307579Y1569999D01*
X9307580Y1570000D01*
X9149195Y1570000D01*
X9150005Y1582485D01*
X9150931Y1607488D01*
X9150930Y1632510D01*
X9150004Y1657513D01*
X9149193Y1669998D01*
X9149193Y1669998D01*
D02*
G37*
G36*
X9147681Y3529998D02*
X9306508Y3530000D01*
X9307496Y3517524D01*
X9308484Y3492514D01*
X9308484Y3467485D01*
X9307495Y3442475D01*
X9306507Y3429999D01*
X9306507D01*
X9147683Y3429999D01*
X9148696Y3442476D01*
X9149855Y3467482D01*
X9149854Y3492515D01*
X9148694Y3517521D01*
X9147680Y3529998D01*
X9147681D01*
D02*
G37*
G36*
X9143459Y4849997D02*
X9304430Y4849999D01*
X9306334Y4837590D01*
X9308245Y4812554D01*
X9308245Y4787445D01*
X9306334Y4762408D01*
X9304429Y4749999D01*
X9304429Y4749999D01*
X9143463Y4750000D01*
X9146430Y4762298D01*
X9149839Y4787355D01*
X9149838Y4812642D01*
X9146427Y4837699D01*
X9143459Y4849997D01*
X9143459D01*
D02*
G37*
G36*
X9309997Y5625001D02*
X9309998Y6615002D01*
X9310000Y6625943D01*
X9301628Y6646160D01*
X9286154Y6661632D01*
X9265936Y6670002D01*
X9254995Y6669998D01*
X9254996Y6670000D01*
X8264999Y6670000D01*
X8254059Y6670001D01*
X8233843Y6661629D01*
X8218370Y6646156D01*
X8209998Y6625940D01*
X8210000Y6614999D01*
X8210000Y6614999D01*
Y5625001D01*
X8209999Y5614060D01*
X8218372Y5593845D01*
X8233843Y5578372D01*
X8254059Y5569999D01*
X8264999Y5570000D01*
X8264999D01*
X9255000D01*
X9265940D01*
X9286154Y5578373D01*
X9301626Y5593845D01*
X9309998Y5614060D01*
X9309997Y5625001D01*
D01*
D02*
G37*
G36*
X8989999Y7119999D02*
X9015184Y7119999D01*
X9064933Y7127878D01*
X9112836Y7143443D01*
X9157715Y7166310D01*
X9198465Y7195917D01*
X9234081Y7231533D01*
X9263687Y7272282D01*
X9286554Y7317161D01*
X9302119Y7365065D01*
X9309999Y7414814D01*
X9309999Y7465183D01*
X9302119Y7514932D01*
X9286554Y7562836D01*
X9263687Y7607715D01*
X9234081Y7648465D01*
X9198464Y7684081D01*
X9157715Y7713687D01*
X9112836Y7736554D01*
X9064932Y7752119D01*
X9015183Y7759998D01*
X8989999Y7759998D01*
X8989999Y7759998D01*
X8669999Y7439999D01*
X8989999Y7119999D01*
D02*
G37*
G36*
X2213890Y8696704D02*
X2214901D01*
X2215811Y8696603D01*
X2216620D01*
X2217226Y8696502D01*
X2217732D01*
X2220057Y8696300D01*
X2221068Y8696199D01*
X2221978Y8696098D01*
X2222786Y8695997D01*
X2223393Y8695896D01*
X2223797Y8695795D01*
X2223898D01*
X2226122Y8695491D01*
X2227133Y8695289D01*
X2228043Y8695188D01*
X2228751Y8695087D01*
X2229357Y8694986D01*
X2229762Y8694885D01*
X2229863D01*
X2231986Y8694480D01*
X2232895Y8694278D01*
X2233704Y8694076D01*
X2234412Y8693874D01*
X2234917Y8693773D01*
X2235221Y8693672D01*
X2235322D01*
Y8681338D01*
X2233199Y8681945D01*
X2231076Y8682451D01*
X2229155Y8682855D01*
X2227538Y8683158D01*
X2226122Y8683461D01*
X2225010Y8683664D01*
X2224606D01*
X2224303Y8683765D01*
X2224100D01*
X2222180Y8683967D01*
X2220259Y8684169D01*
X2218540Y8684270D01*
X2217125Y8684371D01*
X2215811Y8684472D01*
X2214092D01*
X2212576Y8684371D01*
X2211161Y8684270D01*
X2209948Y8684068D01*
X2208836Y8683866D01*
X2207926Y8683664D01*
X2207218Y8683563D01*
X2206814Y8683360D01*
X2206612D01*
X2205398Y8682855D01*
X2204286Y8682349D01*
X2203276Y8681844D01*
X2202467Y8681338D01*
X2201759Y8680833D01*
X2201254Y8680429D01*
X2200950Y8680226D01*
X2200849Y8680125D01*
X2200041Y8679216D01*
X2199333Y8678306D01*
X2198726Y8677396D01*
X2198120Y8676587D01*
X2197715Y8675778D01*
X2197412Y8675172D01*
X2197311Y8674768D01*
X2197210Y8674666D01*
X2196806Y8673453D01*
X2196502Y8672139D01*
X2196300Y8670825D01*
X2196199Y8669612D01*
X2196098Y8668601D01*
X2195997Y8667792D01*
Y8667287D01*
Y8667085D01*
X2238354D01*
X2238456Y8665467D01*
X2238557Y8663951D01*
X2238658Y8663344D01*
Y8662839D01*
Y8662535D01*
Y8662434D01*
Y8661524D01*
X2238759Y8660716D01*
Y8660008D01*
Y8659402D01*
Y8658896D01*
Y8658593D01*
Y8658391D01*
Y8658290D01*
X2238658Y8655964D01*
X2238456Y8653841D01*
X2238152Y8651921D01*
X2237849Y8650202D01*
X2237445Y8648787D01*
X2237141Y8647675D01*
X2237040Y8647270D01*
X2236939Y8646967D01*
X2236838Y8646866D01*
Y8646765D01*
X2236130Y8644844D01*
X2235221Y8643126D01*
X2234311Y8641609D01*
X2233502Y8640194D01*
X2232693Y8639183D01*
X2232087Y8638374D01*
X2231682Y8637869D01*
X2231480Y8637667D01*
X2230065Y8636353D01*
X2228650Y8635139D01*
X2227133Y8634129D01*
X2225718Y8633219D01*
X2224505Y8632612D01*
X2223595Y8632107D01*
X2223191Y8631905D01*
X2222887Y8631803D01*
X2222786Y8631702D01*
X2222685D01*
X2220663Y8630995D01*
X2218540Y8630489D01*
X2216519Y8630085D01*
X2214699Y8629883D01*
X2212980Y8629680D01*
X2212273D01*
X2211666Y8629579D01*
X2210554D01*
X2208027Y8629680D01*
X2205702Y8629984D01*
X2203579Y8630388D01*
X2201759Y8630792D01*
X2200142Y8631298D01*
X2199535Y8631500D01*
X2199030Y8631702D01*
X2198625Y8631905D01*
X2198322Y8632006D01*
X2198120Y8632107D01*
X2198019D01*
X2195997Y8633118D01*
X2194177Y8634331D01*
X2192560Y8635443D01*
X2191144Y8636656D01*
X2190032Y8637667D01*
X2189224Y8638475D01*
X2188718Y8639082D01*
X2188516Y8639183D01*
Y8639284D01*
X2187101Y8641104D01*
X2185888Y8642924D01*
X2184877Y8644743D01*
X2183967Y8646462D01*
X2183360Y8647978D01*
X2183057Y8648686D01*
X2182855Y8649191D01*
X2182653Y8649697D01*
X2182552Y8650000D01*
X2182451Y8650202D01*
Y8650303D01*
X2181743Y8652729D01*
X2181237Y8655257D01*
X2180833Y8657582D01*
X2180631Y8659806D01*
X2180530Y8660817D01*
X2180429Y8661727D01*
Y8662535D01*
X2180328Y8663243D01*
Y8663748D01*
Y8664153D01*
Y8664456D01*
Y8664557D01*
X2180429Y8667388D01*
X2180631Y8670016D01*
X2181035Y8672442D01*
X2181440Y8674464D01*
X2181541Y8675374D01*
X2181743Y8676183D01*
X2181945Y8676890D01*
X2182147Y8677396D01*
X2182248Y8677901D01*
X2182349Y8678205D01*
X2182451Y8678407D01*
Y8678508D01*
X2183360Y8680631D01*
X2184270Y8682552D01*
X2185382Y8684371D01*
X2186292Y8685787D01*
X2187202Y8687000D01*
X2187910Y8687909D01*
X2188415Y8688415D01*
X2188617Y8688617D01*
X2190235Y8690032D01*
X2191852Y8691246D01*
X2193571Y8692358D01*
X2195087Y8693166D01*
X2196502Y8693874D01*
X2197513Y8694379D01*
X2197918Y8694582D01*
X2198221Y8694683D01*
X2198423Y8694784D01*
X2198524D01*
X2200748Y8695491D01*
X2203073Y8695997D01*
X2205297Y8696300D01*
X2207319Y8696502D01*
X2209139Y8696704D01*
X2209846D01*
X2210554Y8696806D01*
X2211767D01*
X2213890Y8696704D01*
D02*
G37*
G36*
X2015143Y8654044D02*
X1975717D01*
Y8667792D01*
X2015143D01*
Y8654044D01*
D02*
G37*
G36*
X2166478Y8683360D02*
X2147978D01*
Y8630995D01*
X2113910D01*
Y8643025D01*
X2132107D01*
Y8683360D01*
X2111686D01*
Y8695390D01*
X2166478D01*
Y8683360D01*
D02*
G37*
G36*
X2058613Y8661524D02*
X2089850D01*
Y8648686D01*
X2058613D01*
Y8625738D01*
X2091670D01*
Y8612596D01*
X2042741D01*
Y8695390D01*
X2058613D01*
Y8661524D01*
D02*
G37*
G36*
X1949838Y8682248D02*
X1915871D01*
Y8659199D01*
X1948220D01*
Y8646361D01*
X1915871D01*
Y8625738D01*
X1949838D01*
Y8612596D01*
X1900000D01*
Y8695390D01*
X1949838D01*
Y8682248D01*
D02*
G37*
G36*
X2347534Y8696704D02*
X2348646Y8696502D01*
X2349556Y8696401D01*
X2350263Y8696199D01*
X2350870Y8696098D01*
X2351274Y8695997D01*
X2351375D01*
X2353397Y8695390D01*
X2354307Y8694986D01*
X2355116Y8694683D01*
X2355722Y8694379D01*
X2356228Y8694076D01*
X2356531Y8693975D01*
X2356632Y8693874D01*
X2358452Y8692762D01*
X2359260Y8692155D01*
X2359867Y8691650D01*
X2360474Y8691144D01*
X2360878Y8690740D01*
X2361181Y8690538D01*
X2361282Y8690437D01*
X2362799Y8688819D01*
X2364113Y8687404D01*
X2364719Y8686797D01*
X2365124Y8686292D01*
X2365326Y8685989D01*
X2365427Y8685888D01*
X2365831Y8695390D01*
X2379277D01*
Y8605823D01*
X2363810D01*
Y8631096D01*
X2362293Y8630792D01*
X2360878Y8630489D01*
X2360271Y8630388D01*
X2359766D01*
X2359463Y8630287D01*
X2359362D01*
X2357643Y8630085D01*
X2356834Y8629984D01*
X2356127Y8629883D01*
X2354610D01*
X2351982Y8629984D01*
X2349556Y8630186D01*
X2347231Y8630590D01*
X2345310Y8630894D01*
X2343692Y8631298D01*
X2342985Y8631500D01*
X2342479Y8631702D01*
X2341974Y8631803D01*
X2341670Y8631905D01*
X2341468Y8632006D01*
X2341367D01*
X2339143Y8632814D01*
X2337121Y8633825D01*
X2335403Y8634937D01*
X2333886Y8635948D01*
X2332572Y8636858D01*
X2331662Y8637667D01*
X2331056Y8638172D01*
X2330955Y8638273D01*
X2330854Y8638374D01*
X2329236Y8640093D01*
X2327922Y8641812D01*
X2326709Y8643631D01*
X2325698Y8645350D01*
X2324889Y8646866D01*
X2324384Y8647978D01*
X2324182Y8648484D01*
X2323979Y8648787D01*
X2323878Y8648989D01*
Y8649090D01*
X2323070Y8651617D01*
X2322463Y8654246D01*
X2322059Y8656773D01*
X2321755Y8659199D01*
X2321654Y8660311D01*
X2321553Y8661322D01*
Y8662232D01*
X2321452Y8662940D01*
Y8663546D01*
Y8664052D01*
Y8664355D01*
Y8664456D01*
X2321553Y8667186D01*
X2321654Y8669713D01*
X2321958Y8671937D01*
X2322261Y8673959D01*
X2322463Y8675576D01*
X2322665Y8676284D01*
X2322766Y8676789D01*
X2322867Y8677295D01*
Y8677598D01*
X2322968Y8677800D01*
Y8677901D01*
X2323676Y8680024D01*
X2324384Y8682046D01*
X2325091Y8683765D01*
X2325900Y8685281D01*
X2326507Y8686494D01*
X2327012Y8687303D01*
X2327416Y8687909D01*
X2327518Y8688112D01*
X2328731Y8689527D01*
X2329944Y8690841D01*
X2331258Y8691953D01*
X2332370Y8692863D01*
X2333482Y8693672D01*
X2334291Y8694177D01*
X2334796Y8694480D01*
X2334998Y8694582D01*
X2336717Y8695289D01*
X2338436Y8695896D01*
X2340154Y8696300D01*
X2341772Y8696502D01*
X2343086Y8696704D01*
X2344198Y8696806D01*
X2346321D01*
X2347534Y8696704D01*
D02*
G37*
G36*
X2309220Y8683360D02*
X2290720D01*
Y8605823D01*
X2256652D01*
Y8617853D01*
X2274849D01*
Y8683360D01*
X2254428D01*
Y8695390D01*
X2309220D01*
Y8683360D01*
D02*
G37*
G36*
X2140700Y8623312D02*
X2141913Y8623008D01*
X2142418Y8622907D01*
X2142822Y8622806D01*
X2143025Y8622705D01*
X2143126D01*
X2144440Y8621997D01*
X2145451Y8621290D01*
X2145855Y8621088D01*
X2146159Y8620784D01*
X2146260Y8620683D01*
X2146361Y8620582D01*
X2147271Y8619470D01*
X2147877Y8618459D01*
X2148180Y8617954D01*
X2148383Y8617651D01*
X2148484Y8617448D01*
Y8617347D01*
X2148989Y8615932D01*
X2149191Y8614618D01*
X2149292Y8614112D01*
Y8613708D01*
Y8613506D01*
Y8613405D01*
X2149191Y8611888D01*
X2148888Y8610675D01*
X2148787Y8610170D01*
X2148585Y8609765D01*
X2148484Y8609563D01*
Y8609462D01*
X2147776Y8608148D01*
X2147169Y8607137D01*
X2146866Y8606733D01*
X2146563Y8606429D01*
X2146462Y8606328D01*
X2146361Y8606227D01*
X2145350Y8605317D01*
X2144238Y8604610D01*
X2143833Y8604306D01*
X2143429Y8604104D01*
X2143227Y8604003D01*
X2143126D01*
X2141710Y8603498D01*
X2140497Y8603295D01*
X2139992Y8603194D01*
X2139183D01*
X2137667Y8603295D01*
X2136353Y8603599D01*
X2135847Y8603700D01*
X2135443Y8603902D01*
X2135241Y8604003D01*
X2135139D01*
X2133825Y8604711D01*
X2132814Y8605418D01*
X2132410Y8605722D01*
X2132208Y8606025D01*
X2132006Y8606126D01*
X2131905Y8606227D01*
X2130995Y8607339D01*
X2130388Y8608350D01*
X2130085Y8608856D01*
X2129883Y8609159D01*
X2129782Y8609361D01*
Y8609462D01*
X2129377Y8610877D01*
X2129175Y8612090D01*
X2129074Y8612596D01*
Y8613000D01*
Y8613304D01*
Y8613405D01*
X2129175Y8614820D01*
X2129478Y8616134D01*
X2129579Y8616640D01*
X2129681Y8617044D01*
X2129782Y8617246D01*
Y8617347D01*
X2130489Y8618661D01*
X2131197Y8619672D01*
X2131399Y8620077D01*
X2131702Y8620279D01*
X2131803Y8620481D01*
X2131905Y8620582D01*
X2133017Y8621492D01*
X2134027Y8622099D01*
X2134533Y8622402D01*
X2134836Y8622604D01*
X2135038Y8622705D01*
X2135139D01*
X2136555Y8623109D01*
X2137869Y8623312D01*
X2138374Y8623413D01*
X2139183D01*
X2140700Y8623312D01*
D02*
G37*
G36*
X2213890Y7376705D02*
X2214901D01*
X2215811Y7376603D01*
X2216620D01*
X2217226Y7376502D01*
X2217732D01*
X2220057Y7376300D01*
X2221068Y7376199D01*
X2221978Y7376098D01*
X2222786Y7375997D01*
X2223393Y7375896D01*
X2223797Y7375795D01*
X2223898D01*
X2226122Y7375491D01*
X2227133Y7375289D01*
X2228043Y7375188D01*
X2228751Y7375087D01*
X2229357Y7374986D01*
X2229762Y7374885D01*
X2229863D01*
X2231986Y7374481D01*
X2232895Y7374278D01*
X2233704Y7374076D01*
X2234412Y7373874D01*
X2234917Y7373773D01*
X2235221Y7373672D01*
X2235322D01*
Y7361339D01*
X2233199Y7361945D01*
X2231076Y7362451D01*
X2229155Y7362855D01*
X2227538Y7363158D01*
X2226122Y7363462D01*
X2225010Y7363664D01*
X2224606D01*
X2224303Y7363765D01*
X2224100D01*
X2222180Y7363967D01*
X2220259Y7364169D01*
X2218540Y7364270D01*
X2217125Y7364371D01*
X2215811Y7364472D01*
X2214092D01*
X2212576Y7364371D01*
X2211161Y7364270D01*
X2209948Y7364068D01*
X2208836Y7363866D01*
X2207926Y7363664D01*
X2207218Y7363563D01*
X2206814Y7363360D01*
X2206612D01*
X2205398Y7362855D01*
X2204286Y7362350D01*
X2203276Y7361844D01*
X2202467Y7361339D01*
X2201759Y7360833D01*
X2201254Y7360429D01*
X2200950Y7360227D01*
X2200849Y7360125D01*
X2200041Y7359216D01*
X2199333Y7358306D01*
X2198726Y7357396D01*
X2198120Y7356587D01*
X2197715Y7355779D01*
X2197412Y7355172D01*
X2197311Y7354768D01*
X2197210Y7354667D01*
X2196806Y7353453D01*
X2196502Y7352139D01*
X2196300Y7350825D01*
X2196199Y7349612D01*
X2196098Y7348601D01*
X2195997Y7347792D01*
Y7347287D01*
Y7347085D01*
X2238354D01*
X2238456Y7345467D01*
X2238557Y7343951D01*
X2238658Y7343344D01*
Y7342839D01*
Y7342535D01*
Y7342434D01*
Y7341525D01*
X2238759Y7340716D01*
Y7340008D01*
Y7339402D01*
Y7338896D01*
Y7338593D01*
Y7338391D01*
Y7338290D01*
X2238658Y7335965D01*
X2238456Y7333842D01*
X2238152Y7331921D01*
X2237849Y7330202D01*
X2237445Y7328787D01*
X2237141Y7327675D01*
X2237040Y7327271D01*
X2236939Y7326967D01*
X2236838Y7326866D01*
Y7326765D01*
X2236130Y7324844D01*
X2235221Y7323126D01*
X2234311Y7321609D01*
X2233502Y7320194D01*
X2232693Y7319183D01*
X2232087Y7318374D01*
X2231682Y7317869D01*
X2231480Y7317667D01*
X2230065Y7316353D01*
X2228650Y7315140D01*
X2227133Y7314129D01*
X2225718Y7313219D01*
X2224505Y7312612D01*
X2223595Y7312107D01*
X2223191Y7311905D01*
X2222887Y7311804D01*
X2222786Y7311702D01*
X2222685D01*
X2220663Y7310995D01*
X2218540Y7310489D01*
X2216519Y7310085D01*
X2214699Y7309883D01*
X2212980Y7309681D01*
X2212273D01*
X2211666Y7309579D01*
X2210554D01*
X2208027Y7309681D01*
X2205702Y7309984D01*
X2203579Y7310388D01*
X2201759Y7310793D01*
X2200142Y7311298D01*
X2199535Y7311500D01*
X2199030Y7311702D01*
X2198625Y7311905D01*
X2198322Y7312006D01*
X2198120Y7312107D01*
X2198019D01*
X2195997Y7313118D01*
X2194177Y7314331D01*
X2192560Y7315443D01*
X2191144Y7316656D01*
X2190032Y7317667D01*
X2189224Y7318476D01*
X2188718Y7319082D01*
X2188516Y7319183D01*
Y7319284D01*
X2187101Y7321104D01*
X2185888Y7322924D01*
X2184877Y7324743D01*
X2183967Y7326462D01*
X2183360Y7327978D01*
X2183057Y7328686D01*
X2182855Y7329191D01*
X2182653Y7329697D01*
X2182552Y7330000D01*
X2182451Y7330202D01*
Y7330303D01*
X2181743Y7332730D01*
X2181237Y7335257D01*
X2180833Y7337582D01*
X2180631Y7339806D01*
X2180530Y7340817D01*
X2180429Y7341727D01*
Y7342535D01*
X2180328Y7343243D01*
Y7343749D01*
Y7344153D01*
Y7344456D01*
Y7344557D01*
X2180429Y7347388D01*
X2180631Y7350016D01*
X2181035Y7352442D01*
X2181440Y7354464D01*
X2181541Y7355374D01*
X2181743Y7356183D01*
X2181945Y7356891D01*
X2182147Y7357396D01*
X2182248Y7357901D01*
X2182349Y7358205D01*
X2182451Y7358407D01*
Y7358508D01*
X2183360Y7360631D01*
X2184270Y7362552D01*
X2185382Y7364371D01*
X2186292Y7365787D01*
X2187202Y7367000D01*
X2187910Y7367910D01*
X2188415Y7368415D01*
X2188617Y7368617D01*
X2190235Y7370033D01*
X2191852Y7371246D01*
X2193571Y7372358D01*
X2195087Y7373166D01*
X2196502Y7373874D01*
X2197513Y7374379D01*
X2197918Y7374582D01*
X2198221Y7374683D01*
X2198423Y7374784D01*
X2198524D01*
X2200748Y7375491D01*
X2203073Y7375997D01*
X2205297Y7376300D01*
X2207319Y7376502D01*
X2209139Y7376705D01*
X2209846D01*
X2210554Y7376806D01*
X2211767D01*
X2213890Y7376705D01*
D02*
G37*
G36*
X2015143Y7334044D02*
X1975717D01*
Y7347792D01*
X2015143D01*
Y7334044D01*
D02*
G37*
G36*
X2166478Y7363360D02*
X2147978D01*
Y7310995D01*
X2113910D01*
Y7323025D01*
X2132107D01*
Y7363360D01*
X2111686D01*
Y7375390D01*
X2166478D01*
Y7363360D01*
D02*
G37*
G36*
X2058613Y7341525D02*
X2089850D01*
Y7328686D01*
X2058613D01*
Y7305738D01*
X2091670D01*
Y7292596D01*
X2042741D01*
Y7375390D01*
X2058613D01*
Y7341525D01*
D02*
G37*
G36*
X1949838Y7362248D02*
X1915871D01*
Y7339199D01*
X1948220D01*
Y7326361D01*
X1915871D01*
Y7305738D01*
X1949838D01*
Y7292596D01*
X1900000D01*
Y7375390D01*
X1949838D01*
Y7362248D01*
D02*
G37*
G36*
X2347534Y7376705D02*
X2348646Y7376502D01*
X2349556Y7376401D01*
X2350263Y7376199D01*
X2350870Y7376098D01*
X2351274Y7375997D01*
X2351375D01*
X2353397Y7375390D01*
X2354307Y7374986D01*
X2355116Y7374683D01*
X2355722Y7374379D01*
X2356228Y7374076D01*
X2356531Y7373975D01*
X2356632Y7373874D01*
X2358452Y7372762D01*
X2359260Y7372155D01*
X2359867Y7371650D01*
X2360474Y7371145D01*
X2360878Y7370740D01*
X2361181Y7370538D01*
X2361282Y7370437D01*
X2362799Y7368819D01*
X2364113Y7367404D01*
X2364719Y7366798D01*
X2365124Y7366292D01*
X2365326Y7365989D01*
X2365427Y7365888D01*
X2365831Y7375390D01*
X2379277D01*
Y7285823D01*
X2363810D01*
Y7311096D01*
X2362293Y7310793D01*
X2360878Y7310489D01*
X2360271Y7310388D01*
X2359766D01*
X2359463Y7310287D01*
X2359362D01*
X2357643Y7310085D01*
X2356834Y7309984D01*
X2356127Y7309883D01*
X2354610D01*
X2351982Y7309984D01*
X2349556Y7310186D01*
X2347231Y7310590D01*
X2345310Y7310894D01*
X2343692Y7311298D01*
X2342985Y7311500D01*
X2342479Y7311702D01*
X2341974Y7311804D01*
X2341670Y7311905D01*
X2341468Y7312006D01*
X2341367D01*
X2339143Y7312814D01*
X2337121Y7313825D01*
X2335403Y7314937D01*
X2333886Y7315948D01*
X2332572Y7316858D01*
X2331662Y7317667D01*
X2331056Y7318172D01*
X2330955Y7318273D01*
X2330854Y7318374D01*
X2329236Y7320093D01*
X2327922Y7321812D01*
X2326709Y7323631D01*
X2325698Y7325350D01*
X2324889Y7326866D01*
X2324384Y7327978D01*
X2324182Y7328484D01*
X2323979Y7328787D01*
X2323878Y7328989D01*
Y7329090D01*
X2323070Y7331618D01*
X2322463Y7334246D01*
X2322059Y7336773D01*
X2321755Y7339199D01*
X2321654Y7340311D01*
X2321553Y7341322D01*
Y7342232D01*
X2321452Y7342940D01*
Y7343546D01*
Y7344052D01*
Y7344355D01*
Y7344456D01*
X2321553Y7347186D01*
X2321654Y7349713D01*
X2321958Y7351937D01*
X2322261Y7353959D01*
X2322463Y7355576D01*
X2322665Y7356284D01*
X2322766Y7356789D01*
X2322867Y7357295D01*
Y7357598D01*
X2322968Y7357800D01*
Y7357901D01*
X2323676Y7360024D01*
X2324384Y7362046D01*
X2325091Y7363765D01*
X2325900Y7365281D01*
X2326507Y7366494D01*
X2327012Y7367303D01*
X2327416Y7367910D01*
X2327518Y7368112D01*
X2328731Y7369527D01*
X2329944Y7370841D01*
X2331258Y7371953D01*
X2332370Y7372863D01*
X2333482Y7373672D01*
X2334291Y7374177D01*
X2334796Y7374481D01*
X2334998Y7374582D01*
X2336717Y7375289D01*
X2338436Y7375896D01*
X2340154Y7376300D01*
X2341772Y7376502D01*
X2343086Y7376705D01*
X2344198Y7376806D01*
X2346321D01*
X2347534Y7376705D01*
D02*
G37*
G36*
X2309220Y7363360D02*
X2290720D01*
Y7285823D01*
X2256652D01*
Y7297853D01*
X2274849D01*
Y7363360D01*
X2254428D01*
Y7375390D01*
X2309220D01*
Y7363360D01*
D02*
G37*
G36*
X2140700Y7303312D02*
X2141913Y7303009D01*
X2142418Y7302907D01*
X2142822Y7302806D01*
X2143025Y7302705D01*
X2143126D01*
X2144440Y7301998D01*
X2145451Y7301290D01*
X2145855Y7301088D01*
X2146159Y7300784D01*
X2146260Y7300683D01*
X2146361Y7300582D01*
X2147271Y7299470D01*
X2147877Y7298459D01*
X2148180Y7297954D01*
X2148383Y7297651D01*
X2148484Y7297448D01*
Y7297347D01*
X2148989Y7295932D01*
X2149191Y7294618D01*
X2149292Y7294112D01*
Y7293708D01*
Y7293506D01*
Y7293405D01*
X2149191Y7291888D01*
X2148888Y7290675D01*
X2148787Y7290170D01*
X2148585Y7289765D01*
X2148484Y7289563D01*
Y7289462D01*
X2147776Y7288148D01*
X2147169Y7287137D01*
X2146866Y7286733D01*
X2146563Y7286429D01*
X2146462Y7286328D01*
X2146361Y7286227D01*
X2145350Y7285317D01*
X2144238Y7284610D01*
X2143833Y7284306D01*
X2143429Y7284104D01*
X2143227Y7284003D01*
X2143126D01*
X2141710Y7283498D01*
X2140497Y7283296D01*
X2139992Y7283194D01*
X2139183D01*
X2137667Y7283296D01*
X2136353Y7283599D01*
X2135847Y7283700D01*
X2135443Y7283902D01*
X2135241Y7284003D01*
X2135139D01*
X2133825Y7284711D01*
X2132814Y7285419D01*
X2132410Y7285722D01*
X2132208Y7286025D01*
X2132006Y7286126D01*
X2131905Y7286227D01*
X2130995Y7287339D01*
X2130388Y7288350D01*
X2130085Y7288856D01*
X2129883Y7289159D01*
X2129782Y7289361D01*
Y7289462D01*
X2129377Y7290877D01*
X2129175Y7292091D01*
X2129074Y7292596D01*
Y7293000D01*
Y7293304D01*
Y7293405D01*
X2129175Y7294820D01*
X2129478Y7296134D01*
X2129579Y7296640D01*
X2129681Y7297044D01*
X2129782Y7297246D01*
Y7297347D01*
X2130489Y7298662D01*
X2131197Y7299672D01*
X2131399Y7300077D01*
X2131702Y7300279D01*
X2131803Y7300481D01*
X2131905Y7300582D01*
X2133017Y7301492D01*
X2134027Y7302099D01*
X2134533Y7302402D01*
X2134836Y7302604D01*
X2135038Y7302705D01*
X2135139D01*
X2136555Y7303110D01*
X2137869Y7303312D01*
X2138374Y7303413D01*
X2139183D01*
X2140700Y7303312D01*
D02*
G37*
G36*
X2219450Y4736704D02*
X2220461D01*
X2221371Y4736603D01*
X2222180D01*
X2222786Y4736502D01*
X2223292D01*
X2225617Y4736300D01*
X2226628Y4736199D01*
X2227538Y4736097D01*
X2228346Y4735996D01*
X2228953Y4735895D01*
X2229357Y4735794D01*
X2229458D01*
X2231682Y4735491D01*
X2232693Y4735289D01*
X2233603Y4735188D01*
X2234311Y4735087D01*
X2234917Y4734985D01*
X2235322Y4734884D01*
X2235423D01*
X2237546Y4734480D01*
X2238456Y4734278D01*
X2239264Y4734076D01*
X2239972Y4733873D01*
X2240477Y4733772D01*
X2240781Y4733671D01*
X2240882D01*
Y4721338D01*
X2238759Y4721945D01*
X2236636Y4722450D01*
X2234715Y4722854D01*
X2233098Y4723158D01*
X2231682Y4723461D01*
X2230570Y4723663D01*
X2230166D01*
X2229863Y4723764D01*
X2229661D01*
X2227740Y4723966D01*
X2225819Y4724169D01*
X2224100Y4724270D01*
X2222685Y4724371D01*
X2221371Y4724472D01*
X2219652D01*
X2218136Y4724371D01*
X2216721Y4724270D01*
X2215508Y4724068D01*
X2214396Y4723865D01*
X2213486Y4723663D01*
X2212778Y4723562D01*
X2212374Y4723360D01*
X2212172D01*
X2210958Y4722854D01*
X2209846Y4722349D01*
X2208836Y4721843D01*
X2208027Y4721338D01*
X2207319Y4720833D01*
X2206814Y4720428D01*
X2206510Y4720226D01*
X2206409Y4720125D01*
X2205601Y4719215D01*
X2204893Y4718305D01*
X2204286Y4717395D01*
X2203680Y4716587D01*
X2203276Y4715778D01*
X2202972Y4715171D01*
X2202871Y4714767D01*
X2202770Y4714666D01*
X2202366Y4713453D01*
X2202062Y4712139D01*
X2201860Y4710824D01*
X2201759Y4709611D01*
X2201658Y4708600D01*
X2201557Y4707792D01*
Y4707286D01*
Y4707084D01*
X2243914D01*
X2244016Y4705467D01*
X2244117Y4703950D01*
X2244218Y4703344D01*
Y4702838D01*
Y4702535D01*
Y4702434D01*
Y4701524D01*
X2244319Y4700715D01*
Y4700008D01*
Y4699401D01*
Y4698896D01*
Y4698592D01*
Y4698390D01*
Y4698289D01*
X2244218Y4695964D01*
X2244016Y4693841D01*
X2243712Y4691920D01*
X2243409Y4690202D01*
X2243005Y4688786D01*
X2242701Y4687674D01*
X2242600Y4687270D01*
X2242499Y4686967D01*
X2242398Y4686866D01*
Y4686765D01*
X2241690Y4684844D01*
X2240781Y4683125D01*
X2239871Y4681609D01*
X2239062Y4680194D01*
X2238253Y4679183D01*
X2237647Y4678374D01*
X2237242Y4677868D01*
X2237040Y4677666D01*
X2235625Y4676352D01*
X2234210Y4675139D01*
X2232693Y4674128D01*
X2231278Y4673218D01*
X2230065Y4672612D01*
X2229155Y4672106D01*
X2228751Y4671904D01*
X2228447Y4671803D01*
X2228346Y4671702D01*
X2228245D01*
X2226223Y4670994D01*
X2224100Y4670489D01*
X2222079Y4670084D01*
X2220259Y4669882D01*
X2218540Y4669680D01*
X2217833D01*
X2217226Y4669579D01*
X2216114D01*
X2213587Y4669680D01*
X2211262Y4669983D01*
X2209139Y4670388D01*
X2207319Y4670792D01*
X2205702Y4671297D01*
X2205095Y4671500D01*
X2204590Y4671702D01*
X2204185Y4671904D01*
X2203882Y4672005D01*
X2203680Y4672106D01*
X2203579D01*
X2201557Y4673117D01*
X2199737Y4674330D01*
X2198120Y4675442D01*
X2196705Y4676655D01*
X2195593Y4677666D01*
X2194784Y4678475D01*
X2194278Y4679082D01*
X2194076Y4679183D01*
Y4679284D01*
X2192661Y4681103D01*
X2191448Y4682923D01*
X2190437Y4684743D01*
X2189527Y4686461D01*
X2188920Y4687978D01*
X2188617Y4688685D01*
X2188415Y4689191D01*
X2188213Y4689696D01*
X2188112Y4690000D01*
X2188011Y4690202D01*
Y4690303D01*
X2187303Y4692729D01*
X2186798Y4695256D01*
X2186393Y4697581D01*
X2186191Y4699805D01*
X2186090Y4700816D01*
X2185989Y4701726D01*
Y4702535D01*
X2185888Y4703243D01*
Y4703748D01*
Y4704152D01*
Y4704456D01*
Y4704557D01*
X2185989Y4707387D01*
X2186191Y4710016D01*
X2186595Y4712442D01*
X2187000Y4714464D01*
X2187101Y4715374D01*
X2187303Y4716182D01*
X2187505Y4716890D01*
X2187707Y4717395D01*
X2187808Y4717901D01*
X2187910Y4718204D01*
X2188011Y4718406D01*
Y4718507D01*
X2188920Y4720630D01*
X2189830Y4722551D01*
X2190942Y4724371D01*
X2191852Y4725786D01*
X2192762Y4726999D01*
X2193470Y4727909D01*
X2193975Y4728414D01*
X2194177Y4728617D01*
X2195795Y4730032D01*
X2197412Y4731245D01*
X2199131Y4732357D01*
X2200647Y4733166D01*
X2202062Y4733873D01*
X2203073Y4734379D01*
X2203478Y4734581D01*
X2203781Y4734682D01*
X2203983Y4734783D01*
X2204084D01*
X2206308Y4735491D01*
X2208633Y4735996D01*
X2210857Y4736300D01*
X2212879Y4736502D01*
X2214699Y4736704D01*
X2215407D01*
X2216114Y4736805D01*
X2217327D01*
X2219450Y4736704D01*
D02*
G37*
G36*
X1959341Y4652595D02*
X1943772D01*
Y4685754D01*
X1915568D01*
Y4652595D01*
X1900000D01*
Y4735390D01*
X1915568D01*
Y4699300D01*
X1943772D01*
Y4735390D01*
X1959341D01*
Y4652595D01*
D02*
G37*
G36*
X2020703Y4694043D02*
X1981277D01*
Y4707792D01*
X2020703D01*
Y4694043D01*
D02*
G37*
G36*
X2172038Y4723360D02*
X2153538D01*
Y4670994D01*
X2119470D01*
Y4683024D01*
X2137667D01*
Y4723360D01*
X2117246D01*
Y4735390D01*
X2172038D01*
Y4723360D01*
D02*
G37*
G36*
X2064173Y4701524D02*
X2095410D01*
Y4688685D01*
X2064173D01*
Y4665737D01*
X2097230D01*
Y4652595D01*
X2048301D01*
Y4735390D01*
X2064173D01*
Y4701524D01*
D02*
G37*
G36*
X2353094Y4736704D02*
X2354206Y4736502D01*
X2355116Y4736401D01*
X2355823Y4736199D01*
X2356430Y4736097D01*
X2356834Y4735996D01*
X2356935D01*
X2358957Y4735390D01*
X2359867Y4734985D01*
X2360676Y4734682D01*
X2361282Y4734379D01*
X2361788Y4734076D01*
X2362091Y4733975D01*
X2362192Y4733873D01*
X2364012Y4732761D01*
X2364821Y4732155D01*
X2365427Y4731649D01*
X2366034Y4731144D01*
X2366438Y4730740D01*
X2366741Y4730537D01*
X2366842Y4730436D01*
X2368359Y4728819D01*
X2369673Y4727404D01*
X2370279Y4726797D01*
X2370684Y4726292D01*
X2370886Y4725988D01*
X2370987Y4725887D01*
X2371391Y4735390D01*
X2384837D01*
Y4645822D01*
X2369370D01*
Y4671095D01*
X2367853Y4670792D01*
X2366438Y4670489D01*
X2365831Y4670388D01*
X2365326D01*
X2365023Y4670287D01*
X2364922D01*
X2363203Y4670084D01*
X2362394Y4669983D01*
X2361687Y4669882D01*
X2360170D01*
X2357542Y4669983D01*
X2355116Y4670185D01*
X2352791Y4670590D01*
X2350870Y4670893D01*
X2349252Y4671297D01*
X2348545Y4671500D01*
X2348039Y4671702D01*
X2347534Y4671803D01*
X2347231Y4671904D01*
X2347028Y4672005D01*
X2346927D01*
X2344703Y4672814D01*
X2342681Y4673825D01*
X2340963Y4674937D01*
X2339446Y4675948D01*
X2338132Y4676858D01*
X2337222Y4677666D01*
X2336616Y4678172D01*
X2336515Y4678273D01*
X2336414Y4678374D01*
X2334796Y4680092D01*
X2333482Y4681811D01*
X2332269Y4683631D01*
X2331258Y4685349D01*
X2330449Y4686866D01*
X2329944Y4687978D01*
X2329742Y4688483D01*
X2329539Y4688786D01*
X2329438Y4688989D01*
Y4689090D01*
X2328630Y4691617D01*
X2328023Y4694245D01*
X2327619Y4696773D01*
X2327315Y4699199D01*
X2327214Y4700311D01*
X2327113Y4701322D01*
Y4702232D01*
X2327012Y4702939D01*
Y4703546D01*
Y4704051D01*
Y4704355D01*
Y4704456D01*
X2327113Y4707185D01*
X2327214Y4709712D01*
X2327518Y4711936D01*
X2327821Y4713958D01*
X2328023Y4715576D01*
X2328225Y4716283D01*
X2328326Y4716789D01*
X2328427Y4717294D01*
Y4717598D01*
X2328528Y4717800D01*
Y4717901D01*
X2329236Y4720024D01*
X2329944Y4722046D01*
X2330651Y4723764D01*
X2331460Y4725281D01*
X2332067Y4726494D01*
X2332572Y4727302D01*
X2332977Y4727909D01*
X2333078Y4728111D01*
X2334291Y4729526D01*
X2335504Y4730841D01*
X2336818Y4731953D01*
X2337930Y4732863D01*
X2339042Y4733671D01*
X2339851Y4734177D01*
X2340356Y4734480D01*
X2340558Y4734581D01*
X2342277Y4735289D01*
X2343996Y4735895D01*
X2345714Y4736300D01*
X2347332Y4736502D01*
X2348646Y4736704D01*
X2349758Y4736805D01*
X2351881D01*
X2353094Y4736704D01*
D02*
G37*
G36*
X2314780Y4723360D02*
X2296280D01*
Y4645822D01*
X2262212D01*
Y4657852D01*
X2280409D01*
Y4723360D01*
X2259988D01*
Y4735390D01*
X2314780D01*
Y4723360D01*
D02*
G37*
G36*
X2146260Y4663311D02*
X2147473Y4663008D01*
X2147978Y4662907D01*
X2148383Y4662806D01*
X2148585Y4662705D01*
X2148686D01*
X2150000Y4661997D01*
X2151011Y4661289D01*
X2151415Y4661087D01*
X2151719Y4660784D01*
X2151820Y4660683D01*
X2151921Y4660582D01*
X2152831Y4659470D01*
X2153437Y4658459D01*
X2153740Y4657953D01*
X2153943Y4657650D01*
X2154044Y4657448D01*
Y4657347D01*
X2154549Y4655932D01*
X2154751Y4654617D01*
X2154852Y4654112D01*
Y4653707D01*
Y4653505D01*
Y4653404D01*
X2154751Y4651888D01*
X2154448Y4650675D01*
X2154347Y4650169D01*
X2154145Y4649765D01*
X2154044Y4649563D01*
Y4649462D01*
X2153336Y4648147D01*
X2152730Y4647137D01*
X2152426Y4646732D01*
X2152123Y4646429D01*
X2152022Y4646328D01*
X2151921Y4646227D01*
X2150910Y4645317D01*
X2149798Y4644609D01*
X2149393Y4644306D01*
X2148989Y4644104D01*
X2148787Y4644003D01*
X2148686D01*
X2147271Y4643497D01*
X2146057Y4643295D01*
X2145552Y4643194D01*
X2144743D01*
X2143227Y4643295D01*
X2141913Y4643598D01*
X2141407Y4643699D01*
X2141003Y4643902D01*
X2140801Y4644003D01*
X2140700D01*
X2139385Y4644710D01*
X2138374Y4645418D01*
X2137970Y4645721D01*
X2137768Y4646024D01*
X2137566Y4646126D01*
X2137465Y4646227D01*
X2136555Y4647339D01*
X2135948Y4648350D01*
X2135645Y4648855D01*
X2135443Y4649158D01*
X2135342Y4649361D01*
Y4649462D01*
X2134937Y4650877D01*
X2134735Y4652090D01*
X2134634Y4652595D01*
Y4653000D01*
Y4653303D01*
Y4653404D01*
X2134735Y4654819D01*
X2135038Y4656134D01*
X2135139Y4656639D01*
X2135241Y4657044D01*
X2135342Y4657246D01*
Y4657347D01*
X2136049Y4658661D01*
X2136757Y4659672D01*
X2136959Y4660076D01*
X2137262Y4660278D01*
X2137364Y4660481D01*
X2137465Y4660582D01*
X2138577Y4661492D01*
X2139588Y4662098D01*
X2140093Y4662401D01*
X2140396Y4662604D01*
X2140598Y4662705D01*
X2140700D01*
X2142115Y4663109D01*
X2143429Y4663311D01*
X2143934Y4663412D01*
X2144743D01*
X2146260Y4663311D01*
D02*
G37*
G36*
X2245835Y3585198D02*
Y3583479D01*
X2245734Y3581862D01*
X2245532Y3580244D01*
X2245330Y3578829D01*
X2245026Y3577515D01*
X2244723Y3576403D01*
X2244420Y3575291D01*
X2244117Y3574280D01*
X2243813Y3573471D01*
X2243510Y3572662D01*
X2243207Y3572056D01*
X2242904Y3571550D01*
X2242701Y3571146D01*
X2242499Y3570842D01*
X2242398Y3570741D01*
Y3570640D01*
X2241690Y3569730D01*
X2240983Y3569023D01*
X2240174Y3568315D01*
X2239365Y3567810D01*
X2237647Y3566900D01*
X2236029Y3566293D01*
X2234513Y3565990D01*
X2233805Y3565788D01*
X2233199D01*
X2232794Y3565687D01*
X2232087D01*
X2230469Y3565788D01*
X2229762Y3565889D01*
X2229054Y3565990D01*
X2228549Y3566091D01*
X2228144Y3566192D01*
X2227942Y3566293D01*
X2227841D01*
X2226527Y3566799D01*
X2225415Y3567506D01*
X2225010Y3567810D01*
X2224707Y3568012D01*
X2224505Y3568113D01*
X2224404Y3568214D01*
X2223191Y3569326D01*
X2222281Y3570337D01*
X2221876Y3570842D01*
X2221573Y3571247D01*
X2221371Y3571449D01*
X2221270Y3571550D01*
X2220259Y3573168D01*
X2219248Y3574684D01*
X2218945Y3575392D01*
X2218641Y3575897D01*
X2218439Y3576301D01*
X2218338Y3576403D01*
X2218136Y3574684D01*
X2217631Y3573067D01*
X2217125Y3571752D01*
X2216620Y3570640D01*
X2216013Y3569730D01*
X2215508Y3569124D01*
X2215204Y3568720D01*
X2215103Y3568618D01*
X2213890Y3567608D01*
X2212576Y3566900D01*
X2211262Y3566394D01*
X2209948Y3566091D01*
X2208734Y3565788D01*
X2207724Y3565687D01*
X2206814D01*
X2205297Y3565788D01*
X2204590Y3565889D01*
X2203983Y3565990D01*
X2203478Y3566091D01*
X2203073Y3566192D01*
X2202871Y3566293D01*
X2202770D01*
X2201456Y3566799D01*
X2200344Y3567506D01*
X2199939Y3567810D01*
X2199636Y3568012D01*
X2199434Y3568113D01*
X2199333Y3568214D01*
X2198221Y3569326D01*
X2197311Y3570337D01*
X2196907Y3570842D01*
X2196603Y3571247D01*
X2196502Y3571449D01*
X2196401Y3571550D01*
X2195390Y3573168D01*
X2194480Y3574684D01*
X2194076Y3575392D01*
X2193773Y3575897D01*
X2193672Y3576301D01*
X2193571Y3576403D01*
X2193368Y3567001D01*
X2181945D01*
Y3631397D01*
X2195289D01*
Y3589646D01*
X2196199Y3587422D01*
X2197008Y3585501D01*
X2197817Y3583883D01*
X2198423Y3582670D01*
X2198929Y3581760D01*
X2199434Y3581053D01*
X2199636Y3580648D01*
X2199737Y3580547D01*
X2200445Y3579637D01*
X2201153Y3578930D01*
X2201860Y3578525D01*
X2202366Y3578121D01*
X2202871Y3577919D01*
X2203174Y3577818D01*
X2203478D01*
X2204286Y3577919D01*
X2204893Y3578121D01*
X2205297Y3578323D01*
X2205398Y3578424D01*
X2205904Y3578930D01*
X2206308Y3579536D01*
X2206510Y3580042D01*
X2206612Y3580143D01*
Y3580244D01*
X2206915Y3581255D01*
X2207016Y3582165D01*
X2207117Y3582670D01*
Y3582974D01*
Y3583176D01*
Y3583277D01*
X2207218Y3584692D01*
X2207319Y3586107D01*
Y3586613D01*
Y3587118D01*
Y3587422D01*
Y3587523D01*
Y3631397D01*
X2220562D01*
Y3589646D01*
X2221371Y3587422D01*
X2222180Y3585501D01*
X2222887Y3583883D01*
X2223595Y3582670D01*
X2224100Y3581760D01*
X2224505Y3581053D01*
X2224707Y3580648D01*
X2224808Y3580547D01*
X2225516Y3579637D01*
X2226223Y3578930D01*
X2226830Y3578525D01*
X2227436Y3578121D01*
X2227942Y3577919D01*
X2228346Y3577818D01*
X2228650D01*
X2229559Y3577919D01*
X2230166Y3578121D01*
X2230570Y3578323D01*
X2230671Y3578424D01*
X2231177Y3578930D01*
X2231480Y3579536D01*
X2231682Y3580042D01*
X2231783Y3580143D01*
Y3580244D01*
X2232087Y3581255D01*
X2232188Y3582165D01*
X2232289Y3582670D01*
Y3582974D01*
Y3583176D01*
Y3583277D01*
X2232390Y3584692D01*
X2232491Y3586107D01*
Y3586613D01*
Y3587118D01*
Y3587422D01*
Y3587523D01*
Y3631397D01*
X2245835D01*
Y3585198D01*
D02*
G37*
G36*
X2174464D02*
Y3583479D01*
X2174363Y3581862D01*
X2174161Y3580244D01*
X2173959Y3578829D01*
X2173656Y3577515D01*
X2173352Y3576403D01*
X2173049Y3575291D01*
X2172746Y3574280D01*
X2172442Y3573471D01*
X2172139Y3572662D01*
X2171836Y3572056D01*
X2171533Y3571550D01*
X2171330Y3571146D01*
X2171128Y3570842D01*
X2171027Y3570741D01*
Y3570640D01*
X2170320Y3569730D01*
X2169612Y3569023D01*
X2168803Y3568315D01*
X2167994Y3567810D01*
X2166276Y3566900D01*
X2164658Y3566293D01*
X2163142Y3565990D01*
X2162434Y3565788D01*
X2161828D01*
X2161423Y3565687D01*
X2160716D01*
X2159098Y3565788D01*
X2158391Y3565889D01*
X2157683Y3565990D01*
X2157178Y3566091D01*
X2156773Y3566192D01*
X2156571Y3566293D01*
X2156470D01*
X2155156Y3566799D01*
X2154044Y3567506D01*
X2153639Y3567810D01*
X2153336Y3568012D01*
X2153134Y3568113D01*
X2153033Y3568214D01*
X2151820Y3569326D01*
X2150910Y3570337D01*
X2150505Y3570842D01*
X2150202Y3571247D01*
X2150000Y3571449D01*
X2149899Y3571550D01*
X2148888Y3573168D01*
X2147877Y3574684D01*
X2147574Y3575392D01*
X2147271Y3575897D01*
X2147068Y3576301D01*
X2146967Y3576403D01*
X2146765Y3574684D01*
X2146260Y3573067D01*
X2145754Y3571752D01*
X2145249Y3570640D01*
X2144642Y3569730D01*
X2144137Y3569124D01*
X2143833Y3568720D01*
X2143732Y3568618D01*
X2142519Y3567608D01*
X2141205Y3566900D01*
X2139891Y3566394D01*
X2138577Y3566091D01*
X2137364Y3565788D01*
X2136353Y3565687D01*
X2135443D01*
X2133926Y3565788D01*
X2133219Y3565889D01*
X2132612Y3565990D01*
X2132107Y3566091D01*
X2131702Y3566192D01*
X2131500Y3566293D01*
X2131399D01*
X2130085Y3566799D01*
X2128973Y3567506D01*
X2128569Y3567810D01*
X2128265Y3568012D01*
X2128063Y3568113D01*
X2127962Y3568214D01*
X2126850Y3569326D01*
X2125940Y3570337D01*
X2125536Y3570842D01*
X2125232Y3571247D01*
X2125131Y3571449D01*
X2125030Y3571550D01*
X2124019Y3573168D01*
X2123110Y3574684D01*
X2122705Y3575392D01*
X2122402Y3575897D01*
X2122301Y3576301D01*
X2122200Y3576403D01*
X2121998Y3567001D01*
X2110574D01*
Y3631397D01*
X2123918D01*
Y3589646D01*
X2124828Y3587422D01*
X2125637Y3585501D01*
X2126446Y3583883D01*
X2127052Y3582670D01*
X2127558Y3581760D01*
X2128063Y3581053D01*
X2128265Y3580648D01*
X2128366Y3580547D01*
X2129074Y3579637D01*
X2129782Y3578930D01*
X2130489Y3578525D01*
X2130995Y3578121D01*
X2131500Y3577919D01*
X2131803Y3577818D01*
X2132107D01*
X2132915Y3577919D01*
X2133522Y3578121D01*
X2133926Y3578323D01*
X2134027Y3578424D01*
X2134533Y3578930D01*
X2134937Y3579536D01*
X2135139Y3580042D01*
X2135241Y3580143D01*
Y3580244D01*
X2135544Y3581255D01*
X2135645Y3582165D01*
X2135746Y3582670D01*
Y3582974D01*
Y3583176D01*
Y3583277D01*
X2135847Y3584692D01*
X2135948Y3586107D01*
Y3586613D01*
Y3587118D01*
Y3587422D01*
Y3587523D01*
Y3631397D01*
X2149191D01*
Y3589646D01*
X2150000Y3587422D01*
X2150809Y3585501D01*
X2151516Y3583883D01*
X2152224Y3582670D01*
X2152730Y3581760D01*
X2153134Y3581053D01*
X2153336Y3580648D01*
X2153437Y3580547D01*
X2154145Y3579637D01*
X2154852Y3578930D01*
X2155459Y3578525D01*
X2156066Y3578121D01*
X2156571Y3577919D01*
X2156975Y3577818D01*
X2157279D01*
X2158188Y3577919D01*
X2158795Y3578121D01*
X2159199Y3578323D01*
X2159300Y3578424D01*
X2159806Y3578930D01*
X2160109Y3579536D01*
X2160311Y3580042D01*
X2160412Y3580143D01*
Y3580244D01*
X2160716Y3581255D01*
X2160817Y3582165D01*
X2160918Y3582670D01*
Y3582974D01*
Y3583176D01*
Y3583277D01*
X2161019Y3584692D01*
X2161120Y3586107D01*
Y3586613D01*
Y3587118D01*
Y3587422D01*
Y3587523D01*
Y3631397D01*
X2174464D01*
Y3585198D01*
D02*
G37*
G36*
X1957521Y3617648D02*
X1939324D01*
Y3548097D01*
X1926283D01*
X1900000Y3561946D01*
X1905054Y3574583D01*
X1923453Y3564474D01*
Y3617648D01*
X1902325D01*
Y3631397D01*
X1957521D01*
Y3617648D01*
D02*
G37*
G36*
X2001698Y3632711D02*
X2004326Y3632408D01*
X2006753Y3631902D01*
X2008774Y3631397D01*
X2009684Y3631093D01*
X2010493Y3630891D01*
X2011201Y3630588D01*
X2011706Y3630386D01*
X2012212Y3630285D01*
X2012515Y3630082D01*
X2012717Y3629981D01*
X2012818D01*
X2015042Y3628768D01*
X2017064Y3627454D01*
X2018783Y3626039D01*
X2020299Y3624623D01*
X2021613Y3623410D01*
X2022523Y3622399D01*
X2022826Y3621995D01*
X2023028Y3621692D01*
X2023231Y3621591D01*
Y3621490D01*
X2024747Y3619266D01*
X2026061Y3617042D01*
X2027173Y3614716D01*
X2028184Y3612593D01*
X2028892Y3610774D01*
X2029195Y3609965D01*
X2029397Y3609257D01*
X2029599Y3608752D01*
X2029701Y3608247D01*
X2029802Y3608044D01*
Y3607943D01*
X2030509Y3604809D01*
X2031116Y3601676D01*
X2031520Y3598643D01*
X2031722Y3595711D01*
X2031823Y3594498D01*
X2031925Y3593285D01*
Y3592274D01*
X2032026Y3591364D01*
Y3590657D01*
Y3590050D01*
Y3589747D01*
Y3589646D01*
X2031925Y3585602D01*
X2031823Y3583681D01*
X2031621Y3581862D01*
X2031419Y3580244D01*
X2031217Y3578627D01*
X2031015Y3577211D01*
X2030813Y3575796D01*
X2030610Y3574583D01*
X2030408Y3573572D01*
X2030206Y3572662D01*
X2030004Y3571853D01*
X2029802Y3571247D01*
X2029701Y3570842D01*
X2029599Y3570539D01*
Y3570438D01*
X2028690Y3567506D01*
X2027578Y3564979D01*
X2026567Y3562654D01*
X2025455Y3560733D01*
X2025050Y3559925D01*
X2024545Y3559217D01*
X2024140Y3558610D01*
X2023837Y3558105D01*
X2023534Y3557701D01*
X2023332Y3557397D01*
X2023130Y3557296D01*
Y3557195D01*
X2021512Y3555375D01*
X2019794Y3553859D01*
X2018176Y3552545D01*
X2016660Y3551433D01*
X2015244Y3550624D01*
X2014233Y3550119D01*
X2013829Y3549916D01*
X2013526Y3549714D01*
X2013324Y3549613D01*
X2013223D01*
X2010999Y3548804D01*
X2008774Y3548198D01*
X2006652Y3547794D01*
X2004731Y3547490D01*
X2003113Y3547288D01*
X2002406D01*
X2001799Y3547187D01*
X2000586D01*
X1997755Y3547288D01*
X1995127Y3547591D01*
X1992701Y3548097D01*
X1990679Y3548602D01*
X1989769Y3548906D01*
X1988960Y3549209D01*
X1988253Y3549411D01*
X1987646Y3549613D01*
X1987141Y3549815D01*
X1986838Y3550018D01*
X1986635Y3550119D01*
X1986534D01*
X1984310Y3551332D01*
X1982288Y3552646D01*
X1980570Y3554061D01*
X1979053Y3555477D01*
X1977840Y3556690D01*
X1976931Y3557701D01*
X1976526Y3558105D01*
X1976324Y3558408D01*
X1976223Y3558509D01*
X1976122Y3558610D01*
X1974605Y3560834D01*
X1973291Y3563058D01*
X1972179Y3565384D01*
X1971269Y3567506D01*
X1970562Y3569427D01*
X1970258Y3570236D01*
X1970056Y3570944D01*
X1969854Y3571449D01*
X1969753Y3571853D01*
X1969652Y3572157D01*
Y3572258D01*
X1968944Y3575291D01*
X1968338Y3578424D01*
X1967933Y3581558D01*
X1967731Y3584389D01*
X1967630Y3585602D01*
X1967529Y3586815D01*
Y3587826D01*
X1967428Y3588736D01*
Y3589443D01*
Y3589949D01*
Y3590353D01*
Y3590454D01*
X1967529Y3594498D01*
X1967630Y3596419D01*
X1967832Y3598238D01*
X1967933Y3599856D01*
X1968136Y3601473D01*
X1968338Y3602990D01*
X1968641Y3604304D01*
X1968843Y3605517D01*
X1969045Y3606629D01*
X1969248Y3607539D01*
X1969349Y3608348D01*
X1969551Y3608954D01*
X1969652Y3609359D01*
X1969753Y3609662D01*
Y3609763D01*
X1970663Y3612593D01*
X1971775Y3615222D01*
X1972786Y3617446D01*
X1973898Y3619367D01*
X1974808Y3620883D01*
X1975212Y3621490D01*
X1975515Y3621995D01*
X1975819Y3622399D01*
X1976021Y3622703D01*
X1976223Y3622804D01*
Y3622905D01*
X1977840Y3624725D01*
X1979559Y3626241D01*
X1981277Y3627555D01*
X1982794Y3628667D01*
X1984209Y3629476D01*
X1985220Y3629981D01*
X1985624Y3630183D01*
X1986029Y3630386D01*
X1986130Y3630487D01*
X1986231D01*
X1988455Y3631296D01*
X1990578Y3631801D01*
X1992701Y3632205D01*
X1994622Y3632509D01*
X1996340Y3632711D01*
X1997048D01*
X1997654Y3632812D01*
X1998766D01*
X2001698Y3632711D01*
D02*
G37*
G36*
X2219450Y3416704D02*
X2220461D01*
X2221371Y3416603D01*
X2222180D01*
X2222786Y3416502D01*
X2223292D01*
X2225617Y3416300D01*
X2226628Y3416199D01*
X2227538Y3416098D01*
X2228346Y3415996D01*
X2228953Y3415895D01*
X2229357Y3415794D01*
X2229458D01*
X2231682Y3415491D01*
X2232693Y3415289D01*
X2233603Y3415188D01*
X2234311Y3415087D01*
X2234917Y3414986D01*
X2235322Y3414884D01*
X2235423D01*
X2237546Y3414480D01*
X2238456Y3414278D01*
X2239264Y3414076D01*
X2239972Y3413874D01*
X2240477Y3413772D01*
X2240781Y3413671D01*
X2240882D01*
Y3401338D01*
X2238759Y3401945D01*
X2236636Y3402450D01*
X2234715Y3402855D01*
X2233098Y3403158D01*
X2231682Y3403461D01*
X2230570Y3403663D01*
X2230166D01*
X2229863Y3403764D01*
X2229661D01*
X2227740Y3403967D01*
X2225819Y3404169D01*
X2224100Y3404270D01*
X2222685Y3404371D01*
X2221371Y3404472D01*
X2219652D01*
X2218136Y3404371D01*
X2216721Y3404270D01*
X2215508Y3404068D01*
X2214396Y3403865D01*
X2213486Y3403663D01*
X2212778Y3403562D01*
X2212374Y3403360D01*
X2212172D01*
X2210958Y3402855D01*
X2209846Y3402349D01*
X2208836Y3401844D01*
X2208027Y3401338D01*
X2207319Y3400833D01*
X2206814Y3400428D01*
X2206510Y3400226D01*
X2206409Y3400125D01*
X2205601Y3399215D01*
X2204893Y3398305D01*
X2204286Y3397396D01*
X2203680Y3396587D01*
X2203276Y3395778D01*
X2202972Y3395172D01*
X2202871Y3394767D01*
X2202770Y3394666D01*
X2202366Y3393453D01*
X2202062Y3392139D01*
X2201860Y3390825D01*
X2201759Y3389611D01*
X2201658Y3388601D01*
X2201557Y3387792D01*
Y3387286D01*
Y3387084D01*
X2243914D01*
X2244016Y3385467D01*
X2244117Y3383950D01*
X2244218Y3383344D01*
Y3382838D01*
Y3382535D01*
Y3382434D01*
Y3381524D01*
X2244319Y3380715D01*
Y3380008D01*
Y3379401D01*
Y3378896D01*
Y3378592D01*
Y3378390D01*
Y3378289D01*
X2244218Y3375964D01*
X2244016Y3373841D01*
X2243712Y3371920D01*
X2243409Y3370202D01*
X2243005Y3368787D01*
X2242701Y3367674D01*
X2242600Y3367270D01*
X2242499Y3366967D01*
X2242398Y3366866D01*
Y3366765D01*
X2241690Y3364844D01*
X2240781Y3363125D01*
X2239871Y3361609D01*
X2239062Y3360194D01*
X2238253Y3359183D01*
X2237647Y3358374D01*
X2237242Y3357869D01*
X2237040Y3357666D01*
X2235625Y3356352D01*
X2234210Y3355139D01*
X2232693Y3354128D01*
X2231278Y3353218D01*
X2230065Y3352612D01*
X2229155Y3352106D01*
X2228751Y3351904D01*
X2228447Y3351803D01*
X2228346Y3351702D01*
X2228245D01*
X2226223Y3350994D01*
X2224100Y3350489D01*
X2222079Y3350084D01*
X2220259Y3349882D01*
X2218540Y3349680D01*
X2217833D01*
X2217226Y3349579D01*
X2216114D01*
X2213587Y3349680D01*
X2211262Y3349983D01*
X2209139Y3350388D01*
X2207319Y3350792D01*
X2205702Y3351298D01*
X2205095Y3351500D01*
X2204590Y3351702D01*
X2204185Y3351904D01*
X2203882Y3352005D01*
X2203680Y3352106D01*
X2203579D01*
X2201557Y3353117D01*
X2199737Y3354330D01*
X2198120Y3355442D01*
X2196705Y3356655D01*
X2195593Y3357666D01*
X2194784Y3358475D01*
X2194278Y3359082D01*
X2194076Y3359183D01*
Y3359284D01*
X2192661Y3361104D01*
X2191448Y3362923D01*
X2190437Y3364743D01*
X2189527Y3366461D01*
X2188920Y3367978D01*
X2188617Y3368685D01*
X2188415Y3369191D01*
X2188213Y3369696D01*
X2188112Y3370000D01*
X2188011Y3370202D01*
Y3370303D01*
X2187303Y3372729D01*
X2186798Y3375256D01*
X2186393Y3377582D01*
X2186191Y3379806D01*
X2186090Y3380816D01*
X2185989Y3381726D01*
Y3382535D01*
X2185888Y3383243D01*
Y3383748D01*
Y3384152D01*
Y3384456D01*
Y3384557D01*
X2185989Y3387387D01*
X2186191Y3390016D01*
X2186595Y3392442D01*
X2187000Y3394464D01*
X2187101Y3395374D01*
X2187303Y3396182D01*
X2187505Y3396890D01*
X2187707Y3397396D01*
X2187808Y3397901D01*
X2187910Y3398204D01*
X2188011Y3398406D01*
Y3398508D01*
X2188920Y3400630D01*
X2189830Y3402551D01*
X2190942Y3404371D01*
X2191852Y3405786D01*
X2192762Y3406999D01*
X2193470Y3407909D01*
X2193975Y3408415D01*
X2194177Y3408617D01*
X2195795Y3410032D01*
X2197412Y3411245D01*
X2199131Y3412357D01*
X2200647Y3413166D01*
X2202062Y3413874D01*
X2203073Y3414379D01*
X2203478Y3414581D01*
X2203781Y3414682D01*
X2203983Y3414783D01*
X2204084D01*
X2206308Y3415491D01*
X2208633Y3415996D01*
X2210857Y3416300D01*
X2212879Y3416502D01*
X2214699Y3416704D01*
X2215407D01*
X2216114Y3416805D01*
X2217327D01*
X2219450Y3416704D01*
D02*
G37*
G36*
X1959341Y3332596D02*
X1943772D01*
Y3365754D01*
X1915568D01*
Y3332596D01*
X1900000D01*
Y3415390D01*
X1915568D01*
Y3379300D01*
X1943772D01*
Y3415390D01*
X1959341D01*
Y3332596D01*
D02*
G37*
G36*
X2020703Y3374043D02*
X1981277D01*
Y3387792D01*
X2020703D01*
Y3374043D01*
D02*
G37*
G36*
X2172038Y3403360D02*
X2153538D01*
Y3350994D01*
X2119470D01*
Y3363024D01*
X2137667D01*
Y3403360D01*
X2117246D01*
Y3415390D01*
X2172038D01*
Y3403360D01*
D02*
G37*
G36*
X2064173Y3381524D02*
X2095410D01*
Y3368685D01*
X2064173D01*
Y3345738D01*
X2097230D01*
Y3332596D01*
X2048301D01*
Y3415390D01*
X2064173D01*
Y3381524D01*
D02*
G37*
G36*
X2353094Y3416704D02*
X2354206Y3416502D01*
X2355116Y3416401D01*
X2355823Y3416199D01*
X2356430Y3416098D01*
X2356834Y3415996D01*
X2356935D01*
X2358957Y3415390D01*
X2359867Y3414986D01*
X2360676Y3414682D01*
X2361282Y3414379D01*
X2361788Y3414076D01*
X2362091Y3413975D01*
X2362192Y3413874D01*
X2364012Y3412762D01*
X2364821Y3412155D01*
X2365427Y3411650D01*
X2366034Y3411144D01*
X2366438Y3410740D01*
X2366741Y3410538D01*
X2366842Y3410436D01*
X2368359Y3408819D01*
X2369673Y3407404D01*
X2370279Y3406797D01*
X2370684Y3406292D01*
X2370886Y3405988D01*
X2370987Y3405887D01*
X2371391Y3415390D01*
X2384837D01*
Y3325822D01*
X2369370D01*
Y3351095D01*
X2367853Y3350792D01*
X2366438Y3350489D01*
X2365831Y3350388D01*
X2365326D01*
X2365023Y3350287D01*
X2364922D01*
X2363203Y3350084D01*
X2362394Y3349983D01*
X2361687Y3349882D01*
X2360170D01*
X2357542Y3349983D01*
X2355116Y3350186D01*
X2352791Y3350590D01*
X2350870Y3350893D01*
X2349252Y3351298D01*
X2348545Y3351500D01*
X2348039Y3351702D01*
X2347534Y3351803D01*
X2347231Y3351904D01*
X2347028Y3352005D01*
X2346927D01*
X2344703Y3352814D01*
X2342681Y3353825D01*
X2340963Y3354937D01*
X2339446Y3355948D01*
X2338132Y3356858D01*
X2337222Y3357666D01*
X2336616Y3358172D01*
X2336515Y3358273D01*
X2336414Y3358374D01*
X2334796Y3360093D01*
X2333482Y3361811D01*
X2332269Y3363631D01*
X2331258Y3365349D01*
X2330449Y3366866D01*
X2329944Y3367978D01*
X2329742Y3368483D01*
X2329539Y3368787D01*
X2329438Y3368989D01*
Y3369090D01*
X2328630Y3371617D01*
X2328023Y3374245D01*
X2327619Y3376773D01*
X2327315Y3379199D01*
X2327214Y3380311D01*
X2327113Y3381322D01*
Y3382232D01*
X2327012Y3382939D01*
Y3383546D01*
Y3384051D01*
Y3384355D01*
Y3384456D01*
X2327113Y3387185D01*
X2327214Y3389713D01*
X2327518Y3391937D01*
X2327821Y3393958D01*
X2328023Y3395576D01*
X2328225Y3396284D01*
X2328326Y3396789D01*
X2328427Y3397294D01*
Y3397598D01*
X2328528Y3397800D01*
Y3397901D01*
X2329236Y3400024D01*
X2329944Y3402046D01*
X2330651Y3403764D01*
X2331460Y3405281D01*
X2332067Y3406494D01*
X2332572Y3407303D01*
X2332977Y3407909D01*
X2333078Y3408111D01*
X2334291Y3409527D01*
X2335504Y3410841D01*
X2336818Y3411953D01*
X2337930Y3412863D01*
X2339042Y3413671D01*
X2339851Y3414177D01*
X2340356Y3414480D01*
X2340558Y3414581D01*
X2342277Y3415289D01*
X2343996Y3415895D01*
X2345714Y3416300D01*
X2347332Y3416502D01*
X2348646Y3416704D01*
X2349758Y3416805D01*
X2351881D01*
X2353094Y3416704D01*
D02*
G37*
G36*
X2314780Y3403360D02*
X2296280D01*
Y3325822D01*
X2262212D01*
Y3337852D01*
X2280409D01*
Y3403360D01*
X2259988D01*
Y3415390D01*
X2314780D01*
Y3403360D01*
D02*
G37*
G36*
X2146260Y3343311D02*
X2147473Y3343008D01*
X2147978Y3342907D01*
X2148383Y3342806D01*
X2148585Y3342705D01*
X2148686D01*
X2150000Y3341997D01*
X2151011Y3341289D01*
X2151415Y3341087D01*
X2151719Y3340784D01*
X2151820Y3340683D01*
X2151921Y3340582D01*
X2152831Y3339470D01*
X2153437Y3338459D01*
X2153740Y3337953D01*
X2153943Y3337650D01*
X2154044Y3337448D01*
Y3337347D01*
X2154549Y3335932D01*
X2154751Y3334617D01*
X2154852Y3334112D01*
Y3333708D01*
Y3333505D01*
Y3333404D01*
X2154751Y3331888D01*
X2154448Y3330675D01*
X2154347Y3330169D01*
X2154145Y3329765D01*
X2154044Y3329563D01*
Y3329462D01*
X2153336Y3328148D01*
X2152730Y3327137D01*
X2152426Y3326732D01*
X2152123Y3326429D01*
X2152022Y3326328D01*
X2151921Y3326227D01*
X2150910Y3325317D01*
X2149798Y3324609D01*
X2149393Y3324306D01*
X2148989Y3324104D01*
X2148787Y3324003D01*
X2148686D01*
X2147271Y3323497D01*
X2146057Y3323295D01*
X2145552Y3323194D01*
X2144743D01*
X2143227Y3323295D01*
X2141913Y3323598D01*
X2141407Y3323699D01*
X2141003Y3323902D01*
X2140801Y3324003D01*
X2140700D01*
X2139385Y3324710D01*
X2138374Y3325418D01*
X2137970Y3325721D01*
X2137768Y3326025D01*
X2137566Y3326126D01*
X2137465Y3326227D01*
X2136555Y3327339D01*
X2135948Y3328350D01*
X2135645Y3328855D01*
X2135443Y3329158D01*
X2135342Y3329361D01*
Y3329462D01*
X2134937Y3330877D01*
X2134735Y3332090D01*
X2134634Y3332596D01*
Y3333000D01*
Y3333303D01*
Y3333404D01*
X2134735Y3334820D01*
X2135038Y3336134D01*
X2135139Y3336639D01*
X2135241Y3337044D01*
X2135342Y3337246D01*
Y3337347D01*
X2136049Y3338661D01*
X2136757Y3339672D01*
X2136959Y3340076D01*
X2137262Y3340279D01*
X2137364Y3340481D01*
X2137465Y3340582D01*
X2138577Y3341492D01*
X2139588Y3342098D01*
X2140093Y3342401D01*
X2140396Y3342604D01*
X2140598Y3342705D01*
X2140700D01*
X2142115Y3343109D01*
X2143429Y3343311D01*
X2143934Y3343412D01*
X2144743D01*
X2146260Y3343311D01*
D02*
G37*
G36*
X2002507Y1772257D02*
X2004731Y1772054D01*
X2006854Y1771751D01*
X2008572Y1771347D01*
X2010089Y1771043D01*
X2010695Y1770841D01*
X2011201Y1770740D01*
X2011706Y1770639D01*
X2012009Y1770538D01*
X2012111Y1770437D01*
X2012212D01*
X2014233Y1769628D01*
X2016154Y1768718D01*
X2017772Y1767809D01*
X2019187Y1766899D01*
X2020299Y1766090D01*
X2021108Y1765483D01*
X2021613Y1765079D01*
X2021815Y1764877D01*
X2023231Y1763462D01*
X2024545Y1761945D01*
X2025657Y1760530D01*
X2026567Y1759115D01*
X2027274Y1758003D01*
X2027780Y1756992D01*
X2028083Y1756385D01*
X2028184Y1756284D01*
Y1756183D01*
X2028993Y1754161D01*
X2029498Y1752240D01*
X2029903Y1750320D01*
X2030206Y1748500D01*
X2030408Y1746984D01*
Y1746377D01*
X2030509Y1745770D01*
Y1745366D01*
Y1745063D01*
Y1744861D01*
Y1744760D01*
X2030408Y1742637D01*
X2030206Y1740615D01*
X2030004Y1738795D01*
X2029701Y1737178D01*
X2029296Y1735965D01*
X2029094Y1734954D01*
X2028892Y1734347D01*
X2028791Y1734145D01*
X2028083Y1732426D01*
X2027274Y1730910D01*
X2026365Y1729495D01*
X2025556Y1728383D01*
X2024848Y1727473D01*
X2024242Y1726765D01*
X2023837Y1726260D01*
X2023635Y1726159D01*
X2022321Y1724945D01*
X2020906Y1723935D01*
X2019490Y1723126D01*
X2018176Y1722418D01*
X2017064Y1721812D01*
X2016053Y1721407D01*
X2015447Y1721205D01*
X2015345Y1721104D01*
X2015244D01*
X2013324Y1720497D01*
X2011302Y1720093D01*
X2009280Y1719689D01*
X2007460Y1719487D01*
X2005944Y1719385D01*
X2005236D01*
X2004630Y1719284D01*
X2001799D01*
X2000182Y1719487D01*
X1998665Y1719588D01*
X1997351Y1719790D01*
X1996239Y1719992D01*
X1995329Y1720194D01*
X1994824Y1720295D01*
X1994622Y1720396D01*
X1993105Y1720801D01*
X1991690Y1721205D01*
X1990376Y1721609D01*
X1989264Y1722014D01*
X1988354Y1722418D01*
X1987747Y1722620D01*
X1987242Y1722823D01*
X1987141Y1722924D01*
X1987242Y1721407D01*
X1987444Y1719689D01*
X1987747Y1718172D01*
X1988051Y1716656D01*
X1988354Y1715443D01*
X1988657Y1714432D01*
X1988960Y1713623D01*
X1989062Y1713219D01*
X1989163Y1713017D01*
X1989769Y1711702D01*
X1990477Y1710489D01*
X1991184Y1709377D01*
X1991892Y1708468D01*
X1992499Y1707760D01*
X1993004Y1707153D01*
X1993409Y1706850D01*
X1993510Y1706749D01*
X1994723Y1705839D01*
X1995936Y1705030D01*
X1997250Y1704323D01*
X1998362Y1703716D01*
X1999474Y1703312D01*
X2000283Y1703009D01*
X2000889Y1702806D01*
X2001092Y1702705D01*
X2002911Y1702200D01*
X2004832Y1701897D01*
X2006753Y1701593D01*
X2008572Y1701492D01*
X2010089Y1701391D01*
X2010796Y1701290D01*
X2023635D01*
Y1688148D01*
X2014132D01*
X2010897Y1688249D01*
X2007966Y1688350D01*
X2005337Y1688653D01*
X2004225Y1688755D01*
X2003113Y1688957D01*
X2002102Y1689058D01*
X2001294Y1689260D01*
X2000485Y1689361D01*
X1999878Y1689462D01*
X1999373Y1689563D01*
X1998969Y1689664D01*
X1998766Y1689765D01*
X1998665D01*
X1996239Y1690473D01*
X1994015Y1691181D01*
X1992094Y1691990D01*
X1990376Y1692697D01*
X1989062Y1693405D01*
X1988051Y1693910D01*
X1987646Y1694112D01*
X1987343Y1694315D01*
X1987242Y1694416D01*
X1987141D01*
X1985422Y1695528D01*
X1983805Y1696741D01*
X1982389Y1697954D01*
X1981277Y1699066D01*
X1980267Y1700077D01*
X1979559Y1700886D01*
X1979155Y1701391D01*
X1978952Y1701593D01*
X1977840Y1703211D01*
X1976829Y1704828D01*
X1975920Y1706446D01*
X1975212Y1707962D01*
X1974605Y1709175D01*
X1974201Y1710186D01*
X1973999Y1710590D01*
X1973898Y1710894D01*
X1973797Y1710995D01*
Y1711096D01*
X1973089Y1713017D01*
X1972584Y1715038D01*
X1972078Y1716959D01*
X1971674Y1718678D01*
X1971472Y1720194D01*
X1971269Y1720801D01*
Y1721407D01*
X1971168Y1721812D01*
X1971067Y1722115D01*
Y1722317D01*
Y1722418D01*
X1970764Y1724743D01*
X1970562Y1727068D01*
X1970461Y1729292D01*
X1970360Y1731213D01*
X1970258Y1732932D01*
Y1733639D01*
Y1734246D01*
Y1734751D01*
Y1735156D01*
Y1735358D01*
Y1735459D01*
X1970360Y1738896D01*
X1970562Y1742030D01*
X1970966Y1744962D01*
X1971472Y1747691D01*
X1971977Y1750218D01*
X1972685Y1752443D01*
X1973392Y1754565D01*
X1974100Y1756385D01*
X1974808Y1758003D01*
X1975414Y1759418D01*
X1976122Y1760530D01*
X1976627Y1761541D01*
X1977133Y1762248D01*
X1977537Y1762855D01*
X1977739Y1763158D01*
X1977840Y1763259D01*
X1979357Y1764877D01*
X1980974Y1766292D01*
X1982794Y1767505D01*
X1984512Y1768516D01*
X1986433Y1769426D01*
X1988253Y1770134D01*
X1990072Y1770740D01*
X1991892Y1771246D01*
X1993510Y1771549D01*
X1995026Y1771852D01*
X1996441Y1772054D01*
X1997654Y1772257D01*
X1998665D01*
X1999474Y1772358D01*
X2000081D01*
X2002507Y1772257D01*
D02*
G37*
G36*
X2245835Y1724743D02*
Y1723025D01*
X2245734Y1721407D01*
X2245532Y1719790D01*
X2245330Y1718375D01*
X2245026Y1717060D01*
X2244723Y1715948D01*
X2244420Y1714836D01*
X2244117Y1713825D01*
X2243813Y1713017D01*
X2243510Y1712208D01*
X2243207Y1711601D01*
X2242904Y1711096D01*
X2242701Y1710692D01*
X2242499Y1710388D01*
X2242398Y1710287D01*
Y1710186D01*
X2241690Y1709276D01*
X2240983Y1708569D01*
X2240174Y1707861D01*
X2239365Y1707355D01*
X2237647Y1706446D01*
X2236029Y1705839D01*
X2234513Y1705536D01*
X2233805Y1705334D01*
X2233199D01*
X2232794Y1705233D01*
X2232087D01*
X2230469Y1705334D01*
X2229762Y1705435D01*
X2229054Y1705536D01*
X2228549Y1705637D01*
X2228144Y1705738D01*
X2227942Y1705839D01*
X2227841D01*
X2226527Y1706345D01*
X2225415Y1707052D01*
X2225010Y1707355D01*
X2224707Y1707558D01*
X2224505Y1707659D01*
X2224404Y1707760D01*
X2223191Y1708872D01*
X2222281Y1709883D01*
X2221876Y1710388D01*
X2221573Y1710793D01*
X2221371Y1710995D01*
X2221270Y1711096D01*
X2220259Y1712713D01*
X2219248Y1714230D01*
X2218945Y1714937D01*
X2218641Y1715443D01*
X2218439Y1715847D01*
X2218338Y1715948D01*
X2218136Y1714230D01*
X2217631Y1712612D01*
X2217125Y1711298D01*
X2216620Y1710186D01*
X2216013Y1709276D01*
X2215508Y1708670D01*
X2215204Y1708265D01*
X2215103Y1708164D01*
X2213890Y1707153D01*
X2212576Y1706446D01*
X2211262Y1705940D01*
X2209948Y1705637D01*
X2208734Y1705334D01*
X2207724Y1705233D01*
X2206814D01*
X2205297Y1705334D01*
X2204590Y1705435D01*
X2203983Y1705536D01*
X2203478Y1705637D01*
X2203073Y1705738D01*
X2202871Y1705839D01*
X2202770D01*
X2201456Y1706345D01*
X2200344Y1707052D01*
X2199939Y1707355D01*
X2199636Y1707558D01*
X2199434Y1707659D01*
X2199333Y1707760D01*
X2198221Y1708872D01*
X2197311Y1709883D01*
X2196907Y1710388D01*
X2196603Y1710793D01*
X2196502Y1710995D01*
X2196401Y1711096D01*
X2195390Y1712713D01*
X2194480Y1714230D01*
X2194076Y1714937D01*
X2193773Y1715443D01*
X2193672Y1715847D01*
X2193571Y1715948D01*
X2193368Y1706547D01*
X2181945D01*
Y1770942D01*
X2195289D01*
Y1729191D01*
X2196199Y1726967D01*
X2197008Y1725047D01*
X2197817Y1723429D01*
X2198423Y1722216D01*
X2198929Y1721306D01*
X2199434Y1720599D01*
X2199636Y1720194D01*
X2199737Y1720093D01*
X2200445Y1719183D01*
X2201153Y1718476D01*
X2201860Y1718071D01*
X2202366Y1717667D01*
X2202871Y1717465D01*
X2203174Y1717364D01*
X2203478D01*
X2204286Y1717465D01*
X2204893Y1717667D01*
X2205297Y1717869D01*
X2205398Y1717970D01*
X2205904Y1718476D01*
X2206308Y1719082D01*
X2206510Y1719588D01*
X2206612Y1719689D01*
Y1719790D01*
X2206915Y1720801D01*
X2207016Y1721711D01*
X2207117Y1722216D01*
Y1722519D01*
Y1722721D01*
Y1722823D01*
X2207218Y1724238D01*
X2207319Y1725653D01*
Y1726159D01*
Y1726664D01*
Y1726967D01*
Y1727068D01*
Y1770942D01*
X2220562D01*
Y1729191D01*
X2221371Y1726967D01*
X2222180Y1725047D01*
X2222887Y1723429D01*
X2223595Y1722216D01*
X2224100Y1721306D01*
X2224505Y1720599D01*
X2224707Y1720194D01*
X2224808Y1720093D01*
X2225516Y1719183D01*
X2226223Y1718476D01*
X2226830Y1718071D01*
X2227436Y1717667D01*
X2227942Y1717465D01*
X2228346Y1717364D01*
X2228650D01*
X2229559Y1717465D01*
X2230166Y1717667D01*
X2230570Y1717869D01*
X2230671Y1717970D01*
X2231177Y1718476D01*
X2231480Y1719082D01*
X2231682Y1719588D01*
X2231783Y1719689D01*
Y1719790D01*
X2232087Y1720801D01*
X2232188Y1721711D01*
X2232289Y1722216D01*
Y1722519D01*
Y1722721D01*
Y1722823D01*
X2232390Y1724238D01*
X2232491Y1725653D01*
Y1726159D01*
Y1726664D01*
Y1726967D01*
Y1727068D01*
Y1770942D01*
X2245835D01*
Y1724743D01*
D02*
G37*
G36*
X2174464D02*
Y1723025D01*
X2174363Y1721407D01*
X2174161Y1719790D01*
X2173959Y1718375D01*
X2173656Y1717060D01*
X2173352Y1715948D01*
X2173049Y1714836D01*
X2172746Y1713825D01*
X2172442Y1713017D01*
X2172139Y1712208D01*
X2171836Y1711601D01*
X2171533Y1711096D01*
X2171330Y1710692D01*
X2171128Y1710388D01*
X2171027Y1710287D01*
Y1710186D01*
X2170320Y1709276D01*
X2169612Y1708569D01*
X2168803Y1707861D01*
X2167994Y1707355D01*
X2166276Y1706446D01*
X2164658Y1705839D01*
X2163142Y1705536D01*
X2162434Y1705334D01*
X2161828D01*
X2161423Y1705233D01*
X2160716D01*
X2159098Y1705334D01*
X2158391Y1705435D01*
X2157683Y1705536D01*
X2157178Y1705637D01*
X2156773Y1705738D01*
X2156571Y1705839D01*
X2156470D01*
X2155156Y1706345D01*
X2154044Y1707052D01*
X2153639Y1707355D01*
X2153336Y1707558D01*
X2153134Y1707659D01*
X2153033Y1707760D01*
X2151820Y1708872D01*
X2150910Y1709883D01*
X2150505Y1710388D01*
X2150202Y1710793D01*
X2150000Y1710995D01*
X2149899Y1711096D01*
X2148888Y1712713D01*
X2147877Y1714230D01*
X2147574Y1714937D01*
X2147271Y1715443D01*
X2147068Y1715847D01*
X2146967Y1715948D01*
X2146765Y1714230D01*
X2146260Y1712612D01*
X2145754Y1711298D01*
X2145249Y1710186D01*
X2144642Y1709276D01*
X2144137Y1708670D01*
X2143833Y1708265D01*
X2143732Y1708164D01*
X2142519Y1707153D01*
X2141205Y1706446D01*
X2139891Y1705940D01*
X2138577Y1705637D01*
X2137364Y1705334D01*
X2136353Y1705233D01*
X2135443D01*
X2133926Y1705334D01*
X2133219Y1705435D01*
X2132612Y1705536D01*
X2132107Y1705637D01*
X2131702Y1705738D01*
X2131500Y1705839D01*
X2131399D01*
X2130085Y1706345D01*
X2128973Y1707052D01*
X2128569Y1707355D01*
X2128265Y1707558D01*
X2128063Y1707659D01*
X2127962Y1707760D01*
X2126850Y1708872D01*
X2125940Y1709883D01*
X2125536Y1710388D01*
X2125232Y1710793D01*
X2125131Y1710995D01*
X2125030Y1711096D01*
X2124019Y1712713D01*
X2123110Y1714230D01*
X2122705Y1714937D01*
X2122402Y1715443D01*
X2122301Y1715847D01*
X2122200Y1715948D01*
X2121998Y1706547D01*
X2110574D01*
Y1770942D01*
X2123918D01*
Y1729191D01*
X2124828Y1726967D01*
X2125637Y1725047D01*
X2126446Y1723429D01*
X2127052Y1722216D01*
X2127558Y1721306D01*
X2128063Y1720599D01*
X2128265Y1720194D01*
X2128366Y1720093D01*
X2129074Y1719183D01*
X2129782Y1718476D01*
X2130489Y1718071D01*
X2130995Y1717667D01*
X2131500Y1717465D01*
X2131803Y1717364D01*
X2132107D01*
X2132915Y1717465D01*
X2133522Y1717667D01*
X2133926Y1717869D01*
X2134027Y1717970D01*
X2134533Y1718476D01*
X2134937Y1719082D01*
X2135139Y1719588D01*
X2135241Y1719689D01*
Y1719790D01*
X2135544Y1720801D01*
X2135645Y1721711D01*
X2135746Y1722216D01*
Y1722519D01*
Y1722721D01*
Y1722823D01*
X2135847Y1724238D01*
X2135948Y1725653D01*
Y1726159D01*
Y1726664D01*
Y1726967D01*
Y1727068D01*
Y1770942D01*
X2149191D01*
Y1729191D01*
X2150000Y1726967D01*
X2150809Y1725047D01*
X2151516Y1723429D01*
X2152224Y1722216D01*
X2152730Y1721306D01*
X2153134Y1720599D01*
X2153336Y1720194D01*
X2153437Y1720093D01*
X2154145Y1719183D01*
X2154852Y1718476D01*
X2155459Y1718071D01*
X2156066Y1717667D01*
X2156571Y1717465D01*
X2156975Y1717364D01*
X2157279D01*
X2158188Y1717465D01*
X2158795Y1717667D01*
X2159199Y1717869D01*
X2159300Y1717970D01*
X2159806Y1718476D01*
X2160109Y1719082D01*
X2160311Y1719588D01*
X2160412Y1719689D01*
Y1719790D01*
X2160716Y1720801D01*
X2160817Y1721711D01*
X2160918Y1722216D01*
Y1722519D01*
Y1722721D01*
Y1722823D01*
X2161019Y1724238D01*
X2161120Y1725653D01*
Y1726159D01*
Y1726664D01*
Y1726967D01*
Y1727068D01*
Y1770942D01*
X2174464D01*
Y1724743D01*
D02*
G37*
G36*
X1957521Y1757194D02*
X1939324D01*
Y1687643D01*
X1926283D01*
X1900000Y1701492D01*
X1905054Y1714129D01*
X1923453Y1704019D01*
Y1757194D01*
X1902325D01*
Y1770942D01*
X1957521D01*
Y1757194D01*
D02*
G37*
G36*
X2219450Y1566705D02*
X2220461D01*
X2221371Y1566603D01*
X2222180D01*
X2222786Y1566502D01*
X2223292D01*
X2225617Y1566300D01*
X2226628Y1566199D01*
X2227538Y1566098D01*
X2228346Y1565997D01*
X2228953Y1565896D01*
X2229357Y1565795D01*
X2229458D01*
X2231682Y1565491D01*
X2232693Y1565289D01*
X2233603Y1565188D01*
X2234311Y1565087D01*
X2234917Y1564986D01*
X2235322Y1564885D01*
X2235423D01*
X2237546Y1564480D01*
X2238456Y1564278D01*
X2239264Y1564076D01*
X2239972Y1563874D01*
X2240477Y1563773D01*
X2240781Y1563672D01*
X2240882D01*
Y1551339D01*
X2238759Y1551945D01*
X2236636Y1552451D01*
X2234715Y1552855D01*
X2233098Y1553158D01*
X2231682Y1553461D01*
X2230570Y1553664D01*
X2230166D01*
X2229863Y1553765D01*
X2229661D01*
X2227740Y1553967D01*
X2225819Y1554169D01*
X2224100Y1554270D01*
X2222685Y1554371D01*
X2221371Y1554472D01*
X2219652D01*
X2218136Y1554371D01*
X2216721Y1554270D01*
X2215508Y1554068D01*
X2214396Y1553866D01*
X2213486Y1553664D01*
X2212778Y1553563D01*
X2212374Y1553360D01*
X2212172D01*
X2210958Y1552855D01*
X2209846Y1552349D01*
X2208836Y1551844D01*
X2208027Y1551339D01*
X2207319Y1550833D01*
X2206814Y1550429D01*
X2206510Y1550227D01*
X2206409Y1550125D01*
X2205601Y1549216D01*
X2204893Y1548306D01*
X2204286Y1547396D01*
X2203680Y1546587D01*
X2203276Y1545778D01*
X2202972Y1545172D01*
X2202871Y1544768D01*
X2202770Y1544666D01*
X2202366Y1543453D01*
X2202062Y1542139D01*
X2201860Y1540825D01*
X2201759Y1539612D01*
X2201658Y1538601D01*
X2201557Y1537792D01*
Y1537287D01*
Y1537085D01*
X2243914D01*
X2244016Y1535467D01*
X2244117Y1533951D01*
X2244218Y1533344D01*
Y1532839D01*
Y1532535D01*
Y1532434D01*
Y1531524D01*
X2244319Y1530716D01*
Y1530008D01*
Y1529402D01*
Y1528896D01*
Y1528593D01*
Y1528391D01*
Y1528290D01*
X2244218Y1525964D01*
X2244016Y1523842D01*
X2243712Y1521921D01*
X2243409Y1520202D01*
X2243005Y1518787D01*
X2242701Y1517675D01*
X2242600Y1517271D01*
X2242499Y1516967D01*
X2242398Y1516866D01*
Y1516765D01*
X2241690Y1514844D01*
X2240781Y1513126D01*
X2239871Y1511609D01*
X2239062Y1510194D01*
X2238253Y1509183D01*
X2237647Y1508374D01*
X2237242Y1507869D01*
X2237040Y1507667D01*
X2235625Y1506353D01*
X2234210Y1505139D01*
X2232693Y1504129D01*
X2231278Y1503219D01*
X2230065Y1502612D01*
X2229155Y1502107D01*
X2228751Y1501905D01*
X2228447Y1501803D01*
X2228346Y1501702D01*
X2228245D01*
X2226223Y1500995D01*
X2224100Y1500489D01*
X2222079Y1500085D01*
X2220259Y1499883D01*
X2218540Y1499681D01*
X2217833D01*
X2217226Y1499579D01*
X2216114D01*
X2213587Y1499681D01*
X2211262Y1499984D01*
X2209139Y1500388D01*
X2207319Y1500793D01*
X2205702Y1501298D01*
X2205095Y1501500D01*
X2204590Y1501702D01*
X2204185Y1501905D01*
X2203882Y1502006D01*
X2203680Y1502107D01*
X2203579D01*
X2201557Y1503118D01*
X2199737Y1504331D01*
X2198120Y1505443D01*
X2196705Y1506656D01*
X2195593Y1507667D01*
X2194784Y1508476D01*
X2194278Y1509082D01*
X2194076Y1509183D01*
Y1509284D01*
X2192661Y1511104D01*
X2191448Y1512924D01*
X2190437Y1514743D01*
X2189527Y1516462D01*
X2188920Y1517978D01*
X2188617Y1518686D01*
X2188415Y1519191D01*
X2188213Y1519697D01*
X2188112Y1520000D01*
X2188011Y1520202D01*
Y1520303D01*
X2187303Y1522729D01*
X2186798Y1525257D01*
X2186393Y1527582D01*
X2186191Y1529806D01*
X2186090Y1530817D01*
X2185989Y1531727D01*
Y1532535D01*
X2185888Y1533243D01*
Y1533749D01*
Y1534153D01*
Y1534456D01*
Y1534557D01*
X2185989Y1537388D01*
X2186191Y1540016D01*
X2186595Y1542442D01*
X2187000Y1544464D01*
X2187101Y1545374D01*
X2187303Y1546183D01*
X2187505Y1546890D01*
X2187707Y1547396D01*
X2187808Y1547901D01*
X2187910Y1548205D01*
X2188011Y1548407D01*
Y1548508D01*
X2188920Y1550631D01*
X2189830Y1552552D01*
X2190942Y1554371D01*
X2191852Y1555787D01*
X2192762Y1557000D01*
X2193470Y1557910D01*
X2193975Y1558415D01*
X2194177Y1558617D01*
X2195795Y1560032D01*
X2197412Y1561246D01*
X2199131Y1562358D01*
X2200647Y1563166D01*
X2202062Y1563874D01*
X2203073Y1564379D01*
X2203478Y1564582D01*
X2203781Y1564683D01*
X2203983Y1564784D01*
X2204084D01*
X2206308Y1565491D01*
X2208633Y1565997D01*
X2210857Y1566300D01*
X2212879Y1566502D01*
X2214699Y1566705D01*
X2215407D01*
X2216114Y1566806D01*
X2217327D01*
X2219450Y1566705D01*
D02*
G37*
G36*
X1959341Y1482596D02*
X1943772D01*
Y1515754D01*
X1915568D01*
Y1482596D01*
X1900000D01*
Y1565390D01*
X1915568D01*
Y1529300D01*
X1943772D01*
Y1565390D01*
X1959341D01*
Y1482596D01*
D02*
G37*
G36*
X2020703Y1524044D02*
X1981277D01*
Y1537792D01*
X2020703D01*
Y1524044D01*
D02*
G37*
G36*
X2172038Y1553360D02*
X2153538D01*
Y1500995D01*
X2119470D01*
Y1513025D01*
X2137667D01*
Y1553360D01*
X2117246D01*
Y1565390D01*
X2172038D01*
Y1553360D01*
D02*
G37*
G36*
X2064173Y1531524D02*
X2095410D01*
Y1518686D01*
X2064173D01*
Y1495738D01*
X2097230D01*
Y1482596D01*
X2048301D01*
Y1565390D01*
X2064173D01*
Y1531524D01*
D02*
G37*
G36*
X2353094Y1566705D02*
X2354206Y1566502D01*
X2355116Y1566401D01*
X2355823Y1566199D01*
X2356430Y1566098D01*
X2356834Y1565997D01*
X2356935D01*
X2358957Y1565390D01*
X2359867Y1564986D01*
X2360676Y1564683D01*
X2361282Y1564379D01*
X2361788Y1564076D01*
X2362091Y1563975D01*
X2362192Y1563874D01*
X2364012Y1562762D01*
X2364821Y1562155D01*
X2365427Y1561650D01*
X2366034Y1561144D01*
X2366438Y1560740D01*
X2366741Y1560538D01*
X2366842Y1560437D01*
X2368359Y1558819D01*
X2369673Y1557404D01*
X2370279Y1556797D01*
X2370684Y1556292D01*
X2370886Y1555989D01*
X2370987Y1555888D01*
X2371391Y1565390D01*
X2384837D01*
Y1475823D01*
X2369370D01*
Y1501096D01*
X2367853Y1500793D01*
X2366438Y1500489D01*
X2365831Y1500388D01*
X2365326D01*
X2365023Y1500287D01*
X2364922D01*
X2363203Y1500085D01*
X2362394Y1499984D01*
X2361687Y1499883D01*
X2360170D01*
X2357542Y1499984D01*
X2355116Y1500186D01*
X2352791Y1500590D01*
X2350870Y1500894D01*
X2349252Y1501298D01*
X2348545Y1501500D01*
X2348039Y1501702D01*
X2347534Y1501803D01*
X2347231Y1501905D01*
X2347028Y1502006D01*
X2346927D01*
X2344703Y1502814D01*
X2342681Y1503825D01*
X2340963Y1504937D01*
X2339446Y1505948D01*
X2338132Y1506858D01*
X2337222Y1507667D01*
X2336616Y1508172D01*
X2336515Y1508273D01*
X2336414Y1508374D01*
X2334796Y1510093D01*
X2333482Y1511812D01*
X2332269Y1513631D01*
X2331258Y1515350D01*
X2330449Y1516866D01*
X2329944Y1517978D01*
X2329742Y1518484D01*
X2329539Y1518787D01*
X2329438Y1518989D01*
Y1519090D01*
X2328630Y1521617D01*
X2328023Y1524246D01*
X2327619Y1526773D01*
X2327315Y1529199D01*
X2327214Y1530311D01*
X2327113Y1531322D01*
Y1532232D01*
X2327012Y1532940D01*
Y1533546D01*
Y1534052D01*
Y1534355D01*
Y1534456D01*
X2327113Y1537186D01*
X2327214Y1539713D01*
X2327518Y1541937D01*
X2327821Y1543959D01*
X2328023Y1545576D01*
X2328225Y1546284D01*
X2328326Y1546789D01*
X2328427Y1547295D01*
Y1547598D01*
X2328528Y1547800D01*
Y1547901D01*
X2329236Y1550024D01*
X2329944Y1552046D01*
X2330651Y1553765D01*
X2331460Y1555281D01*
X2332067Y1556494D01*
X2332572Y1557303D01*
X2332977Y1557910D01*
X2333078Y1558112D01*
X2334291Y1559527D01*
X2335504Y1560841D01*
X2336818Y1561953D01*
X2337930Y1562863D01*
X2339042Y1563672D01*
X2339851Y1564177D01*
X2340356Y1564480D01*
X2340558Y1564582D01*
X2342277Y1565289D01*
X2343996Y1565896D01*
X2345714Y1566300D01*
X2347332Y1566502D01*
X2348646Y1566705D01*
X2349758Y1566806D01*
X2351881D01*
X2353094Y1566705D01*
D02*
G37*
G36*
X2314780Y1553360D02*
X2296280D01*
Y1475823D01*
X2262212D01*
Y1487853D01*
X2280409D01*
Y1553360D01*
X2259988D01*
Y1565390D01*
X2314780D01*
Y1553360D01*
D02*
G37*
G36*
X2146260Y1493312D02*
X2147473Y1493008D01*
X2147978Y1492907D01*
X2148383Y1492806D01*
X2148585Y1492705D01*
X2148686D01*
X2150000Y1491998D01*
X2151011Y1491290D01*
X2151415Y1491088D01*
X2151719Y1490784D01*
X2151820Y1490683D01*
X2151921Y1490582D01*
X2152831Y1489470D01*
X2153437Y1488459D01*
X2153740Y1487954D01*
X2153943Y1487651D01*
X2154044Y1487448D01*
Y1487347D01*
X2154549Y1485932D01*
X2154751Y1484618D01*
X2154852Y1484112D01*
Y1483708D01*
Y1483506D01*
Y1483405D01*
X2154751Y1481888D01*
X2154448Y1480675D01*
X2154347Y1480170D01*
X2154145Y1479765D01*
X2154044Y1479563D01*
Y1479462D01*
X2153336Y1478148D01*
X2152730Y1477137D01*
X2152426Y1476733D01*
X2152123Y1476429D01*
X2152022Y1476328D01*
X2151921Y1476227D01*
X2150910Y1475317D01*
X2149798Y1474610D01*
X2149393Y1474306D01*
X2148989Y1474104D01*
X2148787Y1474003D01*
X2148686D01*
X2147271Y1473498D01*
X2146057Y1473296D01*
X2145552Y1473194D01*
X2144743D01*
X2143227Y1473296D01*
X2141913Y1473599D01*
X2141407Y1473700D01*
X2141003Y1473902D01*
X2140801Y1474003D01*
X2140700D01*
X2139385Y1474711D01*
X2138374Y1475418D01*
X2137970Y1475722D01*
X2137768Y1476025D01*
X2137566Y1476126D01*
X2137465Y1476227D01*
X2136555Y1477339D01*
X2135948Y1478350D01*
X2135645Y1478856D01*
X2135443Y1479159D01*
X2135342Y1479361D01*
Y1479462D01*
X2134937Y1480877D01*
X2134735Y1482091D01*
X2134634Y1482596D01*
Y1483000D01*
Y1483304D01*
Y1483405D01*
X2134735Y1484820D01*
X2135038Y1486134D01*
X2135139Y1486640D01*
X2135241Y1487044D01*
X2135342Y1487246D01*
Y1487347D01*
X2136049Y1488661D01*
X2136757Y1489672D01*
X2136959Y1490077D01*
X2137262Y1490279D01*
X2137364Y1490481D01*
X2137465Y1490582D01*
X2138577Y1491492D01*
X2139588Y1492099D01*
X2140093Y1492402D01*
X2140396Y1492604D01*
X2140598Y1492705D01*
X2140700D01*
X2142115Y1493110D01*
X2143429Y1493312D01*
X2143934Y1493413D01*
X2144743D01*
X2146260Y1493312D01*
D02*
G37*
G36*
X2213890Y6056704D02*
X2214901D01*
X2215811Y6056603D01*
X2216620D01*
X2217226Y6056502D01*
X2217732D01*
X2220057Y6056300D01*
X2221068Y6056198D01*
X2221978Y6056097D01*
X2222786Y6055996D01*
X2223393Y6055895D01*
X2223797Y6055794D01*
X2223898D01*
X2226122Y6055491D01*
X2227133Y6055289D01*
X2228043Y6055188D01*
X2228751Y6055086D01*
X2229357Y6054985D01*
X2229762Y6054884D01*
X2229863D01*
X2231986Y6054480D01*
X2232895Y6054278D01*
X2233704Y6054076D01*
X2234412Y6053873D01*
X2234917Y6053772D01*
X2235221Y6053671D01*
X2235322D01*
Y6041338D01*
X2233199Y6041944D01*
X2231076Y6042450D01*
X2229155Y6042854D01*
X2227538Y6043158D01*
X2226122Y6043461D01*
X2225010Y6043663D01*
X2224606D01*
X2224303Y6043764D01*
X2224100D01*
X2222180Y6043966D01*
X2220259Y6044169D01*
X2218540Y6044270D01*
X2217125Y6044371D01*
X2215811Y6044472D01*
X2214092D01*
X2212576Y6044371D01*
X2211161Y6044270D01*
X2209948Y6044067D01*
X2208836Y6043865D01*
X2207926Y6043663D01*
X2207218Y6043562D01*
X2206814Y6043360D01*
X2206612D01*
X2205398Y6042854D01*
X2204286Y6042349D01*
X2203276Y6041843D01*
X2202467Y6041338D01*
X2201759Y6040832D01*
X2201254Y6040428D01*
X2200950Y6040226D01*
X2200849Y6040125D01*
X2200041Y6039215D01*
X2199333Y6038305D01*
X2198726Y6037395D01*
X2198120Y6036587D01*
X2197715Y6035778D01*
X2197412Y6035171D01*
X2197311Y6034767D01*
X2197210Y6034666D01*
X2196806Y6033453D01*
X2196502Y6032139D01*
X2196300Y6030824D01*
X2196199Y6029611D01*
X2196098Y6028600D01*
X2195997Y6027792D01*
Y6027286D01*
Y6027084D01*
X2238354D01*
X2238456Y6025466D01*
X2238557Y6023950D01*
X2238658Y6023344D01*
Y6022838D01*
Y6022535D01*
Y6022434D01*
Y6021524D01*
X2238759Y6020715D01*
Y6020008D01*
Y6019401D01*
Y6018896D01*
Y6018592D01*
Y6018390D01*
Y6018289D01*
X2238658Y6015964D01*
X2238456Y6013841D01*
X2238152Y6011920D01*
X2237849Y6010202D01*
X2237445Y6008786D01*
X2237141Y6007674D01*
X2237040Y6007270D01*
X2236939Y6006967D01*
X2236838Y6006866D01*
Y6006764D01*
X2236130Y6004844D01*
X2235221Y6003125D01*
X2234311Y6001609D01*
X2233502Y6000193D01*
X2232693Y5999183D01*
X2232087Y5998374D01*
X2231682Y5997868D01*
X2231480Y5997666D01*
X2230065Y5996352D01*
X2228650Y5995139D01*
X2227133Y5994128D01*
X2225718Y5993218D01*
X2224505Y5992612D01*
X2223595Y5992106D01*
X2223191Y5991904D01*
X2222887Y5991803D01*
X2222786Y5991702D01*
X2222685D01*
X2220663Y5990994D01*
X2218540Y5990489D01*
X2216519Y5990084D01*
X2214699Y5989882D01*
X2212980Y5989680D01*
X2212273D01*
X2211666Y5989579D01*
X2210554D01*
X2208027Y5989680D01*
X2205702Y5989983D01*
X2203579Y5990388D01*
X2201759Y5990792D01*
X2200142Y5991297D01*
X2199535Y5991500D01*
X2199030Y5991702D01*
X2198625Y5991904D01*
X2198322Y5992005D01*
X2198120Y5992106D01*
X2198019D01*
X2195997Y5993117D01*
X2194177Y5994330D01*
X2192560Y5995442D01*
X2191144Y5996655D01*
X2190032Y5997666D01*
X2189224Y5998475D01*
X2188718Y5999081D01*
X2188516Y5999183D01*
Y5999284D01*
X2187101Y6001103D01*
X2185888Y6002923D01*
X2184877Y6004743D01*
X2183967Y6006461D01*
X2183360Y6007978D01*
X2183057Y6008685D01*
X2182855Y6009191D01*
X2182653Y6009696D01*
X2182552Y6009999D01*
X2182451Y6010202D01*
Y6010303D01*
X2181743Y6012729D01*
X2181237Y6015256D01*
X2180833Y6017581D01*
X2180631Y6019805D01*
X2180530Y6020816D01*
X2180429Y6021726D01*
Y6022535D01*
X2180328Y6023242D01*
Y6023748D01*
Y6024152D01*
Y6024456D01*
Y6024557D01*
X2180429Y6027387D01*
X2180631Y6030016D01*
X2181035Y6032442D01*
X2181440Y6034464D01*
X2181541Y6035374D01*
X2181743Y6036182D01*
X2181945Y6036890D01*
X2182147Y6037395D01*
X2182248Y6037901D01*
X2182349Y6038204D01*
X2182451Y6038406D01*
Y6038507D01*
X2183360Y6040630D01*
X2184270Y6042551D01*
X2185382Y6044371D01*
X2186292Y6045786D01*
X2187202Y6046999D01*
X2187910Y6047909D01*
X2188415Y6048414D01*
X2188617Y6048617D01*
X2190235Y6050032D01*
X2191852Y6051245D01*
X2193571Y6052357D01*
X2195087Y6053166D01*
X2196502Y6053873D01*
X2197513Y6054379D01*
X2197918Y6054581D01*
X2198221Y6054682D01*
X2198423Y6054783D01*
X2198524D01*
X2200748Y6055491D01*
X2203073Y6055996D01*
X2205297Y6056300D01*
X2207319Y6056502D01*
X2209139Y6056704D01*
X2209846D01*
X2210554Y6056805D01*
X2211767D01*
X2213890Y6056704D01*
D02*
G37*
G36*
X2015143Y6014043D02*
X1975717D01*
Y6027792D01*
X2015143D01*
Y6014043D01*
D02*
G37*
G36*
X2166478Y6043360D02*
X2147978D01*
Y5990994D01*
X2113910D01*
Y6003024D01*
X2132107D01*
Y6043360D01*
X2111686D01*
Y6055390D01*
X2166478D01*
Y6043360D01*
D02*
G37*
G36*
X2058613Y6021524D02*
X2089850D01*
Y6008685D01*
X2058613D01*
Y5985737D01*
X2091670D01*
Y5972595D01*
X2042741D01*
Y6055390D01*
X2058613D01*
Y6021524D01*
D02*
G37*
G36*
X1949838Y6042248D02*
X1915871D01*
Y6019199D01*
X1948220D01*
Y6006360D01*
X1915871D01*
Y5985737D01*
X1949838D01*
Y5972595D01*
X1900000D01*
Y6055390D01*
X1949838D01*
Y6042248D01*
D02*
G37*
G36*
X2347534Y6056704D02*
X2348646Y6056502D01*
X2349556Y6056401D01*
X2350263Y6056198D01*
X2350870Y6056097D01*
X2351274Y6055996D01*
X2351375D01*
X2353397Y6055390D01*
X2354307Y6054985D01*
X2355116Y6054682D01*
X2355722Y6054379D01*
X2356228Y6054076D01*
X2356531Y6053974D01*
X2356632Y6053873D01*
X2358452Y6052761D01*
X2359260Y6052155D01*
X2359867Y6051649D01*
X2360474Y6051144D01*
X2360878Y6050739D01*
X2361181Y6050537D01*
X2361282Y6050436D01*
X2362799Y6048819D01*
X2364113Y6047403D01*
X2364719Y6046797D01*
X2365124Y6046291D01*
X2365326Y6045988D01*
X2365427Y6045887D01*
X2365831Y6055390D01*
X2379277D01*
Y5965822D01*
X2363810D01*
Y5991095D01*
X2362293Y5990792D01*
X2360878Y5990489D01*
X2360271Y5990388D01*
X2359766D01*
X2359463Y5990286D01*
X2359362D01*
X2357643Y5990084D01*
X2356834Y5989983D01*
X2356127Y5989882D01*
X2354610D01*
X2351982Y5989983D01*
X2349556Y5990185D01*
X2347231Y5990590D01*
X2345310Y5990893D01*
X2343692Y5991297D01*
X2342985Y5991500D01*
X2342479Y5991702D01*
X2341974Y5991803D01*
X2341670Y5991904D01*
X2341468Y5992005D01*
X2341367D01*
X2339143Y5992814D01*
X2337121Y5993825D01*
X2335403Y5994937D01*
X2333886Y5995948D01*
X2332572Y5996857D01*
X2331662Y5997666D01*
X2331056Y5998172D01*
X2330955Y5998273D01*
X2330854Y5998374D01*
X2329236Y6000092D01*
X2327922Y6001811D01*
X2326709Y6003631D01*
X2325698Y6005349D01*
X2324889Y6006866D01*
X2324384Y6007978D01*
X2324182Y6008483D01*
X2323979Y6008786D01*
X2323878Y6008988D01*
Y6009090D01*
X2323070Y6011617D01*
X2322463Y6014245D01*
X2322059Y6016773D01*
X2321755Y6019199D01*
X2321654Y6020311D01*
X2321553Y6021322D01*
Y6022232D01*
X2321452Y6022939D01*
Y6023546D01*
Y6024051D01*
Y6024354D01*
Y6024456D01*
X2321553Y6027185D01*
X2321654Y6029712D01*
X2321958Y6031936D01*
X2322261Y6033958D01*
X2322463Y6035576D01*
X2322665Y6036283D01*
X2322766Y6036789D01*
X2322867Y6037294D01*
Y6037598D01*
X2322968Y6037800D01*
Y6037901D01*
X2323676Y6040024D01*
X2324384Y6042046D01*
X2325091Y6043764D01*
X2325900Y6045281D01*
X2326507Y6046494D01*
X2327012Y6047302D01*
X2327416Y6047909D01*
X2327518Y6048111D01*
X2328731Y6049526D01*
X2329944Y6050841D01*
X2331258Y6051953D01*
X2332370Y6052862D01*
X2333482Y6053671D01*
X2334291Y6054177D01*
X2334796Y6054480D01*
X2334998Y6054581D01*
X2336717Y6055289D01*
X2338436Y6055895D01*
X2340154Y6056300D01*
X2341772Y6056502D01*
X2343086Y6056704D01*
X2344198Y6056805D01*
X2346321D01*
X2347534Y6056704D01*
D02*
G37*
G36*
X2309220Y6043360D02*
X2290720D01*
Y5965822D01*
X2256652D01*
Y5977852D01*
X2274849D01*
Y6043360D01*
X2254428D01*
Y6055390D01*
X2309220D01*
Y6043360D01*
D02*
G37*
G36*
X2140700Y5983311D02*
X2141913Y5983008D01*
X2142418Y5982907D01*
X2142822Y5982806D01*
X2143025Y5982705D01*
X2143126D01*
X2144440Y5981997D01*
X2145451Y5981289D01*
X2145855Y5981087D01*
X2146159Y5980784D01*
X2146260Y5980683D01*
X2146361Y5980582D01*
X2147271Y5979470D01*
X2147877Y5978459D01*
X2148180Y5977953D01*
X2148383Y5977650D01*
X2148484Y5977448D01*
Y5977347D01*
X2148989Y5975931D01*
X2149191Y5974617D01*
X2149292Y5974112D01*
Y5973707D01*
Y5973505D01*
Y5973404D01*
X2149191Y5971888D01*
X2148888Y5970675D01*
X2148787Y5970169D01*
X2148585Y5969765D01*
X2148484Y5969563D01*
Y5969462D01*
X2147776Y5968147D01*
X2147169Y5967136D01*
X2146866Y5966732D01*
X2146563Y5966429D01*
X2146462Y5966328D01*
X2146361Y5966227D01*
X2145350Y5965317D01*
X2144238Y5964609D01*
X2143833Y5964306D01*
X2143429Y5964104D01*
X2143227Y5964003D01*
X2143126D01*
X2141710Y5963497D01*
X2140497Y5963295D01*
X2139992Y5963194D01*
X2139183D01*
X2137667Y5963295D01*
X2136353Y5963598D01*
X2135847Y5963699D01*
X2135443Y5963901D01*
X2135241Y5964003D01*
X2135139D01*
X2133825Y5964710D01*
X2132814Y5965418D01*
X2132410Y5965721D01*
X2132208Y5966024D01*
X2132006Y5966125D01*
X2131905Y5966227D01*
X2130995Y5967339D01*
X2130388Y5968350D01*
X2130085Y5968855D01*
X2129883Y5969158D01*
X2129782Y5969360D01*
Y5969462D01*
X2129377Y5970877D01*
X2129175Y5972090D01*
X2129074Y5972595D01*
Y5973000D01*
Y5973303D01*
Y5973404D01*
X2129175Y5974819D01*
X2129478Y5976134D01*
X2129579Y5976639D01*
X2129681Y5977043D01*
X2129782Y5977246D01*
Y5977347D01*
X2130489Y5978661D01*
X2131197Y5979672D01*
X2131399Y5980076D01*
X2131702Y5980278D01*
X2131803Y5980481D01*
X2131905Y5980582D01*
X2133017Y5981491D01*
X2134027Y5982098D01*
X2134533Y5982401D01*
X2134836Y5982603D01*
X2135038Y5982705D01*
X2135139D01*
X2136555Y5983109D01*
X2137869Y5983311D01*
X2138374Y5983412D01*
X2139183D01*
X2140700Y5983311D01*
D02*
G37*
G36*
X2245835Y6225450D02*
Y6223732D01*
X2245734Y6222114D01*
X2245532Y6220497D01*
X2245330Y6219082D01*
X2245026Y6217767D01*
X2244723Y6216655D01*
X2244420Y6215543D01*
X2244117Y6214532D01*
X2243813Y6213724D01*
X2243510Y6212915D01*
X2243207Y6212308D01*
X2242904Y6211803D01*
X2242701Y6211399D01*
X2242499Y6211095D01*
X2242398Y6210994D01*
Y6210893D01*
X2241690Y6209983D01*
X2240983Y6209276D01*
X2240174Y6208568D01*
X2239365Y6208063D01*
X2237647Y6207153D01*
X2236029Y6206546D01*
X2234513Y6206243D01*
X2233805Y6206041D01*
X2233199D01*
X2232794Y6205940D01*
X2232087D01*
X2230469Y6206041D01*
X2229762Y6206142D01*
X2229054Y6206243D01*
X2228549Y6206344D01*
X2228144Y6206445D01*
X2227942Y6206546D01*
X2227841D01*
X2226527Y6207052D01*
X2225415Y6207759D01*
X2225010Y6208063D01*
X2224707Y6208265D01*
X2224505Y6208366D01*
X2224404Y6208467D01*
X2223191Y6209579D01*
X2222281Y6210590D01*
X2221876Y6211095D01*
X2221573Y6211500D01*
X2221371Y6211702D01*
X2221270Y6211803D01*
X2220259Y6213420D01*
X2219248Y6214937D01*
X2218945Y6215644D01*
X2218641Y6216150D01*
X2218439Y6216554D01*
X2218338Y6216655D01*
X2218136Y6214937D01*
X2217631Y6213319D01*
X2217125Y6212005D01*
X2216620Y6210893D01*
X2216013Y6209983D01*
X2215508Y6209377D01*
X2215204Y6208972D01*
X2215103Y6208871D01*
X2213890Y6207860D01*
X2212576Y6207153D01*
X2211262Y6206647D01*
X2209948Y6206344D01*
X2208734Y6206041D01*
X2207724Y6205940D01*
X2206814D01*
X2205297Y6206041D01*
X2204590Y6206142D01*
X2203983Y6206243D01*
X2203478Y6206344D01*
X2203073Y6206445D01*
X2202871Y6206546D01*
X2202770D01*
X2201456Y6207052D01*
X2200344Y6207759D01*
X2199939Y6208063D01*
X2199636Y6208265D01*
X2199434Y6208366D01*
X2199333Y6208467D01*
X2198221Y6209579D01*
X2197311Y6210590D01*
X2196907Y6211095D01*
X2196603Y6211500D01*
X2196502Y6211702D01*
X2196401Y6211803D01*
X2195390Y6213420D01*
X2194480Y6214937D01*
X2194076Y6215644D01*
X2193773Y6216150D01*
X2193672Y6216554D01*
X2193571Y6216655D01*
X2193368Y6207254D01*
X2181945D01*
Y6271649D01*
X2195289D01*
Y6229898D01*
X2196199Y6227674D01*
X2197008Y6225754D01*
X2197817Y6224136D01*
X2198423Y6222923D01*
X2198929Y6222013D01*
X2199434Y6221306D01*
X2199636Y6220901D01*
X2199737Y6220800D01*
X2200445Y6219890D01*
X2201153Y6219183D01*
X2201860Y6218778D01*
X2202366Y6218374D01*
X2202871Y6218172D01*
X2203174Y6218071D01*
X2203478D01*
X2204286Y6218172D01*
X2204893Y6218374D01*
X2205297Y6218576D01*
X2205398Y6218677D01*
X2205904Y6219183D01*
X2206308Y6219789D01*
X2206510Y6220295D01*
X2206612Y6220396D01*
Y6220497D01*
X2206915Y6221508D01*
X2207016Y6222418D01*
X2207117Y6222923D01*
Y6223226D01*
Y6223428D01*
Y6223530D01*
X2207218Y6224945D01*
X2207319Y6226360D01*
Y6226866D01*
Y6227371D01*
Y6227674D01*
Y6227775D01*
Y6271649D01*
X2220562D01*
Y6229898D01*
X2221371Y6227674D01*
X2222180Y6225754D01*
X2222887Y6224136D01*
X2223595Y6222923D01*
X2224100Y6222013D01*
X2224505Y6221306D01*
X2224707Y6220901D01*
X2224808Y6220800D01*
X2225516Y6219890D01*
X2226223Y6219183D01*
X2226830Y6218778D01*
X2227436Y6218374D01*
X2227942Y6218172D01*
X2228346Y6218071D01*
X2228650D01*
X2229559Y6218172D01*
X2230166Y6218374D01*
X2230570Y6218576D01*
X2230671Y6218677D01*
X2231177Y6219183D01*
X2231480Y6219789D01*
X2231682Y6220295D01*
X2231783Y6220396D01*
Y6220497D01*
X2232087Y6221508D01*
X2232188Y6222418D01*
X2232289Y6222923D01*
Y6223226D01*
Y6223428D01*
Y6223530D01*
X2232390Y6224945D01*
X2232491Y6226360D01*
Y6226866D01*
Y6227371D01*
Y6227674D01*
Y6227775D01*
Y6271649D01*
X2245835D01*
Y6225450D01*
D02*
G37*
G36*
X2174464D02*
Y6223732D01*
X2174363Y6222114D01*
X2174161Y6220497D01*
X2173959Y6219082D01*
X2173656Y6217767D01*
X2173352Y6216655D01*
X2173049Y6215543D01*
X2172746Y6214532D01*
X2172442Y6213724D01*
X2172139Y6212915D01*
X2171836Y6212308D01*
X2171533Y6211803D01*
X2171330Y6211399D01*
X2171128Y6211095D01*
X2171027Y6210994D01*
Y6210893D01*
X2170320Y6209983D01*
X2169612Y6209276D01*
X2168803Y6208568D01*
X2167994Y6208063D01*
X2166276Y6207153D01*
X2164658Y6206546D01*
X2163142Y6206243D01*
X2162434Y6206041D01*
X2161828D01*
X2161423Y6205940D01*
X2160716D01*
X2159098Y6206041D01*
X2158391Y6206142D01*
X2157683Y6206243D01*
X2157178Y6206344D01*
X2156773Y6206445D01*
X2156571Y6206546D01*
X2156470D01*
X2155156Y6207052D01*
X2154044Y6207759D01*
X2153639Y6208063D01*
X2153336Y6208265D01*
X2153134Y6208366D01*
X2153033Y6208467D01*
X2151820Y6209579D01*
X2150910Y6210590D01*
X2150505Y6211095D01*
X2150202Y6211500D01*
X2150000Y6211702D01*
X2149899Y6211803D01*
X2148888Y6213420D01*
X2147877Y6214937D01*
X2147574Y6215644D01*
X2147271Y6216150D01*
X2147068Y6216554D01*
X2146967Y6216655D01*
X2146765Y6214937D01*
X2146260Y6213319D01*
X2145754Y6212005D01*
X2145249Y6210893D01*
X2144642Y6209983D01*
X2144137Y6209377D01*
X2143833Y6208972D01*
X2143732Y6208871D01*
X2142519Y6207860D01*
X2141205Y6207153D01*
X2139891Y6206647D01*
X2138577Y6206344D01*
X2137364Y6206041D01*
X2136353Y6205940D01*
X2135443D01*
X2133926Y6206041D01*
X2133219Y6206142D01*
X2132612Y6206243D01*
X2132107Y6206344D01*
X2131702Y6206445D01*
X2131500Y6206546D01*
X2131399D01*
X2130085Y6207052D01*
X2128973Y6207759D01*
X2128569Y6208063D01*
X2128265Y6208265D01*
X2128063Y6208366D01*
X2127962Y6208467D01*
X2126850Y6209579D01*
X2125940Y6210590D01*
X2125536Y6211095D01*
X2125232Y6211500D01*
X2125131Y6211702D01*
X2125030Y6211803D01*
X2124019Y6213420D01*
X2123110Y6214937D01*
X2122705Y6215644D01*
X2122402Y6216150D01*
X2122301Y6216554D01*
X2122200Y6216655D01*
X2121998Y6207254D01*
X2110574D01*
Y6271649D01*
X2123918D01*
Y6229898D01*
X2124828Y6227674D01*
X2125637Y6225754D01*
X2126446Y6224136D01*
X2127052Y6222923D01*
X2127558Y6222013D01*
X2128063Y6221306D01*
X2128265Y6220901D01*
X2128366Y6220800D01*
X2129074Y6219890D01*
X2129782Y6219183D01*
X2130489Y6218778D01*
X2130995Y6218374D01*
X2131500Y6218172D01*
X2131803Y6218071D01*
X2132107D01*
X2132915Y6218172D01*
X2133522Y6218374D01*
X2133926Y6218576D01*
X2134027Y6218677D01*
X2134533Y6219183D01*
X2134937Y6219789D01*
X2135139Y6220295D01*
X2135241Y6220396D01*
Y6220497D01*
X2135544Y6221508D01*
X2135645Y6222418D01*
X2135746Y6222923D01*
Y6223226D01*
Y6223428D01*
Y6223530D01*
X2135847Y6224945D01*
X2135948Y6226360D01*
Y6226866D01*
Y6227371D01*
Y6227674D01*
Y6227775D01*
Y6271649D01*
X2149191D01*
Y6229898D01*
X2150000Y6227674D01*
X2150809Y6225754D01*
X2151516Y6224136D01*
X2152224Y6222923D01*
X2152730Y6222013D01*
X2153134Y6221306D01*
X2153336Y6220901D01*
X2153437Y6220800D01*
X2154145Y6219890D01*
X2154852Y6219183D01*
X2155459Y6218778D01*
X2156066Y6218374D01*
X2156571Y6218172D01*
X2156975Y6218071D01*
X2157279D01*
X2158188Y6218172D01*
X2158795Y6218374D01*
X2159199Y6218576D01*
X2159300Y6218677D01*
X2159806Y6219183D01*
X2160109Y6219789D01*
X2160311Y6220295D01*
X2160412Y6220396D01*
Y6220497D01*
X2160716Y6221508D01*
X2160817Y6222418D01*
X2160918Y6222923D01*
Y6223226D01*
Y6223428D01*
Y6223530D01*
X2161019Y6224945D01*
X2161120Y6226360D01*
Y6226866D01*
Y6227371D01*
Y6227674D01*
Y6227775D01*
Y6271649D01*
X2174464D01*
Y6225450D01*
D02*
G37*
G36*
X2028892Y6257901D02*
X2010695D01*
Y6188350D01*
X1997654D01*
X1971370Y6202199D01*
X1976425Y6214836D01*
X1994824Y6204726D01*
Y6257901D01*
X1973696D01*
Y6271649D01*
X2028892D01*
Y6257901D01*
D02*
G37*
G36*
X1957521D02*
X1939324D01*
Y6188350D01*
X1926283D01*
X1900000Y6202199D01*
X1905054Y6214836D01*
X1923453Y6204726D01*
Y6257901D01*
X1902325D01*
Y6271649D01*
X1957521D01*
Y6257901D01*
D02*
G37*
G36*
X2225111Y8916705D02*
X2226426Y8916603D01*
X2227639Y8916502D01*
X2228751Y8916401D01*
X2229559Y8916300D01*
X2230065Y8916199D01*
X2230267D01*
X2233401Y8915694D01*
X2234816Y8915491D01*
X2236130Y8915188D01*
X2237242Y8914986D01*
X2238051Y8914784D01*
X2238557Y8914683D01*
X2238759D01*
Y8902349D01*
X2236434Y8902956D01*
X2235322Y8903259D01*
X2234311Y8903461D01*
X2233401Y8903664D01*
X2232693Y8903765D01*
X2232289Y8903866D01*
X2232087D01*
X2229458Y8904169D01*
X2228245Y8904371D01*
X2227032D01*
X2226122Y8904472D01*
X2224707D01*
X2222685Y8904371D01*
X2220967Y8904068D01*
X2219450Y8903563D01*
X2218338Y8903057D01*
X2217428Y8902653D01*
X2216822Y8902147D01*
X2216417Y8901844D01*
X2216316Y8901743D01*
X2215508Y8900530D01*
X2214901Y8899216D01*
X2214396Y8897800D01*
X2214092Y8896486D01*
X2213890Y8895273D01*
X2213789Y8894262D01*
Y8893858D01*
Y8893554D01*
Y8893453D01*
Y8893352D01*
Y8863025D01*
X2238759D01*
Y8850995D01*
X2213789D01*
Y8830372D01*
X2197918Y8834517D01*
Y8850995D01*
X2180631D01*
Y8863025D01*
X2197918D01*
Y8894464D01*
X2198019Y8896587D01*
X2198120Y8898508D01*
X2198322Y8900227D01*
X2198625Y8901743D01*
X2198929Y8902956D01*
X2199131Y8903765D01*
X2199232Y8904371D01*
X2199333Y8904574D01*
X2199939Y8906090D01*
X2200647Y8907404D01*
X2201355Y8908617D01*
X2202062Y8909527D01*
X2202669Y8910336D01*
X2203174Y8910942D01*
X2203579Y8911347D01*
X2203680Y8911448D01*
X2204893Y8912358D01*
X2206106Y8913267D01*
X2207420Y8913874D01*
X2208633Y8914481D01*
X2209644Y8914885D01*
X2210554Y8915289D01*
X2211060Y8915390D01*
X2211262Y8915491D01*
X2213081Y8915896D01*
X2214901Y8916199D01*
X2216822Y8916502D01*
X2218540Y8916603D01*
X2220057Y8916705D01*
X2220663Y8916806D01*
X2222281D01*
X2225111Y8916705D01*
D02*
G37*
G36*
X2168197Y8872224D02*
X2168095Y8870303D01*
X2167994Y8868585D01*
X2167792Y8866967D01*
X2167590Y8865653D01*
X2167287Y8864541D01*
X2167085Y8863631D01*
X2166983Y8863126D01*
X2166882Y8862924D01*
X2166377Y8861407D01*
X2165770Y8860093D01*
X2165164Y8858880D01*
X2164557Y8857869D01*
X2164052Y8856959D01*
X2163546Y8856353D01*
X2163243Y8855948D01*
X2163142Y8855847D01*
X2162232Y8854735D01*
X2161120Y8853825D01*
X2160109Y8853017D01*
X2159199Y8852410D01*
X2158290Y8851905D01*
X2157582Y8851500D01*
X2157178Y8851298D01*
X2156975Y8851197D01*
X2155560Y8850691D01*
X2154145Y8850287D01*
X2152628Y8849984D01*
X2151314Y8849782D01*
X2150101Y8849681D01*
X2149191Y8849579D01*
X2147068D01*
X2145855Y8849681D01*
X2144844Y8849782D01*
X2143833Y8849984D01*
X2143126Y8850085D01*
X2142519Y8850287D01*
X2142115Y8850388D01*
X2142014D01*
X2139992Y8851096D01*
X2139082Y8851399D01*
X2138273Y8851803D01*
X2137566Y8852107D01*
X2137060Y8852410D01*
X2136757Y8852511D01*
X2136656Y8852612D01*
X2134937Y8853724D01*
X2134129Y8854331D01*
X2133522Y8854836D01*
X2132915Y8855342D01*
X2132511Y8855746D01*
X2132208Y8855948D01*
X2132107Y8856049D01*
X2130590Y8857566D01*
X2129276Y8859082D01*
X2128771Y8859689D01*
X2128366Y8860194D01*
X2128164Y8860497D01*
X2128063Y8860598D01*
X2127659Y8850995D01*
X2114315D01*
Y8915390D01*
X2129782D01*
Y8874650D01*
X2131197Y8872730D01*
X2132612Y8871011D01*
X2133926Y8869495D01*
X2135038Y8868281D01*
X2135948Y8867372D01*
X2136656Y8866664D01*
X2137060Y8866159D01*
X2137262Y8866057D01*
X2138678Y8864945D01*
X2139992Y8864137D01*
X2141306Y8863631D01*
X2142418Y8863227D01*
X2143429Y8863025D01*
X2144137Y8862823D01*
X2144844D01*
X2146260Y8862924D01*
X2147473Y8863227D01*
X2148484Y8863833D01*
X2149393Y8864440D01*
X2150202Y8865249D01*
X2150809Y8866159D01*
X2151314Y8867169D01*
X2151719Y8868079D01*
X2152325Y8870101D01*
X2152527Y8871011D01*
X2152628Y8871820D01*
X2152730Y8872426D01*
Y8872932D01*
Y8873336D01*
Y8873437D01*
Y8915390D01*
X2168197D01*
Y8872224D01*
D02*
G37*
G36*
X2098140Y8903360D02*
X2079640D01*
Y8850995D01*
X2045572D01*
Y8863025D01*
X2063769D01*
Y8903360D01*
X2043348D01*
Y8915390D01*
X2098140D01*
Y8903360D01*
D02*
G37*
G36*
X2000485Y8916705D02*
X2003012Y8916401D01*
X2005236Y8915997D01*
X2007258Y8915593D01*
X2008876Y8915188D01*
X2009482Y8914986D01*
X2010089Y8914784D01*
X2010493Y8914582D01*
X2010796Y8914481D01*
X2010999Y8914379D01*
X2011100D01*
X2013223Y8913369D01*
X2015143Y8912256D01*
X2016862Y8911144D01*
X2018378Y8910032D01*
X2019490Y8909022D01*
X2020400Y8908213D01*
X2020906Y8907707D01*
X2021108Y8907505D01*
X2022523Y8905686D01*
X2023736Y8903866D01*
X2024848Y8902046D01*
X2025758Y8900429D01*
X2026365Y8898912D01*
X2026870Y8897699D01*
X2027072Y8897295D01*
X2027173Y8896992D01*
X2027274Y8896789D01*
Y8896688D01*
X2027982Y8894262D01*
X2028589Y8891836D01*
X2028993Y8889511D01*
X2029195Y8887287D01*
X2029397Y8885467D01*
Y8884658D01*
X2029498Y8884052D01*
Y8883445D01*
Y8883041D01*
Y8882839D01*
Y8882738D01*
X2029397Y8879806D01*
X2029195Y8877076D01*
X2028791Y8874549D01*
X2028487Y8872527D01*
X2028285Y8871618D01*
X2028083Y8870809D01*
X2027881Y8870101D01*
X2027679Y8869495D01*
X2027578Y8868989D01*
X2027477Y8868686D01*
X2027375Y8868484D01*
Y8868383D01*
X2026567Y8866159D01*
X2025556Y8864137D01*
X2024646Y8862418D01*
X2023635Y8860902D01*
X2022725Y8859689D01*
X2022018Y8858779D01*
X2021613Y8858273D01*
X2021411Y8858071D01*
X2019895Y8856555D01*
X2018277Y8855241D01*
X2016660Y8854230D01*
X2015143Y8853320D01*
X2013829Y8852612D01*
X2012717Y8852107D01*
X2012313Y8851905D01*
X2012111Y8851803D01*
X2011908Y8851702D01*
X2011807D01*
X2009684Y8850995D01*
X2007460Y8850489D01*
X2005337Y8850085D01*
X2003316Y8849883D01*
X2001597Y8849681D01*
X2000788D01*
X2000182Y8849579D01*
X1998969D01*
X1996239Y8849681D01*
X1993813Y8849984D01*
X1991589Y8850388D01*
X1989567Y8850793D01*
X1987950Y8851298D01*
X1987343Y8851500D01*
X1986736Y8851702D01*
X1986332Y8851905D01*
X1986029Y8852006D01*
X1985827Y8852107D01*
X1985726D01*
X1983603Y8853118D01*
X1981682Y8854230D01*
X1979963Y8855342D01*
X1978548Y8856454D01*
X1977335Y8857465D01*
X1976425Y8858273D01*
X1975920Y8858779D01*
X1975819Y8858880D01*
X1975717Y8858981D01*
X1974302Y8860700D01*
X1972988Y8862519D01*
X1971977Y8864339D01*
X1971067Y8865956D01*
X1970360Y8867473D01*
X1969854Y8868686D01*
X1969652Y8869090D01*
X1969551Y8869393D01*
X1969450Y8869596D01*
Y8869697D01*
X1968742Y8872123D01*
X1968237Y8874549D01*
X1967832Y8876874D01*
X1967630Y8878997D01*
X1967428Y8880817D01*
Y8881626D01*
X1967327Y8882232D01*
Y8882839D01*
Y8883243D01*
Y8883445D01*
Y8883546D01*
X1967428Y8886579D01*
X1967630Y8889410D01*
X1967933Y8891836D01*
X1968338Y8894060D01*
X1968540Y8894970D01*
X1968742Y8895779D01*
X1968843Y8896486D01*
X1969045Y8897093D01*
X1969146Y8897598D01*
X1969248Y8897901D01*
X1969349Y8898104D01*
Y8898205D01*
X1970258Y8900429D01*
X1971168Y8902451D01*
X1972179Y8904169D01*
X1973089Y8905686D01*
X1973999Y8906899D01*
X1974706Y8907808D01*
X1975111Y8908314D01*
X1975313Y8908516D01*
X1976829Y8909931D01*
X1978447Y8911246D01*
X1980064Y8912358D01*
X1981581Y8913166D01*
X1982895Y8913874D01*
X1984007Y8914379D01*
X1984411Y8914582D01*
X1984715Y8914683D01*
X1984816Y8914784D01*
X1984917D01*
X1987141Y8915491D01*
X1989365Y8915997D01*
X1991488Y8916300D01*
X1993510Y8916502D01*
X1995228Y8916705D01*
X1995936D01*
X1996542Y8916806D01*
X1997755D01*
X2000485Y8916705D01*
D02*
G37*
G36*
X1915669Y8888803D02*
X1923554D01*
X1926587Y8888702D01*
X1929417Y8888500D01*
X1931945Y8888096D01*
X1934068Y8887691D01*
X1934977Y8887590D01*
X1935887Y8887388D01*
X1936595Y8887186D01*
X1937201Y8886983D01*
X1937707Y8886882D01*
X1938010Y8886781D01*
X1938212Y8886680D01*
X1938313D01*
X1940638Y8885770D01*
X1942660Y8884759D01*
X1944480Y8883749D01*
X1945996Y8882738D01*
X1947209Y8881828D01*
X1948119Y8881120D01*
X1948726Y8880716D01*
X1948928Y8880514D01*
X1950444Y8878896D01*
X1951759Y8877279D01*
X1952770Y8875762D01*
X1953679Y8874246D01*
X1954387Y8872932D01*
X1954892Y8871921D01*
X1955095Y8871516D01*
X1955196Y8871213D01*
X1955297Y8871112D01*
Y8871011D01*
X1956004Y8868888D01*
X1956611Y8866765D01*
X1957015Y8864743D01*
X1957218Y8862924D01*
X1957420Y8861306D01*
Y8860598D01*
X1957521Y8860093D01*
Y8859588D01*
Y8859284D01*
Y8859082D01*
Y8858981D01*
X1957420Y8856656D01*
X1957218Y8854533D01*
X1956813Y8852713D01*
X1956409Y8850995D01*
X1956004Y8849681D01*
X1955600Y8848670D01*
X1955499Y8848265D01*
X1955398Y8847962D01*
X1955297Y8847861D01*
Y8847760D01*
X1954387Y8845940D01*
X1953376Y8844323D01*
X1952264Y8842907D01*
X1951253Y8841795D01*
X1950242Y8840784D01*
X1949535Y8840077D01*
X1949029Y8839571D01*
X1948827Y8839470D01*
X1947209Y8838257D01*
X1945491Y8837246D01*
X1943671Y8836437D01*
X1942054Y8835730D01*
X1940638Y8835123D01*
X1939425Y8834719D01*
X1939021Y8834618D01*
X1938718Y8834517D01*
X1938516Y8834416D01*
X1938414D01*
X1936089Y8833809D01*
X1933562Y8833405D01*
X1931237Y8833000D01*
X1929013Y8832798D01*
X1927092Y8832697D01*
X1926283D01*
X1925576Y8832596D01*
X1900000D01*
Y8915390D01*
X1915669D01*
Y8888803D01*
D02*
G37*
G36*
X2072361Y8843312D02*
X2073574Y8843008D01*
X2074080Y8842907D01*
X2074484Y8842806D01*
X2074686Y8842705D01*
X2074788D01*
X2076102Y8841998D01*
X2077113Y8841290D01*
X2077517Y8841088D01*
X2077820Y8840784D01*
X2077921Y8840683D01*
X2078023Y8840582D01*
X2078932Y8839470D01*
X2079539Y8838459D01*
X2079842Y8837954D01*
X2080044Y8837651D01*
X2080145Y8837448D01*
Y8837347D01*
X2080651Y8835932D01*
X2080853Y8834618D01*
X2080954Y8834112D01*
Y8833708D01*
Y8833506D01*
Y8833405D01*
X2080853Y8831888D01*
X2080550Y8830675D01*
X2080449Y8830170D01*
X2080247Y8829765D01*
X2080145Y8829563D01*
Y8829462D01*
X2079438Y8828148D01*
X2078831Y8827137D01*
X2078528Y8826733D01*
X2078225Y8826429D01*
X2078124Y8826328D01*
X2078023Y8826227D01*
X2077012Y8825317D01*
X2075900Y8824610D01*
X2075495Y8824306D01*
X2075091Y8824104D01*
X2074889Y8824003D01*
X2074788D01*
X2073372Y8823498D01*
X2072159Y8823296D01*
X2071654Y8823194D01*
X2070845D01*
X2069329Y8823296D01*
X2068014Y8823599D01*
X2067509Y8823700D01*
X2067105Y8823902D01*
X2066902Y8824003D01*
X2066801D01*
X2065487Y8824711D01*
X2064476Y8825418D01*
X2064072Y8825722D01*
X2063870Y8826025D01*
X2063667Y8826126D01*
X2063566Y8826227D01*
X2062657Y8827339D01*
X2062050Y8828350D01*
X2061747Y8828856D01*
X2061545Y8829159D01*
X2061443Y8829361D01*
Y8829462D01*
X2061039Y8830877D01*
X2060837Y8832091D01*
X2060736Y8832596D01*
Y8833000D01*
Y8833304D01*
Y8833405D01*
X2060837Y8834820D01*
X2061140Y8836134D01*
X2061241Y8836640D01*
X2061342Y8837044D01*
X2061443Y8837246D01*
Y8837347D01*
X2062151Y8838662D01*
X2062859Y8839672D01*
X2063061Y8840077D01*
X2063364Y8840279D01*
X2063465Y8840481D01*
X2063566Y8840582D01*
X2064678Y8841492D01*
X2065689Y8842099D01*
X2066195Y8842402D01*
X2066498Y8842604D01*
X2066700Y8842705D01*
X2066801D01*
X2068217Y8843110D01*
X2069531Y8843312D01*
X2070036Y8843413D01*
X2070845D01*
X2072361Y8843312D01*
D02*
G37*
G36*
X1932248Y7592004D02*
X1934472Y7591801D01*
X1936595Y7591498D01*
X1938313Y7591094D01*
X1939830Y7590791D01*
X1940436Y7590588D01*
X1940942Y7590487D01*
X1941447Y7590386D01*
X1941750Y7590285D01*
X1941852Y7590184D01*
X1941953D01*
X1943975Y7589375D01*
X1945895Y7588465D01*
X1947513Y7587556D01*
X1948928Y7586646D01*
X1950040Y7585837D01*
X1950849Y7585230D01*
X1951354Y7584826D01*
X1951556Y7584624D01*
X1952972Y7583209D01*
X1954286Y7581692D01*
X1955398Y7580277D01*
X1956308Y7578862D01*
X1957015Y7577750D01*
X1957521Y7576739D01*
X1957824Y7576132D01*
X1957925Y7576031D01*
Y7575930D01*
X1958734Y7573908D01*
X1959239Y7571987D01*
X1959644Y7570067D01*
X1959947Y7568247D01*
X1960149Y7566731D01*
Y7566124D01*
X1960250Y7565518D01*
Y7565113D01*
Y7564810D01*
Y7564608D01*
Y7564507D01*
X1960149Y7562384D01*
X1959947Y7560362D01*
X1959745Y7558542D01*
X1959442Y7556925D01*
X1959037Y7555712D01*
X1958835Y7554701D01*
X1958633Y7554094D01*
X1958532Y7553892D01*
X1957824Y7552173D01*
X1957015Y7550657D01*
X1956106Y7549242D01*
X1955297Y7548130D01*
X1954589Y7547220D01*
X1953983Y7546512D01*
X1953578Y7546007D01*
X1953376Y7545906D01*
X1952062Y7544693D01*
X1950647Y7543682D01*
X1949231Y7542873D01*
X1947917Y7542165D01*
X1946805Y7541559D01*
X1945794Y7541154D01*
X1945188Y7540952D01*
X1945087Y7540851D01*
X1944985D01*
X1943065Y7540245D01*
X1941043Y7539840D01*
X1939021Y7539436D01*
X1937201Y7539234D01*
X1935685Y7539132D01*
X1934977D01*
X1934371Y7539031D01*
X1931540D01*
X1929923Y7539234D01*
X1928406Y7539335D01*
X1927092Y7539537D01*
X1925980Y7539739D01*
X1925070Y7539941D01*
X1924565Y7540042D01*
X1924363Y7540143D01*
X1922846Y7540548D01*
X1921431Y7540952D01*
X1920117Y7541357D01*
X1919005Y7541761D01*
X1918095Y7542165D01*
X1917488Y7542367D01*
X1916983Y7542570D01*
X1916882Y7542671D01*
X1916983Y7541154D01*
X1917185Y7539436D01*
X1917488Y7537919D01*
X1917792Y7536403D01*
X1918095Y7535190D01*
X1918398Y7534179D01*
X1918702Y7533370D01*
X1918803Y7532966D01*
X1918904Y7532764D01*
X1919510Y7531450D01*
X1920218Y7530236D01*
X1920926Y7529124D01*
X1921633Y7528215D01*
X1922240Y7527507D01*
X1922745Y7526900D01*
X1923150Y7526597D01*
X1923251Y7526496D01*
X1924464Y7525586D01*
X1925677Y7524777D01*
X1926991Y7524070D01*
X1928103Y7523463D01*
X1929215Y7523059D01*
X1930024Y7522756D01*
X1930630Y7522553D01*
X1930833Y7522452D01*
X1932652Y7521947D01*
X1934573Y7521644D01*
X1936494Y7521340D01*
X1938313Y7521239D01*
X1939830Y7521138D01*
X1940537Y7521037D01*
X1953376D01*
Y7507895D01*
X1943873D01*
X1940638Y7507996D01*
X1937707Y7508097D01*
X1935078Y7508401D01*
X1933966Y7508502D01*
X1932854Y7508704D01*
X1931843Y7508805D01*
X1931035Y7509007D01*
X1930226Y7509108D01*
X1929619Y7509209D01*
X1929114Y7509310D01*
X1928710Y7509411D01*
X1928507Y7509513D01*
X1928406D01*
X1925980Y7510220D01*
X1923756Y7510928D01*
X1921835Y7511737D01*
X1920117Y7512444D01*
X1918803Y7513152D01*
X1917792Y7513657D01*
X1917387Y7513859D01*
X1917084Y7514062D01*
X1916983Y7514163D01*
X1916882D01*
X1915163Y7515275D01*
X1913546Y7516488D01*
X1912131Y7517701D01*
X1911019Y7518813D01*
X1910008Y7519824D01*
X1909300Y7520633D01*
X1908896Y7521138D01*
X1908693Y7521340D01*
X1907581Y7522958D01*
X1906570Y7524575D01*
X1905661Y7526193D01*
X1904953Y7527709D01*
X1904346Y7528922D01*
X1903942Y7529933D01*
X1903740Y7530337D01*
X1903639Y7530641D01*
X1903538Y7530742D01*
Y7530843D01*
X1902830Y7532764D01*
X1902325Y7534786D01*
X1901819Y7536706D01*
X1901415Y7538425D01*
X1901213Y7539941D01*
X1901010Y7540548D01*
Y7541154D01*
X1900909Y7541559D01*
X1900808Y7541862D01*
Y7542064D01*
Y7542165D01*
X1900505Y7544490D01*
X1900303Y7546815D01*
X1900202Y7549040D01*
X1900101Y7550960D01*
X1900000Y7552679D01*
Y7553386D01*
Y7553993D01*
Y7554498D01*
Y7554903D01*
Y7555105D01*
Y7555206D01*
X1900101Y7558643D01*
X1900303Y7561777D01*
X1900707Y7564709D01*
X1901213Y7567438D01*
X1901718Y7569966D01*
X1902426Y7572190D01*
X1903133Y7574313D01*
X1903841Y7576132D01*
X1904549Y7577750D01*
X1905155Y7579165D01*
X1905863Y7580277D01*
X1906368Y7581288D01*
X1906874Y7581996D01*
X1907278Y7582602D01*
X1907480Y7582905D01*
X1907581Y7583006D01*
X1909098Y7584624D01*
X1910715Y7586039D01*
X1912535Y7587252D01*
X1914253Y7588263D01*
X1916174Y7589173D01*
X1917994Y7589881D01*
X1919814Y7590487D01*
X1921633Y7590993D01*
X1923251Y7591296D01*
X1924767Y7591599D01*
X1926182Y7591801D01*
X1927395Y7592004D01*
X1928406D01*
X1929215Y7592105D01*
X1929822D01*
X1932248Y7592004D01*
D02*
G37*
G36*
X2175576Y7544490D02*
Y7542772D01*
X2175475Y7541154D01*
X2175273Y7539537D01*
X2175071Y7538122D01*
X2174768Y7536807D01*
X2174464Y7535695D01*
X2174161Y7534583D01*
X2173858Y7533572D01*
X2173554Y7532764D01*
X2173251Y7531955D01*
X2172948Y7531348D01*
X2172645Y7530843D01*
X2172442Y7530439D01*
X2172240Y7530135D01*
X2172139Y7530034D01*
Y7529933D01*
X2171432Y7529023D01*
X2170724Y7528316D01*
X2169915Y7527608D01*
X2169106Y7527103D01*
X2167388Y7526193D01*
X2165770Y7525586D01*
X2164254Y7525283D01*
X2163546Y7525081D01*
X2162940D01*
X2162535Y7524980D01*
X2161828D01*
X2160210Y7525081D01*
X2159503Y7525182D01*
X2158795Y7525283D01*
X2158290Y7525384D01*
X2157885Y7525485D01*
X2157683Y7525586D01*
X2157582D01*
X2156268Y7526092D01*
X2155156Y7526799D01*
X2154751Y7527103D01*
X2154448Y7527305D01*
X2154246Y7527406D01*
X2154145Y7527507D01*
X2152932Y7528619D01*
X2152022Y7529630D01*
X2151617Y7530135D01*
X2151314Y7530540D01*
X2151112Y7530742D01*
X2151011Y7530843D01*
X2150000Y7532460D01*
X2148989Y7533977D01*
X2148686Y7534684D01*
X2148383Y7535190D01*
X2148180Y7535594D01*
X2148079Y7535695D01*
X2147877Y7533977D01*
X2147372Y7532359D01*
X2146866Y7531045D01*
X2146361Y7529933D01*
X2145754Y7529023D01*
X2145249Y7528417D01*
X2144945Y7528012D01*
X2144844Y7527911D01*
X2143631Y7526900D01*
X2142317Y7526193D01*
X2141003Y7525687D01*
X2139689Y7525384D01*
X2138476Y7525081D01*
X2137465Y7524980D01*
X2136555D01*
X2135038Y7525081D01*
X2134331Y7525182D01*
X2133724Y7525283D01*
X2133219Y7525384D01*
X2132814Y7525485D01*
X2132612Y7525586D01*
X2132511D01*
X2131197Y7526092D01*
X2130085Y7526799D01*
X2129681Y7527103D01*
X2129377Y7527305D01*
X2129175Y7527406D01*
X2129074Y7527507D01*
X2127962Y7528619D01*
X2127052Y7529630D01*
X2126648Y7530135D01*
X2126344Y7530540D01*
X2126243Y7530742D01*
X2126142Y7530843D01*
X2125131Y7532460D01*
X2124222Y7533977D01*
X2123817Y7534684D01*
X2123514Y7535190D01*
X2123413Y7535594D01*
X2123312Y7535695D01*
X2123110Y7526294D01*
X2111686D01*
Y7590689D01*
X2125030D01*
Y7548938D01*
X2125940Y7546714D01*
X2126749Y7544794D01*
X2127558Y7543176D01*
X2128164Y7541963D01*
X2128670Y7541053D01*
X2129175Y7540346D01*
X2129377Y7539941D01*
X2129478Y7539840D01*
X2130186Y7538930D01*
X2130894Y7538223D01*
X2131601Y7537818D01*
X2132107Y7537414D01*
X2132612Y7537212D01*
X2132915Y7537111D01*
X2133219D01*
X2134027Y7537212D01*
X2134634Y7537414D01*
X2135038Y7537616D01*
X2135139Y7537717D01*
X2135645Y7538223D01*
X2136049Y7538829D01*
X2136252Y7539335D01*
X2136353Y7539436D01*
Y7539537D01*
X2136656Y7540548D01*
X2136757Y7541458D01*
X2136858Y7541963D01*
Y7542266D01*
Y7542469D01*
Y7542570D01*
X2136959Y7543985D01*
X2137060Y7545400D01*
Y7545906D01*
Y7546411D01*
Y7546714D01*
Y7546815D01*
Y7590689D01*
X2150303D01*
Y7548938D01*
X2151112Y7546714D01*
X2151921Y7544794D01*
X2152628Y7543176D01*
X2153336Y7541963D01*
X2153842Y7541053D01*
X2154246Y7540346D01*
X2154448Y7539941D01*
X2154549Y7539840D01*
X2155257Y7538930D01*
X2155964Y7538223D01*
X2156571Y7537818D01*
X2157178Y7537414D01*
X2157683Y7537212D01*
X2158087Y7537111D01*
X2158391D01*
X2159300Y7537212D01*
X2159907Y7537414D01*
X2160311Y7537616D01*
X2160412Y7537717D01*
X2160918Y7538223D01*
X2161221Y7538829D01*
X2161423Y7539335D01*
X2161525Y7539436D01*
Y7539537D01*
X2161828Y7540548D01*
X2161929Y7541458D01*
X2162030Y7541963D01*
Y7542266D01*
Y7542469D01*
Y7542570D01*
X2162131Y7543985D01*
X2162232Y7545400D01*
Y7545906D01*
Y7546411D01*
Y7546714D01*
Y7546815D01*
Y7590689D01*
X2175576D01*
Y7544490D01*
D02*
G37*
G36*
X2104205D02*
Y7542772D01*
X2104104Y7541154D01*
X2103902Y7539537D01*
X2103700Y7538122D01*
X2103397Y7536807D01*
X2103093Y7535695D01*
X2102790Y7534583D01*
X2102487Y7533572D01*
X2102184Y7532764D01*
X2101880Y7531955D01*
X2101577Y7531348D01*
X2101274Y7530843D01*
X2101071Y7530439D01*
X2100869Y7530135D01*
X2100768Y7530034D01*
Y7529933D01*
X2100061Y7529023D01*
X2099353Y7528316D01*
X2098544Y7527608D01*
X2097735Y7527103D01*
X2096017Y7526193D01*
X2094399Y7525586D01*
X2092883Y7525283D01*
X2092175Y7525081D01*
X2091569D01*
X2091164Y7524980D01*
X2090457D01*
X2088839Y7525081D01*
X2088132Y7525182D01*
X2087424Y7525283D01*
X2086919Y7525384D01*
X2086514Y7525485D01*
X2086312Y7525586D01*
X2086211D01*
X2084897Y7526092D01*
X2083785Y7526799D01*
X2083380Y7527103D01*
X2083077Y7527305D01*
X2082875Y7527406D01*
X2082774Y7527507D01*
X2081561Y7528619D01*
X2080651Y7529630D01*
X2080247Y7530135D01*
X2079943Y7530540D01*
X2079741Y7530742D01*
X2079640Y7530843D01*
X2078629Y7532460D01*
X2077618Y7533977D01*
X2077315Y7534684D01*
X2077012Y7535190D01*
X2076809Y7535594D01*
X2076708Y7535695D01*
X2076506Y7533977D01*
X2076001Y7532359D01*
X2075495Y7531045D01*
X2074990Y7529933D01*
X2074383Y7529023D01*
X2073878Y7528417D01*
X2073574Y7528012D01*
X2073473Y7527911D01*
X2072260Y7526900D01*
X2070946Y7526193D01*
X2069632Y7525687D01*
X2068318Y7525384D01*
X2067105Y7525081D01*
X2066094Y7524980D01*
X2065184D01*
X2063667Y7525081D01*
X2062960Y7525182D01*
X2062353Y7525283D01*
X2061848Y7525384D01*
X2061443Y7525485D01*
X2061241Y7525586D01*
X2061140D01*
X2059826Y7526092D01*
X2058714Y7526799D01*
X2058310Y7527103D01*
X2058006Y7527305D01*
X2057804Y7527406D01*
X2057703Y7527507D01*
X2056591Y7528619D01*
X2055681Y7529630D01*
X2055277Y7530135D01*
X2054974Y7530540D01*
X2054872Y7530742D01*
X2054771Y7530843D01*
X2053760Y7532460D01*
X2052851Y7533977D01*
X2052446Y7534684D01*
X2052143Y7535190D01*
X2052042Y7535594D01*
X2051941Y7535695D01*
X2051739Y7526294D01*
X2040315D01*
Y7590689D01*
X2053659D01*
Y7548938D01*
X2054569Y7546714D01*
X2055378Y7544794D01*
X2056187Y7543176D01*
X2056793Y7541963D01*
X2057299Y7541053D01*
X2057804Y7540346D01*
X2058006Y7539941D01*
X2058107Y7539840D01*
X2058815Y7538930D01*
X2059523Y7538223D01*
X2060230Y7537818D01*
X2060736Y7537414D01*
X2061241Y7537212D01*
X2061545Y7537111D01*
X2061848D01*
X2062657Y7537212D01*
X2063263Y7537414D01*
X2063667Y7537616D01*
X2063769Y7537717D01*
X2064274Y7538223D01*
X2064678Y7538829D01*
X2064881Y7539335D01*
X2064982Y7539436D01*
Y7539537D01*
X2065285Y7540548D01*
X2065386Y7541458D01*
X2065487Y7541963D01*
Y7542266D01*
Y7542469D01*
Y7542570D01*
X2065588Y7543985D01*
X2065689Y7545400D01*
Y7545906D01*
Y7546411D01*
Y7546714D01*
Y7546815D01*
Y7590689D01*
X2078932D01*
Y7548938D01*
X2079741Y7546714D01*
X2080550Y7544794D01*
X2081257Y7543176D01*
X2081965Y7541963D01*
X2082471Y7541053D01*
X2082875Y7540346D01*
X2083077Y7539941D01*
X2083178Y7539840D01*
X2083886Y7538930D01*
X2084593Y7538223D01*
X2085200Y7537818D01*
X2085807Y7537414D01*
X2086312Y7537212D01*
X2086716Y7537111D01*
X2087020D01*
X2087930Y7537212D01*
X2088536Y7537414D01*
X2088940Y7537616D01*
X2089042Y7537717D01*
X2089547Y7538223D01*
X2089850Y7538829D01*
X2090052Y7539335D01*
X2090154Y7539436D01*
Y7539537D01*
X2090457Y7540548D01*
X2090558Y7541458D01*
X2090659Y7541963D01*
Y7542266D01*
Y7542469D01*
Y7542570D01*
X2090760Y7543985D01*
X2090861Y7545400D01*
Y7545906D01*
Y7546411D01*
Y7546714D01*
Y7546815D01*
Y7590689D01*
X2104205D01*
Y7544490D01*
D02*
G37*
G36*
X2171836Y4904541D02*
Y4902822D01*
X2171735Y4901205D01*
X2171533Y4899587D01*
X2171330Y4898172D01*
X2171027Y4896858D01*
X2170724Y4895746D01*
X2170421Y4894634D01*
X2170117Y4893623D01*
X2169814Y4892814D01*
X2169511Y4892005D01*
X2169207Y4891399D01*
X2168904Y4890893D01*
X2168702Y4890489D01*
X2168500Y4890186D01*
X2168399Y4890084D01*
Y4889983D01*
X2167691Y4889074D01*
X2166983Y4888366D01*
X2166175Y4887658D01*
X2165366Y4887153D01*
X2163647Y4886243D01*
X2162030Y4885636D01*
X2160514Y4885333D01*
X2159806Y4885131D01*
X2159199D01*
X2158795Y4885030D01*
X2158087D01*
X2156470Y4885131D01*
X2155762Y4885232D01*
X2155055Y4885333D01*
X2154549Y4885434D01*
X2154145Y4885535D01*
X2153943Y4885636D01*
X2153842D01*
X2152527Y4886142D01*
X2151415Y4886850D01*
X2151011Y4887153D01*
X2150708Y4887355D01*
X2150505Y4887456D01*
X2150404Y4887557D01*
X2149191Y4888669D01*
X2148281Y4889680D01*
X2147877Y4890186D01*
X2147574Y4890590D01*
X2147372Y4890792D01*
X2147271Y4890893D01*
X2146260Y4892511D01*
X2145249Y4894027D01*
X2144945Y4894735D01*
X2144642Y4895240D01*
X2144440Y4895645D01*
X2144339Y4895746D01*
X2144137Y4894027D01*
X2143631Y4892410D01*
X2143126Y4891095D01*
X2142620Y4889983D01*
X2142014Y4889074D01*
X2141508Y4888467D01*
X2141205Y4888063D01*
X2141104Y4887962D01*
X2139891Y4886951D01*
X2138577Y4886243D01*
X2137262Y4885737D01*
X2135948Y4885434D01*
X2134735Y4885131D01*
X2133724Y4885030D01*
X2132814D01*
X2131298Y4885131D01*
X2130590Y4885232D01*
X2129984Y4885333D01*
X2129478Y4885434D01*
X2129074Y4885535D01*
X2128872Y4885636D01*
X2128771D01*
X2127457Y4886142D01*
X2126344Y4886850D01*
X2125940Y4887153D01*
X2125637Y4887355D01*
X2125435Y4887456D01*
X2125334Y4887557D01*
X2124222Y4888669D01*
X2123312Y4889680D01*
X2122907Y4890186D01*
X2122604Y4890590D01*
X2122503Y4890792D01*
X2122402Y4890893D01*
X2121391Y4892511D01*
X2120481Y4894027D01*
X2120077Y4894735D01*
X2119774Y4895240D01*
X2119672Y4895645D01*
X2119571Y4895746D01*
X2119369Y4886344D01*
X2107946D01*
Y4950740D01*
X2121290D01*
Y4908989D01*
X2122200Y4906765D01*
X2123008Y4904844D01*
X2123817Y4903226D01*
X2124424Y4902013D01*
X2124929Y4901103D01*
X2125435Y4900396D01*
X2125637Y4899991D01*
X2125738Y4899890D01*
X2126446Y4898981D01*
X2127153Y4898273D01*
X2127861Y4897869D01*
X2128366Y4897464D01*
X2128872Y4897262D01*
X2129175Y4897161D01*
X2129478D01*
X2130287Y4897262D01*
X2130894Y4897464D01*
X2131298Y4897666D01*
X2131399Y4897767D01*
X2131905Y4898273D01*
X2132309Y4898879D01*
X2132511Y4899385D01*
X2132612Y4899486D01*
Y4899587D01*
X2132915Y4900598D01*
X2133017Y4901508D01*
X2133118Y4902013D01*
Y4902317D01*
Y4902519D01*
Y4902620D01*
X2133219Y4904035D01*
X2133320Y4905450D01*
Y4905956D01*
Y4906461D01*
Y4906765D01*
Y4906866D01*
Y4950740D01*
X2146563D01*
Y4908989D01*
X2147372Y4906765D01*
X2148180Y4904844D01*
X2148888Y4903226D01*
X2149596Y4902013D01*
X2150101Y4901103D01*
X2150505Y4900396D01*
X2150708Y4899991D01*
X2150809Y4899890D01*
X2151516Y4898981D01*
X2152224Y4898273D01*
X2152831Y4897869D01*
X2153437Y4897464D01*
X2153943Y4897262D01*
X2154347Y4897161D01*
X2154650D01*
X2155560Y4897262D01*
X2156167Y4897464D01*
X2156571Y4897666D01*
X2156672Y4897767D01*
X2157178Y4898273D01*
X2157481Y4898879D01*
X2157683Y4899385D01*
X2157784Y4899486D01*
Y4899587D01*
X2158087Y4900598D01*
X2158188Y4901508D01*
X2158290Y4902013D01*
Y4902317D01*
Y4902519D01*
Y4902620D01*
X2158391Y4904035D01*
X2158492Y4905450D01*
Y4905956D01*
Y4906461D01*
Y4906765D01*
Y4906866D01*
Y4950740D01*
X2171836D01*
Y4904541D01*
D02*
G37*
G36*
X2100465D02*
Y4902822D01*
X2100364Y4901205D01*
X2100162Y4899587D01*
X2099959Y4898172D01*
X2099656Y4896858D01*
X2099353Y4895746D01*
X2099050Y4894634D01*
X2098746Y4893623D01*
X2098443Y4892814D01*
X2098140Y4892005D01*
X2097837Y4891399D01*
X2097533Y4890893D01*
X2097331Y4890489D01*
X2097129Y4890186D01*
X2097028Y4890084D01*
Y4889983D01*
X2096320Y4889074D01*
X2095613Y4888366D01*
X2094804Y4887658D01*
X2093995Y4887153D01*
X2092276Y4886243D01*
X2090659Y4885636D01*
X2089143Y4885333D01*
X2088435Y4885131D01*
X2087828D01*
X2087424Y4885030D01*
X2086716D01*
X2085099Y4885131D01*
X2084391Y4885232D01*
X2083684Y4885333D01*
X2083178Y4885434D01*
X2082774Y4885535D01*
X2082572Y4885636D01*
X2082471D01*
X2081156Y4886142D01*
X2080044Y4886850D01*
X2079640Y4887153D01*
X2079337Y4887355D01*
X2079135Y4887456D01*
X2079033Y4887557D01*
X2077820Y4888669D01*
X2076911Y4889680D01*
X2076506Y4890186D01*
X2076203Y4890590D01*
X2076001Y4890792D01*
X2075900Y4890893D01*
X2074889Y4892511D01*
X2073878Y4894027D01*
X2073574Y4894735D01*
X2073271Y4895240D01*
X2073069Y4895645D01*
X2072968Y4895746D01*
X2072766Y4894027D01*
X2072260Y4892410D01*
X2071755Y4891095D01*
X2071249Y4889983D01*
X2070643Y4889074D01*
X2070137Y4888467D01*
X2069834Y4888063D01*
X2069733Y4887962D01*
X2068520Y4886951D01*
X2067206Y4886243D01*
X2065891Y4885737D01*
X2064577Y4885434D01*
X2063364Y4885131D01*
X2062353Y4885030D01*
X2061443D01*
X2059927Y4885131D01*
X2059219Y4885232D01*
X2058613Y4885333D01*
X2058107Y4885434D01*
X2057703Y4885535D01*
X2057501Y4885636D01*
X2057400D01*
X2056086Y4886142D01*
X2054974Y4886850D01*
X2054569Y4887153D01*
X2054266Y4887355D01*
X2054064Y4887456D01*
X2053963Y4887557D01*
X2052851Y4888669D01*
X2051941Y4889680D01*
X2051536Y4890186D01*
X2051233Y4890590D01*
X2051132Y4890792D01*
X2051031Y4890893D01*
X2050020Y4892511D01*
X2049110Y4894027D01*
X2048706Y4894735D01*
X2048403Y4895240D01*
X2048301Y4895645D01*
X2048200Y4895746D01*
X2047998Y4886344D01*
X2036575D01*
Y4950740D01*
X2049919D01*
Y4908989D01*
X2050829Y4906765D01*
X2051638Y4904844D01*
X2052446Y4903226D01*
X2053053Y4902013D01*
X2053558Y4901103D01*
X2054064Y4900396D01*
X2054266Y4899991D01*
X2054367Y4899890D01*
X2055075Y4898981D01*
X2055782Y4898273D01*
X2056490Y4897869D01*
X2056995Y4897464D01*
X2057501Y4897262D01*
X2057804Y4897161D01*
X2058107D01*
X2058916Y4897262D01*
X2059523Y4897464D01*
X2059927Y4897666D01*
X2060028Y4897767D01*
X2060534Y4898273D01*
X2060938Y4898879D01*
X2061140Y4899385D01*
X2061241Y4899486D01*
Y4899587D01*
X2061545Y4900598D01*
X2061646Y4901508D01*
X2061747Y4902013D01*
Y4902317D01*
Y4902519D01*
Y4902620D01*
X2061848Y4904035D01*
X2061949Y4905450D01*
Y4905956D01*
Y4906461D01*
Y4906765D01*
Y4906866D01*
Y4950740D01*
X2075192D01*
Y4908989D01*
X2076001Y4906765D01*
X2076809Y4904844D01*
X2077517Y4903226D01*
X2078225Y4902013D01*
X2078730Y4901103D01*
X2079135Y4900396D01*
X2079337Y4899991D01*
X2079438Y4899890D01*
X2080145Y4898981D01*
X2080853Y4898273D01*
X2081460Y4897869D01*
X2082066Y4897464D01*
X2082572Y4897262D01*
X2082976Y4897161D01*
X2083279D01*
X2084189Y4897262D01*
X2084796Y4897464D01*
X2085200Y4897666D01*
X2085301Y4897767D01*
X2085807Y4898273D01*
X2086110Y4898879D01*
X2086312Y4899385D01*
X2086413Y4899486D01*
Y4899587D01*
X2086716Y4900598D01*
X2086818Y4901508D01*
X2086919Y4902013D01*
Y4902317D01*
Y4902519D01*
Y4902620D01*
X2087020Y4904035D01*
X2087121Y4905450D01*
Y4905956D01*
Y4906461D01*
Y4906765D01*
Y4906866D01*
Y4950740D01*
X2100465D01*
Y4904541D01*
D02*
G37*
G36*
X1920016Y4951953D02*
X1922644Y4951751D01*
X1925171Y4951447D01*
X1927294Y4951144D01*
X1928305Y4950942D01*
X1929114Y4950841D01*
X1929822Y4950639D01*
X1930529Y4950537D01*
X1930934Y4950436D01*
X1931338Y4950335D01*
X1931540Y4950234D01*
X1931641D01*
X1934068Y4949527D01*
X1936292Y4948617D01*
X1938313Y4947707D01*
X1940032Y4946898D01*
X1941346Y4946089D01*
X1942357Y4945483D01*
X1942761Y4945180D01*
X1943065Y4945079D01*
X1943166Y4944876D01*
X1943267D01*
X1944985Y4943461D01*
X1946603Y4942046D01*
X1947917Y4940529D01*
X1949029Y4939215D01*
X1949939Y4938002D01*
X1950546Y4936991D01*
X1950950Y4936385D01*
X1951051Y4936283D01*
Y4936182D01*
X1951961Y4934161D01*
X1952668Y4932139D01*
X1953174Y4930218D01*
X1953578Y4928297D01*
X1953780Y4926781D01*
Y4926073D01*
X1953882Y4925467D01*
Y4924961D01*
Y4924658D01*
Y4924456D01*
Y4924355D01*
X1953780Y4921726D01*
X1953477Y4919300D01*
X1952972Y4917278D01*
X1952567Y4915560D01*
X1952062Y4914144D01*
X1951556Y4913032D01*
X1951455Y4912729D01*
X1951253Y4912426D01*
X1951152Y4912325D01*
Y4912224D01*
X1950141Y4910505D01*
X1948928Y4908989D01*
X1947715Y4907674D01*
X1946603Y4906562D01*
X1945592Y4905653D01*
X1944783Y4905046D01*
X1944278Y4904642D01*
X1944177Y4904541D01*
X1944076D01*
X1942357Y4903530D01*
X1940638Y4902721D01*
X1938920Y4902013D01*
X1937404Y4901508D01*
X1935988Y4901103D01*
X1934977Y4900800D01*
X1934573Y4900699D01*
X1934270Y4900598D01*
X1933966D01*
X1931843Y4900194D01*
X1929619Y4899890D01*
X1927598Y4899688D01*
X1925778Y4899486D01*
X1924160D01*
X1923453Y4899385D01*
X1915972D01*
Y4882503D01*
X1949332D01*
Y4867945D01*
X1901516D01*
Y4912021D01*
X1919611D01*
X1921330Y4912123D01*
X1922947Y4912325D01*
X1924363Y4912527D01*
X1925778Y4912830D01*
X1926991Y4913032D01*
X1928103Y4913336D01*
X1929013Y4913639D01*
X1929923Y4914043D01*
X1930630Y4914347D01*
X1931237Y4914549D01*
X1931742Y4914852D01*
X1932147Y4915054D01*
X1932450Y4915256D01*
X1932551Y4915357D01*
X1932652D01*
X1933461Y4915964D01*
X1934169Y4916672D01*
X1935382Y4918289D01*
X1936190Y4919907D01*
X1936696Y4921524D01*
X1937100Y4922939D01*
X1937201Y4924152D01*
X1937302Y4924658D01*
Y4924961D01*
Y4925163D01*
Y4925264D01*
X1937201Y4926478D01*
X1937100Y4927590D01*
X1936494Y4929611D01*
X1935685Y4931330D01*
X1934775Y4932745D01*
X1933865Y4933857D01*
X1933057Y4934666D01*
X1932450Y4935171D01*
X1932349Y4935374D01*
X1932248D01*
X1931237Y4935980D01*
X1930226Y4936587D01*
X1927901Y4937497D01*
X1925475Y4938103D01*
X1923150Y4938508D01*
X1921027Y4938811D01*
X1920117Y4938912D01*
X1919308D01*
X1918702Y4939013D01*
X1915972D01*
X1914253Y4938912D01*
X1912636Y4938811D01*
X1911221Y4938710D01*
X1909907D01*
X1908997Y4938609D01*
X1908390Y4938508D01*
X1908188D01*
X1906469Y4938305D01*
X1904953Y4938103D01*
X1903538Y4937800D01*
X1902325Y4937598D01*
X1901415Y4937396D01*
X1900606Y4937193D01*
X1900202Y4937092D01*
X1900000D01*
Y4950639D01*
X1901415Y4950841D01*
X1902628Y4950942D01*
X1903133Y4951043D01*
X1903538D01*
X1903841Y4951144D01*
X1903942D01*
X1905560Y4951346D01*
X1906874Y4951447D01*
X1907480D01*
X1907885Y4951548D01*
X1908289D01*
X1910008Y4951649D01*
X1910715Y4951751D01*
X1911423D01*
X1912029Y4951852D01*
X1912838D01*
X1914456Y4951953D01*
X1915163D01*
X1915770Y4952054D01*
X1917084D01*
X1920016Y4951953D01*
D02*
G37*
%LPC*%
G36*
X2223090Y8655964D02*
X2196199D01*
X2196603Y8653437D01*
X2197210Y8651314D01*
X2197918Y8649393D01*
X2198726Y8647877D01*
X2199434Y8646664D01*
X2200041Y8645754D01*
X2200445Y8645249D01*
X2200647Y8645046D01*
X2202163Y8643732D01*
X2203680Y8642721D01*
X2205297Y8642014D01*
X2206814Y8641609D01*
X2208229Y8641306D01*
X2209240Y8641205D01*
X2209644Y8641104D01*
X2210251D01*
X2212172Y8641205D01*
X2212980Y8641407D01*
X2213688Y8641508D01*
X2214295Y8641710D01*
X2214800Y8641913D01*
X2215103Y8642014D01*
X2215204D01*
X2216822Y8642822D01*
X2217529Y8643227D01*
X2218136Y8643732D01*
X2218540Y8644137D01*
X2218945Y8644440D01*
X2219147Y8644642D01*
X2219248Y8644743D01*
X2220461Y8646260D01*
X2221371Y8647776D01*
X2221674Y8648382D01*
X2221876Y8648888D01*
X2222079Y8649292D01*
Y8649393D01*
X2222685Y8651617D01*
X2222887Y8652729D01*
X2222988Y8653740D01*
X2223090Y8654650D01*
Y8655358D01*
Y8655762D01*
Y8655964D01*
D02*
G37*
G36*
X2348949Y8683563D02*
X2348747D01*
X2346927Y8683360D01*
X2346118Y8683259D01*
X2345411Y8683057D01*
X2344804Y8682855D01*
X2344400Y8682754D01*
X2344097Y8682552D01*
X2343996D01*
X2343288Y8682046D01*
X2342580Y8681541D01*
X2341569Y8680328D01*
X2341165Y8679822D01*
X2340862Y8679418D01*
X2340660Y8679114D01*
X2340558Y8679013D01*
X2340053Y8678002D01*
X2339649Y8676992D01*
X2339244Y8675981D01*
X2338941Y8674970D01*
X2338739Y8674161D01*
X2338537Y8673453D01*
X2338436Y8673049D01*
Y8672847D01*
X2338233Y8671330D01*
X2338031Y8669814D01*
X2337930Y8668298D01*
X2337829Y8666882D01*
X2337728Y8665568D01*
Y8664658D01*
Y8664254D01*
Y8663951D01*
Y8663850D01*
Y8663748D01*
X2337829Y8661929D01*
X2337930Y8660210D01*
X2338132Y8658694D01*
X2338334Y8657380D01*
X2338537Y8656268D01*
X2338638Y8655459D01*
X2338840Y8654953D01*
Y8654751D01*
X2339345Y8653336D01*
X2339851Y8652022D01*
X2340356Y8650809D01*
X2340862Y8649798D01*
X2341367Y8649090D01*
X2341772Y8648484D01*
X2341974Y8648079D01*
X2342075Y8647978D01*
X2342884Y8646967D01*
X2343793Y8646057D01*
X2344602Y8645350D01*
X2345411Y8644743D01*
X2346118Y8644238D01*
X2346624Y8643934D01*
X2347028Y8643732D01*
X2347129Y8643631D01*
X2348241Y8643126D01*
X2349455Y8642721D01*
X2350567Y8642418D01*
X2351577Y8642216D01*
X2352487Y8642115D01*
X2353195Y8642014D01*
X2353801D01*
X2355823Y8642115D01*
X2356733Y8642216D01*
X2357542D01*
X2358148Y8642317D01*
X2358755Y8642418D01*
X2359058Y8642519D01*
X2359159D01*
X2360170Y8642721D01*
X2361080Y8642822D01*
X2361788Y8643025D01*
X2362495Y8643227D01*
X2363102Y8643429D01*
X2363506Y8643530D01*
X2363709Y8643631D01*
X2363810D01*
Y8671735D01*
X2362293Y8673655D01*
X2360878Y8675475D01*
X2359665Y8676890D01*
X2358553Y8678205D01*
X2357542Y8679114D01*
X2356834Y8679822D01*
X2356430Y8680328D01*
X2356228Y8680429D01*
X2354914Y8681440D01*
X2353599Y8682248D01*
X2352285Y8682754D01*
X2351173Y8683158D01*
X2350162Y8683360D01*
X2349455Y8683461D01*
X2348949Y8683563D01*
D02*
G37*
G36*
X2223090Y7335965D02*
X2196199D01*
X2196603Y7333437D01*
X2197210Y7331314D01*
X2197918Y7329394D01*
X2198726Y7327877D01*
X2199434Y7326664D01*
X2200041Y7325754D01*
X2200445Y7325249D01*
X2200647Y7325047D01*
X2202163Y7323732D01*
X2203680Y7322721D01*
X2205297Y7322014D01*
X2206814Y7321609D01*
X2208229Y7321306D01*
X2209240Y7321205D01*
X2209644Y7321104D01*
X2210251D01*
X2212172Y7321205D01*
X2212980Y7321407D01*
X2213688Y7321508D01*
X2214295Y7321711D01*
X2214800Y7321913D01*
X2215103Y7322014D01*
X2215204D01*
X2216822Y7322823D01*
X2217529Y7323227D01*
X2218136Y7323732D01*
X2218540Y7324137D01*
X2218945Y7324440D01*
X2219147Y7324642D01*
X2219248Y7324743D01*
X2220461Y7326260D01*
X2221371Y7327776D01*
X2221674Y7328383D01*
X2221876Y7328888D01*
X2222079Y7329292D01*
Y7329394D01*
X2222685Y7331618D01*
X2222887Y7332730D01*
X2222988Y7333740D01*
X2223090Y7334650D01*
Y7335358D01*
Y7335762D01*
Y7335965D01*
D02*
G37*
G36*
X2348949Y7363563D02*
X2348747D01*
X2346927Y7363360D01*
X2346118Y7363259D01*
X2345411Y7363057D01*
X2344804Y7362855D01*
X2344400Y7362754D01*
X2344097Y7362552D01*
X2343996D01*
X2343288Y7362046D01*
X2342580Y7361541D01*
X2341569Y7360328D01*
X2341165Y7359822D01*
X2340862Y7359418D01*
X2340660Y7359115D01*
X2340558Y7359013D01*
X2340053Y7358003D01*
X2339649Y7356992D01*
X2339244Y7355981D01*
X2338941Y7354970D01*
X2338739Y7354161D01*
X2338537Y7353453D01*
X2338436Y7353049D01*
Y7352847D01*
X2338233Y7351330D01*
X2338031Y7349814D01*
X2337930Y7348298D01*
X2337829Y7346882D01*
X2337728Y7345568D01*
Y7344658D01*
Y7344254D01*
Y7343951D01*
Y7343850D01*
Y7343749D01*
X2337829Y7341929D01*
X2337930Y7340210D01*
X2338132Y7338694D01*
X2338334Y7337380D01*
X2338537Y7336268D01*
X2338638Y7335459D01*
X2338840Y7334954D01*
Y7334751D01*
X2339345Y7333336D01*
X2339851Y7332022D01*
X2340356Y7330809D01*
X2340862Y7329798D01*
X2341367Y7329090D01*
X2341772Y7328484D01*
X2341974Y7328079D01*
X2342075Y7327978D01*
X2342884Y7326967D01*
X2343793Y7326057D01*
X2344602Y7325350D01*
X2345411Y7324743D01*
X2346118Y7324238D01*
X2346624Y7323935D01*
X2347028Y7323732D01*
X2347129Y7323631D01*
X2348241Y7323126D01*
X2349455Y7322721D01*
X2350567Y7322418D01*
X2351577Y7322216D01*
X2352487Y7322115D01*
X2353195Y7322014D01*
X2353801D01*
X2355823Y7322115D01*
X2356733Y7322216D01*
X2357542D01*
X2358148Y7322317D01*
X2358755Y7322418D01*
X2359058Y7322519D01*
X2359159D01*
X2360170Y7322721D01*
X2361080Y7322823D01*
X2361788Y7323025D01*
X2362495Y7323227D01*
X2363102Y7323429D01*
X2363506Y7323530D01*
X2363709Y7323631D01*
X2363810D01*
Y7351735D01*
X2362293Y7353656D01*
X2360878Y7355475D01*
X2359665Y7356891D01*
X2358553Y7358205D01*
X2357542Y7359115D01*
X2356834Y7359822D01*
X2356430Y7360328D01*
X2356228Y7360429D01*
X2354914Y7361440D01*
X2353599Y7362248D01*
X2352285Y7362754D01*
X2351173Y7363158D01*
X2350162Y7363360D01*
X2349455Y7363462D01*
X2348949Y7363563D01*
D02*
G37*
G36*
X2228650Y4695964D02*
X2201759D01*
X2202163Y4693437D01*
X2202770Y4691314D01*
X2203478Y4689393D01*
X2204286Y4687877D01*
X2204994Y4686663D01*
X2205601Y4685754D01*
X2206005Y4685248D01*
X2206207Y4685046D01*
X2207724Y4683732D01*
X2209240Y4682721D01*
X2210857Y4682013D01*
X2212374Y4681609D01*
X2213789Y4681306D01*
X2214800Y4681205D01*
X2215204Y4681103D01*
X2215811D01*
X2217732Y4681205D01*
X2218540Y4681407D01*
X2219248Y4681508D01*
X2219855Y4681710D01*
X2220360Y4681912D01*
X2220663Y4682013D01*
X2220764D01*
X2222382Y4682822D01*
X2223090Y4683226D01*
X2223696Y4683732D01*
X2224100Y4684136D01*
X2224505Y4684439D01*
X2224707Y4684642D01*
X2224808Y4684743D01*
X2226021Y4686259D01*
X2226931Y4687775D01*
X2227234Y4688382D01*
X2227436Y4688887D01*
X2227639Y4689292D01*
Y4689393D01*
X2228245Y4691617D01*
X2228447Y4692729D01*
X2228549Y4693740D01*
X2228650Y4694650D01*
Y4695357D01*
Y4695762D01*
Y4695964D01*
D02*
G37*
G36*
X2354509Y4723562D02*
X2354307D01*
X2352487Y4723360D01*
X2351679Y4723259D01*
X2350971Y4723057D01*
X2350364Y4722854D01*
X2349960Y4722753D01*
X2349657Y4722551D01*
X2349556D01*
X2348848Y4722046D01*
X2348140Y4721540D01*
X2347129Y4720327D01*
X2346725Y4719822D01*
X2346422Y4719417D01*
X2346220Y4719114D01*
X2346118Y4719013D01*
X2345613Y4718002D01*
X2345209Y4716991D01*
X2344804Y4715980D01*
X2344501Y4714969D01*
X2344299Y4714160D01*
X2344097Y4713453D01*
X2343996Y4713048D01*
Y4712846D01*
X2343793Y4711330D01*
X2343591Y4709814D01*
X2343490Y4708297D01*
X2343389Y4706882D01*
X2343288Y4705568D01*
Y4704658D01*
Y4704253D01*
Y4703950D01*
Y4703849D01*
Y4703748D01*
X2343389Y4701928D01*
X2343490Y4700210D01*
X2343692Y4698693D01*
X2343894Y4697379D01*
X2344097Y4696267D01*
X2344198Y4695458D01*
X2344400Y4694953D01*
Y4694751D01*
X2344905Y4693336D01*
X2345411Y4692021D01*
X2345916Y4690808D01*
X2346422Y4689797D01*
X2346927Y4689090D01*
X2347332Y4688483D01*
X2347534Y4688079D01*
X2347635Y4687978D01*
X2348444Y4686967D01*
X2349353Y4686057D01*
X2350162Y4685349D01*
X2350971Y4684743D01*
X2351679Y4684237D01*
X2352184Y4683934D01*
X2352588Y4683732D01*
X2352689Y4683631D01*
X2353801Y4683125D01*
X2355015Y4682721D01*
X2356127Y4682418D01*
X2357138Y4682215D01*
X2358047Y4682114D01*
X2358755Y4682013D01*
X2359362D01*
X2361383Y4682114D01*
X2362293Y4682215D01*
X2363102D01*
X2363709Y4682317D01*
X2364315Y4682418D01*
X2364618Y4682519D01*
X2364719D01*
X2365730Y4682721D01*
X2366640Y4682822D01*
X2367348Y4683024D01*
X2368055Y4683226D01*
X2368662Y4683429D01*
X2369066Y4683530D01*
X2369269Y4683631D01*
X2369370D01*
Y4711734D01*
X2367853Y4713655D01*
X2366438Y4715475D01*
X2365225Y4716890D01*
X2364113Y4718204D01*
X2363102Y4719114D01*
X2362394Y4719822D01*
X2361990Y4720327D01*
X2361788Y4720428D01*
X2360474Y4721439D01*
X2359159Y4722248D01*
X2357845Y4722753D01*
X2356733Y4723158D01*
X2355722Y4723360D01*
X2355015Y4723461D01*
X2354509Y4723562D01*
D02*
G37*
G36*
X2000283Y3620175D02*
X1999676D01*
X1997958Y3620074D01*
X1996340Y3619670D01*
X1994824Y3619266D01*
X1993611Y3618659D01*
X1992499Y3618154D01*
X1991791Y3617648D01*
X1991286Y3617345D01*
X1991083Y3617244D01*
X1989769Y3616031D01*
X1988657Y3614615D01*
X1987646Y3613099D01*
X1986939Y3611583D01*
X1986231Y3610268D01*
X1985827Y3609156D01*
X1985624Y3608752D01*
X1985523Y3608449D01*
X1985422Y3608247D01*
Y3608145D01*
X2016255Y3585804D01*
Y3586613D01*
X2016356Y3587320D01*
Y3587826D01*
Y3587927D01*
Y3588028D01*
X2016457Y3588837D01*
Y3589545D01*
Y3589949D01*
Y3590151D01*
X2016356Y3592881D01*
X2016255Y3595509D01*
X2016053Y3597733D01*
X2015851Y3599654D01*
X2015548Y3601271D01*
X2015447Y3601979D01*
X2015345Y3602484D01*
X2015244Y3602889D01*
Y3603192D01*
X2015143Y3603394D01*
Y3603495D01*
X2014638Y3605517D01*
X2014031Y3607337D01*
X2013425Y3608954D01*
X2012919Y3610268D01*
X2012414Y3611380D01*
X2012009Y3612189D01*
X2011706Y3612695D01*
X2011605Y3612897D01*
X2010695Y3614211D01*
X2009785Y3615323D01*
X2008977Y3616233D01*
X2008067Y3616940D01*
X2007359Y3617547D01*
X2006753Y3618052D01*
X2006348Y3618255D01*
X2006247Y3618356D01*
X2005135Y3618962D01*
X2003922Y3619367D01*
X2002810Y3619771D01*
X2001799Y3619973D01*
X2000990Y3620074D01*
X2000283Y3620175D01*
D02*
G37*
G36*
X1983097Y3594498D02*
X1982996Y3593689D01*
Y3592982D01*
Y3592476D01*
Y3592274D01*
Y3591465D01*
Y3590657D01*
Y3590151D01*
Y3590050D01*
Y3589949D01*
X1983097Y3587118D01*
X1983198Y3584591D01*
X1983400Y3582266D01*
X1983603Y3580345D01*
X1983805Y3578728D01*
X1983906Y3578121D01*
X1984007Y3577616D01*
X1984108Y3577211D01*
X1984209Y3576807D01*
Y3576706D01*
Y3576605D01*
X1984715Y3574583D01*
X1985321Y3572763D01*
X1985928Y3571146D01*
X1986433Y3569730D01*
X1986939Y3568720D01*
X1987343Y3567911D01*
X1987646Y3567405D01*
X1987747Y3567203D01*
X1988657Y3565889D01*
X1989567Y3564777D01*
X1990477Y3563766D01*
X1991286Y3563058D01*
X1991993Y3562452D01*
X1992600Y3561946D01*
X1993004Y3561744D01*
X1993105Y3561643D01*
X1994217Y3561037D01*
X1995430Y3560632D01*
X1996542Y3560228D01*
X1997553Y3560026D01*
X1998362Y3559925D01*
X1999070Y3559823D01*
X1999676D01*
X2001496Y3559925D01*
X2003113Y3560329D01*
X2004529Y3560733D01*
X2005843Y3561340D01*
X2006854Y3561845D01*
X2007662Y3562351D01*
X2008067Y3562755D01*
X2008269Y3562856D01*
X2009583Y3564069D01*
X2010695Y3565586D01*
X2011706Y3567102D01*
X2012616Y3568618D01*
X2013223Y3569933D01*
X2013728Y3571045D01*
X2013930Y3571449D01*
X2014031Y3571752D01*
X2014132Y3571955D01*
Y3572056D01*
X1983097Y3594498D01*
D02*
G37*
G36*
X2228650Y3375964D02*
X2201759D01*
X2202163Y3373437D01*
X2202770Y3371314D01*
X2203478Y3369393D01*
X2204286Y3367877D01*
X2204994Y3366664D01*
X2205601Y3365754D01*
X2206005Y3365248D01*
X2206207Y3365046D01*
X2207724Y3363732D01*
X2209240Y3362721D01*
X2210857Y3362013D01*
X2212374Y3361609D01*
X2213789Y3361306D01*
X2214800Y3361205D01*
X2215204Y3361104D01*
X2215811D01*
X2217732Y3361205D01*
X2218540Y3361407D01*
X2219248Y3361508D01*
X2219855Y3361710D01*
X2220360Y3361912D01*
X2220663Y3362013D01*
X2220764D01*
X2222382Y3362822D01*
X2223090Y3363226D01*
X2223696Y3363732D01*
X2224100Y3364136D01*
X2224505Y3364440D01*
X2224707Y3364642D01*
X2224808Y3364743D01*
X2226021Y3366259D01*
X2226931Y3367776D01*
X2227234Y3368382D01*
X2227436Y3368888D01*
X2227639Y3369292D01*
Y3369393D01*
X2228245Y3371617D01*
X2228447Y3372729D01*
X2228549Y3373740D01*
X2228650Y3374650D01*
Y3375357D01*
Y3375762D01*
Y3375964D01*
D02*
G37*
G36*
X2354509Y3403562D02*
X2354307D01*
X2352487Y3403360D01*
X2351679Y3403259D01*
X2350971Y3403057D01*
X2350364Y3402855D01*
X2349960Y3402753D01*
X2349657Y3402551D01*
X2349556D01*
X2348848Y3402046D01*
X2348140Y3401540D01*
X2347129Y3400327D01*
X2346725Y3399822D01*
X2346422Y3399417D01*
X2346220Y3399114D01*
X2346118Y3399013D01*
X2345613Y3398002D01*
X2345209Y3396991D01*
X2344804Y3395980D01*
X2344501Y3394969D01*
X2344299Y3394161D01*
X2344097Y3393453D01*
X2343996Y3393049D01*
Y3392846D01*
X2343793Y3391330D01*
X2343591Y3389814D01*
X2343490Y3388297D01*
X2343389Y3386882D01*
X2343288Y3385568D01*
Y3384658D01*
Y3384254D01*
Y3383950D01*
Y3383849D01*
Y3383748D01*
X2343389Y3381928D01*
X2343490Y3380210D01*
X2343692Y3378694D01*
X2343894Y3377379D01*
X2344097Y3376267D01*
X2344198Y3375459D01*
X2344400Y3374953D01*
Y3374751D01*
X2344905Y3373336D01*
X2345411Y3372021D01*
X2345916Y3370808D01*
X2346422Y3369797D01*
X2346927Y3369090D01*
X2347332Y3368483D01*
X2347534Y3368079D01*
X2347635Y3367978D01*
X2348444Y3366967D01*
X2349353Y3366057D01*
X2350162Y3365349D01*
X2350971Y3364743D01*
X2351679Y3364237D01*
X2352184Y3363934D01*
X2352588Y3363732D01*
X2352689Y3363631D01*
X2353801Y3363125D01*
X2355015Y3362721D01*
X2356127Y3362418D01*
X2357138Y3362216D01*
X2358047Y3362114D01*
X2358755Y3362013D01*
X2359362D01*
X2361383Y3362114D01*
X2362293Y3362216D01*
X2363102D01*
X2363709Y3362317D01*
X2364315Y3362418D01*
X2364618Y3362519D01*
X2364719D01*
X2365730Y3362721D01*
X2366640Y3362822D01*
X2367348Y3363024D01*
X2368055Y3363226D01*
X2368662Y3363429D01*
X2369066Y3363530D01*
X2369269Y3363631D01*
X2369370D01*
Y3391734D01*
X2367853Y3393655D01*
X2366438Y3395475D01*
X2365225Y3396890D01*
X2364113Y3398204D01*
X2363102Y3399114D01*
X2362394Y3399822D01*
X2361990Y3400327D01*
X2361788Y3400428D01*
X2360474Y3401439D01*
X2359159Y3402248D01*
X2357845Y3402753D01*
X2356733Y3403158D01*
X2355722Y3403360D01*
X2355015Y3403461D01*
X2354509Y3403562D01*
D02*
G37*
G36*
X2001496Y1759317D02*
X2000990D01*
X1999676Y1759216D01*
X1998564Y1759115D01*
X1997452Y1758912D01*
X1996542Y1758710D01*
X1995734Y1758508D01*
X1995228Y1758306D01*
X1994824Y1758104D01*
X1994723D01*
X1993813Y1757598D01*
X1992903Y1756992D01*
X1992195Y1756284D01*
X1991488Y1755677D01*
X1990982Y1755071D01*
X1990578Y1754565D01*
X1990376Y1754262D01*
X1990275Y1754161D01*
X1989668Y1753049D01*
X1989062Y1751836D01*
X1988657Y1750623D01*
X1988253Y1749511D01*
X1987950Y1748500D01*
X1987747Y1747691D01*
X1987545Y1747186D01*
Y1746984D01*
X1987242Y1745265D01*
X1987040Y1743445D01*
X1986939Y1741626D01*
X1986838Y1739907D01*
X1986736Y1738391D01*
Y1737784D01*
Y1737279D01*
Y1736773D01*
Y1736470D01*
Y1736268D01*
Y1736167D01*
X1987747Y1735661D01*
X1988657Y1735156D01*
X1989062Y1735055D01*
X1989365Y1734853D01*
X1989567Y1734751D01*
X1989668D01*
X1990982Y1734246D01*
X1992094Y1733842D01*
X1992499Y1733639D01*
X1992903Y1733538D01*
X1993105Y1733437D01*
X1993206D01*
X1994622Y1733033D01*
X1995835Y1732730D01*
X1996340Y1732628D01*
X1996745D01*
X1996947Y1732527D01*
X1997048D01*
X1998564Y1732325D01*
X1999878Y1732123D01*
X2002406D01*
X2003518Y1732325D01*
X2004529Y1732426D01*
X2005438Y1732628D01*
X2006146Y1732831D01*
X2006652Y1732932D01*
X2006955Y1733134D01*
X2007056D01*
X2007966Y1733538D01*
X2008774Y1733943D01*
X2009482Y1734448D01*
X2010089Y1734853D01*
X2010594Y1735257D01*
X2010897Y1735560D01*
X2011100Y1735762D01*
X2011201Y1735863D01*
X2012313Y1737279D01*
X2013020Y1738593D01*
X2013324Y1739098D01*
X2013526Y1739604D01*
X2013627Y1739907D01*
Y1740008D01*
X2014132Y1741828D01*
X2014233Y1742738D01*
X2014335Y1743546D01*
X2014436Y1744355D01*
Y1744861D01*
Y1745265D01*
Y1745366D01*
X2014233Y1747590D01*
X2014132Y1748601D01*
X2013930Y1749410D01*
X2013728Y1750117D01*
X2013627Y1750623D01*
X2013425Y1751027D01*
Y1751128D01*
X2012616Y1752847D01*
X2012212Y1753656D01*
X2011706Y1754262D01*
X2011302Y1754768D01*
X2010999Y1755172D01*
X2010796Y1755374D01*
X2010695Y1755475D01*
X2009280Y1756688D01*
X2007966Y1757598D01*
X2007359Y1757901D01*
X2006854Y1758104D01*
X2006550Y1758306D01*
X2006449D01*
X2004529Y1758912D01*
X2003619Y1759115D01*
X2002810Y1759216D01*
X2002102D01*
X2001496Y1759317D01*
D02*
G37*
G36*
X2228650Y1525964D02*
X2201759D01*
X2202163Y1523437D01*
X2202770Y1521314D01*
X2203478Y1519393D01*
X2204286Y1517877D01*
X2204994Y1516664D01*
X2205601Y1515754D01*
X2206005Y1515249D01*
X2206207Y1515046D01*
X2207724Y1513732D01*
X2209240Y1512721D01*
X2210857Y1512014D01*
X2212374Y1511609D01*
X2213789Y1511306D01*
X2214800Y1511205D01*
X2215204Y1511104D01*
X2215811D01*
X2217732Y1511205D01*
X2218540Y1511407D01*
X2219248Y1511508D01*
X2219855Y1511710D01*
X2220360Y1511913D01*
X2220663Y1512014D01*
X2220764D01*
X2222382Y1512822D01*
X2223090Y1513227D01*
X2223696Y1513732D01*
X2224100Y1514137D01*
X2224505Y1514440D01*
X2224707Y1514642D01*
X2224808Y1514743D01*
X2226021Y1516260D01*
X2226931Y1517776D01*
X2227234Y1518383D01*
X2227436Y1518888D01*
X2227639Y1519292D01*
Y1519393D01*
X2228245Y1521617D01*
X2228447Y1522729D01*
X2228549Y1523740D01*
X2228650Y1524650D01*
Y1525358D01*
Y1525762D01*
Y1525964D01*
D02*
G37*
G36*
X2354509Y1553563D02*
X2354307D01*
X2352487Y1553360D01*
X2351679Y1553259D01*
X2350971Y1553057D01*
X2350364Y1552855D01*
X2349960Y1552754D01*
X2349657Y1552552D01*
X2349556D01*
X2348848Y1552046D01*
X2348140Y1551541D01*
X2347129Y1550328D01*
X2346725Y1549822D01*
X2346422Y1549418D01*
X2346220Y1549115D01*
X2346118Y1549013D01*
X2345613Y1548002D01*
X2345209Y1546992D01*
X2344804Y1545981D01*
X2344501Y1544970D01*
X2344299Y1544161D01*
X2344097Y1543453D01*
X2343996Y1543049D01*
Y1542847D01*
X2343793Y1541330D01*
X2343591Y1539814D01*
X2343490Y1538298D01*
X2343389Y1536882D01*
X2343288Y1535568D01*
Y1534658D01*
Y1534254D01*
Y1533951D01*
Y1533850D01*
Y1533749D01*
X2343389Y1531929D01*
X2343490Y1530210D01*
X2343692Y1528694D01*
X2343894Y1527380D01*
X2344097Y1526268D01*
X2344198Y1525459D01*
X2344400Y1524954D01*
Y1524751D01*
X2344905Y1523336D01*
X2345411Y1522022D01*
X2345916Y1520809D01*
X2346422Y1519798D01*
X2346927Y1519090D01*
X2347332Y1518484D01*
X2347534Y1518079D01*
X2347635Y1517978D01*
X2348444Y1516967D01*
X2349353Y1516057D01*
X2350162Y1515350D01*
X2350971Y1514743D01*
X2351679Y1514238D01*
X2352184Y1513934D01*
X2352588Y1513732D01*
X2352689Y1513631D01*
X2353801Y1513126D01*
X2355015Y1512721D01*
X2356127Y1512418D01*
X2357138Y1512216D01*
X2358047Y1512115D01*
X2358755Y1512014D01*
X2359362D01*
X2361383Y1512115D01*
X2362293Y1512216D01*
X2363102D01*
X2363709Y1512317D01*
X2364315Y1512418D01*
X2364618Y1512519D01*
X2364719D01*
X2365730Y1512721D01*
X2366640Y1512822D01*
X2367348Y1513025D01*
X2368055Y1513227D01*
X2368662Y1513429D01*
X2369066Y1513530D01*
X2369269Y1513631D01*
X2369370D01*
Y1541735D01*
X2367853Y1543656D01*
X2366438Y1545475D01*
X2365225Y1546890D01*
X2364113Y1548205D01*
X2363102Y1549115D01*
X2362394Y1549822D01*
X2361990Y1550328D01*
X2361788Y1550429D01*
X2360474Y1551440D01*
X2359159Y1552248D01*
X2357845Y1552754D01*
X2356733Y1553158D01*
X2355722Y1553360D01*
X2355015Y1553461D01*
X2354509Y1553563D01*
D02*
G37*
G36*
X2223090Y6015964D02*
X2196199D01*
X2196603Y6013437D01*
X2197210Y6011314D01*
X2197918Y6009393D01*
X2198726Y6007876D01*
X2199434Y6006663D01*
X2200041Y6005754D01*
X2200445Y6005248D01*
X2200647Y6005046D01*
X2202163Y6003732D01*
X2203680Y6002721D01*
X2205297Y6002013D01*
X2206814Y6001609D01*
X2208229Y6001305D01*
X2209240Y6001204D01*
X2209644Y6001103D01*
X2210251D01*
X2212172Y6001204D01*
X2212980Y6001407D01*
X2213688Y6001508D01*
X2214295Y6001710D01*
X2214800Y6001912D01*
X2215103Y6002013D01*
X2215204D01*
X2216822Y6002822D01*
X2217529Y6003226D01*
X2218136Y6003732D01*
X2218540Y6004136D01*
X2218945Y6004439D01*
X2219147Y6004642D01*
X2219248Y6004743D01*
X2220461Y6006259D01*
X2221371Y6007775D01*
X2221674Y6008382D01*
X2221876Y6008887D01*
X2222079Y6009292D01*
Y6009393D01*
X2222685Y6011617D01*
X2222887Y6012729D01*
X2222988Y6013740D01*
X2223090Y6014650D01*
Y6015357D01*
Y6015762D01*
Y6015964D01*
D02*
G37*
G36*
X2348949Y6043562D02*
X2348747D01*
X2346927Y6043360D01*
X2346118Y6043259D01*
X2345411Y6043056D01*
X2344804Y6042854D01*
X2344400Y6042753D01*
X2344097Y6042551D01*
X2343996D01*
X2343288Y6042046D01*
X2342580Y6041540D01*
X2341569Y6040327D01*
X2341165Y6039822D01*
X2340862Y6039417D01*
X2340660Y6039114D01*
X2340558Y6039013D01*
X2340053Y6038002D01*
X2339649Y6036991D01*
X2339244Y6035980D01*
X2338941Y6034969D01*
X2338739Y6034160D01*
X2338537Y6033453D01*
X2338436Y6033048D01*
Y6032846D01*
X2338233Y6031330D01*
X2338031Y6029813D01*
X2337930Y6028297D01*
X2337829Y6026882D01*
X2337728Y6025568D01*
Y6024658D01*
Y6024253D01*
Y6023950D01*
Y6023849D01*
Y6023748D01*
X2337829Y6021928D01*
X2337930Y6020210D01*
X2338132Y6018693D01*
X2338334Y6017379D01*
X2338537Y6016267D01*
X2338638Y6015458D01*
X2338840Y6014953D01*
Y6014751D01*
X2339345Y6013335D01*
X2339851Y6012021D01*
X2340356Y6010808D01*
X2340862Y6009797D01*
X2341367Y6009090D01*
X2341772Y6008483D01*
X2341974Y6008079D01*
X2342075Y6007978D01*
X2342884Y6006967D01*
X2343793Y6006057D01*
X2344602Y6005349D01*
X2345411Y6004743D01*
X2346118Y6004237D01*
X2346624Y6003934D01*
X2347028Y6003732D01*
X2347129Y6003631D01*
X2348241Y6003125D01*
X2349455Y6002721D01*
X2350567Y6002418D01*
X2351577Y6002215D01*
X2352487Y6002114D01*
X2353195Y6002013D01*
X2353801D01*
X2355823Y6002114D01*
X2356733Y6002215D01*
X2357542D01*
X2358148Y6002316D01*
X2358755Y6002418D01*
X2359058Y6002519D01*
X2359159D01*
X2360170Y6002721D01*
X2361080Y6002822D01*
X2361788Y6003024D01*
X2362495Y6003226D01*
X2363102Y6003428D01*
X2363506Y6003530D01*
X2363709Y6003631D01*
X2363810D01*
Y6031734D01*
X2362293Y6033655D01*
X2360878Y6035475D01*
X2359665Y6036890D01*
X2358553Y6038204D01*
X2357542Y6039114D01*
X2356834Y6039822D01*
X2356430Y6040327D01*
X2356228Y6040428D01*
X2354914Y6041439D01*
X2353599Y6042248D01*
X2352285Y6042753D01*
X2351173Y6043158D01*
X2350162Y6043360D01*
X2349455Y6043461D01*
X2348949Y6043562D01*
D02*
G37*
G36*
X1999070Y8903461D02*
X1998463D01*
X1997149Y8903360D01*
X1996037Y8903259D01*
X1993813Y8902653D01*
X1991892Y8901844D01*
X1990376Y8900934D01*
X1989062Y8900024D01*
X1988152Y8899216D01*
X1987646Y8898609D01*
X1987444Y8898508D01*
Y8898407D01*
X1986736Y8897396D01*
X1986130Y8896284D01*
X1985119Y8893858D01*
X1984411Y8891330D01*
X1983906Y8888904D01*
X1983704Y8887792D01*
X1983603Y8886680D01*
X1983501Y8885669D01*
Y8884861D01*
X1983400Y8884153D01*
Y8883647D01*
Y8883344D01*
Y8883243D01*
Y8881727D01*
X1983501Y8880210D01*
X1983704Y8878896D01*
X1983805Y8877683D01*
X1984007Y8876773D01*
X1984108Y8875964D01*
X1984209Y8875560D01*
Y8875358D01*
X1984512Y8874044D01*
X1984917Y8872730D01*
X1985422Y8871618D01*
X1985827Y8870708D01*
X1986231Y8869899D01*
X1986534Y8869393D01*
X1986736Y8868989D01*
X1986838Y8868888D01*
X1987646Y8867877D01*
X1988354Y8867068D01*
X1989163Y8866260D01*
X1989971Y8865653D01*
X1990578Y8865148D01*
X1991083Y8864844D01*
X1991488Y8864642D01*
X1991589Y8864541D01*
X1992701Y8864036D01*
X1993813Y8863631D01*
X1995026Y8863328D01*
X1996138Y8863126D01*
X1997048Y8863025D01*
X1997755Y8862924D01*
X1998463D01*
X1999777Y8863025D01*
X2001092Y8863126D01*
X2003316Y8863732D01*
X2005236Y8864541D01*
X2006753Y8865451D01*
X2007966Y8866361D01*
X2008876Y8867169D01*
X2009381Y8867776D01*
X2009583Y8867877D01*
Y8867978D01*
X2010291Y8868989D01*
X2010897Y8870101D01*
X2011807Y8872426D01*
X2012515Y8874954D01*
X2012919Y8877380D01*
X2013121Y8878593D01*
X2013223Y8879604D01*
X2013324Y8880514D01*
Y8881423D01*
X2013425Y8882131D01*
Y8882637D01*
Y8882940D01*
Y8883041D01*
Y8884658D01*
X2013324Y8886175D01*
X2013121Y8887489D01*
X2013020Y8888702D01*
X2012818Y8889713D01*
X2012616Y8890522D01*
X2012515Y8890926D01*
Y8891128D01*
X2012111Y8892442D01*
X2011706Y8893757D01*
X2011302Y8894869D01*
X2010796Y8895779D01*
X2010392Y8896587D01*
X2010089Y8897194D01*
X2009887Y8897598D01*
X2009785Y8897699D01*
X2009078Y8898710D01*
X2008370Y8899519D01*
X2007561Y8900227D01*
X2006854Y8900833D01*
X2006146Y8901339D01*
X2005641Y8901642D01*
X2005236Y8901844D01*
X2005135Y8901945D01*
X2004023Y8902451D01*
X2002911Y8902855D01*
X2001799Y8903057D01*
X2000788Y8903259D01*
X1999878Y8903360D01*
X1999070Y8903461D01*
D02*
G37*
G36*
X1925070Y8875863D02*
X1915669D01*
Y8845536D01*
X1925475D01*
X1926890Y8845738D01*
X1928204Y8845839D01*
X1929417Y8846041D01*
X1930327Y8846243D01*
X1930934Y8846446D01*
X1931439Y8846547D01*
X1931540Y8846648D01*
X1932652Y8847052D01*
X1933764Y8847558D01*
X1934674Y8848063D01*
X1935483Y8848467D01*
X1936089Y8848872D01*
X1936494Y8849276D01*
X1936797Y8849478D01*
X1936898Y8849579D01*
X1937606Y8850287D01*
X1938313Y8851096D01*
X1938819Y8851803D01*
X1939223Y8852511D01*
X1939628Y8853118D01*
X1939830Y8853623D01*
X1940032Y8854028D01*
Y8854129D01*
X1940436Y8855140D01*
X1940638Y8856150D01*
X1940841Y8857161D01*
X1941043Y8858071D01*
Y8858880D01*
X1941144Y8859486D01*
Y8859891D01*
Y8860093D01*
Y8861407D01*
X1940942Y8862620D01*
X1940841Y8863732D01*
X1940638Y8864743D01*
X1940436Y8865552D01*
X1940234Y8866159D01*
X1940133Y8866563D01*
X1940032Y8866664D01*
X1939526Y8867675D01*
X1939021Y8868585D01*
X1938516Y8869495D01*
X1937909Y8870202D01*
X1937505Y8870809D01*
X1937100Y8871213D01*
X1936797Y8871516D01*
X1936696Y8871618D01*
X1934977Y8873033D01*
X1933259Y8874044D01*
X1932551Y8874347D01*
X1931945Y8874650D01*
X1931540Y8874751D01*
X1931439Y8874852D01*
X1929013Y8875459D01*
X1927901Y8875661D01*
X1926789Y8875762D01*
X1925778D01*
X1925070Y8875863D01*
D02*
G37*
G36*
X1931237Y7579064D02*
X1930731D01*
X1929417Y7578963D01*
X1928305Y7578862D01*
X1927193Y7578659D01*
X1926283Y7578457D01*
X1925475Y7578255D01*
X1924969Y7578053D01*
X1924565Y7577851D01*
X1924464D01*
X1923554Y7577345D01*
X1922644Y7576739D01*
X1921936Y7576031D01*
X1921229Y7575425D01*
X1920723Y7574818D01*
X1920319Y7574313D01*
X1920117Y7574009D01*
X1920016Y7573908D01*
X1919409Y7572796D01*
X1918803Y7571583D01*
X1918398Y7570370D01*
X1917994Y7569258D01*
X1917691Y7568247D01*
X1917488Y7567438D01*
X1917286Y7566933D01*
Y7566731D01*
X1916983Y7565012D01*
X1916781Y7563192D01*
X1916680Y7561373D01*
X1916579Y7559654D01*
X1916477Y7558138D01*
Y7557531D01*
Y7557026D01*
Y7556520D01*
Y7556217D01*
Y7556015D01*
Y7555914D01*
X1917488Y7555408D01*
X1918398Y7554903D01*
X1918803Y7554802D01*
X1919106Y7554600D01*
X1919308Y7554498D01*
X1919409D01*
X1920723Y7553993D01*
X1921835Y7553589D01*
X1922240Y7553386D01*
X1922644Y7553285D01*
X1922846Y7553184D01*
X1922947D01*
X1924363Y7552780D01*
X1925576Y7552477D01*
X1926081Y7552376D01*
X1926486D01*
X1926688Y7552274D01*
X1926789D01*
X1928305Y7552072D01*
X1929619Y7551870D01*
X1932147D01*
X1933259Y7552072D01*
X1934270Y7552173D01*
X1935180Y7552376D01*
X1935887Y7552578D01*
X1936393Y7552679D01*
X1936696Y7552881D01*
X1936797D01*
X1937707Y7553285D01*
X1938516Y7553690D01*
X1939223Y7554195D01*
X1939830Y7554600D01*
X1940335Y7555004D01*
X1940638Y7555307D01*
X1940841Y7555509D01*
X1940942Y7555610D01*
X1942054Y7557026D01*
X1942761Y7558340D01*
X1943065Y7558845D01*
X1943267Y7559351D01*
X1943368Y7559654D01*
Y7559755D01*
X1943873Y7561575D01*
X1943975Y7562485D01*
X1944076Y7563293D01*
X1944177Y7564102D01*
Y7564608D01*
Y7565012D01*
Y7565113D01*
X1943975Y7567337D01*
X1943873Y7568348D01*
X1943671Y7569157D01*
X1943469Y7569864D01*
X1943368Y7570370D01*
X1943166Y7570774D01*
Y7570875D01*
X1942357Y7572594D01*
X1941953Y7573403D01*
X1941447Y7574009D01*
X1941043Y7574515D01*
X1940740Y7574919D01*
X1940537Y7575121D01*
X1940436Y7575222D01*
X1939021Y7576435D01*
X1937707Y7577345D01*
X1937100Y7577649D01*
X1936595Y7577851D01*
X1936292Y7578053D01*
X1936190D01*
X1934270Y7578659D01*
X1933360Y7578862D01*
X1932551Y7578963D01*
X1931843D01*
X1931237Y7579064D01*
D02*
G37*
%LPD*%
D19*
X8880000Y8760000D02*
X9300000D01*
X8620000Y7439999D02*
X8689999D01*
%TF.MD5,d43b9d11747ee2b68816e70e3ff62144*%
M02*
