%TF.GenerationSoftware,Altium Limited,Altium Designer,24.7.2 (38)*%
G04 Layer_Physical_Order=3*
G04 Layer_Color=36540*
%FSLAX45Y45*%
%MOMM*%
%TF.SameCoordinates,9240EED7-9CEB-46DE-ACC5-CDE2BC50BDCE*%
%TF.FilePolarity,Positive*%
%TF.FileFunction,Copper,L3,Inr,Signal*%
%TF.Part,Single*%
G01*
G75*
%TA.AperFunction,NonConductor*%
%ADD13C,0.25400*%
%TA.AperFunction,WasherPad*%
%ADD15C,2.00000*%
%ADD16C,0.60000*%
%TA.AperFunction,ViaPad*%
%ADD17C,0.45000*%
%TA.AperFunction,Conductor*%
%ADD18C,0.12443*%
G36*
X1501055Y9308568D02*
X1535528Y9301711D01*
X1567300Y9288551D01*
X1596524Y9269024D01*
X1609286Y9257456D01*
X1703974Y9162768D01*
X1703976Y9162766D01*
X1703977Y9162765D01*
X1721665Y9145076D01*
X1724170Y9143403D01*
X1726301Y9141272D01*
X1767902Y9113475D01*
X1770686Y9112322D01*
X1773191Y9110649D01*
X1819415Y9091502D01*
X1822370Y9090914D01*
X1825154Y9089761D01*
X1870001Y9080840D01*
Y9080000D01*
X1874225D01*
X1874226Y9080000D01*
X1877239D01*
X1880193Y9079412D01*
X1905210Y9079412D01*
X2050000D01*
X2052955Y9080000D01*
X2547045D01*
X2550000Y9079412D01*
X4470000D01*
X4472955Y9080000D01*
X4967045D01*
X4970000Y9079412D01*
X6890000D01*
X6892955Y9080000D01*
X7387040D01*
X7390000Y9079411D01*
X8394058D01*
X8415973Y9078366D01*
X8459638Y9069717D01*
X8500059Y9052974D01*
X8537050Y9028214D01*
X8553284Y9013458D01*
X8653971Y8912772D01*
X8653972Y8912771D01*
X8653976Y8912767D01*
X8653977Y8912766D01*
X8653977Y8912765D01*
X8671658Y8895077D01*
X8674163Y8893402D01*
X8676295Y8891270D01*
X8717894Y8863467D01*
X8720680Y8862312D01*
X8723186Y8860638D01*
X8769412Y8841490D01*
X8772369Y8840902D01*
X8775154Y8839749D01*
X8824229Y8829993D01*
X8827244Y8829994D01*
X8830200Y8829406D01*
X8830633D01*
X8837531Y8826478D01*
X8849557Y8818211D01*
X8859693Y8807712D01*
X8867531Y8795402D01*
X8870856Y8786736D01*
X1244904D01*
X1244617Y8786864D01*
X1244116Y8787140D01*
X1243456Y8787572D01*
X1242646Y8788186D01*
X1241697Y8789004D01*
X1240245Y8790408D01*
X1238702Y8791402D01*
X1234074Y8796030D01*
X1218454Y8802500D01*
X1201546D01*
X1185926Y8796030D01*
X1173970Y8784075D01*
X1167500Y8768454D01*
Y8751547D01*
X1173970Y8735926D01*
X1185926Y8723971D01*
X1201546Y8717501D01*
X1218454D01*
X1234074Y8723971D01*
X1238702Y8728598D01*
X1240245Y8729592D01*
X1241697Y8730997D01*
X1242646Y8731815D01*
X1243456Y8732429D01*
X1244117Y8732861D01*
X1244617Y8733136D01*
X1244903Y8733265D01*
X8870825D01*
X8867565Y8724741D01*
X8859730Y8712415D01*
X8849592Y8701900D01*
X8837559Y8693621D01*
X8830441Y8690598D01*
X8830207D01*
X8827248Y8690011D01*
X8824232Y8690012D01*
X8775153Y8680262D01*
X8772366Y8679108D01*
X8769408Y8678520D01*
X8723180Y8659371D01*
X8720672Y8657696D01*
X8717885Y8656540D01*
X8676287Y8628731D01*
X8674155Y8626598D01*
X8671648Y8624921D01*
X8653966Y8607221D01*
X8544120Y8497376D01*
X8530157Y8484721D01*
X8498245Y8463398D01*
X8463485Y8449000D01*
X8425842Y8441512D01*
X8407021Y8440588D01*
X7390000D01*
X7387047Y8440000D01*
X6892953D01*
X6890000Y8440588D01*
X4970000D01*
X4967046Y8440000D01*
X4472953D01*
X4470000Y8440588D01*
X2550000D01*
X2547046Y8440000D01*
X2052953D01*
X2050000Y8440588D01*
X1905211D01*
X1905206Y8440587D01*
X1880195Y8440587D01*
X1877244Y8440000D01*
X1870001D01*
Y8439159D01*
X1825155Y8430239D01*
X1822372Y8429086D01*
X1819417Y8428498D01*
X1773192Y8409351D01*
X1770687Y8407678D01*
X1767903Y8406524D01*
X1726302Y8378727D01*
X1724171Y8376597D01*
X1721667Y8374923D01*
X1703978Y8357234D01*
X1703977Y8357234D01*
X1609287Y8262543D01*
X1596522Y8250975D01*
X1567300Y8231449D01*
X1535526Y8218288D01*
X1501055Y8211432D01*
X1483853Y8210587D01*
X1324920D01*
X690589D01*
X690590Y9309413D01*
X1483831D01*
X1501055Y9308568D01*
D02*
G37*
G36*
X1227940Y8773940D02*
X1229819Y8772320D01*
X1231706Y8770891D01*
X1233600Y8769652D01*
X1235502Y8768604D01*
X1237411Y8767746D01*
X1239328Y8767079D01*
X1241252Y8766603D01*
X1243183Y8766317D01*
X1245123Y8766222D01*
Y8753779D01*
X1243183Y8753683D01*
X1241252Y8753398D01*
X1239327Y8752921D01*
X1237411Y8752254D01*
X1235502Y8751397D01*
X1233600Y8750349D01*
X1231706Y8749110D01*
X1229819Y8747680D01*
X1227940Y8746061D01*
X1226068Y8744250D01*
X1226068Y8775750D01*
X1227940Y8773940D01*
D02*
G37*
G36*
X9064933Y7752120D02*
X9112837Y7736555D01*
X9157716Y7713688D01*
X9198465Y7684082D01*
X9234082Y7648466D01*
X9263688Y7607716D01*
X9286555Y7562837D01*
X9302120Y7514933D01*
X9309999Y7465184D01*
X9310000Y7414815D01*
X9302120Y7365066D01*
X9286555Y7317162D01*
X9263688Y7272283D01*
X9234082Y7231534D01*
X9198466Y7195918D01*
X9157716Y7166311D01*
X9112837Y7143444D01*
X9064933Y7127879D01*
X9015184Y7120000D01*
X8990000Y7120000D01*
X8670000Y7440000D01*
X8990000Y7759999D01*
X8989999Y7759999D01*
X9015184Y7759999D01*
X9064933Y7752120D01*
D02*
G37*
G36*
X1492862Y7988968D02*
X1500772Y7988580D01*
X1521033Y7984593D01*
X1535380Y7981740D01*
X1555496Y7973439D01*
X1567213Y7968586D01*
X1589752Y7953547D01*
X1596505Y7949036D01*
X1608712Y7937975D01*
X1609284Y7937457D01*
X1703971Y7842770D01*
X1703974Y7842765D01*
X1721664Y7825075D01*
X1724169Y7823402D01*
X1726299Y7821271D01*
X1767901Y7793474D01*
X1770684Y7792321D01*
X1773189Y7790647D01*
X1819414Y7771500D01*
X1822370Y7770913D01*
X1825152Y7769760D01*
X1874225Y7759999D01*
X1877238D01*
X1880193Y7759411D01*
X1905210Y7759412D01*
X2049999D01*
X2052955Y7760000D01*
X2547047D01*
X2550000Y7759412D01*
X4470000D01*
X4472952Y7760000D01*
X4840904D01*
X4967047D01*
X4970000Y7759412D01*
X6890000D01*
X6892951Y7759999D01*
X7387049D01*
X7390000Y7759412D01*
X8289898D01*
X8325530Y7752325D01*
X8361878Y7737268D01*
X8394589Y7715410D01*
X8408498Y7701500D01*
X8408499Y7701501D01*
X8572465Y7537534D01*
X8582074Y7527931D01*
X8597174Y7505345D01*
X8607576Y7480247D01*
X8610241Y7466865D01*
X8610266Y7466735D01*
X1244903D01*
X1244615Y7466865D01*
X1244115Y7467140D01*
X1243455Y7467572D01*
X1242644Y7468186D01*
X1241697Y7469003D01*
X1240245Y7470407D01*
X1238702Y7471401D01*
X1234074Y7476029D01*
X1218454Y7482499D01*
X1201546D01*
X1185926Y7476029D01*
X1173970Y7464073D01*
X1167500Y7448453D01*
Y7431545D01*
X1173970Y7415925D01*
X1185926Y7403969D01*
X1201546Y7397499D01*
X1218454D01*
X1234074Y7403969D01*
X1238704Y7408599D01*
X1240246Y7409593D01*
X1241697Y7410996D01*
X1242647Y7411815D01*
X1243458Y7412430D01*
X1244117Y7412861D01*
X1244618Y7413137D01*
X1244904Y7413265D01*
X8610266D01*
X8609339Y7408599D01*
X8607587Y7399786D01*
X8597191Y7374685D01*
X8582096Y7352096D01*
X8572490Y7342491D01*
X8572491Y7342491D01*
X8408776Y7178777D01*
X8394824Y7164802D01*
X8361999Y7142840D01*
X8325516Y7127711D01*
X8289738Y7120588D01*
X7390000D01*
X7387045Y7120000D01*
X6892955D01*
X6890000Y7120588D01*
X4970000D01*
X4967045Y7120000D01*
X4472955D01*
X4470000Y7120588D01*
X2050000D01*
Y7120587D01*
X2049999Y7120587D01*
X1905210D01*
X1905195Y7120584D01*
X1880193Y7120585D01*
X1877239Y7119997D01*
X1874226Y7119997D01*
X1825154Y7110237D01*
X1822370Y7109085D01*
X1819415Y7108497D01*
X1773191Y7089350D01*
X1770686Y7087677D01*
X1767902Y7086524D01*
X1726301Y7058727D01*
X1724170Y7056597D01*
X1721665Y7054922D01*
X1703977Y7037234D01*
X1703976Y7037233D01*
X1609292Y6942549D01*
X1596521Y6930974D01*
X1567297Y6911448D01*
X1535525Y6898288D01*
X1501054Y6891431D01*
X1483878Y6890587D01*
X690588Y6890587D01*
X690589Y7989412D01*
X1483307D01*
X1492862Y7988968D01*
D02*
G37*
G36*
X1227939Y7453939D02*
X1229819Y7452320D01*
X1231705Y7450891D01*
X1233600Y7449652D01*
X1235501Y7448604D01*
X1237411Y7447746D01*
X1239327Y7447079D01*
X1241252Y7446603D01*
X1243183Y7446317D01*
X1245122Y7446222D01*
X1245123Y7433778D01*
X1243184Y7433683D01*
X1241252Y7433397D01*
X1239328Y7432921D01*
X1237411Y7432254D01*
X1235502Y7431396D01*
X1233600Y7430348D01*
X1231706Y7429109D01*
X1229820Y7427680D01*
X1227941Y7426060D01*
X1226069Y7424250D01*
X1226068Y7455750D01*
X1227939Y7453939D01*
D02*
G37*
G36*
X9286154Y6661632D02*
X9301628Y6646160D01*
X9310000Y6625943D01*
X9309998Y6615002D01*
X9309997Y5625001D01*
X9309998Y5614060D01*
X9301626Y5593845D01*
X9286154Y5578373D01*
X9265940Y5570000D01*
X8264999D01*
X8254059Y5569999D01*
X8233843Y5578372D01*
X8218372Y5593845D01*
X8209999Y5614060D01*
X8210000Y5625001D01*
Y6614999D01*
X8210000Y6614999D01*
X8209998Y6625940D01*
X8218370Y6646156D01*
X8233843Y6661629D01*
X8254059Y6670001D01*
X8264999Y6670000D01*
X9254996Y6670000D01*
X9254995Y6669998D01*
X9265936Y6670002D01*
X9286154Y6661632D01*
D02*
G37*
G36*
X1483858Y6669411D02*
X1501055Y6668568D01*
X1535527Y6661713D01*
X1567298Y6648553D01*
X1596520Y6629026D01*
X1609285Y6617455D01*
X1703972Y6522767D01*
X1703974Y6522765D01*
X1703975Y6522764D01*
X1721664Y6505075D01*
X1724169Y6503402D01*
X1726299Y6501271D01*
X1767900Y6473474D01*
X1770683Y6472321D01*
X1773188Y6470647D01*
X1819413Y6451500D01*
X1822369Y6450912D01*
X1825152Y6449760D01*
X1874224Y6439999D01*
X1877237D01*
X1880192Y6439411D01*
X1905209Y6439412D01*
X2049998D01*
X2052950Y6439999D01*
X2547053D01*
X2550000Y6439413D01*
X4470000D01*
X4472947Y6439999D01*
X4967053D01*
X4970000Y6439413D01*
X6889999D01*
X6892947Y6439999D01*
X7387053D01*
X7390000Y6439413D01*
X8131934D01*
X8134882Y6439999D01*
X8189608D01*
Y6146734D01*
X1243367D01*
X1234073Y6156028D01*
X1218453Y6162498D01*
X1201546D01*
X1185925Y6156028D01*
X1173970Y6144072D01*
X1167500Y6128452D01*
Y6111544D01*
X1173970Y6095924D01*
X1185925Y6083968D01*
X1201546Y6077498D01*
X1218453D01*
X1234073Y6083968D01*
X1243369Y6093264D01*
X8189608D01*
Y5799999D01*
X8134884D01*
X8131936Y5800585D01*
X8131936D01*
X8131935D01*
X8120001Y5800585D01*
X7390001Y5800585D01*
Y5800587D01*
X2049999D01*
X2049998Y5800587D01*
X1905209D01*
X1905207Y5800586D01*
X1880193Y5800587D01*
X1877238Y5799999D01*
X1874225D01*
X1825153Y5790239D01*
X1822369Y5789086D01*
X1819414Y5788498D01*
X1773189Y5769351D01*
X1770684Y5767678D01*
X1767900Y5766524D01*
X1726299Y5738726D01*
X1724169Y5736596D01*
X1721664Y5734922D01*
X1703975Y5717232D01*
X1609282Y5622540D01*
X1596520Y5610974D01*
X1567298Y5591448D01*
X1535523Y5578288D01*
X1501053Y5571431D01*
X1483861Y5570586D01*
X690587Y5570586D01*
X690588Y6669412D01*
X1483858Y6669411D01*
D02*
G37*
G36*
X1483843Y5349411D02*
X1501056Y5348566D01*
X1535528Y5341712D01*
X1567299Y5328551D01*
X1596521Y5309024D01*
X1609286Y5297453D01*
X1703973Y5202766D01*
X1703975Y5202764D01*
X1703976Y5202763D01*
X1721665Y5185074D01*
X1724170Y5183400D01*
X1726300Y5181270D01*
X1767901Y5153473D01*
X1770684Y5152320D01*
X1773189Y5150646D01*
X1819414Y5131499D01*
X1822370Y5130911D01*
X1825153Y5129759D01*
X1874225Y5119998D01*
X1877238D01*
X1880193Y5119410D01*
X1905210Y5119410D01*
X2049999D01*
X2052958Y5119999D01*
X2547047D01*
X2550001Y5119411D01*
X4469999D01*
X4472952Y5119999D01*
X4967045D01*
X4969999Y5119411D01*
X6889999D01*
X6892952Y5119999D01*
X7377744D01*
X7378290Y5119634D01*
X7378422Y5119608D01*
X7378525Y5119540D01*
X7383572Y5118579D01*
X7388607Y5117337D01*
X7388612Y5117337D01*
X7389307Y5117443D01*
X7389995Y5117306D01*
X7390000D01*
X7390001Y5117305D01*
X7390126Y5117330D01*
X7390249Y5117307D01*
X7525196Y5118401D01*
X7795089Y5119976D01*
X8065074Y5120734D01*
X8334922Y5120674D01*
D01*
X8469921Y5120336D01*
X8469958Y5120344D01*
X8469995Y5120336D01*
X8470000D01*
X8470042Y5120345D01*
X8470084Y5120336D01*
X8523792Y5120489D01*
X8523792D01*
X8631176Y5120664D01*
D01*
X8738497Y5120664D01*
X8845880Y5120490D01*
X8845881D01*
X8899591Y5120337D01*
X8902382Y5120884D01*
X8905384Y5120858D01*
X8930155Y5125563D01*
X8979824Y5129318D01*
X9028928Y5125667D01*
X9076937Y5114736D01*
X9122780Y5096768D01*
X9165430Y5072167D01*
X9203936Y5041480D01*
X9237437Y5005394D01*
X9265182Y4964718D01*
X9286550Y4920360D01*
X9301067Y4873308D01*
X9304580Y4850000D01*
X9252066D01*
X9243515Y4885619D01*
X9226876Y4925788D01*
X9204159Y4962859D01*
X9175922Y4995920D01*
X9142861Y5024157D01*
X9105790Y5046874D01*
X9065621Y5063513D01*
X9023344Y5073662D01*
X8980000Y5077074D01*
X8936655Y5073662D01*
X8894379Y5063513D01*
X8854210Y5046874D01*
X8817139Y5024157D01*
X8784078Y4995920D01*
X8755841Y4962859D01*
X8733124Y4925788D01*
X8716485Y4885619D01*
X8706335Y4843342D01*
X8705028Y4826733D01*
X1243368D01*
X1234074Y4836026D01*
X1218454Y4842497D01*
X1201547D01*
X1185926Y4836026D01*
X1173971Y4824071D01*
X1167501Y4808450D01*
Y4791543D01*
X1173971Y4775923D01*
X1185926Y4763967D01*
X1201547Y4757497D01*
X1218454D01*
X1234074Y4763967D01*
X1243370Y4773262D01*
X8730000D01*
X8740231Y4775298D01*
X8748905Y4781093D01*
X8754700Y4789767D01*
X8756735Y4799998D01*
X8756521Y4801075D01*
X8760711Y4843617D01*
X8773434Y4885560D01*
X8794096Y4924215D01*
X8821901Y4958096D01*
X8855783Y4985902D01*
X8894438Y5006564D01*
X8936381Y5019287D01*
X8980000Y5023583D01*
X9023619Y5019287D01*
X9065562Y5006564D01*
X9104217Y4985902D01*
X9138098Y4958096D01*
X9165904Y4924215D01*
X9186566Y4885560D01*
X9197352Y4850000D01*
X9143385D01*
X9142879Y4852542D01*
X9132326Y4878020D01*
X9130652Y4880525D01*
X9129499Y4883308D01*
X9114178Y4906238D01*
X9112047Y4908369D01*
X9110374Y4910874D01*
X9090874Y4930374D01*
X9088368Y4932048D01*
X9086238Y4934178D01*
X9063309Y4949499D01*
X9060525Y4950652D01*
X9058020Y4952326D01*
X9032542Y4962879D01*
X9029587Y4963467D01*
X9026804Y4964620D01*
X8999756Y4970000D01*
X8996743D01*
X8993789Y4970588D01*
X8966211D01*
X8963256Y4970000D01*
X8960244D01*
X8933196Y4964620D01*
X8930413Y4963467D01*
X8927458Y4962879D01*
X8901980Y4952326D01*
X8899475Y4950652D01*
X8896691Y4949499D01*
X8873762Y4934178D01*
X8871631Y4932047D01*
X8869126Y4930374D01*
X8849626Y4910874D01*
X8847952Y4908368D01*
X8845822Y4906238D01*
X8830501Y4883308D01*
X8829348Y4880525D01*
X8827674Y4878020D01*
X8817121Y4852542D01*
X8816533Y4849587D01*
X8815380Y4846804D01*
X8810000Y4819756D01*
Y4816743D01*
X8809412Y4813789D01*
Y4800000D01*
Y4786211D01*
X8810000Y4783256D01*
Y4780244D01*
X8815380Y4753196D01*
X8816533Y4750414D01*
X8817121Y4747458D01*
X8827674Y4721980D01*
X8829348Y4719475D01*
X8830501Y4716691D01*
X8845822Y4693762D01*
X8847953Y4691631D01*
X8849626Y4689126D01*
X8869126Y4669626D01*
X8871631Y4667952D01*
X8873762Y4665822D01*
X8896691Y4650501D01*
X8899475Y4649348D01*
X8901980Y4647674D01*
X8927458Y4637121D01*
X8930413Y4636533D01*
X8933196Y4635380D01*
X8960244Y4630000D01*
X8963256D01*
X8966211Y4629412D01*
X8993789D01*
X8996743Y4630000D01*
X8999756D01*
X9026804Y4635380D01*
X9029586Y4636533D01*
X9032542Y4637121D01*
X9058020Y4647674D01*
X9060525Y4649348D01*
X9063309Y4650501D01*
X9086238Y4665822D01*
X9088369Y4667953D01*
X9090874Y4669626D01*
X9110374Y4689126D01*
X9112048Y4691631D01*
X9114178Y4693762D01*
X9129499Y4716691D01*
X9130652Y4719475D01*
X9132326Y4721980D01*
X9142879Y4747458D01*
X9143385Y4750000D01*
X9197354D01*
X9186566Y4714436D01*
X9165904Y4675781D01*
X9138098Y4641899D01*
X9104217Y4614094D01*
X9065562Y4593432D01*
X9023619Y4580709D01*
X8980000Y4576413D01*
X8936381Y4580709D01*
X8894438Y4593432D01*
X8855783Y4614094D01*
X8821901Y4641899D01*
X8794096Y4675781D01*
D01*
D01*
X8794095Y4675780D01*
X8791360Y4679984D01*
X8783757Y4686455D01*
X8774279Y4689594D01*
X8764316Y4688943D01*
X8759612Y4687204D01*
X8781828Y4698732D01*
D01*
X8759570Y4687182D01*
X8759612Y4687203D01*
Y4687202D01*
X8755799Y4683322D01*
X8750048Y4674119D01*
X8747177Y4663653D01*
X8747426Y4652804D01*
X8748222Y4649570D01*
X8755841Y4637137D01*
X8784078Y4604076D01*
X8817139Y4575839D01*
X8854210Y4553121D01*
X8894379Y4536483D01*
X8936655Y4526333D01*
X8980000Y4522922D01*
X9023344Y4526333D01*
X9065621Y4536483D01*
X9105790Y4553121D01*
X9142861Y4575839D01*
X9175922Y4604076D01*
X9204159Y4637137D01*
X9226876Y4674208D01*
X9243515Y4714377D01*
X9252067Y4750000D01*
X9304554D01*
X9300985Y4726436D01*
X9286354Y4679243D01*
X9264821Y4634772D01*
X9236874Y4594028D01*
X9203138Y4557927D01*
X9164378Y4527285D01*
X9121467Y4502793D01*
X9075370Y4485001D01*
X9027131Y4474314D01*
X8977835Y4470970D01*
X8928018Y4475094D01*
X8903199Y4480004D01*
X8900202Y4480001D01*
X8897263Y4480585D01*
X2050000D01*
X2049999Y4480586D01*
X1905210D01*
X1905208Y4480585D01*
X1880194Y4480586D01*
X1877239Y4479998D01*
X1874226D01*
X1825154Y4470238D01*
X1822370Y4469085D01*
X1819415Y4468497D01*
X1773190Y4449350D01*
X1770685Y4447676D01*
X1767901Y4446523D01*
X1726300Y4418725D01*
X1724170Y4416595D01*
X1721665Y4414921D01*
X1703976Y4397231D01*
X1609283Y4302539D01*
X1596521Y4290973D01*
X1567299Y4271447D01*
X1535524Y4258286D01*
X1501054Y4251430D01*
X1483862Y4250585D01*
X690588Y4250585D01*
X690589Y5349411D01*
X894574D01*
X1483843Y5349411D01*
D02*
G37*
G36*
X8783140Y4056908D02*
X8856690Y4045333D01*
X8928150Y4024420D01*
X8996336Y3994514D01*
X9060124Y3956109D01*
X9118458Y3909841D01*
X9170377Y3856471D01*
X9215022Y3796884D01*
X9251654Y3732064D01*
X9279671Y3663079D01*
X9298608Y3591071D01*
X9306502Y3530000D01*
X9254073D01*
X9252839Y3548830D01*
X9239382Y3616485D01*
X9217209Y3681805D01*
X9186699Y3743672D01*
X9148376Y3801027D01*
X9102893Y3852890D01*
X9051031Y3898372D01*
X8993675Y3936696D01*
X8931808Y3967205D01*
X8866488Y3989378D01*
X8798833Y4002836D01*
X8730000Y4007347D01*
X8661167Y4002836D01*
X8593512Y3989378D01*
X8528192Y3967205D01*
X8466325Y3936696D01*
X8408969Y3898372D01*
X8357107Y3852890D01*
X8311624Y3801027D01*
X8273301Y3743672D01*
X8242791Y3681805D01*
X8220618Y3616485D01*
X8207161Y3548830D01*
X8204402Y3506732D01*
X1243367D01*
X1234074Y3516025D01*
X1218453Y3522495D01*
X1201546D01*
X1185925Y3516025D01*
X1173970Y3504070D01*
X1167500Y3488449D01*
Y3471542D01*
X1173970Y3455921D01*
X1185925Y3443966D01*
X1201546Y3437496D01*
X1218453D01*
X1234074Y3443966D01*
X1243369Y3453261D01*
X8230000D01*
X8240231Y3455296D01*
X8248905Y3461092D01*
X8254700Y3469765D01*
X8256735Y3479997D01*
X8256735Y3479998D01*
X8256735Y3480000D01*
X8256735D01*
X8256542Y3480970D01*
X8260529Y3541804D01*
X8272613Y3602553D01*
X8292522Y3661206D01*
X8319918Y3716758D01*
X8354329Y3768259D01*
X8395169Y3814828D01*
X8441738Y3855667D01*
X8493239Y3890079D01*
X8548791Y3917474D01*
X8607444Y3937384D01*
X8668193Y3949468D01*
X8730000Y3953519D01*
X8791807Y3949468D01*
X8852557Y3937384D01*
X8911209Y3917474D01*
X8966761Y3890079D01*
X9018262Y3855667D01*
X9064831Y3814828D01*
X9105671Y3768259D01*
X9140082Y3716758D01*
X9167478Y3661206D01*
X9187388Y3602553D01*
X9199471Y3541804D01*
X9200245Y3530000D01*
X9147634D01*
X9143653Y3560241D01*
X9143004Y3562151D01*
X9142872Y3564165D01*
X9129641Y3613547D01*
X9128748Y3615357D01*
X9128354Y3617336D01*
X9108790Y3664568D01*
X9107669Y3666245D01*
X9107020Y3668156D01*
X9081459Y3712431D01*
X9080128Y3713948D01*
X9079236Y3715758D01*
X9048113Y3756317D01*
X9046596Y3757648D01*
X9045475Y3759325D01*
X9009325Y3795475D01*
X9007648Y3796596D01*
X9006317Y3798113D01*
X8965758Y3829236D01*
X8963948Y3830128D01*
X8962431Y3831459D01*
X8918156Y3857020D01*
X8916246Y3857669D01*
X8914568Y3858790D01*
X8867336Y3878354D01*
X8865357Y3878748D01*
X8863547Y3879640D01*
X8814165Y3892872D01*
X8812152Y3893004D01*
X8810241Y3893653D01*
X8759554Y3900326D01*
X8757541Y3900194D01*
X8755562Y3900588D01*
X8704438D01*
X8702459Y3900194D01*
X8700445Y3900326D01*
X8649759Y3893653D01*
X8647848Y3893004D01*
X8645835Y3892872D01*
X8596453Y3879640D01*
X8594643Y3878748D01*
X8592664Y3878354D01*
X8545432Y3858790D01*
X8543754Y3857669D01*
X8541843Y3857020D01*
X8497569Y3831458D01*
X8496052Y3830128D01*
X8494242Y3829235D01*
X8453683Y3798113D01*
X8452352Y3796596D01*
X8450674Y3795475D01*
X8414524Y3759325D01*
X8413404Y3757648D01*
X8411886Y3756317D01*
X8380764Y3715758D01*
X8379871Y3713948D01*
X8378541Y3712431D01*
X8352979Y3668156D01*
X8352331Y3666245D01*
X8351210Y3664568D01*
X8331646Y3617335D01*
X8331252Y3615357D01*
X8330359Y3613547D01*
X8317127Y3564165D01*
X8316996Y3562151D01*
X8316347Y3560241D01*
X8309674Y3509554D01*
X8309806Y3507541D01*
X8309412Y3505562D01*
Y3480000D01*
Y3454438D01*
X8309806Y3452459D01*
X8309674Y3450445D01*
X8316347Y3399759D01*
X8316996Y3397848D01*
X8317127Y3395835D01*
X8330359Y3346453D01*
X8331252Y3344643D01*
X8331646Y3342664D01*
X8351210Y3295432D01*
X8352331Y3293754D01*
X8352979Y3291843D01*
X8378541Y3247569D01*
X8379872Y3246051D01*
X8380764Y3244242D01*
X8411886Y3203682D01*
X8413404Y3202352D01*
X8414524Y3200674D01*
X8450674Y3164524D01*
X8452352Y3163403D01*
X8453683Y3161886D01*
X8494242Y3130764D01*
X8496052Y3129871D01*
X8497569Y3128541D01*
X8541843Y3102979D01*
X8543754Y3102331D01*
X8545432Y3101210D01*
X8592664Y3081645D01*
X8594643Y3081252D01*
X8596453Y3080359D01*
X8645835Y3067127D01*
X8647849Y3066995D01*
X8649759Y3066347D01*
X8700446Y3059674D01*
X8702459Y3059806D01*
X8704438Y3059412D01*
X8755562D01*
X8757541Y3059806D01*
X8759554Y3059674D01*
X8810241Y3066347D01*
X8812151Y3066995D01*
X8814165Y3067127D01*
X8863547Y3080359D01*
X8865357Y3081252D01*
X8867336Y3081645D01*
X8914568Y3101210D01*
X8916246Y3102331D01*
X8918156Y3102979D01*
X8962431Y3128541D01*
X8963948Y3129872D01*
X8965758Y3130764D01*
X9006317Y3161886D01*
X9007648Y3163403D01*
X9009325Y3164524D01*
X9045475Y3200674D01*
X9046596Y3202352D01*
X9048113Y3203682D01*
X9079236Y3244242D01*
X9080128Y3246052D01*
X9081459Y3247569D01*
X9107020Y3291843D01*
X9107669Y3293754D01*
X9108790Y3295432D01*
X9128354Y3342664D01*
X9128748Y3344643D01*
X9129641Y3346453D01*
X9142872Y3395835D01*
X9143004Y3397848D01*
X9143653Y3399759D01*
X9147634Y3430000D01*
X9200246D01*
X9199471Y3418190D01*
X9187388Y3357440D01*
X9167478Y3298787D01*
X9140082Y3243236D01*
X9105671Y3191735D01*
X9064831Y3145166D01*
X9018262Y3104326D01*
X8966761Y3069914D01*
X8911209Y3042519D01*
X8852557Y3022609D01*
X8791807Y3010525D01*
X8730000Y3006474D01*
X8668193Y3010525D01*
X8607444Y3022609D01*
X8548791Y3042519D01*
X8493239Y3069914D01*
X8441738Y3104326D01*
X8395169Y3145166D01*
X8354329Y3191735D01*
X8319918Y3243236D01*
X8292522Y3298787D01*
X8280415Y3334456D01*
X8274374Y3341758D01*
X8265585Y3346496D01*
X8255661Y3347585D01*
X8250726Y3346689D01*
X8261113Y3349949D01*
X8250658Y3346667D01*
X8250725Y3346687D01*
Y3346686D01*
X8246063Y3343424D01*
X8238393Y3335059D01*
X8233442Y3324846D01*
X8231627Y3313642D01*
X8231805Y3310552D01*
X8242791Y3278188D01*
X8273301Y3216321D01*
X8311624Y3158966D01*
X8357107Y3107103D01*
X8408969Y3061621D01*
X8466325Y3023297D01*
X8528192Y2992788D01*
X8593512Y2970615D01*
X8661167Y2957157D01*
X8730000Y2952646D01*
X8798833Y2957157D01*
X8866488Y2970615D01*
X8931808Y2992788D01*
X8993675Y3023297D01*
X9051031Y3061621D01*
X9102893Y3107103D01*
X9148376Y3158966D01*
X9186699Y3216321D01*
X9217209Y3278188D01*
X9239382Y3343508D01*
X9252839Y3411164D01*
X9254074Y3430000D01*
X9306541D01*
X9303092Y3394976D01*
X9292000Y3339214D01*
X9275495Y3284804D01*
X9253738Y3232278D01*
X9226936Y3182136D01*
X9195348Y3134860D01*
X9159279Y3090910D01*
X9119074Y3050706D01*
X9075126Y3014639D01*
X9027851Y2983051D01*
X8977707Y2956248D01*
X8925182Y2934492D01*
X8870771Y2917987D01*
X8815008Y2906895D01*
X8758054Y2901286D01*
X8730068Y2900599D01*
X8696237Y2901593D01*
X8627858Y2909703D01*
X8561356Y2925714D01*
X8496781Y2949616D01*
X8465459Y2964483D01*
X8465453Y2964485D01*
X8419907Y2987779D01*
X8419025Y2988029D01*
X8418273Y2988554D01*
X8322922Y3030411D01*
X8322027Y3030608D01*
X8321246Y3031088D01*
X8223588Y3067238D01*
X8222683Y3067382D01*
X8221875Y3067815D01*
X8122252Y3098132D01*
X8121340Y3098223D01*
X8120508Y3098607D01*
X8019268Y3122986D01*
X8018352Y3123023D01*
X8017498Y3123357D01*
X7914995Y3141713D01*
X7914078Y3141695D01*
X7913207Y3141978D01*
X7809798Y3154246D01*
X7808885Y3154174D01*
X7807997Y3154406D01*
X7704044Y3160542D01*
X7703136Y3160417D01*
X7702237Y3160595D01*
X7650170Y3160587D01*
X7390000Y3160588D01*
X7389982Y3160584D01*
X2049999D01*
X2049998Y3160584D01*
X1905210D01*
X1905204Y3160583D01*
X1880193Y3160584D01*
X1877238Y3159996D01*
X1874225D01*
X1825153Y3150237D01*
X1822369Y3149083D01*
X1819414Y3148496D01*
X1773189Y3129349D01*
X1770684Y3127675D01*
X1767901Y3126522D01*
X1726300Y3098724D01*
X1724169Y3096594D01*
X1721664Y3094920D01*
X1703976Y3077231D01*
X1703976Y3077231D01*
X1609289Y2982544D01*
X1596520Y2970971D01*
X1567297Y2951446D01*
X1535523Y2938285D01*
X1501053Y2931428D01*
X1483849Y2930583D01*
X690587D01*
X690588Y4029410D01*
X894574D01*
X1483832Y4029410D01*
X1501057Y4028565D01*
X1535526Y4021711D01*
X1567299Y4008550D01*
X1596520Y3989023D01*
X1609282Y3977455D01*
X1703972Y3882766D01*
X1703974Y3882763D01*
X1721663Y3865073D01*
X1724168Y3863399D01*
X1726299Y3861269D01*
X1767900Y3833471D01*
X1770684Y3832318D01*
X1773188Y3830645D01*
X1819414Y3811498D01*
X1822368Y3810910D01*
X1825152Y3809757D01*
X1874224Y3799996D01*
X1877237D01*
X1880192Y3799409D01*
X1905209Y3799409D01*
X2049998D01*
X2052957Y3799998D01*
X2547047D01*
X2550000Y3799410D01*
X4470000D01*
X4472953Y3799998D01*
X4967046D01*
X4970000Y3799410D01*
X6890000D01*
X6892953Y3799998D01*
X7387057D01*
X7390000Y3799412D01*
X7649955D01*
X7701266Y3798598D01*
X7702218Y3798772D01*
X7703174Y3798628D01*
X7806242Y3803427D01*
X7807181Y3803659D01*
X7808144Y3803575D01*
X7910712Y3814791D01*
X7911634Y3815082D01*
X7912601Y3815057D01*
X8014270Y3832646D01*
X8015172Y3832994D01*
X8016139Y3833030D01*
X8116513Y3856923D01*
X8117393Y3857326D01*
X8118355Y3857422D01*
X8217045Y3887527D01*
X8217897Y3887985D01*
X8218851Y3888141D01*
X8315472Y3924340D01*
X8316294Y3924849D01*
X8317237Y3925065D01*
X8411413Y3967217D01*
X8412202Y3967777D01*
X8413129Y3968051D01*
X8458017Y3991605D01*
X8458042Y3991611D01*
X8491946Y4008191D01*
X8562137Y4034481D01*
X8634635Y4051436D01*
X8708710Y4058954D01*
X8783140Y4056908D01*
D02*
G37*
G36*
X8472770Y2498343D02*
X8559030Y2489853D01*
X8643669Y2473021D01*
X8726253Y2447974D01*
X8805984Y2414952D01*
X8882095Y2374273D01*
X8953850Y2326330D01*
X9020562Y2271582D01*
X9081584Y2210561D01*
X9136332Y2143850D01*
X9184277Y2072094D01*
X9224956Y1995985D01*
X9257978Y1916256D01*
X9283027Y1833671D01*
X9299859Y1749031D01*
X9307639Y1670002D01*
X9254762D01*
X9253235Y1701079D01*
X9241323Y1781380D01*
X9221598Y1860127D01*
X9194250Y1936561D01*
X9159541Y2009946D01*
X9117807Y2079575D01*
X9069448Y2144779D01*
X9014931Y2204929D01*
X8954781Y2259446D01*
X8889578Y2307804D01*
X8819948Y2349539D01*
X8746563Y2384248D01*
X8670129Y2411596D01*
X8591382Y2431321D01*
X8511082Y2443233D01*
X8430000Y2447216D01*
X8348918Y2443233D01*
X8268618Y2431321D01*
X8189871Y2411596D01*
X8113437Y2384248D01*
X8040052Y2349539D01*
X7970422Y2307804D01*
X7905218Y2259446D01*
X7845068Y2204929D01*
X7790552Y2144779D01*
X7742193Y2079575D01*
X7700459Y2009946D01*
X7665750Y1936561D01*
X7638402Y1860127D01*
X7618677Y1781380D01*
X7606765Y1701079D01*
X7604095Y1646733D01*
X1243368D01*
X1234073Y1656027D01*
X1218453Y1662498D01*
X1201546D01*
X1185925Y1656027D01*
X1173970Y1644072D01*
X1167500Y1628451D01*
Y1611544D01*
X1173970Y1595924D01*
X1185925Y1583968D01*
X1201546Y1577498D01*
X1218453D01*
X1234073Y1583968D01*
X1243368Y1593262D01*
X7630000D01*
X7640231Y1595298D01*
X7648905Y1601093D01*
X7654700Y1609767D01*
X7656735Y1619998D01*
X7656735Y1620000D01*
X7656735Y1620003D01*
X7656734D01*
X7656376Y1621804D01*
X7661140Y1706628D01*
X7675673Y1792168D01*
X7699694Y1875543D01*
X7732897Y1955705D01*
X7774868Y2031644D01*
X7825077Y2102408D01*
X7882893Y2167104D01*
X7947590Y2224921D01*
X8018353Y2275130D01*
X8094293Y2317100D01*
X8174455Y2350304D01*
X8257830Y2374324D01*
X8343370Y2388858D01*
X8430000Y2393723D01*
X8516630Y2388858D01*
X8602170Y2374324D01*
X8685545Y2350304D01*
X8765707Y2317100D01*
X8841647Y2275130D01*
X8912410Y2224921D01*
X8977107Y2167104D01*
X9034923Y2102408D01*
X9085132Y2031644D01*
X9127102Y1955705D01*
X9160306Y1875543D01*
X9184326Y1792168D01*
X9198860Y1706628D01*
X9200917Y1670002D01*
X9149150D01*
X9143795Y1724367D01*
X9143355Y1725818D01*
Y1727336D01*
X9130128Y1793828D01*
X9129548Y1795230D01*
X9129399Y1796740D01*
X9109719Y1861616D01*
X9109004Y1862954D01*
X9108708Y1864442D01*
X9082764Y1927076D01*
X9081921Y1928338D01*
X9081480Y1929790D01*
X9049522Y1989580D01*
X9048559Y1990753D01*
X9047979Y1992155D01*
X9010314Y2048524D01*
X9009241Y2049597D01*
X9008526Y2050935D01*
X8965517Y2103341D01*
X8964344Y2104304D01*
X8963501Y2105566D01*
X8915563Y2153504D01*
X8914301Y2154347D01*
X8913339Y2155520D01*
X8860932Y2198528D01*
X8859594Y2199244D01*
X8858522Y2200316D01*
X8802152Y2237981D01*
X8800750Y2238562D01*
X8799578Y2239524D01*
X8739788Y2271483D01*
X8738336Y2271923D01*
X8737074Y2272766D01*
X8674439Y2298710D01*
X8672952Y2299006D01*
X8671613Y2299722D01*
X8606737Y2319402D01*
X8605227Y2319550D01*
X8603826Y2320131D01*
X8537333Y2333357D01*
X8535816D01*
X8534364Y2333797D01*
X8466895Y2340443D01*
X8465385Y2340294D01*
X8463897Y2340590D01*
X8396102D01*
X8394614Y2340294D01*
X8393104Y2340443D01*
X8325635Y2333797D01*
X8324184Y2333357D01*
X8322666D01*
X8256174Y2320131D01*
X8254772Y2319550D01*
X8253262Y2319402D01*
X8188386Y2299722D01*
X8187048Y2299006D01*
X8185560Y2298710D01*
X8122926Y2272766D01*
X8121664Y2271923D01*
X8120212Y2271483D01*
X8060422Y2239524D01*
X8059249Y2238562D01*
X8057847Y2237981D01*
X8001478Y2200316D01*
X8000405Y2199243D01*
X7999067Y2198528D01*
X7946661Y2155520D01*
X7945698Y2154347D01*
X7944436Y2153504D01*
X7896498Y2105566D01*
X7895655Y2104304D01*
X7894482Y2103341D01*
X7851474Y2050935D01*
X7850758Y2049597D01*
X7849686Y2048524D01*
X7812021Y1992155D01*
X7811440Y1990753D01*
X7810478Y1989580D01*
X7778519Y1929790D01*
X7778079Y1928338D01*
X7777236Y1927076D01*
X7751292Y1864442D01*
X7750996Y1862954D01*
X7750280Y1861616D01*
X7730600Y1796740D01*
X7730452Y1795230D01*
X7729871Y1793828D01*
X7716645Y1727336D01*
Y1725818D01*
X7716205Y1724366D01*
X7709560Y1656898D01*
X7709708Y1655388D01*
X7709412Y1653900D01*
Y1620002D01*
Y1586105D01*
X7709708Y1584617D01*
X7709560Y1583107D01*
X7716205Y1515638D01*
X7716645Y1514186D01*
Y1512669D01*
X7729871Y1446176D01*
X7730452Y1444775D01*
X7730600Y1443265D01*
X7750280Y1378389D01*
X7750996Y1377050D01*
X7751292Y1375563D01*
X7777236Y1312928D01*
X7778079Y1311666D01*
X7778519Y1310214D01*
X7810478Y1250424D01*
X7811440Y1249252D01*
X7812021Y1247850D01*
X7849686Y1191480D01*
X7850759Y1190407D01*
X7851474Y1189070D01*
X7894482Y1136663D01*
X7895655Y1135701D01*
X7896498Y1134439D01*
X7944436Y1086500D01*
X7945698Y1085657D01*
X7946661Y1084485D01*
X7999067Y1041476D01*
X8000405Y1040761D01*
X8001478Y1039688D01*
X8057847Y1002023D01*
X8059249Y1001442D01*
X8060422Y1000480D01*
X8120212Y968522D01*
X8121664Y968081D01*
X8122926Y967238D01*
X8185560Y941294D01*
X8187048Y940998D01*
X8188386Y940283D01*
X8253262Y920603D01*
X8254772Y920454D01*
X8256174Y919874D01*
X8322666Y906647D01*
X8324184D01*
X8325636Y906207D01*
X8393104Y899562D01*
X8394614Y899711D01*
X8396102Y899415D01*
X8463897D01*
X8465385Y899711D01*
X8466895Y899562D01*
X8534364Y906207D01*
X8535816Y906647D01*
X8537333D01*
X8603826Y919874D01*
X8605227Y920454D01*
X8606737Y920603D01*
X8671613Y940283D01*
X8672952Y940998D01*
X8674439Y941294D01*
X8737074Y967238D01*
X8738336Y968081D01*
X8739788Y968522D01*
X8799578Y1000480D01*
X8800750Y1001442D01*
X8802152Y1002023D01*
X8858522Y1039688D01*
X8859595Y1040761D01*
X8860932Y1041476D01*
X8913339Y1084485D01*
X8914301Y1085658D01*
X8915563Y1086501D01*
X8963502Y1134439D01*
X8964345Y1135701D01*
X8965517Y1136663D01*
X9008526Y1189070D01*
X9009241Y1190408D01*
X9010314Y1191480D01*
X9047979Y1247850D01*
X9048559Y1249252D01*
X9049522Y1250424D01*
X9081480Y1310214D01*
X9081921Y1311666D01*
X9082764Y1312928D01*
X9108708Y1375563D01*
X9109004Y1377050D01*
X9109719Y1378389D01*
X9129399Y1443265D01*
X9129548Y1444775D01*
X9130128Y1446176D01*
X9143355Y1512669D01*
Y1514186D01*
X9143795Y1515638D01*
X9149150Y1570002D01*
X9200918D01*
X9198860Y1533368D01*
X9184326Y1447828D01*
X9160306Y1364452D01*
X9127102Y1284291D01*
X9085132Y1208351D01*
X9034923Y1137588D01*
X8977107Y1072891D01*
X8912410Y1015075D01*
X8841647Y964866D01*
X8765707Y922895D01*
X8685545Y889691D01*
X8602170Y865671D01*
X8516630Y851137D01*
X8430000Y846272D01*
X8343370Y851137D01*
X8257830Y865671D01*
X8174455Y889691D01*
X8094293Y922895D01*
X8018353Y964866D01*
X7947590Y1015075D01*
X7882893Y1072891D01*
X7825077Y1137588D01*
X7774868Y1208351D01*
X7732897Y1284291D01*
X7699694Y1364452D01*
X7676782Y1443979D01*
X7673207Y1449921D01*
X7663973Y1456853D01*
X7652810Y1459808D01*
X7648934Y1459691D01*
X7644601Y1457574D01*
X7635374Y1449724D01*
X7629232Y1439282D01*
X7626855Y1427402D01*
X7626952Y1425576D01*
X7638402Y1379869D01*
X7665750Y1303435D01*
X7700459Y1230050D01*
X7742193Y1160420D01*
X7790552Y1095216D01*
X7845068Y1035066D01*
X7905218Y980549D01*
X7970422Y932191D01*
X8040052Y890457D01*
X8113437Y855748D01*
X8189871Y828399D01*
X8268618Y808675D01*
X8348918Y796763D01*
X8430000Y792780D01*
X8511082Y796763D01*
X8591382Y808675D01*
X8670129Y828399D01*
X8746563Y855748D01*
X8819948Y890457D01*
X8889578Y932191D01*
X8954781Y980549D01*
X9014931Y1035066D01*
X9069448Y1095216D01*
X9117807Y1160420D01*
X9159541Y1230050D01*
X9194250Y1303435D01*
X9221598Y1379869D01*
X9241323Y1458616D01*
X9253235Y1538916D01*
X9254762Y1570002D01*
X9307627D01*
X9299841Y1490954D01*
X9283006Y1406317D01*
X9257955Y1323734D01*
X9224932Y1244010D01*
X9184252Y1167903D01*
X9136308Y1096149D01*
X9081562Y1029442D01*
X9020541Y968420D01*
X8953835Y913676D01*
X8882081Y865732D01*
X8805976Y825053D01*
X8726248Y792028D01*
X8643667Y766978D01*
X8559030Y750142D01*
X8472777Y741647D01*
X8429897Y740594D01*
X8394049Y741333D01*
X8321613Y747311D01*
X8250226Y759174D01*
X8180060Y776866D01*
X8111582Y800269D01*
X8045264Y829223D01*
X7981548Y863535D01*
X7920872Y902967D01*
X7863644Y947257D01*
X7810251Y996103D01*
X7761056Y1049175D01*
X7716198Y1106358D01*
X7695482Y1136418D01*
X7695463Y1136436D01*
X7684404Y1153215D01*
X7683066Y1154570D01*
X7682136Y1156233D01*
X7655195Y1187816D01*
X7653699Y1188996D01*
X7652572Y1190532D01*
X7621945Y1218555D01*
X7620315Y1219542D01*
X7619007Y1220927D01*
X7585161Y1244963D01*
X7583422Y1245742D01*
X7581954Y1246955D01*
X7545405Y1266639D01*
X7543583Y1267197D01*
X7541976Y1268220D01*
X7503281Y1283251D01*
X7501405Y1283581D01*
X7499684Y1284398D01*
X7459431Y1294547D01*
X7457528Y1294643D01*
X7455720Y1295242D01*
X7414523Y1300354D01*
X7412623Y1300216D01*
X7410755Y1300587D01*
X7389998Y1300586D01*
X7387049Y1299999D01*
X6892959D01*
X6890000Y1300588D01*
X4969999D01*
X4967040Y1299999D01*
X4472951D01*
X4469999Y1300586D01*
X2549999D01*
X2547047Y1299999D01*
X2052957D01*
X2049999Y1300588D01*
X1905210D01*
X1905205Y1300587D01*
X1880194Y1300588D01*
X1877238Y1300000D01*
X1874226D01*
X1825153Y1290240D01*
X1822369Y1289087D01*
X1819415Y1288499D01*
X1773189Y1269352D01*
X1770684Y1267678D01*
X1767901Y1266525D01*
X1726300Y1238728D01*
X1724169Y1236597D01*
X1721664Y1234923D01*
X1703975Y1217233D01*
X1609287Y1122545D01*
X1596521Y1110975D01*
X1567297Y1091448D01*
X1535525Y1078288D01*
X1501054Y1071432D01*
X1483849Y1070587D01*
X690588D01*
X690588Y2169413D01*
X1483828D01*
X1501058Y2168569D01*
X1535527Y2161714D01*
X1567300Y2148554D01*
X1596521Y2129027D01*
X1609284Y2117456D01*
X1703973Y2022768D01*
X1703974Y2022766D01*
X1721664Y2005077D01*
X1724169Y2003403D01*
X1726299Y2001272D01*
X1767900Y1973475D01*
X1770685Y1972321D01*
X1773189Y1970648D01*
X1819414Y1951501D01*
X1822369Y1950913D01*
X1825152Y1949760D01*
X1874225Y1940000D01*
X1877237D01*
X1880192Y1939412D01*
X1905209Y1939412D01*
X2049999D01*
X2052952Y1940000D01*
X2547046D01*
X2550000Y1939412D01*
X4470000D01*
X4472953Y1940000D01*
X4967046D01*
X4970000Y1939412D01*
X6890000D01*
X6892953Y1940000D01*
X7387038D01*
X7389990Y1939412D01*
X7410751Y1939410D01*
X7412620Y1939782D01*
X7414520Y1939643D01*
X7455727Y1944755D01*
X7457535Y1945353D01*
X7459437Y1945449D01*
X7499701Y1955598D01*
X7501422Y1956415D01*
X7503298Y1956745D01*
X7542004Y1971777D01*
X7543612Y1972799D01*
X7545432Y1973358D01*
X7581993Y1993043D01*
X7583461Y1994255D01*
X7585200Y1995034D01*
X7619057Y2019073D01*
X7620365Y2020457D01*
X7621994Y2021444D01*
X7652632Y2049471D01*
X7653759Y2051006D01*
X7655255Y2052186D01*
X7682206Y2083773D01*
X7683136Y2085436D01*
X7684475Y2086791D01*
X7695682Y2103789D01*
X7716266Y2133654D01*
X7761126Y2190836D01*
X7810322Y2243905D01*
X7863718Y2292751D01*
X7920949Y2337041D01*
X7981627Y2376473D01*
X8045341Y2410781D01*
X8111664Y2439736D01*
X8180139Y2463136D01*
X8250312Y2480829D01*
X8321698Y2492690D01*
X8394134Y2498667D01*
X8429669Y2499398D01*
X8472770Y2498343D01*
D02*
G37*
G36*
X4625913Y564313D02*
X4627408Y564147D01*
X4628903Y563981D01*
X4630564Y563815D01*
X4634219Y563150D01*
X4638372Y562154D01*
X4642525Y560659D01*
X4646678Y558831D01*
X4646844D01*
X4647176Y558499D01*
X4647674Y558333D01*
X4648505Y557835D01*
X4650498Y556506D01*
X4652990Y554844D01*
X4655648Y552519D01*
X4658472Y549861D01*
X4661296Y546871D01*
X4663621Y543382D01*
Y543216D01*
X4663954Y542884D01*
X4664120Y542386D01*
X4664618Y541721D01*
X4664950Y540891D01*
X4665449Y539728D01*
X4666611Y537236D01*
X4667774Y534080D01*
X4668605Y530592D01*
X4669269Y526771D01*
X4669602Y522784D01*
Y522618D01*
Y522286D01*
Y521787D01*
Y521123D01*
X4669435Y520126D01*
X4669269Y519130D01*
X4668937Y516638D01*
X4668273Y513648D01*
X4667276Y510491D01*
X4665781Y507335D01*
X4663954Y504013D01*
Y503847D01*
X4663621Y503681D01*
X4662957Y502684D01*
X4661628Y501023D01*
X4659801Y499196D01*
X4657475Y497036D01*
X4654651Y494710D01*
X4651329Y492385D01*
X4647508Y490391D01*
X4647674D01*
X4648173Y490225D01*
X4648837Y490059D01*
X4649834Y489727D01*
X4650997Y489395D01*
X4652325Y488896D01*
X4655482Y487567D01*
X4659136Y485740D01*
X4662791Y483248D01*
X4666279Y480424D01*
X4667940Y478597D01*
X4669435Y476770D01*
X4669602Y476604D01*
X4669768Y476272D01*
X4670100Y475773D01*
X4670764Y474943D01*
X4671263Y473946D01*
X4671927Y472783D01*
X4672758Y471288D01*
X4673422Y469627D01*
X4674253Y467966D01*
X4674917Y465972D01*
X4676246Y461487D01*
X4677077Y456504D01*
X4677243Y453846D01*
X4677409Y451022D01*
Y450856D01*
Y450025D01*
X4677243Y449029D01*
Y447534D01*
X4676911Y445706D01*
X4676578Y443713D01*
X4676080Y441221D01*
X4675416Y438729D01*
X4674585Y436072D01*
X4673588Y433081D01*
X4672426Y430257D01*
X4670930Y427267D01*
X4669103Y424111D01*
X4667110Y421121D01*
X4664618Y418297D01*
X4661960Y415473D01*
X4661794Y415307D01*
X4661296Y414809D01*
X4660465Y414144D01*
X4659136Y413148D01*
X4657641Y412151D01*
X4655980Y410988D01*
X4653821Y409659D01*
X4651495Y408330D01*
X4648837Y406835D01*
X4645847Y405672D01*
X4642691Y404343D01*
X4639202Y403347D01*
X4635548Y402350D01*
X4631727Y401686D01*
X4627740Y401187D01*
X4623421Y401021D01*
X4622425D01*
X4621428Y401187D01*
X4619933D01*
X4618106Y401353D01*
X4615946Y401686D01*
X4613620Y402018D01*
X4611129Y402516D01*
X4608471Y403181D01*
X4605647Y404011D01*
X4602657Y405008D01*
X4599667Y406337D01*
X4596843Y407666D01*
X4593853Y409327D01*
X4591029Y411320D01*
X4588371Y413480D01*
X4588205Y413646D01*
X4587706Y413978D01*
X4587042Y414809D01*
X4586211Y415805D01*
X4585048Y416968D01*
X4583886Y418463D01*
X4582557Y420290D01*
X4581228Y422284D01*
X4579733Y424443D01*
X4578404Y426935D01*
X4577075Y429593D01*
X4575912Y432417D01*
X4574749Y435573D01*
X4573753Y438895D01*
X4573088Y442384D01*
X4572590Y446038D01*
X4592191Y448696D01*
Y448530D01*
X4592358Y448032D01*
X4592524Y447035D01*
X4592856Y446038D01*
X4593188Y444543D01*
X4593687Y443048D01*
X4594849Y439394D01*
X4596344Y435407D01*
X4598338Y431420D01*
X4600663Y427766D01*
X4601992Y426105D01*
X4603487Y424610D01*
X4603653D01*
X4603820Y424277D01*
X4604318Y423945D01*
X4604982Y423447D01*
X4606644Y422284D01*
X4608969Y420955D01*
X4611959Y419626D01*
X4615282Y418463D01*
X4619102Y417633D01*
X4621262Y417467D01*
X4623421Y417300D01*
X4624750D01*
X4625747Y417467D01*
X4626910Y417633D01*
X4628405Y417799D01*
X4631561Y418463D01*
X4635216Y419626D01*
X4637209Y420457D01*
X4639202Y421287D01*
X4641196Y422450D01*
X4643189Y423613D01*
X4645016Y425108D01*
X4646844Y426769D01*
X4647010Y426935D01*
X4647342Y427267D01*
X4647674Y427766D01*
X4648339Y428430D01*
X4649003Y429427D01*
X4649834Y430590D01*
X4650830Y431919D01*
X4651661Y433414D01*
X4653488Y436736D01*
X4654983Y440889D01*
X4655648Y443048D01*
X4656146Y445374D01*
X4656312Y447866D01*
X4656478Y450524D01*
Y450690D01*
Y451188D01*
Y451853D01*
X4656312Y452849D01*
X4656146Y454012D01*
X4655980Y455341D01*
X4655316Y458497D01*
X4654319Y461986D01*
X4652658Y465806D01*
X4651661Y467634D01*
X4650498Y469461D01*
X4649169Y471288D01*
X4647508Y472949D01*
X4647342Y473115D01*
X4647176Y473282D01*
X4646678Y473780D01*
X4645847Y474278D01*
X4645016Y474943D01*
X4644020Y475773D01*
X4642857Y476604D01*
X4641362Y477434D01*
X4638206Y478929D01*
X4634385Y480424D01*
X4629900Y481421D01*
X4627574Y481587D01*
X4625082Y481753D01*
X4624086D01*
X4622923Y481587D01*
X4621262Y481421D01*
X4619268Y481255D01*
X4616777Y480923D01*
X4614119Y480258D01*
X4611129Y479594D01*
X4613454Y496870D01*
X4613787D01*
X4614617Y496704D01*
X4615614Y496538D01*
X4617773D01*
X4618770Y496704D01*
X4619767D01*
X4621096Y496870D01*
X4624086Y497368D01*
X4627574Y498199D01*
X4631395Y499196D01*
X4635382Y500857D01*
X4639202Y503016D01*
X4639368Y503182D01*
X4639701Y503348D01*
X4640199Y503681D01*
X4640863Y504345D01*
X4642359Y505840D01*
X4644352Y508000D01*
X4646179Y510824D01*
X4647840Y514312D01*
X4648339Y516306D01*
X4648837Y518465D01*
X4649169Y520791D01*
X4649335Y523282D01*
Y523449D01*
Y523781D01*
Y524279D01*
X4649169Y525110D01*
Y525940D01*
X4649003Y527103D01*
X4648339Y529595D01*
X4647508Y532419D01*
X4646179Y535409D01*
X4644352Y538399D01*
X4643189Y539894D01*
X4641860Y541223D01*
Y541389D01*
X4641528Y541555D01*
X4640531Y542386D01*
X4638870Y543549D01*
X4636711Y544877D01*
X4634053Y546040D01*
X4630897Y547203D01*
X4627242Y548034D01*
X4625249Y548366D01*
X4621926D01*
X4621262Y548200D01*
X4620265D01*
X4619102Y548034D01*
X4616444Y547535D01*
X4613454Y546539D01*
X4610132Y545210D01*
X4606976Y543549D01*
X4605481Y542386D01*
X4603986Y541057D01*
X4603653Y540725D01*
X4603321Y540226D01*
X4602823Y539728D01*
X4602158Y538897D01*
X4601494Y538067D01*
X4600663Y536904D01*
X4599833Y535741D01*
X4599002Y534246D01*
X4598172Y532585D01*
X4597341Y530924D01*
X4596677Y528930D01*
X4595846Y526771D01*
X4595182Y524611D01*
X4594683Y522120D01*
X4594185Y519462D01*
X4574583Y522950D01*
Y523116D01*
X4574749Y523781D01*
X4574915Y524777D01*
X4575414Y526273D01*
X4575746Y527934D01*
X4576410Y529761D01*
X4577075Y531920D01*
X4577905Y534246D01*
X4578902Y536572D01*
X4580065Y539063D01*
X4581394Y541721D01*
X4582889Y544213D01*
X4584550Y546705D01*
X4586544Y549030D01*
X4588537Y551356D01*
X4590863Y553516D01*
X4591029Y553682D01*
X4591527Y554014D01*
X4592191Y554512D01*
X4593188Y555177D01*
X4594351Y556007D01*
X4595846Y557004D01*
X4597673Y558001D01*
X4599667Y558997D01*
X4601826Y559994D01*
X4604318Y560991D01*
X4606810Y561987D01*
X4609634Y562818D01*
X4612624Y563482D01*
X4615780Y563981D01*
X4619102Y564313D01*
X4622591Y564479D01*
X4624750D01*
X4625913Y564313D01*
D02*
G37*
%LPC*%
G36*
X8767093Y4725261D02*
X8767119Y4725236D01*
X8767108Y4725251D01*
X8767093Y4725261D01*
D02*
G37*
G36*
X8723309Y4697094D02*
X8723457Y4696348D01*
X8723603Y4696407D01*
X8723309Y4697094D01*
D02*
G37*
G36*
X8222582Y3337855D02*
X8222542Y3337843D01*
X8223127Y3336119D01*
X8222582Y3337855D01*
D02*
G37*
%LPD*%
D13*
X4530000Y610000D02*
X4719999D01*
X4530000Y355500D02*
X4719999D01*
X4530000D02*
Y610000D01*
X4719999Y355500D02*
Y610000D01*
D15*
X250000Y250000D02*
D03*
X9750000D02*
D03*
Y9750000D02*
D03*
X250000D02*
D03*
D16*
X7230000Y9169999D02*
D03*
X7050000D02*
D03*
X7140000D02*
D03*
X6960000D02*
D03*
X7320000D02*
D03*
X7230000Y7849999D02*
D03*
X7050000D02*
D03*
X7140000D02*
D03*
X6960000D02*
D03*
X7320000D02*
D03*
X7230000Y8349999D02*
D03*
X7050000D02*
D03*
X7140000D02*
D03*
X6960000D02*
D03*
X7320000D02*
D03*
Y7029999D02*
D03*
X6960000D02*
D03*
X7140000D02*
D03*
X7050000D02*
D03*
X7230000D02*
D03*
X7320000Y6529999D02*
D03*
X6960000D02*
D03*
X7140000D02*
D03*
X7050000D02*
D03*
X7230000D02*
D03*
X2390000Y6530000D02*
D03*
X2210000D02*
D03*
X2300000D02*
D03*
X2120000D02*
D03*
X2480000D02*
D03*
X4810000D02*
D03*
X4630000D02*
D03*
X4720000D02*
D03*
X4540000D02*
D03*
X4900000D02*
D03*
X7229999Y5209998D02*
D03*
X7049999D02*
D03*
X7139999D02*
D03*
X6959999D02*
D03*
X7319999D02*
D03*
X7229999Y5709998D02*
D03*
X7049999D02*
D03*
X7139999D02*
D03*
X6959999D02*
D03*
X7319999D02*
D03*
X7320000Y4389997D02*
D03*
X6960000D02*
D03*
X7140000D02*
D03*
X7050000D02*
D03*
X7230000D02*
D03*
X7320000Y3889997D02*
D03*
X6960000D02*
D03*
X7140000D02*
D03*
X7050000D02*
D03*
X7230000D02*
D03*
X7320000Y3069995D02*
D03*
X6959999D02*
D03*
X7139999D02*
D03*
X7049999D02*
D03*
X7230000D02*
D03*
X4719999Y1209999D02*
D03*
X7230000Y2029999D02*
D03*
X7050000D02*
D03*
X7140000D02*
D03*
X6960000D02*
D03*
X7320000D02*
D03*
X7230000Y1209998D02*
D03*
X7050000D02*
D03*
X7140000D02*
D03*
X6960000D02*
D03*
X7320000D02*
D03*
X4900000Y2030000D02*
D03*
X4540000D02*
D03*
X4720000D02*
D03*
X4630000D02*
D03*
X4810000D02*
D03*
X2390000D02*
D03*
X2210000D02*
D03*
X2300000D02*
D03*
X2120000D02*
D03*
X2480000D02*
D03*
X2119999Y1209999D02*
D03*
X2389999D02*
D03*
X2209999D02*
D03*
X2299999D02*
D03*
X2479999D02*
D03*
X4899999D02*
D03*
X4539999D02*
D03*
X4629999D02*
D03*
X4809999D02*
D03*
X4809999Y3069997D02*
D03*
X4629999D02*
D03*
X4719999D02*
D03*
X4539999D02*
D03*
X4899999D02*
D03*
X2480000D02*
D03*
X2299999D02*
D03*
X2209999D02*
D03*
X2390000D02*
D03*
X2119999D02*
D03*
X2480000Y3889998D02*
D03*
X2120000D02*
D03*
X2300000D02*
D03*
X2210000D02*
D03*
X2390000D02*
D03*
X4810000D02*
D03*
X4630000D02*
D03*
X4720000D02*
D03*
X4540000D02*
D03*
X4900000D02*
D03*
X4810000Y4389998D02*
D03*
X4630000D02*
D03*
X4720000D02*
D03*
X4540000D02*
D03*
X4900000D02*
D03*
X2480000D02*
D03*
X2300000D02*
D03*
X2210000D02*
D03*
X2390000D02*
D03*
X2120000D02*
D03*
X2119999Y5709999D02*
D03*
X2389999D02*
D03*
X2209999D02*
D03*
X2299999D02*
D03*
X2479999D02*
D03*
X4899999D02*
D03*
X4539999D02*
D03*
X4719999D02*
D03*
X4629999D02*
D03*
X4809999D02*
D03*
X2120000Y7850000D02*
D03*
X2210000D02*
D03*
X2300000D02*
D03*
X2390000D02*
D03*
X2480000D02*
D03*
X4899999Y5209999D02*
D03*
X4539999D02*
D03*
X4719999D02*
D03*
X4629999D02*
D03*
X4809999D02*
D03*
X2389999D02*
D03*
X2209999D02*
D03*
X2299999D02*
D03*
X2119999D02*
D03*
X2479999D02*
D03*
X2390000Y7030000D02*
D03*
X2210000D02*
D03*
X2300000D02*
D03*
X2120000D02*
D03*
X2480000D02*
D03*
X4900000D02*
D03*
X4540000D02*
D03*
X4720000D02*
D03*
X4630000D02*
D03*
X4810000D02*
D03*
X4900000Y9170000D02*
D03*
X4540000D02*
D03*
X4720000D02*
D03*
X4630000D02*
D03*
X4810000D02*
D03*
X2480000D02*
D03*
X2120000D02*
D03*
X2300000D02*
D03*
X2210000D02*
D03*
X2390000D02*
D03*
X4900000Y8350000D02*
D03*
X4540000D02*
D03*
X4720000D02*
D03*
X4630000D02*
D03*
X4810000D02*
D03*
Y7850000D02*
D03*
X4630000D02*
D03*
X4720000D02*
D03*
X4540000D02*
D03*
X4900000D02*
D03*
X2390000Y8350000D02*
D03*
X2210000D02*
D03*
X2300000D02*
D03*
X2120000D02*
D03*
X2480000D02*
D03*
D17*
X7612486Y1569998D02*
D03*
X7552486D02*
D03*
X7682500Y1580000D02*
D03*
Y1645000D02*
D03*
X7687500Y1710000D02*
D03*
X7697500Y1775000D02*
D03*
X7715000Y1840000D02*
D03*
X7737500Y1902500D02*
D03*
X7765000Y1962500D02*
D03*
X7800000Y2020000D02*
D03*
X7837500Y2075000D02*
D03*
X7880000Y2125000D02*
D03*
X7927500Y2172500D02*
D03*
X7977500Y2215000D02*
D03*
X8032500Y2252500D02*
D03*
X8090000Y2285000D02*
D03*
X8150000Y2312500D02*
D03*
X8212500Y2335000D02*
D03*
X8277500Y2352500D02*
D03*
X8342500Y2362500D02*
D03*
X8407500Y2367500D02*
D03*
X8472500Y2365000D02*
D03*
X8537500Y2360000D02*
D03*
X8602500Y2347500D02*
D03*
X8665000Y2327500D02*
D03*
X8727500Y2305000D02*
D03*
X8787500Y2275000D02*
D03*
X8845000Y2240000D02*
D03*
X8900000Y2200000D02*
D03*
X8950000Y2157500D02*
D03*
X8995000Y2107500D02*
D03*
X9037500Y2057500D02*
D03*
X9072500Y2002500D02*
D03*
X9105000Y1945000D02*
D03*
X9130000Y1885000D02*
D03*
X9150000Y1822500D02*
D03*
X9165000Y1757500D02*
D03*
X9175000Y1692500D02*
D03*
X7702500Y1450000D02*
D03*
X7717500Y1390000D02*
D03*
X7742500Y1330000D02*
D03*
X7770000Y1270000D02*
D03*
X7805000Y1215000D02*
D03*
X7842500Y1160000D02*
D03*
X7885000Y1110000D02*
D03*
X7932500Y1065000D02*
D03*
X7982500Y1022500D02*
D03*
X8037500Y985000D02*
D03*
X8095000Y952500D02*
D03*
X8155000Y925000D02*
D03*
X8217500Y902500D02*
D03*
X8282500Y887500D02*
D03*
X8347500Y877500D02*
D03*
X8412500Y875000D02*
D03*
X8477500D02*
D03*
X8542500Y882500D02*
D03*
X8607500Y895000D02*
D03*
X8672500Y912500D02*
D03*
X8732500Y937500D02*
D03*
X8792500Y965000D02*
D03*
X8847500Y1000000D02*
D03*
X8900000Y1040000D02*
D03*
X8950000Y1082500D02*
D03*
X8995000Y1130000D02*
D03*
X9035000Y1182500D02*
D03*
X9072500Y1237500D02*
D03*
X9105000Y1295000D02*
D03*
X9130000Y1355000D02*
D03*
X9152500Y1417500D02*
D03*
X9165000Y1482500D02*
D03*
X9175000Y1547500D02*
D03*
X7527500Y1382500D02*
D03*
X7532500Y1850000D02*
D03*
X7565000Y1282500D02*
D03*
X7505000Y1307500D02*
D03*
X7440000Y1320000D02*
D03*
X7560000Y1955000D02*
D03*
X7500000Y1930000D02*
D03*
X7582500Y1717500D02*
D03*
X7595000Y1782500D02*
D03*
X7610000Y1847500D02*
D03*
X7630000Y1910000D02*
D03*
X7655000Y1970000D02*
D03*
X7685000Y2030000D02*
D03*
X7717500Y2087500D02*
D03*
X7755000Y2142500D02*
D03*
X7797500Y2192500D02*
D03*
X7845000Y2237500D02*
D03*
X7892500Y2282500D02*
D03*
X7945000Y2322500D02*
D03*
X8000000Y2357500D02*
D03*
X8060000Y2387500D02*
D03*
X8120000Y2415000D02*
D03*
X8182500Y2435000D02*
D03*
X8247500Y2452500D02*
D03*
X8312500Y2465000D02*
D03*
X8377500Y2470000D02*
D03*
X8442500Y2472500D02*
D03*
X8507500Y2470000D02*
D03*
X8572500Y2460000D02*
D03*
X8637500Y2447500D02*
D03*
X8700000Y2427500D02*
D03*
X8762500Y2405000D02*
D03*
X8822500Y2375000D02*
D03*
X8880000Y2342500D02*
D03*
X8935000Y2307500D02*
D03*
X8987500Y2265000D02*
D03*
X9035000Y2220000D02*
D03*
X9080000Y2172500D02*
D03*
X9120000Y2120000D02*
D03*
X9157500Y2065000D02*
D03*
X9190000Y2007500D02*
D03*
X9215000Y1947500D02*
D03*
X9240000Y1887500D02*
D03*
X9257500Y1822500D02*
D03*
X9270000Y1757500D02*
D03*
X9277500Y1692500D02*
D03*
X7575000Y1455000D02*
D03*
X7607500Y1397500D02*
D03*
X7627500Y1335000D02*
D03*
X7652500Y1272500D02*
D03*
X7680000Y1212500D02*
D03*
X7715000Y1157500D02*
D03*
X7752500Y1102500D02*
D03*
X7795000Y1052500D02*
D03*
X7840000Y1005000D02*
D03*
X7890000Y962500D02*
D03*
X7942500Y922500D02*
D03*
X7997500Y887500D02*
D03*
X8055000Y855000D02*
D03*
X8115000Y827500D02*
D03*
X8177500Y805000D02*
D03*
X8242500Y787500D02*
D03*
X8307500Y777500D02*
D03*
X8372500Y770000D02*
D03*
X8437500Y767500D02*
D03*
X8502500Y770000D02*
D03*
X8567500Y780000D02*
D03*
X8632500Y792500D02*
D03*
X8697500Y810000D02*
D03*
X8760000Y835000D02*
D03*
X8820000Y862500D02*
D03*
X8877500Y895000D02*
D03*
X8932500Y932500D02*
D03*
X8985000Y972500D02*
D03*
X9032500Y1017500D02*
D03*
X9077500Y1065000D02*
D03*
X9117500Y1117500D02*
D03*
X9155000Y1172500D02*
D03*
X9187500Y1230000D02*
D03*
X9215000Y1290000D02*
D03*
X9237500Y1352500D02*
D03*
X9257500Y1417500D02*
D03*
X9272500Y1482500D02*
D03*
X9280000Y1547500D02*
D03*
X7642154Y1481079D02*
D03*
X1209999Y1619998D02*
D03*
X712500Y1452497D02*
D03*
Y1392497D02*
D03*
Y1332497D02*
D03*
Y1272498D02*
D03*
Y1212498D02*
D03*
Y1152498D02*
D03*
X832500Y1212498D02*
D03*
Y1332498D02*
D03*
X952500Y1212498D02*
D03*
Y1332498D02*
D03*
X1072500Y1212498D02*
D03*
Y1332498D02*
D03*
X1192499Y1212498D02*
D03*
Y1332498D02*
D03*
X1312499Y1212498D02*
D03*
Y1332498D02*
D03*
X1432499D02*
D03*
Y1212498D02*
D03*
X1552499Y1332498D02*
D03*
Y1452497D02*
D03*
X1432499D02*
D03*
X1672498D02*
D03*
X1792498D02*
D03*
X1912498D02*
D03*
X1672498Y1332498D02*
D03*
X1552499Y1212498D02*
D03*
X1312499Y1452497D02*
D03*
X2032498D02*
D03*
X2152497D02*
D03*
X2992496D02*
D03*
X2872496D02*
D03*
X2752496D02*
D03*
X2632496D02*
D03*
X2512497D02*
D03*
X2272497D02*
D03*
X2392497D02*
D03*
X3832494D02*
D03*
X3712494D02*
D03*
X3592494D02*
D03*
X3472495D02*
D03*
X3352495D02*
D03*
X3112495D02*
D03*
X3232495D02*
D03*
X4672492D02*
D03*
X4552493D02*
D03*
X4432493D02*
D03*
X4312493D02*
D03*
X4192493D02*
D03*
X3952494D02*
D03*
X4072494D02*
D03*
X5512491D02*
D03*
X5392491D02*
D03*
X5272491D02*
D03*
X5152491D02*
D03*
X5032492D02*
D03*
X4792492D02*
D03*
X4912492D02*
D03*
X6352489D02*
D03*
X6232489D02*
D03*
X6112489D02*
D03*
X5992490D02*
D03*
X5872490D02*
D03*
X5632490D02*
D03*
X5752490D02*
D03*
X7192487D02*
D03*
X7072488D02*
D03*
X6952488D02*
D03*
X6832488D02*
D03*
X6712488D02*
D03*
X6472489D02*
D03*
X6592488D02*
D03*
X7312487D02*
D03*
X7432487D02*
D03*
X7432487Y1787500D02*
D03*
X7312487D02*
D03*
X6592488D02*
D03*
X6472488D02*
D03*
X6712488D02*
D03*
X6832488D02*
D03*
X6952487D02*
D03*
X7072487D02*
D03*
X7192487D02*
D03*
X5752490D02*
D03*
X5632490D02*
D03*
X5872490D02*
D03*
X5992489D02*
D03*
X6112489D02*
D03*
X6232489D02*
D03*
X6352489D02*
D03*
X4912492D02*
D03*
X4792492D02*
D03*
X5032491D02*
D03*
X5152491D02*
D03*
X5272491D02*
D03*
X5392491D02*
D03*
X5512490D02*
D03*
X4072493D02*
D03*
X3952493D02*
D03*
X4192493D02*
D03*
X4312493D02*
D03*
X4432493D02*
D03*
X4552492D02*
D03*
X4672492D02*
D03*
X3232495D02*
D03*
X3112495D02*
D03*
X3352495D02*
D03*
X3472494D02*
D03*
X3592494D02*
D03*
X3712494D02*
D03*
X3832494D02*
D03*
X2392497D02*
D03*
X2272497D02*
D03*
X2512496D02*
D03*
X2632496D02*
D03*
X2752496D02*
D03*
X2872496D02*
D03*
X2992495D02*
D03*
X2152497D02*
D03*
X2032497D02*
D03*
X1312499D02*
D03*
X1552498Y2027499D02*
D03*
X1672498Y1907500D02*
D03*
X1912498Y1787500D02*
D03*
X1792498D02*
D03*
X1672498D02*
D03*
X1432499D02*
D03*
X1552498D02*
D03*
Y1907500D02*
D03*
X1432499Y2027499D02*
D03*
Y1907500D02*
D03*
X1312499D02*
D03*
Y2027499D02*
D03*
X1192499Y1907500D02*
D03*
Y2027499D02*
D03*
X1072499Y1907500D02*
D03*
Y2027499D02*
D03*
X952499Y1907500D02*
D03*
Y2027499D02*
D03*
X832500Y1907500D02*
D03*
Y2027499D02*
D03*
X772498Y1507498D02*
D03*
X832498D02*
D03*
X892498D02*
D03*
X952498D02*
D03*
X1012498D02*
D03*
X1072497D02*
D03*
X1132497D02*
D03*
X1192497D02*
D03*
X1252497D02*
D03*
X1312498Y1549998D02*
D03*
X1372498Y1569998D02*
D03*
X1432498D02*
D03*
X1492498D02*
D03*
X1552498D02*
D03*
X1732497D02*
D03*
X1672498D02*
D03*
X1612498D02*
D03*
X1912497D02*
D03*
X1852497D02*
D03*
X1792497D02*
D03*
X2092497D02*
D03*
X2032497D02*
D03*
X1972497D02*
D03*
X2692496D02*
D03*
X2752495D02*
D03*
X2812495D02*
D03*
X2512496D02*
D03*
X2572496D02*
D03*
X2632496D02*
D03*
X2332496D02*
D03*
X2392496D02*
D03*
X2452496D02*
D03*
X2272496D02*
D03*
X2212496D02*
D03*
X2152497D02*
D03*
X3412494D02*
D03*
X3472494D02*
D03*
X3532494D02*
D03*
X3232494D02*
D03*
X3292494D02*
D03*
X3352494D02*
D03*
X3052495D02*
D03*
X3112495D02*
D03*
X3172495D02*
D03*
X2992495D02*
D03*
X2932495D02*
D03*
X2872495D02*
D03*
X4132493D02*
D03*
X4192493D02*
D03*
X4252492D02*
D03*
X3952493D02*
D03*
X4012493D02*
D03*
X4072493D02*
D03*
X3772493D02*
D03*
X3832493D02*
D03*
X3892493D02*
D03*
X3712493D02*
D03*
X3652494D02*
D03*
X3592494D02*
D03*
X4852491D02*
D03*
X4912491D02*
D03*
X4972491D02*
D03*
X4672492D02*
D03*
X4732491D02*
D03*
X4792491D02*
D03*
X4492492D02*
D03*
X4552492D02*
D03*
X4612492D02*
D03*
X4432492D02*
D03*
X4372492D02*
D03*
X4312492D02*
D03*
X5572490D02*
D03*
X5632490D02*
D03*
X5692490D02*
D03*
X5392490D02*
D03*
X5452490D02*
D03*
X5512490D02*
D03*
X5212490D02*
D03*
X5272490D02*
D03*
X5332490D02*
D03*
X5152491D02*
D03*
X5092491D02*
D03*
X5032491D02*
D03*
X6292488D02*
D03*
X6352488D02*
D03*
X6412488D02*
D03*
X6112489D02*
D03*
X6172489D02*
D03*
X6232488D02*
D03*
X5932489D02*
D03*
X5992489D02*
D03*
X6052489D02*
D03*
X5872489D02*
D03*
X5812489D02*
D03*
X5752489D02*
D03*
X7012487D02*
D03*
X7072487D02*
D03*
X7132487D02*
D03*
X6832487D02*
D03*
X6892487D02*
D03*
X6952487D02*
D03*
X6652488D02*
D03*
X6712487D02*
D03*
X6772487D02*
D03*
X6592488D02*
D03*
X6532488D02*
D03*
X6472488D02*
D03*
X7372486D02*
D03*
X7432486D02*
D03*
X7492486D02*
D03*
X7312486D02*
D03*
X7252486D02*
D03*
X7192487D02*
D03*
Y1669998D02*
D03*
X7252486D02*
D03*
X7312486D02*
D03*
X7492486D02*
D03*
X7432486D02*
D03*
X7372486D02*
D03*
X6472488D02*
D03*
X6532488D02*
D03*
X6592488D02*
D03*
X6772487D02*
D03*
X6712487D02*
D03*
X6652488D02*
D03*
X6952487D02*
D03*
X6892487D02*
D03*
X6832487D02*
D03*
X7132487D02*
D03*
X7072487D02*
D03*
X7012487D02*
D03*
X5752489D02*
D03*
X5812489D02*
D03*
X5872489D02*
D03*
X6052489D02*
D03*
X5992489D02*
D03*
X5932489D02*
D03*
X6232488D02*
D03*
X6172489D02*
D03*
X6112489D02*
D03*
X6412488D02*
D03*
X6352488D02*
D03*
X6292488D02*
D03*
X5032491D02*
D03*
X5092491D02*
D03*
X5152491D02*
D03*
X5332490D02*
D03*
X5272490D02*
D03*
X5212490D02*
D03*
X5512490D02*
D03*
X5452490D02*
D03*
X5392490D02*
D03*
X5692490D02*
D03*
X5632490D02*
D03*
X5572490D02*
D03*
X4312492D02*
D03*
X4372492D02*
D03*
X4432492D02*
D03*
X4612492D02*
D03*
X4552492D02*
D03*
X4492492D02*
D03*
X4792491D02*
D03*
X4732491D02*
D03*
X4672492D02*
D03*
X4972491D02*
D03*
X4912491D02*
D03*
X4852491D02*
D03*
X3592494D02*
D03*
X3652494D02*
D03*
X3712493D02*
D03*
X3892493D02*
D03*
X3832493D02*
D03*
X3772493D02*
D03*
X4072493D02*
D03*
X4012493D02*
D03*
X3952493D02*
D03*
X4252492D02*
D03*
X4192493D02*
D03*
X4132493D02*
D03*
X2872495D02*
D03*
X2932495D02*
D03*
X2992495D02*
D03*
X3172495D02*
D03*
X3112495D02*
D03*
X3052495D02*
D03*
X3352494D02*
D03*
X3292494D02*
D03*
X3232494D02*
D03*
X3532494D02*
D03*
X3472494D02*
D03*
X3412494D02*
D03*
X2152497D02*
D03*
X2212496D02*
D03*
X2272496D02*
D03*
X2452496D02*
D03*
X2392496D02*
D03*
X2332496D02*
D03*
X2632496D02*
D03*
X2572496D02*
D03*
X2512496D02*
D03*
X2812495D02*
D03*
X2752495D02*
D03*
X2692496D02*
D03*
X1972497D02*
D03*
X2032497D02*
D03*
X2092497D02*
D03*
X1792497D02*
D03*
X1852497D02*
D03*
X1912497D02*
D03*
X1612498D02*
D03*
X1672498D02*
D03*
X1732497D02*
D03*
X1552498D02*
D03*
X1492498D02*
D03*
X1432498D02*
D03*
X1372498D02*
D03*
X1312498Y1689998D02*
D03*
X1252497Y1732498D02*
D03*
X1192497D02*
D03*
X1132497D02*
D03*
X1072497D02*
D03*
X1012498D02*
D03*
X952498D02*
D03*
X892498D02*
D03*
X832498D02*
D03*
X772498D02*
D03*
X712500Y1787500D02*
D03*
Y1847500D02*
D03*
Y1907500D02*
D03*
Y1967499D02*
D03*
Y2027499D02*
D03*
Y2087499D02*
D03*
Y1092498D02*
D03*
X772500D02*
D03*
X832500D02*
D03*
X892500D02*
D03*
X952499D02*
D03*
X1012499D02*
D03*
X1072499D02*
D03*
X1132499D02*
D03*
X1192499D02*
D03*
X1252499D02*
D03*
X1312499D02*
D03*
X1372499D02*
D03*
X1432499D02*
D03*
X1492498Y1094998D02*
D03*
X1552498Y1109999D02*
D03*
X1602498Y1147499D02*
D03*
X1644998Y1189999D02*
D03*
X1687498Y1232499D02*
D03*
X1734998Y1272499D02*
D03*
X1792498Y1302499D02*
D03*
X1852498Y1319999D02*
D03*
X1914998Y1322499D02*
D03*
X1974998D02*
D03*
X2034998D02*
D03*
X2154998D02*
D03*
X2094998D02*
D03*
X2334997D02*
D03*
X2394997D02*
D03*
X2274997D02*
D03*
X2214998D02*
D03*
X2574997D02*
D03*
X2634997D02*
D03*
X2514997D02*
D03*
X2454997D02*
D03*
X3174996D02*
D03*
X3234996D02*
D03*
X3354995D02*
D03*
X3294995D02*
D03*
X2934996D02*
D03*
X2994996D02*
D03*
X3114996D02*
D03*
X3054996D02*
D03*
X2814996D02*
D03*
X2874996D02*
D03*
X2754997D02*
D03*
X2694997D02*
D03*
X3894994D02*
D03*
X3954994D02*
D03*
X4074994D02*
D03*
X4014994D02*
D03*
X3654995D02*
D03*
X3714995D02*
D03*
X3834994D02*
D03*
X3774994D02*
D03*
X3534995D02*
D03*
X3594995D02*
D03*
X3474995D02*
D03*
X3414995D02*
D03*
X4614993D02*
D03*
X4674993D02*
D03*
X4794992D02*
D03*
X4734993D02*
D03*
X4374993D02*
D03*
X4434993D02*
D03*
X4554993D02*
D03*
X4494993D02*
D03*
X4254994D02*
D03*
X4314993D02*
D03*
X4194994D02*
D03*
X4134994D02*
D03*
X5334991D02*
D03*
X5394991D02*
D03*
X5514991D02*
D03*
X5454991D02*
D03*
X5094992D02*
D03*
X5154992D02*
D03*
X5274991D02*
D03*
X5214992D02*
D03*
X4974992D02*
D03*
X5034992D02*
D03*
X4914992D02*
D03*
X4854992D02*
D03*
X6054990D02*
D03*
X6114990D02*
D03*
X6234990D02*
D03*
X6174990D02*
D03*
X5814990D02*
D03*
X5874990D02*
D03*
X5994990D02*
D03*
X5934990D02*
D03*
X5694991D02*
D03*
X5754991D02*
D03*
X5634991D02*
D03*
X5574991D02*
D03*
X6774988D02*
D03*
X6834988D02*
D03*
X6954988D02*
D03*
X6894988D02*
D03*
X6534989D02*
D03*
X6594989D02*
D03*
X6714989D02*
D03*
X6654989D02*
D03*
X6414989D02*
D03*
X6474989D02*
D03*
X6354989D02*
D03*
X6294989D02*
D03*
X7254988D02*
D03*
X7314987D02*
D03*
X7374987D02*
D03*
X7134988D02*
D03*
X7194988D02*
D03*
X7074988D02*
D03*
X7014988D02*
D03*
Y1917498D02*
D03*
X7074988D02*
D03*
X7194988D02*
D03*
X7134988D02*
D03*
X7374987D02*
D03*
X7434987D02*
D03*
X7314987D02*
D03*
X7254988D02*
D03*
X6294989D02*
D03*
X6354989D02*
D03*
X6474989D02*
D03*
X6414989D02*
D03*
X6654989D02*
D03*
X6714989D02*
D03*
X6594989D02*
D03*
X6534989D02*
D03*
X6894988D02*
D03*
X6954988D02*
D03*
X6834988D02*
D03*
X6774988D02*
D03*
X5574991D02*
D03*
X5634991D02*
D03*
X5754991D02*
D03*
X5694991D02*
D03*
X5934990D02*
D03*
X5994990D02*
D03*
X5874990D02*
D03*
X5814990D02*
D03*
X6174990D02*
D03*
X6234990D02*
D03*
X6114990D02*
D03*
X6054990D02*
D03*
X4854992D02*
D03*
X4914992D02*
D03*
X5034992D02*
D03*
X4974992D02*
D03*
X5214992D02*
D03*
X5274991D02*
D03*
X5154992D02*
D03*
X5094992D02*
D03*
X5454991D02*
D03*
X5514991D02*
D03*
X5394991D02*
D03*
X5334991D02*
D03*
X4134994D02*
D03*
X4194994D02*
D03*
X4314993D02*
D03*
X4254994D02*
D03*
X4494993D02*
D03*
X4554993D02*
D03*
X4434993D02*
D03*
X4374993D02*
D03*
X4734993D02*
D03*
X4794992D02*
D03*
X4674993D02*
D03*
X4614993D02*
D03*
X3414995D02*
D03*
X3474995D02*
D03*
X3594995D02*
D03*
X3534995D02*
D03*
X3774994D02*
D03*
X3834994D02*
D03*
X3714995D02*
D03*
X3654995D02*
D03*
X4014994D02*
D03*
X4074994D02*
D03*
X3954994D02*
D03*
X3894994D02*
D03*
X2694997D02*
D03*
X2754997D02*
D03*
X2874996D02*
D03*
X2814996D02*
D03*
X3054996D02*
D03*
X3114996D02*
D03*
X2994996D02*
D03*
X2934996D02*
D03*
X3294995D02*
D03*
X3354995D02*
D03*
X3234996D02*
D03*
X3174996D02*
D03*
X2454997D02*
D03*
X2514997D02*
D03*
X2634997D02*
D03*
X2574997D02*
D03*
X2214998D02*
D03*
X2274997D02*
D03*
X2394997D02*
D03*
X2334997D02*
D03*
X2094998D02*
D03*
X2154998D02*
D03*
X2034998D02*
D03*
X1974998D02*
D03*
X1914998D02*
D03*
X1852498Y1919998D02*
D03*
X1792498Y1937498D02*
D03*
X1734998Y1967498D02*
D03*
X1687498Y2007498D02*
D03*
X1644998Y2049998D02*
D03*
X1602498Y2092498D02*
D03*
X1552498Y2129998D02*
D03*
X1492498Y2144998D02*
D03*
X1432499Y2147499D02*
D03*
X1372499D02*
D03*
X1312499D02*
D03*
X1252499D02*
D03*
X1192499D02*
D03*
X1132499D02*
D03*
X1072499D02*
D03*
X1012499D02*
D03*
X952499D02*
D03*
X892500D02*
D03*
X832500D02*
D03*
X772500D02*
D03*
X712500D02*
D03*
X8955000Y4500000D02*
D03*
X8817500Y4690000D02*
D03*
X8632485Y4849997D02*
D03*
X8835000Y5085000D02*
D03*
X8282500Y3415000D02*
D03*
X8280000Y3475000D02*
D03*
X8285000Y3535000D02*
D03*
X8297500Y3595000D02*
D03*
X8317500Y3652500D02*
D03*
X8345000Y3707500D02*
D03*
X8380000Y3757500D02*
D03*
X8420000Y3802500D02*
D03*
X8465000Y3842500D02*
D03*
X8517500Y3875000D02*
D03*
X8572500Y3900000D02*
D03*
X8630000Y3917500D02*
D03*
X8690000Y3927500D02*
D03*
X8750000D02*
D03*
X8810000Y3920000D02*
D03*
X8870000Y3905000D02*
D03*
X8927500Y3882500D02*
D03*
X8980000Y3852500D02*
D03*
X9027500Y3815000D02*
D03*
X9070000Y3772500D02*
D03*
X9105000Y3722500D02*
D03*
X9135000Y3670000D02*
D03*
X9157500Y3612500D02*
D03*
X9172500Y3552500D02*
D03*
X8315000Y3310000D02*
D03*
X8342500Y3255000D02*
D03*
X8377500Y3205000D02*
D03*
X8417500Y3160000D02*
D03*
X8462500Y3120000D02*
D03*
X8515000Y3087500D02*
D03*
X8570000Y3062500D02*
D03*
X8627500Y3045000D02*
D03*
X8687500Y3035000D02*
D03*
X8747500D02*
D03*
X8807500Y3040000D02*
D03*
X8867500Y3055000D02*
D03*
X8925000Y3077500D02*
D03*
X8977500Y3107500D02*
D03*
X9025000Y3145000D02*
D03*
X9067500Y3187500D02*
D03*
X9105000Y3237500D02*
D03*
X9135000Y3290000D02*
D03*
X9157500Y3347500D02*
D03*
X9172500Y3407500D02*
D03*
X8502500Y2977500D02*
D03*
X9250000Y3290000D02*
D03*
X9267500Y3347500D02*
D03*
X8152485Y3767497D02*
D03*
X8152486Y3192496D02*
D03*
X8390000Y3920000D02*
D03*
X8347500Y3075000D02*
D03*
X8320000Y3845000D02*
D03*
X8330000Y3905000D02*
D03*
X8280000Y3800000D02*
D03*
X8250000Y3747500D02*
D03*
X8220000Y3695000D02*
D03*
X8202500Y3637500D02*
D03*
X8190000Y3577500D02*
D03*
X8272500Y3882500D02*
D03*
X8215000Y3285000D02*
D03*
X8270000Y3177500D02*
D03*
X8307500Y3127500D02*
D03*
X8240000Y3230000D02*
D03*
X8187500Y3340000D02*
D03*
X8055000Y3140000D02*
D03*
X8115000Y3125000D02*
D03*
X8172500Y3107500D02*
D03*
X8230000Y3090000D02*
D03*
X8287500Y3070000D02*
D03*
X8397500Y3040000D02*
D03*
X8447500Y3005000D02*
D03*
X8560000Y2955000D02*
D03*
X8617500Y2937500D02*
D03*
X8677500Y2930000D02*
D03*
X8737500Y2927500D02*
D03*
X8797500Y2932500D02*
D03*
X8857500Y2942500D02*
D03*
X8915000Y2960000D02*
D03*
X8972500Y2982500D02*
D03*
X9025000Y3012500D02*
D03*
X9075000Y3047500D02*
D03*
X9120000Y3087500D02*
D03*
X9160000Y3132500D02*
D03*
X9195000Y3182500D02*
D03*
X9225000Y3235000D02*
D03*
X9277500Y3407500D02*
D03*
Y3552500D02*
D03*
X9267500Y3612500D02*
D03*
X9250000Y3670000D02*
D03*
X9225000Y3725000D02*
D03*
X9195000Y3780000D02*
D03*
X9157500Y3830000D02*
D03*
X9117500Y3875000D02*
D03*
X9070000Y3915000D02*
D03*
X9020000Y3950000D02*
D03*
X8965000Y3980000D02*
D03*
X8907500Y4002500D02*
D03*
X8850000Y4020000D02*
D03*
X8790000Y4030000D02*
D03*
X8730000Y4032500D02*
D03*
X8670000Y4030000D02*
D03*
X8610000Y4020000D02*
D03*
X8552500Y4002500D02*
D03*
X8495000Y3980000D02*
D03*
X8440000Y3955000D02*
D03*
X7795000Y3780000D02*
D03*
X7855000Y3785000D02*
D03*
X8242815Y3367521D02*
D03*
X8212485Y3429996D02*
D03*
X8152485D02*
D03*
Y3529996D02*
D03*
X8215000Y3862500D02*
D03*
X8155000Y3845000D02*
D03*
X9275000Y4727500D02*
D03*
X8782500Y4797500D02*
D03*
X8792500Y4857500D02*
D03*
X8817500Y4912500D02*
D03*
X8857500Y4957500D02*
D03*
X8912500Y4987500D02*
D03*
X8972500Y5000000D02*
D03*
X9032500Y4992500D02*
D03*
X9087500Y4965000D02*
D03*
X9132500Y4925000D02*
D03*
X9165000Y4872500D02*
D03*
X9162500Y4727500D02*
D03*
X9130000Y4672500D02*
D03*
X9085000Y4632500D02*
D03*
X9030000Y4607500D02*
D03*
X8970000Y4602500D02*
D03*
X8910000Y4615000D02*
D03*
X8857500Y4645000D02*
D03*
X8748204Y4706346D02*
D03*
X8707500Y4660000D02*
D03*
X8745000Y4612500D02*
D03*
X8787500Y4567500D02*
D03*
X8895000Y4512500D02*
D03*
X9015000Y4500000D02*
D03*
X9130000Y4537500D02*
D03*
X9180000Y4572500D02*
D03*
X8795000Y5040000D02*
D03*
X8747500Y5002500D02*
D03*
X8715000Y4950000D02*
D03*
X8695000Y4892500D02*
D03*
X9075000Y4512500D02*
D03*
X9220000Y4617500D02*
D03*
X9255000Y4670000D02*
D03*
X9275000Y4872500D02*
D03*
X9255000Y4930000D02*
D03*
X9222500Y4982500D02*
D03*
X9180000Y5027500D02*
D03*
X9130000Y5062500D02*
D03*
X9075000Y5087500D02*
D03*
X9015000Y5100000D02*
D03*
X8955000D02*
D03*
X8895000Y5092500D02*
D03*
X8694986Y4502498D02*
D03*
X8754986D02*
D03*
X8837500Y4532500D02*
D03*
X8574986Y4502498D02*
D03*
X8634986D02*
D03*
Y5097497D02*
D03*
X8754986D02*
D03*
X8694986D02*
D03*
X8454986Y4502498D02*
D03*
X8514986D02*
D03*
X8334986D02*
D03*
X8394986D02*
D03*
Y5097497D02*
D03*
X8574986D02*
D03*
X8514986D02*
D03*
X8454986D02*
D03*
X8214987Y4502498D02*
D03*
X8274986D02*
D03*
X8154987D02*
D03*
Y5097497D02*
D03*
X8334986D02*
D03*
X8274986D02*
D03*
X8214987D02*
D03*
X8632485Y4632496D02*
D03*
X8512486D02*
D03*
X8512485Y4967499D02*
D03*
X8632485D02*
D03*
X8392486Y4632496D02*
D03*
X8272486D02*
D03*
X8152486D02*
D03*
X8152486Y4967499D02*
D03*
X8272486D02*
D03*
X8392486D02*
D03*
X8632485Y4749997D02*
D03*
X8572485D02*
D03*
X8512485D02*
D03*
X8452485D02*
D03*
X8392485D02*
D03*
Y4849997D02*
D03*
X8452485D02*
D03*
X8512485D02*
D03*
X8572485D02*
D03*
X8332485Y4749997D02*
D03*
X8272485D02*
D03*
X8212485D02*
D03*
X8152486D02*
D03*
Y4849997D02*
D03*
X8212485D02*
D03*
X8272485D02*
D03*
X8332485D02*
D03*
X712501Y4332497D02*
D03*
Y4272497D02*
D03*
X1012500D02*
D03*
X1072500D02*
D03*
X1132500D02*
D03*
X1252500D02*
D03*
X1312500D02*
D03*
X1432500D02*
D03*
X1602499Y4327498D02*
D03*
X712500Y4007497D02*
D03*
X772500D02*
D03*
X832500D02*
D03*
X892500D02*
D03*
X952500D02*
D03*
X1012500D02*
D03*
X1072500D02*
D03*
X1132499D02*
D03*
X1192499D02*
D03*
X1252499D02*
D03*
X1312499D02*
D03*
X1372499D02*
D03*
X1432499D02*
D03*
X1492498Y4004996D02*
D03*
X1552499Y3989996D02*
D03*
X1602498Y3952496D02*
D03*
X1644998Y3909996D02*
D03*
X1687499Y3867496D02*
D03*
X1734999Y3827496D02*
D03*
X1792499Y3797496D02*
D03*
X1852498Y3779996D02*
D03*
X1914998Y3777496D02*
D03*
X1974998D02*
D03*
X2034998D02*
D03*
X2154998D02*
D03*
X2094998D02*
D03*
X2334998D02*
D03*
X2394997D02*
D03*
X2274998D02*
D03*
X2214998D02*
D03*
X2574997D02*
D03*
X2634997D02*
D03*
X2514997D02*
D03*
X2454997D02*
D03*
X3174996D02*
D03*
X3234996D02*
D03*
X3354996D02*
D03*
X3294996D02*
D03*
X2934996D02*
D03*
X2994996D02*
D03*
X3114996D02*
D03*
X3054996D02*
D03*
X2814997D02*
D03*
X2874997D02*
D03*
X2754997D02*
D03*
X2694997D02*
D03*
X3894994D02*
D03*
X3954994D02*
D03*
X4074994D02*
D03*
X4014994D02*
D03*
X3654995D02*
D03*
X3714995D02*
D03*
X3834995D02*
D03*
X3774995D02*
D03*
X3534995D02*
D03*
X3594995D02*
D03*
X3474995D02*
D03*
X3414995D02*
D03*
X4614993D02*
D03*
X4674993D02*
D03*
X4794993D02*
D03*
X4734993D02*
D03*
X4374994D02*
D03*
X4434993D02*
D03*
X4554993D02*
D03*
X4494993D02*
D03*
X4254994D02*
D03*
X4314994D02*
D03*
X4194994D02*
D03*
X4134994D02*
D03*
X5334992D02*
D03*
X5394991D02*
D03*
X5514991D02*
D03*
X5454991D02*
D03*
X5094992D02*
D03*
X5154992D02*
D03*
X5274992D02*
D03*
X5214992D02*
D03*
X4974992D02*
D03*
X5034992D02*
D03*
X4914992D02*
D03*
X4854993D02*
D03*
X6054990D02*
D03*
X6114990D02*
D03*
X6234990D02*
D03*
X6174990D02*
D03*
X5814991D02*
D03*
X5874991D02*
D03*
X5994990D02*
D03*
X5934990D02*
D03*
X5694991D02*
D03*
X5754991D02*
D03*
X5634991D02*
D03*
X5574991D02*
D03*
X6774989D02*
D03*
X6834989D02*
D03*
X6954988D02*
D03*
X6894988D02*
D03*
X6534989D02*
D03*
X6594989D02*
D03*
X6714989D02*
D03*
X6654989D02*
D03*
X6414989D02*
D03*
X6474989D02*
D03*
X6354990D02*
D03*
X6294990D02*
D03*
X7494987D02*
D03*
X7554987D02*
D03*
X7674987D02*
D03*
X7614987D02*
D03*
X7254988D02*
D03*
X7314988D02*
D03*
X7434987D02*
D03*
X7374988D02*
D03*
X7134988D02*
D03*
X7194988D02*
D03*
X7074988D02*
D03*
X7014988D02*
D03*
X7975000Y3802500D02*
D03*
X8035000Y3812500D02*
D03*
X8095000Y3827500D02*
D03*
X7915000Y3792500D02*
D03*
X7734987Y3777496D02*
D03*
Y3182497D02*
D03*
X7805000Y3177500D02*
D03*
X7935000Y3162500D02*
D03*
X7875000Y3170000D02*
D03*
X7995000Y3152500D02*
D03*
X7014988Y3182497D02*
D03*
X7074988D02*
D03*
X7194988D02*
D03*
X7134988D02*
D03*
X7374988D02*
D03*
X7434987D02*
D03*
X7314988D02*
D03*
X7254988D02*
D03*
X7614987D02*
D03*
X7674987D02*
D03*
X7554987D02*
D03*
X7494987D02*
D03*
X6294990D02*
D03*
X6354990D02*
D03*
X6474989D02*
D03*
X6414989D02*
D03*
X6654989D02*
D03*
X6714989D02*
D03*
X6594989D02*
D03*
X6534989D02*
D03*
X6894988D02*
D03*
X6954988D02*
D03*
X6834989D02*
D03*
X6774989D02*
D03*
X5574991D02*
D03*
X5634991D02*
D03*
X5754991D02*
D03*
X5694991D02*
D03*
X5934990D02*
D03*
X5994990D02*
D03*
X5874991D02*
D03*
X5814991D02*
D03*
X6174990D02*
D03*
X6234990D02*
D03*
X6114990D02*
D03*
X6054990D02*
D03*
X4854993D02*
D03*
X4914992D02*
D03*
X5034992D02*
D03*
X4974992D02*
D03*
X5214992D02*
D03*
X5274992D02*
D03*
X5154992D02*
D03*
X5094992D02*
D03*
X5454991D02*
D03*
X5514991D02*
D03*
X5394991D02*
D03*
X5334992D02*
D03*
X4134994D02*
D03*
X4194994D02*
D03*
X4314994D02*
D03*
X4254994D02*
D03*
X4494993D02*
D03*
X4554993D02*
D03*
X4434993D02*
D03*
X4374994D02*
D03*
X4734993D02*
D03*
X4794993D02*
D03*
X4674993D02*
D03*
X4614993D02*
D03*
X3414995D02*
D03*
X3474995D02*
D03*
X3594995D02*
D03*
X3534995D02*
D03*
X3774995D02*
D03*
X3834995D02*
D03*
X3714995D02*
D03*
X3654995D02*
D03*
X4014994D02*
D03*
X4074994D02*
D03*
X3954994D02*
D03*
X3894994D02*
D03*
X2694997D02*
D03*
X2754997D02*
D03*
X2874997D02*
D03*
X2814997D02*
D03*
X3054996D02*
D03*
X3114996D02*
D03*
X2994996D02*
D03*
X2934996D02*
D03*
X3294996D02*
D03*
X3354996D02*
D03*
X3234996D02*
D03*
X3174996D02*
D03*
X2454997D02*
D03*
X2514997D02*
D03*
X2634997D02*
D03*
X2574997D02*
D03*
X2214998D02*
D03*
X2274998D02*
D03*
X2394997D02*
D03*
X2334998D02*
D03*
X2094998D02*
D03*
X2154998D02*
D03*
X2034998D02*
D03*
X1974998D02*
D03*
X1914998D02*
D03*
X1852498Y3179997D02*
D03*
X1792499Y3162497D02*
D03*
X1734999Y3132497D02*
D03*
X1687499Y3092496D02*
D03*
X1644998Y3049997D02*
D03*
X1602498Y3007497D02*
D03*
X1552499Y2969997D02*
D03*
X1492498Y2954996D02*
D03*
X1432499Y2952496D02*
D03*
X1372499D02*
D03*
X1312499D02*
D03*
X1252499D02*
D03*
X1192499D02*
D03*
X1132499D02*
D03*
X1072500D02*
D03*
X1012500D02*
D03*
X952500D02*
D03*
X892500D02*
D03*
X832500D02*
D03*
X772500D02*
D03*
X712500D02*
D03*
Y3947497D02*
D03*
Y3887497D02*
D03*
Y3827497D02*
D03*
Y3767497D02*
D03*
Y3707498D02*
D03*
Y3647498D02*
D03*
X772498Y3592496D02*
D03*
X832498D02*
D03*
X892498D02*
D03*
X952498D02*
D03*
X1012498D02*
D03*
X1072498D02*
D03*
X1132498D02*
D03*
X1192497D02*
D03*
X1252497D02*
D03*
X1312499Y3549996D02*
D03*
X1372498Y3529996D02*
D03*
X1432498D02*
D03*
X1492498D02*
D03*
X1552498D02*
D03*
X1732498D02*
D03*
X1672498D02*
D03*
X1612498D02*
D03*
X1912497D02*
D03*
X1852497D02*
D03*
X1792498D02*
D03*
X2092497D02*
D03*
X2032497D02*
D03*
X1972497D02*
D03*
X2692496D02*
D03*
X2752496D02*
D03*
X2812496D02*
D03*
X2512496D02*
D03*
X2572496D02*
D03*
X2632496D02*
D03*
X2332496D02*
D03*
X2392496D02*
D03*
X2452496D02*
D03*
X2272497D02*
D03*
X2212497D02*
D03*
X2152497D02*
D03*
X3412494D02*
D03*
X3472494D02*
D03*
X3532494D02*
D03*
X3232495D02*
D03*
X3292495D02*
D03*
X3352494D02*
D03*
X3052495D02*
D03*
X3112495D02*
D03*
X3172495D02*
D03*
X2992495D02*
D03*
X2932495D02*
D03*
X2872495D02*
D03*
X4132493D02*
D03*
X4192493D02*
D03*
X4252493D02*
D03*
X3952493D02*
D03*
X4012493D02*
D03*
X4072493D02*
D03*
X3772494D02*
D03*
X3832493D02*
D03*
X3892493D02*
D03*
X3712494D02*
D03*
X3652494D02*
D03*
X3592494D02*
D03*
X4852491D02*
D03*
X4912491D02*
D03*
X4972491D02*
D03*
X4672492D02*
D03*
X4732492D02*
D03*
X4792492D02*
D03*
X4492492D02*
D03*
X4552492D02*
D03*
X4612492D02*
D03*
X4432492D02*
D03*
X4372492D02*
D03*
X4312493D02*
D03*
X5572490D02*
D03*
X5632490D02*
D03*
X5692490D02*
D03*
X5392490D02*
D03*
X5452490D02*
D03*
X5512490D02*
D03*
X5212491D02*
D03*
X5272491D02*
D03*
X5332490D02*
D03*
X5152491D02*
D03*
X5092491D02*
D03*
X5032491D02*
D03*
X6292489D02*
D03*
X6352488D02*
D03*
X6412488D02*
D03*
X6112489D02*
D03*
X6172489D02*
D03*
X6232489D02*
D03*
X5932489D02*
D03*
X5992489D02*
D03*
X6052489D02*
D03*
X5872489D02*
D03*
X5812490D02*
D03*
X5752490D02*
D03*
X7012487D02*
D03*
X7072487D02*
D03*
X7132487D02*
D03*
X6832487D02*
D03*
X6892487D02*
D03*
X6952487D02*
D03*
X6652488D02*
D03*
X6712488D02*
D03*
X6772488D02*
D03*
X6592488D02*
D03*
X6532488D02*
D03*
X6472488D02*
D03*
X7732486D02*
D03*
X7792486D02*
D03*
X7852485D02*
D03*
X7552486D02*
D03*
X7612486D02*
D03*
X7672486D02*
D03*
X7372486D02*
D03*
X7432486D02*
D03*
X7492486D02*
D03*
X7312487D02*
D03*
X7252487D02*
D03*
X7192487D02*
D03*
X8092485D02*
D03*
X8032485D02*
D03*
X7972485D02*
D03*
X7912485D02*
D03*
Y3429996D02*
D03*
X7972485D02*
D03*
X8032485D02*
D03*
X8092485D02*
D03*
X7192487D02*
D03*
X7252487D02*
D03*
X7312487D02*
D03*
X7492486D02*
D03*
X7432486D02*
D03*
X7372486D02*
D03*
X7672486D02*
D03*
X7612486D02*
D03*
X7552486D02*
D03*
X7852485D02*
D03*
X7792486D02*
D03*
X7732486D02*
D03*
X6472488D02*
D03*
X6532488D02*
D03*
X6592488D02*
D03*
X6772488D02*
D03*
X6712488D02*
D03*
X6652488D02*
D03*
X6952487D02*
D03*
X6892487D02*
D03*
X6832487D02*
D03*
X7132487D02*
D03*
X7072487D02*
D03*
X7012487D02*
D03*
X5752490D02*
D03*
X5812490D02*
D03*
X5872489D02*
D03*
X6052489D02*
D03*
X5992489D02*
D03*
X5932489D02*
D03*
X6232489D02*
D03*
X6172489D02*
D03*
X6112489D02*
D03*
X6412488D02*
D03*
X6352488D02*
D03*
X6292489D02*
D03*
X5032491D02*
D03*
X5092491D02*
D03*
X5152491D02*
D03*
X5332490D02*
D03*
X5272491D02*
D03*
X5212491D02*
D03*
X5512490D02*
D03*
X5452490D02*
D03*
X5392490D02*
D03*
X5692490D02*
D03*
X5632490D02*
D03*
X5572490D02*
D03*
X4312493D02*
D03*
X4372492D02*
D03*
X4432492D02*
D03*
X4612492D02*
D03*
X4552492D02*
D03*
X4492492D02*
D03*
X4792492D02*
D03*
X4732492D02*
D03*
X4672492D02*
D03*
X4972491D02*
D03*
X4912491D02*
D03*
X4852491D02*
D03*
X3592494D02*
D03*
X3652494D02*
D03*
X3712494D02*
D03*
X3892493D02*
D03*
X3832493D02*
D03*
X3772494D02*
D03*
X4072493D02*
D03*
X4012493D02*
D03*
X3952493D02*
D03*
X4252493D02*
D03*
X4192493D02*
D03*
X4132493D02*
D03*
X2872495D02*
D03*
X2932495D02*
D03*
X2992495D02*
D03*
X3172495D02*
D03*
X3112495D02*
D03*
X3052495D02*
D03*
X3352494D02*
D03*
X3292495D02*
D03*
X3232495D02*
D03*
X3532494D02*
D03*
X3472494D02*
D03*
X3412494D02*
D03*
X2152497D02*
D03*
X2212497D02*
D03*
X2272497D02*
D03*
X2452496D02*
D03*
X2392496D02*
D03*
X2332496D02*
D03*
X2632496D02*
D03*
X2572496D02*
D03*
X2512496D02*
D03*
X2812496D02*
D03*
X2752496D02*
D03*
X2692496D02*
D03*
X1972497D02*
D03*
X2032497D02*
D03*
X2092497D02*
D03*
X1792498D02*
D03*
X1852497D02*
D03*
X1912497D02*
D03*
X1612498D02*
D03*
X1672498D02*
D03*
X1732498D02*
D03*
X1552498D02*
D03*
X1492498D02*
D03*
X1432498D02*
D03*
X1372498D02*
D03*
X1312499Y3409996D02*
D03*
X1252497Y3367496D02*
D03*
X1192497D02*
D03*
X1132498D02*
D03*
X1072498D02*
D03*
X1012498D02*
D03*
X952498D02*
D03*
X892498D02*
D03*
X832498D02*
D03*
X772498D02*
D03*
X832500Y3887497D02*
D03*
Y3767497D02*
D03*
X952500Y3887497D02*
D03*
Y3767497D02*
D03*
X1072500Y3887497D02*
D03*
Y3767497D02*
D03*
X1192499Y3887497D02*
D03*
Y3767497D02*
D03*
X1312499Y3887497D02*
D03*
Y3767497D02*
D03*
X1432499D02*
D03*
Y3887497D02*
D03*
X1552499Y3767497D02*
D03*
Y3647498D02*
D03*
X1432499D02*
D03*
X1672498D02*
D03*
X1792498D02*
D03*
X1912498D02*
D03*
X1672498Y3767497D02*
D03*
X1552499Y3887497D02*
D03*
X1312499Y3647498D02*
D03*
X2032498D02*
D03*
X2152497D02*
D03*
X2992496D02*
D03*
X2872496D02*
D03*
X2752496D02*
D03*
X2632496D02*
D03*
X2512497D02*
D03*
X2272497D02*
D03*
X2392497D02*
D03*
X3832494D02*
D03*
X3712494D02*
D03*
X3592494D02*
D03*
X3472495D02*
D03*
X3352495D02*
D03*
X3112495D02*
D03*
X3232495D02*
D03*
X4672492D02*
D03*
X4552493D02*
D03*
X4432493D02*
D03*
X4312493D02*
D03*
X4192493D02*
D03*
X3952494D02*
D03*
X4072494D02*
D03*
X5512491D02*
D03*
X5392491D02*
D03*
X5272491D02*
D03*
X5152491D02*
D03*
X5032492D02*
D03*
X4792492D02*
D03*
X4912492D02*
D03*
X6352489D02*
D03*
X6232489D02*
D03*
X6112489D02*
D03*
X5992490D02*
D03*
X5872490D02*
D03*
X5632490D02*
D03*
X5752490D02*
D03*
X7192487D02*
D03*
X7072488D02*
D03*
X6952488D02*
D03*
X6832488D02*
D03*
X6712488D02*
D03*
X6472489D02*
D03*
X6592488D02*
D03*
X8032486D02*
D03*
X7912486D02*
D03*
X7792486D02*
D03*
X7672486D02*
D03*
X7552487D02*
D03*
X7312487D02*
D03*
X7432487D02*
D03*
X7432487Y3312495D02*
D03*
X7312487D02*
D03*
X7552487D02*
D03*
X7672487D02*
D03*
X7792486D02*
D03*
X7912486D02*
D03*
X8032486D02*
D03*
X6592489D02*
D03*
X6472489D02*
D03*
X6712488D02*
D03*
X6832488D02*
D03*
X6952488D02*
D03*
X7072488D02*
D03*
X7192488D02*
D03*
X5752490D02*
D03*
X5632491D02*
D03*
X5872490D02*
D03*
X5992490D02*
D03*
X6112490D02*
D03*
X6232489D02*
D03*
X6352489D02*
D03*
X4912492D02*
D03*
X4792492D02*
D03*
X5032492D02*
D03*
X5152492D02*
D03*
X5272491D02*
D03*
X5392491D02*
D03*
X5512491D02*
D03*
X4072494D02*
D03*
X3952494D02*
D03*
X4192494D02*
D03*
X4312493D02*
D03*
X4432493D02*
D03*
X4552493D02*
D03*
X4672493D02*
D03*
X3232495D02*
D03*
X3112496D02*
D03*
X3352495D02*
D03*
X3472495D02*
D03*
X3592495D02*
D03*
X3712494D02*
D03*
X3832494D02*
D03*
X2392497D02*
D03*
X2272497D02*
D03*
X2512497D02*
D03*
X2632497D02*
D03*
X2752496D02*
D03*
X2872496D02*
D03*
X2992496D02*
D03*
X2152498D02*
D03*
X2032498D02*
D03*
X1312499D02*
D03*
X1552499Y3072496D02*
D03*
X1672499Y3192496D02*
D03*
X1912498Y3312495D02*
D03*
X1792498D02*
D03*
X1672499D02*
D03*
X1432499D02*
D03*
X1552499D02*
D03*
Y3192496D02*
D03*
X1432499Y3072496D02*
D03*
Y3192496D02*
D03*
X1312499D02*
D03*
Y3072496D02*
D03*
X1192500Y3192496D02*
D03*
Y3072496D02*
D03*
X1072500Y3192496D02*
D03*
Y3072496D02*
D03*
X952500Y3192496D02*
D03*
Y3072496D02*
D03*
X832500Y3192496D02*
D03*
Y3072496D02*
D03*
X712500Y3012496D02*
D03*
Y3072496D02*
D03*
Y3132495D02*
D03*
Y3192495D02*
D03*
Y3252495D02*
D03*
Y3312495D02*
D03*
X1210000Y3479996D02*
D03*
X1132501Y5592498D02*
D03*
X712501Y5327498D02*
D03*
X772501D02*
D03*
X832501D02*
D03*
X892501D02*
D03*
X952501D02*
D03*
X1012500D02*
D03*
X1072500D02*
D03*
X1132500D02*
D03*
X1192500D02*
D03*
X1252500D02*
D03*
X1312500D02*
D03*
X1372500D02*
D03*
X1432500D02*
D03*
X1492499Y5324997D02*
D03*
X1552499Y5309997D02*
D03*
X1602499Y5272497D02*
D03*
X1644999Y5229997D02*
D03*
X1687499Y5187497D02*
D03*
X1734999Y5147497D02*
D03*
X1792499Y5117497D02*
D03*
X1852499Y5099997D02*
D03*
X1914999Y5097497D02*
D03*
X1974999D02*
D03*
X2034999D02*
D03*
X2154999D02*
D03*
X2094999D02*
D03*
X2334998D02*
D03*
X2394998D02*
D03*
X2274998D02*
D03*
X2214999D02*
D03*
X2574998D02*
D03*
X2634998D02*
D03*
X2514998D02*
D03*
X2454998D02*
D03*
X3174997D02*
D03*
X3234997D02*
D03*
X3354996D02*
D03*
X3294996D02*
D03*
X2934997D02*
D03*
X2994997D02*
D03*
X3114997D02*
D03*
X3054997D02*
D03*
X2814997D02*
D03*
X2874997D02*
D03*
X2754998D02*
D03*
X2694998D02*
D03*
X3894995D02*
D03*
X3954995D02*
D03*
X4074995D02*
D03*
X4014995D02*
D03*
X3654996D02*
D03*
X3714996D02*
D03*
X3834995D02*
D03*
X3774995D02*
D03*
X3534996D02*
D03*
X3594996D02*
D03*
X3474996D02*
D03*
X3414996D02*
D03*
X4614994D02*
D03*
X4674994D02*
D03*
X4794993D02*
D03*
X4734994D02*
D03*
X4374994D02*
D03*
X4434994D02*
D03*
X4554994D02*
D03*
X4494994D02*
D03*
X4254995D02*
D03*
X4314994D02*
D03*
X4194995D02*
D03*
X4134995D02*
D03*
X5334992D02*
D03*
X5394992D02*
D03*
X5514992D02*
D03*
X5454992D02*
D03*
X5094993D02*
D03*
X5154993D02*
D03*
X5274992D02*
D03*
X5214993D02*
D03*
X4974993D02*
D03*
X5034993D02*
D03*
X4914993D02*
D03*
X4854993D02*
D03*
X6054991D02*
D03*
X6114991D02*
D03*
X6234991D02*
D03*
X6174991D02*
D03*
X5814991D02*
D03*
X5874991D02*
D03*
X5994991D02*
D03*
X5934991D02*
D03*
X5694992D02*
D03*
X5754992D02*
D03*
X5634992D02*
D03*
X5574992D02*
D03*
X6774989D02*
D03*
X6834989D02*
D03*
X6954989D02*
D03*
X6894989D02*
D03*
X6534990D02*
D03*
X6594990D02*
D03*
X6714990D02*
D03*
X6654990D02*
D03*
X6414990D02*
D03*
X6474990D02*
D03*
X6354990D02*
D03*
X6294990D02*
D03*
X7494988D02*
D03*
X7554988D02*
D03*
X7674988D02*
D03*
X7614988D02*
D03*
X7254989D02*
D03*
X7314988D02*
D03*
X7434988D02*
D03*
X7374988D02*
D03*
X7134989D02*
D03*
X7194989D02*
D03*
X7074989D02*
D03*
X7014989D02*
D03*
X7974987D02*
D03*
X8034987D02*
D03*
X8094987D02*
D03*
X7854987D02*
D03*
X7914987D02*
D03*
X7794987D02*
D03*
X7734988D02*
D03*
Y4502498D02*
D03*
X7794987D02*
D03*
X7914987D02*
D03*
X7854987D02*
D03*
X8094987D02*
D03*
X8034987D02*
D03*
X7974987D02*
D03*
X7014989D02*
D03*
X7074989D02*
D03*
X7194989D02*
D03*
X7134989D02*
D03*
X7374988D02*
D03*
X7434988D02*
D03*
X7314988D02*
D03*
X7254989D02*
D03*
X7614988D02*
D03*
X7674988D02*
D03*
X7554988D02*
D03*
X7494988D02*
D03*
X6294990D02*
D03*
X6354990D02*
D03*
X6474990D02*
D03*
X6414990D02*
D03*
X6654990D02*
D03*
X6714990D02*
D03*
X6594990D02*
D03*
X6534990D02*
D03*
X6894989D02*
D03*
X6954989D02*
D03*
X6834989D02*
D03*
X6774989D02*
D03*
X5574992D02*
D03*
X5634992D02*
D03*
X5754992D02*
D03*
X5694992D02*
D03*
X5934991D02*
D03*
X5994991D02*
D03*
X5874991D02*
D03*
X5814991D02*
D03*
X6174991D02*
D03*
X6234991D02*
D03*
X6114991D02*
D03*
X6054991D02*
D03*
X4854993D02*
D03*
X4914993D02*
D03*
X5034993D02*
D03*
X4974993D02*
D03*
X5214993D02*
D03*
X5274992D02*
D03*
X5154993D02*
D03*
X5094993D02*
D03*
X5454992D02*
D03*
X5514992D02*
D03*
X5394992D02*
D03*
X5334992D02*
D03*
X4134995D02*
D03*
X4194995D02*
D03*
X4314994D02*
D03*
X4254995D02*
D03*
X4494994D02*
D03*
X4554994D02*
D03*
X4434994D02*
D03*
X4374994D02*
D03*
X4734994D02*
D03*
X4794993D02*
D03*
X4674994D02*
D03*
X4614994D02*
D03*
X3414996D02*
D03*
X3474996D02*
D03*
X3594996D02*
D03*
X3534996D02*
D03*
X3774995D02*
D03*
X3834995D02*
D03*
X3714996D02*
D03*
X3654996D02*
D03*
X4014995D02*
D03*
X4074995D02*
D03*
X3954995D02*
D03*
X3894995D02*
D03*
X2694998D02*
D03*
X2754998D02*
D03*
X2874997D02*
D03*
X2814997D02*
D03*
X3054997D02*
D03*
X3114997D02*
D03*
X2994997D02*
D03*
X2934997D02*
D03*
X3294996D02*
D03*
X3354996D02*
D03*
X3234997D02*
D03*
X3174997D02*
D03*
X2454998D02*
D03*
X2514998D02*
D03*
X2634998D02*
D03*
X2574998D02*
D03*
X2214999D02*
D03*
X2274998D02*
D03*
X2394998D02*
D03*
X2334998D02*
D03*
X2094999D02*
D03*
X2154999D02*
D03*
X2034999D02*
D03*
X1974999D02*
D03*
X1914999D02*
D03*
X1852499Y4499998D02*
D03*
X1792499Y4482498D02*
D03*
X1734999Y4452498D02*
D03*
X1687499Y4412498D02*
D03*
X1644999Y4369998D02*
D03*
X1552499Y4289998D02*
D03*
X1492499Y4274997D02*
D03*
X1372500Y4272497D02*
D03*
X1192500D02*
D03*
X952501D02*
D03*
X892501D02*
D03*
X832501D02*
D03*
X772501D02*
D03*
X712501Y5267498D02*
D03*
Y5207498D02*
D03*
Y5147498D02*
D03*
Y5087499D02*
D03*
Y5027499D02*
D03*
Y4967499D02*
D03*
X772499Y4912497D02*
D03*
X832499D02*
D03*
X892499D02*
D03*
X952499D02*
D03*
X1012499D02*
D03*
X1072498D02*
D03*
X1132498D02*
D03*
X1192498D02*
D03*
X1252498D02*
D03*
X1312499Y4869997D02*
D03*
X1372499Y4849997D02*
D03*
X1432499D02*
D03*
X1492499D02*
D03*
X1552499D02*
D03*
X1732498D02*
D03*
X1672499D02*
D03*
X1612499D02*
D03*
X1912498D02*
D03*
X1852498D02*
D03*
X1792498D02*
D03*
X2092498D02*
D03*
X2032498D02*
D03*
X1972498D02*
D03*
X2692497D02*
D03*
X2752496D02*
D03*
X2812496D02*
D03*
X2512497D02*
D03*
X2572497D02*
D03*
X2632497D02*
D03*
X2332497D02*
D03*
X2392497D02*
D03*
X2452497D02*
D03*
X2272497D02*
D03*
X2212497D02*
D03*
X2152498D02*
D03*
X3412495D02*
D03*
X3472495D02*
D03*
X3532495D02*
D03*
X3232495D02*
D03*
X3292495D02*
D03*
X3352495D02*
D03*
X3052496D02*
D03*
X3112496D02*
D03*
X3172496D02*
D03*
X2992496D02*
D03*
X2932496D02*
D03*
X2872496D02*
D03*
X4132494D02*
D03*
X4192494D02*
D03*
X4252493D02*
D03*
X3952494D02*
D03*
X4012494D02*
D03*
X4072494D02*
D03*
X3772494D02*
D03*
X3832494D02*
D03*
X3892494D02*
D03*
X3712494D02*
D03*
X3652495D02*
D03*
X3592495D02*
D03*
X4852492D02*
D03*
X4912492D02*
D03*
X4972492D02*
D03*
X4672493D02*
D03*
X4732492D02*
D03*
X4792492D02*
D03*
X4492493D02*
D03*
X4552493D02*
D03*
X4612493D02*
D03*
X4432493D02*
D03*
X4372493D02*
D03*
X4312493D02*
D03*
X5572491D02*
D03*
X5632491D02*
D03*
X5692491D02*
D03*
X5392491D02*
D03*
X5452491D02*
D03*
X5512491D02*
D03*
X5212491D02*
D03*
X5272491D02*
D03*
X5332491D02*
D03*
X5152492D02*
D03*
X5092492D02*
D03*
X5032492D02*
D03*
X6292489D02*
D03*
X6352489D02*
D03*
X6412489D02*
D03*
X6112490D02*
D03*
X6172490D02*
D03*
X6232489D02*
D03*
X5932490D02*
D03*
X5992490D02*
D03*
X6052490D02*
D03*
X5872490D02*
D03*
X5812490D02*
D03*
X5752490D02*
D03*
X7012488D02*
D03*
X7072488D02*
D03*
X7132488D02*
D03*
X6832488D02*
D03*
X6892488D02*
D03*
X6952488D02*
D03*
X6652489D02*
D03*
X6712488D02*
D03*
X6772488D02*
D03*
X6592489D02*
D03*
X6532489D02*
D03*
X6472489D02*
D03*
X7732486D02*
D03*
X7792486D02*
D03*
X7852486D02*
D03*
X7552487D02*
D03*
X7612487D02*
D03*
X7672487D02*
D03*
X7372487D02*
D03*
X7432487D02*
D03*
X7492487D02*
D03*
X7312487D02*
D03*
X7252487D02*
D03*
X7192488D02*
D03*
X8092486D02*
D03*
X8032486D02*
D03*
X7972486D02*
D03*
X7912486D02*
D03*
Y4749997D02*
D03*
X7972486D02*
D03*
X8032486D02*
D03*
X8092486D02*
D03*
X7192488D02*
D03*
X7252487D02*
D03*
X7312487D02*
D03*
X7492487D02*
D03*
X7432487D02*
D03*
X7372487D02*
D03*
X7672487D02*
D03*
X7612487D02*
D03*
X7552487D02*
D03*
X7852486D02*
D03*
X7792486D02*
D03*
X7732486D02*
D03*
X6472489D02*
D03*
X6532489D02*
D03*
X6592489D02*
D03*
X6772488D02*
D03*
X6712488D02*
D03*
X6652489D02*
D03*
X6952488D02*
D03*
X6892488D02*
D03*
X6832488D02*
D03*
X7132488D02*
D03*
X7072488D02*
D03*
X7012488D02*
D03*
X5752490D02*
D03*
X5812490D02*
D03*
X5872490D02*
D03*
X6052490D02*
D03*
X5992490D02*
D03*
X5932490D02*
D03*
X6232489D02*
D03*
X6172490D02*
D03*
X6112490D02*
D03*
X6412489D02*
D03*
X6352489D02*
D03*
X6292489D02*
D03*
X5032492D02*
D03*
X5092492D02*
D03*
X5152492D02*
D03*
X5332491D02*
D03*
X5272491D02*
D03*
X5212491D02*
D03*
X5512491D02*
D03*
X5452491D02*
D03*
X5392491D02*
D03*
X5692491D02*
D03*
X5632491D02*
D03*
X5572491D02*
D03*
X4312493D02*
D03*
X4372493D02*
D03*
X4432493D02*
D03*
X4612493D02*
D03*
X4552493D02*
D03*
X4492493D02*
D03*
X4792492D02*
D03*
X4732492D02*
D03*
X4672493D02*
D03*
X4972492D02*
D03*
X4912492D02*
D03*
X4852492D02*
D03*
X3592495D02*
D03*
X3652495D02*
D03*
X3712494D02*
D03*
X3892494D02*
D03*
X3832494D02*
D03*
X3772494D02*
D03*
X4072494D02*
D03*
X4012494D02*
D03*
X3952494D02*
D03*
X4252493D02*
D03*
X4192494D02*
D03*
X4132494D02*
D03*
X2872496D02*
D03*
X2932496D02*
D03*
X2992496D02*
D03*
X3172496D02*
D03*
X3112496D02*
D03*
X3052496D02*
D03*
X3352495D02*
D03*
X3292495D02*
D03*
X3232495D02*
D03*
X3532495D02*
D03*
X3472495D02*
D03*
X3412495D02*
D03*
X2152498D02*
D03*
X2212497D02*
D03*
X2272497D02*
D03*
X2452497D02*
D03*
X2392497D02*
D03*
X2332497D02*
D03*
X2632497D02*
D03*
X2572497D02*
D03*
X2512497D02*
D03*
X2812496D02*
D03*
X2752496D02*
D03*
X2692497D02*
D03*
X1972498D02*
D03*
X2032498D02*
D03*
X2092498D02*
D03*
X1792498D02*
D03*
X1852498D02*
D03*
X1912498D02*
D03*
X1612499D02*
D03*
X1672499D02*
D03*
X1732498D02*
D03*
X1552499D02*
D03*
X1492499D02*
D03*
X1432499D02*
D03*
X1372499D02*
D03*
X1312499Y4729997D02*
D03*
X1252498Y4687497D02*
D03*
X1192498D02*
D03*
X1132498D02*
D03*
X1072498D02*
D03*
X1012499D02*
D03*
X952499D02*
D03*
X892499D02*
D03*
X832499D02*
D03*
X772499D02*
D03*
X832501Y5207498D02*
D03*
Y5087499D02*
D03*
X952501Y5207498D02*
D03*
Y5087499D02*
D03*
X1072500Y5207498D02*
D03*
Y5087499D02*
D03*
X1192500Y5207498D02*
D03*
Y5087499D02*
D03*
X1312500Y5207498D02*
D03*
Y5087499D02*
D03*
X1432500D02*
D03*
Y5207498D02*
D03*
X1552499Y5087499D02*
D03*
Y4967499D02*
D03*
X1432500D02*
D03*
X1672499D02*
D03*
X1792499D02*
D03*
X1912499D02*
D03*
X1672499Y5087499D02*
D03*
X1552499Y5207498D02*
D03*
X1312500Y4967499D02*
D03*
X2032498D02*
D03*
X2152498D02*
D03*
X2992496D02*
D03*
X2872497D02*
D03*
X2752497D02*
D03*
X2632497D02*
D03*
X2512497D02*
D03*
X2272498D02*
D03*
X2392498D02*
D03*
X3832495D02*
D03*
X3712495D02*
D03*
X3592495D02*
D03*
X3472495D02*
D03*
X3352496D02*
D03*
X3112496D02*
D03*
X3232496D02*
D03*
X4672493D02*
D03*
X4552493D02*
D03*
X4432494D02*
D03*
X4312494D02*
D03*
X4192494D02*
D03*
X3952495D02*
D03*
X4072494D02*
D03*
X5512491D02*
D03*
X5392492D02*
D03*
X5272492D02*
D03*
X5152492D02*
D03*
X5032492D02*
D03*
X4792493D02*
D03*
X4912493D02*
D03*
X6352490D02*
D03*
X6232490D02*
D03*
X6112490D02*
D03*
X5992490D02*
D03*
X5872491D02*
D03*
X5632491D02*
D03*
X5752491D02*
D03*
X7192488D02*
D03*
X7072488D02*
D03*
X6952489D02*
D03*
X6832489D02*
D03*
X6712489D02*
D03*
X6472489D02*
D03*
X6592489D02*
D03*
X8032486D02*
D03*
X7912487D02*
D03*
X7792487D02*
D03*
X7672487D02*
D03*
X7552487D02*
D03*
X7312488D02*
D03*
X7432488D02*
D03*
X7432488Y4632496D02*
D03*
X7312488D02*
D03*
X7552488D02*
D03*
X7672487D02*
D03*
X7792487D02*
D03*
X7912487D02*
D03*
X8032487D02*
D03*
X6592489D02*
D03*
X6472490D02*
D03*
X6712489D02*
D03*
X6832489D02*
D03*
X6952489D02*
D03*
X7072489D02*
D03*
X7192488D02*
D03*
X5752491D02*
D03*
X5632491D02*
D03*
X5872491D02*
D03*
X5992491D02*
D03*
X6112490D02*
D03*
X6232490D02*
D03*
X6352490D02*
D03*
X4912493D02*
D03*
X4792493D02*
D03*
X5032493D02*
D03*
X5152492D02*
D03*
X5272492D02*
D03*
X5392492D02*
D03*
X5512492D02*
D03*
X4072495D02*
D03*
X3952495D02*
D03*
X4192494D02*
D03*
X4312494D02*
D03*
X4432494D02*
D03*
X4552494D02*
D03*
X4672493D02*
D03*
X3232496D02*
D03*
X3112496D02*
D03*
X3352496D02*
D03*
X3472496D02*
D03*
X3592495D02*
D03*
X3712495D02*
D03*
X3832495D02*
D03*
X2392498D02*
D03*
X2272498D02*
D03*
X2512498D02*
D03*
X2632497D02*
D03*
X2752497D02*
D03*
X2872497D02*
D03*
X2992497D02*
D03*
X2152498D02*
D03*
X2032499D02*
D03*
X1312500D02*
D03*
X1552500Y4392497D02*
D03*
X1672499Y4512497D02*
D03*
X1912499Y4632496D02*
D03*
X1792499D02*
D03*
X1672499D02*
D03*
X1432500D02*
D03*
X1552500D02*
D03*
Y4512497D02*
D03*
X1432500Y4392497D02*
D03*
Y4512497D02*
D03*
X1312500D02*
D03*
Y4392497D02*
D03*
X1192500Y4512497D02*
D03*
Y4392497D02*
D03*
X1072501Y4512497D02*
D03*
Y4392497D02*
D03*
X952501Y4512497D02*
D03*
Y4392497D02*
D03*
X832501Y4512497D02*
D03*
Y4392497D02*
D03*
X712501Y4392497D02*
D03*
Y4452497D02*
D03*
Y4512496D02*
D03*
Y4572496D02*
D03*
Y4632496D02*
D03*
X1210000Y4799997D02*
D03*
X8127500Y6365000D02*
D03*
Y6285000D02*
D03*
Y6220000D02*
D03*
Y5875000D02*
D03*
Y5950000D02*
D03*
Y6020000D02*
D03*
X1209999Y6119998D02*
D03*
X712500Y5952497D02*
D03*
Y5892497D02*
D03*
Y5832498D02*
D03*
Y5772498D02*
D03*
Y5712498D02*
D03*
Y5652498D02*
D03*
X832500Y5712498D02*
D03*
Y5832498D02*
D03*
X952500Y5712498D02*
D03*
Y5832498D02*
D03*
X1072500Y5712498D02*
D03*
Y5832498D02*
D03*
X1192499Y5712498D02*
D03*
Y5832498D02*
D03*
X1312499Y5712498D02*
D03*
Y5832498D02*
D03*
X1432499D02*
D03*
Y5712498D02*
D03*
X1552499Y5832498D02*
D03*
Y5952498D02*
D03*
X1432499D02*
D03*
X1672498D02*
D03*
X1792498D02*
D03*
X1912498D02*
D03*
X1672498Y5832498D02*
D03*
X1552499Y5712498D02*
D03*
X1312499Y5952498D02*
D03*
X2032498D02*
D03*
X2152497D02*
D03*
X2992496D02*
D03*
X2872496D02*
D03*
X2752496D02*
D03*
X2632496D02*
D03*
X2512497D02*
D03*
X2272497D02*
D03*
X2392497D02*
D03*
X3832494D02*
D03*
X3712494D02*
D03*
X3592494D02*
D03*
X3472495D02*
D03*
X3352495D02*
D03*
X3112495D02*
D03*
X3232495D02*
D03*
X4672492D02*
D03*
X4552493D02*
D03*
X4432493D02*
D03*
X4312493D02*
D03*
X4192493D02*
D03*
X3952494D02*
D03*
X4072494D02*
D03*
X5512491D02*
D03*
X5392491D02*
D03*
X5272491D02*
D03*
X5152491D02*
D03*
X5032492D02*
D03*
X4792492D02*
D03*
X4912492D02*
D03*
X6352489D02*
D03*
X6232489D02*
D03*
X6112489D02*
D03*
X5992490D02*
D03*
X5872490D02*
D03*
X5632490D02*
D03*
X5752490D02*
D03*
X7192487D02*
D03*
X7072488D02*
D03*
X6952488D02*
D03*
X6832488D02*
D03*
X6712488D02*
D03*
X6472489D02*
D03*
X6592488D02*
D03*
X8032486D02*
D03*
X7912486D02*
D03*
X7792486D02*
D03*
X7672486D02*
D03*
X7552487D02*
D03*
X7312487D02*
D03*
X7432487D02*
D03*
X7432487Y6287500D02*
D03*
X7312487D02*
D03*
X7552486D02*
D03*
X7672486D02*
D03*
X7792486D02*
D03*
X7912486D02*
D03*
X8032485D02*
D03*
X6592488D02*
D03*
X6472488D02*
D03*
X6712488D02*
D03*
X6832488D02*
D03*
X6952487D02*
D03*
X7072487D02*
D03*
X7192487D02*
D03*
X5752490D02*
D03*
X5632490D02*
D03*
X5872490D02*
D03*
X5992489D02*
D03*
X6112489D02*
D03*
X6232489D02*
D03*
X6352489D02*
D03*
X4912492D02*
D03*
X4792492D02*
D03*
X5032491D02*
D03*
X5152491D02*
D03*
X5272491D02*
D03*
X5392491D02*
D03*
X5512490D02*
D03*
X4072493D02*
D03*
X3952493D02*
D03*
X4192493D02*
D03*
X4312493D02*
D03*
X4432493D02*
D03*
X4552492D02*
D03*
X4672492D02*
D03*
X3232495D02*
D03*
X3112495D02*
D03*
X3352495D02*
D03*
X3472494D02*
D03*
X3592494D02*
D03*
X3712494D02*
D03*
X3832494D02*
D03*
X2392497D02*
D03*
X2272497D02*
D03*
X2512496D02*
D03*
X2632496D02*
D03*
X2752496D02*
D03*
X2872496D02*
D03*
X2992495D02*
D03*
X2152497D02*
D03*
X2032497D02*
D03*
X1312499D02*
D03*
X1552498Y6527500D02*
D03*
X1672498Y6407500D02*
D03*
X1912498Y6287500D02*
D03*
X1792498D02*
D03*
X1672498D02*
D03*
X1432499D02*
D03*
X1552498D02*
D03*
Y6407500D02*
D03*
X1432499Y6527500D02*
D03*
Y6407500D02*
D03*
X1312499D02*
D03*
Y6527500D02*
D03*
X1192499Y6407500D02*
D03*
Y6527500D02*
D03*
X1072499Y6407500D02*
D03*
Y6527500D02*
D03*
X952499Y6407500D02*
D03*
Y6527500D02*
D03*
X832500Y6407500D02*
D03*
Y6527500D02*
D03*
X772498Y6007499D02*
D03*
X832498D02*
D03*
X892498D02*
D03*
X952498D02*
D03*
X1012498D02*
D03*
X1072497D02*
D03*
X1132497D02*
D03*
X1192497D02*
D03*
X1252497D02*
D03*
X1312498Y6049998D02*
D03*
X1372498Y6069999D02*
D03*
X1432498D02*
D03*
X1492498D02*
D03*
X1552498D02*
D03*
X1732497D02*
D03*
X1672498D02*
D03*
X1612498D02*
D03*
X1912497D02*
D03*
X1852497D02*
D03*
X1792497D02*
D03*
X2092497D02*
D03*
X2032497D02*
D03*
X1972497D02*
D03*
X2692496D02*
D03*
X2752495D02*
D03*
X2812495D02*
D03*
X2512496D02*
D03*
X2572496D02*
D03*
X2632496D02*
D03*
X2332496D02*
D03*
X2392496D02*
D03*
X2452496D02*
D03*
X2272496D02*
D03*
X2212496D02*
D03*
X2152497D02*
D03*
X3412494D02*
D03*
X3472494D02*
D03*
X3532494D02*
D03*
X3232494D02*
D03*
X3292494D02*
D03*
X3352494D02*
D03*
X3052495D02*
D03*
X3112495D02*
D03*
X3172495D02*
D03*
X2992495D02*
D03*
X2932495D02*
D03*
X2872495D02*
D03*
X4132493D02*
D03*
X4192493D02*
D03*
X4252492D02*
D03*
X3952493D02*
D03*
X4012493D02*
D03*
X4072493D02*
D03*
X3772493D02*
D03*
X3832493D02*
D03*
X3892493D02*
D03*
X3712493D02*
D03*
X3652494D02*
D03*
X3592494D02*
D03*
X4852491D02*
D03*
X4912491D02*
D03*
X4972491D02*
D03*
X4672492D02*
D03*
X4732491D02*
D03*
X4792491D02*
D03*
X4492492D02*
D03*
X4552492D02*
D03*
X4612492D02*
D03*
X4432492D02*
D03*
X4372492D02*
D03*
X4312492D02*
D03*
X5572490D02*
D03*
X5632490D02*
D03*
X5692490D02*
D03*
X5392490D02*
D03*
X5452490D02*
D03*
X5512490D02*
D03*
X5212490D02*
D03*
X5272490D02*
D03*
X5332490D02*
D03*
X5152491D02*
D03*
X5092491D02*
D03*
X5032491D02*
D03*
X6292488D02*
D03*
X6352488D02*
D03*
X6412488D02*
D03*
X6112489D02*
D03*
X6172489D02*
D03*
X6232488D02*
D03*
X5932489D02*
D03*
X5992489D02*
D03*
X6052489D02*
D03*
X5872489D02*
D03*
X5812489D02*
D03*
X5752489D02*
D03*
X7012487D02*
D03*
X7072487D02*
D03*
X7132487D02*
D03*
X6832487D02*
D03*
X6892487D02*
D03*
X6952487D02*
D03*
X6652488D02*
D03*
X6712487D02*
D03*
X6772487D02*
D03*
X6592488D02*
D03*
X6532488D02*
D03*
X6472488D02*
D03*
X7732485D02*
D03*
X7792485D02*
D03*
X7852485D02*
D03*
X7552486D02*
D03*
X7612486D02*
D03*
X7672486D02*
D03*
X7372486D02*
D03*
X7432486D02*
D03*
X7492486D02*
D03*
X7312486D02*
D03*
X7252486D02*
D03*
X7192487D02*
D03*
X8092485D02*
D03*
X8032485D02*
D03*
X7972485D02*
D03*
X7912485D02*
D03*
Y6169998D02*
D03*
X7972485D02*
D03*
X8032485D02*
D03*
X8092485D02*
D03*
X7192487D02*
D03*
X7252486D02*
D03*
X7312486D02*
D03*
X7492486D02*
D03*
X7432486D02*
D03*
X7372486D02*
D03*
X7672486D02*
D03*
X7612486D02*
D03*
X7552486D02*
D03*
X7852485D02*
D03*
X7792485D02*
D03*
X7732485D02*
D03*
X6472488D02*
D03*
X6532488D02*
D03*
X6592488D02*
D03*
X6772487D02*
D03*
X6712487D02*
D03*
X6652488D02*
D03*
X6952487D02*
D03*
X6892487D02*
D03*
X6832487D02*
D03*
X7132487D02*
D03*
X7072487D02*
D03*
X7012487D02*
D03*
X5752489D02*
D03*
X5812489D02*
D03*
X5872489D02*
D03*
X6052489D02*
D03*
X5992489D02*
D03*
X5932489D02*
D03*
X6232488D02*
D03*
X6172489D02*
D03*
X6112489D02*
D03*
X6412488D02*
D03*
X6352488D02*
D03*
X6292488D02*
D03*
X5032491D02*
D03*
X5092491D02*
D03*
X5152491D02*
D03*
X5332490D02*
D03*
X5272490D02*
D03*
X5212490D02*
D03*
X5512490D02*
D03*
X5452490D02*
D03*
X5392490D02*
D03*
X5692490D02*
D03*
X5632490D02*
D03*
X5572490D02*
D03*
X4312492D02*
D03*
X4372492D02*
D03*
X4432492D02*
D03*
X4612492D02*
D03*
X4552492D02*
D03*
X4492492D02*
D03*
X4792491D02*
D03*
X4732491D02*
D03*
X4672492D02*
D03*
X4972491D02*
D03*
X4912491D02*
D03*
X4852491D02*
D03*
X3592494D02*
D03*
X3652494D02*
D03*
X3712493D02*
D03*
X3892493D02*
D03*
X3832493D02*
D03*
X3772493D02*
D03*
X4072493D02*
D03*
X4012493D02*
D03*
X3952493D02*
D03*
X4252492D02*
D03*
X4192493D02*
D03*
X4132493D02*
D03*
X2872495D02*
D03*
X2932495D02*
D03*
X2992495D02*
D03*
X3172495D02*
D03*
X3112495D02*
D03*
X3052495D02*
D03*
X3352494D02*
D03*
X3292494D02*
D03*
X3232494D02*
D03*
X3532494D02*
D03*
X3472494D02*
D03*
X3412494D02*
D03*
X2152497D02*
D03*
X2212496D02*
D03*
X2272496D02*
D03*
X2452496D02*
D03*
X2392496D02*
D03*
X2332496D02*
D03*
X2632496D02*
D03*
X2572496D02*
D03*
X2512496D02*
D03*
X2812495D02*
D03*
X2752495D02*
D03*
X2692496D02*
D03*
X1972497D02*
D03*
X2032497D02*
D03*
X2092497D02*
D03*
X1792497D02*
D03*
X1852497D02*
D03*
X1912497D02*
D03*
X1612498D02*
D03*
X1672498D02*
D03*
X1732497D02*
D03*
X1552498D02*
D03*
X1492498D02*
D03*
X1432498D02*
D03*
X1372498D02*
D03*
X1312498Y6189999D02*
D03*
X1252497Y6232498D02*
D03*
X1192497D02*
D03*
X1132497D02*
D03*
X1072497D02*
D03*
X1012498D02*
D03*
X952498D02*
D03*
X892498D02*
D03*
X832498D02*
D03*
X772498D02*
D03*
X712500Y6287500D02*
D03*
Y6347500D02*
D03*
Y6407500D02*
D03*
Y6467500D02*
D03*
Y6527500D02*
D03*
Y6587499D02*
D03*
Y5592498D02*
D03*
X772500D02*
D03*
X832500D02*
D03*
X892500D02*
D03*
X952499D02*
D03*
X1012499D02*
D03*
X1072499D02*
D03*
X1192499D02*
D03*
X1252499D02*
D03*
X1312499D02*
D03*
X1372499D02*
D03*
X1432499D02*
D03*
X1492498Y5594998D02*
D03*
X1552498Y5609999D02*
D03*
X1602498Y5647499D02*
D03*
X1644998Y5689999D02*
D03*
X1687498Y5732499D02*
D03*
X1734998Y5772499D02*
D03*
X1792498Y5802499D02*
D03*
X1852498Y5819999D02*
D03*
X1914998Y5822499D02*
D03*
X1974998D02*
D03*
X2034998D02*
D03*
X2154998D02*
D03*
X2094998D02*
D03*
X2334997D02*
D03*
X2394997D02*
D03*
X2274997D02*
D03*
X2214998D02*
D03*
X2574997D02*
D03*
X2634997D02*
D03*
X2514997D02*
D03*
X2454997D02*
D03*
X3174996D02*
D03*
X3234996D02*
D03*
X3354995D02*
D03*
X3294995D02*
D03*
X2934996D02*
D03*
X2994996D02*
D03*
X3114996D02*
D03*
X3054996D02*
D03*
X2814996D02*
D03*
X2874996D02*
D03*
X2754997D02*
D03*
X2694997D02*
D03*
X3894994D02*
D03*
X3954994D02*
D03*
X4074994D02*
D03*
X4014994D02*
D03*
X3654995D02*
D03*
X3714995D02*
D03*
X3834994D02*
D03*
X3774994D02*
D03*
X3534995D02*
D03*
X3594995D02*
D03*
X3474995D02*
D03*
X3414995D02*
D03*
X4614993D02*
D03*
X4674993D02*
D03*
X4794992D02*
D03*
X4734993D02*
D03*
X4374993D02*
D03*
X4434993D02*
D03*
X4554993D02*
D03*
X4494993D02*
D03*
X4254994D02*
D03*
X4314993D02*
D03*
X4194994D02*
D03*
X4134994D02*
D03*
X5334991D02*
D03*
X5394991D02*
D03*
X5514991D02*
D03*
X5454991D02*
D03*
X5094992D02*
D03*
X5154992D02*
D03*
X5274991D02*
D03*
X5214992D02*
D03*
X4974992D02*
D03*
X5034992D02*
D03*
X4914992D02*
D03*
X4854992D02*
D03*
X6054990D02*
D03*
X6114990D02*
D03*
X6234990D02*
D03*
X6174990D02*
D03*
X5814990D02*
D03*
X5874990D02*
D03*
X5994990D02*
D03*
X5934990D02*
D03*
X5694991D02*
D03*
X5754991D02*
D03*
X5634991D02*
D03*
X5574991D02*
D03*
X6774988D02*
D03*
X6834988D02*
D03*
X6954988D02*
D03*
X6894988D02*
D03*
X6534989D02*
D03*
X6594989D02*
D03*
X6714989D02*
D03*
X6654989D02*
D03*
X6414989D02*
D03*
X6474989D02*
D03*
X6354989D02*
D03*
X6294989D02*
D03*
X7494987D02*
D03*
X7554987D02*
D03*
X7674987D02*
D03*
X7614987D02*
D03*
X7254988D02*
D03*
X7314987D02*
D03*
X7434987D02*
D03*
X7374987D02*
D03*
X7134988D02*
D03*
X7194988D02*
D03*
X7074988D02*
D03*
X7014988D02*
D03*
X7974986D02*
D03*
X8034986D02*
D03*
X8094986D02*
D03*
X7854986D02*
D03*
X7914986D02*
D03*
X7794986D02*
D03*
X7734987D02*
D03*
Y6417498D02*
D03*
X7794986D02*
D03*
X7914986D02*
D03*
X7854986D02*
D03*
X8094986D02*
D03*
X8034986D02*
D03*
X7974986D02*
D03*
X7014988D02*
D03*
X7074988D02*
D03*
X7194988D02*
D03*
X7134988D02*
D03*
X7374987D02*
D03*
X7434987D02*
D03*
X7314987D02*
D03*
X7254988D02*
D03*
X7614987D02*
D03*
X7674987D02*
D03*
X7554987D02*
D03*
X7494987D02*
D03*
X6294989D02*
D03*
X6354989D02*
D03*
X6474989D02*
D03*
X6414989D02*
D03*
X6654989D02*
D03*
X6714989D02*
D03*
X6594989D02*
D03*
X6534989D02*
D03*
X6894988D02*
D03*
X6954988D02*
D03*
X6834988D02*
D03*
X6774988D02*
D03*
X5574991D02*
D03*
X5634991D02*
D03*
X5754991D02*
D03*
X5694991D02*
D03*
X5934990D02*
D03*
X5994990D02*
D03*
X5874990D02*
D03*
X5814990D02*
D03*
X6174990D02*
D03*
X6234990D02*
D03*
X6114990D02*
D03*
X6054990D02*
D03*
X4854992D02*
D03*
X4914992D02*
D03*
X5034992D02*
D03*
X4974992D02*
D03*
X5214992D02*
D03*
X5274991D02*
D03*
X5154992D02*
D03*
X5094992D02*
D03*
X5454991D02*
D03*
X5514991D02*
D03*
X5394991D02*
D03*
X5334991D02*
D03*
X4134994D02*
D03*
X4194994D02*
D03*
X4314993D02*
D03*
X4254994D02*
D03*
X4494993D02*
D03*
X4554993D02*
D03*
X4434993D02*
D03*
X4374993D02*
D03*
X4734993D02*
D03*
X4794992D02*
D03*
X4674993D02*
D03*
X4614993D02*
D03*
X3414995D02*
D03*
X3474995D02*
D03*
X3594995D02*
D03*
X3534995D02*
D03*
X3774994D02*
D03*
X3834994D02*
D03*
X3714995D02*
D03*
X3654995D02*
D03*
X4014994D02*
D03*
X4074994D02*
D03*
X3954994D02*
D03*
X3894994D02*
D03*
X2694997D02*
D03*
X2754997D02*
D03*
X2874996D02*
D03*
X2814996D02*
D03*
X3054996D02*
D03*
X3114996D02*
D03*
X2994996D02*
D03*
X2934996D02*
D03*
X3294995D02*
D03*
X3354995D02*
D03*
X3234996D02*
D03*
X3174996D02*
D03*
X2454997D02*
D03*
X2514997D02*
D03*
X2634997D02*
D03*
X2574997D02*
D03*
X2214998D02*
D03*
X2274997D02*
D03*
X2394997D02*
D03*
X2334997D02*
D03*
X2094998D02*
D03*
X2154998D02*
D03*
X2034998D02*
D03*
X1974998D02*
D03*
X1914998D02*
D03*
X1852498Y6419998D02*
D03*
X1792498Y6437498D02*
D03*
X1734998Y6467498D02*
D03*
X1687498Y6507499D02*
D03*
X1644998Y6549998D02*
D03*
X1602498Y6592498D02*
D03*
X1552498Y6629998D02*
D03*
X1492498Y6644998D02*
D03*
X1432499Y6647499D02*
D03*
X1372499D02*
D03*
X1312499D02*
D03*
X1252499D02*
D03*
X1192499D02*
D03*
X1132499D02*
D03*
X1072499D02*
D03*
X1012499D02*
D03*
X952499D02*
D03*
X892500D02*
D03*
X832500D02*
D03*
X772500D02*
D03*
X712500D02*
D03*
X8335000Y7155000D02*
D03*
X8525000Y7325000D02*
D03*
X8477500Y7280000D02*
D03*
X8430000Y7232500D02*
D03*
X8387500Y7190000D02*
D03*
Y7690000D02*
D03*
X8430000Y7647500D02*
D03*
X8477500Y7600000D02*
D03*
X8525000Y7555000D02*
D03*
X8452485Y7489999D02*
D03*
X8512485D02*
D03*
X8572485D02*
D03*
X8392485D02*
D03*
Y7390000D02*
D03*
X8572485D02*
D03*
X8512485D02*
D03*
X8452485D02*
D03*
X8335000Y7725000D02*
D03*
X712501Y7967500D02*
D03*
X772501D02*
D03*
X832500D02*
D03*
X892500D02*
D03*
X952500D02*
D03*
X1012500D02*
D03*
X1072500D02*
D03*
X1132500D02*
D03*
X1192500D02*
D03*
X1252500D02*
D03*
X1312500D02*
D03*
X1372499D02*
D03*
X1432499D02*
D03*
X1492499Y7965000D02*
D03*
X1552499Y7950000D02*
D03*
X1602499Y7912500D02*
D03*
X1644999Y7870000D02*
D03*
X1687499Y7827500D02*
D03*
X1734999Y7787500D02*
D03*
X1792499Y7757500D02*
D03*
X1852499Y7740000D02*
D03*
X1914999Y7737500D02*
D03*
X1974999D02*
D03*
X2034999D02*
D03*
X2154998D02*
D03*
X2094999D02*
D03*
X2334998D02*
D03*
X2394998D02*
D03*
X2274998D02*
D03*
X2214998D02*
D03*
X2574998D02*
D03*
X2634998D02*
D03*
X2514998D02*
D03*
X2454998D02*
D03*
X3174996D02*
D03*
X3234996D02*
D03*
X3354996D02*
D03*
X3294996D02*
D03*
X2934997D02*
D03*
X2994997D02*
D03*
X3114997D02*
D03*
X3054997D02*
D03*
X2814997D02*
D03*
X2874997D02*
D03*
X2754997D02*
D03*
X2694997D02*
D03*
X3894995D02*
D03*
X3954995D02*
D03*
X4074995D02*
D03*
X4014995D02*
D03*
X3654995D02*
D03*
X3714995D02*
D03*
X3834995D02*
D03*
X3774995D02*
D03*
X3534996D02*
D03*
X3594996D02*
D03*
X3474996D02*
D03*
X3414996D02*
D03*
X4614994D02*
D03*
X4674993D02*
D03*
X4794993D02*
D03*
X4734993D02*
D03*
X4374994D02*
D03*
X4434994D02*
D03*
X4554994D02*
D03*
X4494994D02*
D03*
X4254994D02*
D03*
X4314994D02*
D03*
X4194994D02*
D03*
X4134995D02*
D03*
X5334992D02*
D03*
X5394992D02*
D03*
X5514992D02*
D03*
X5454992D02*
D03*
X5094993D02*
D03*
X5154992D02*
D03*
X5274992D02*
D03*
X5214992D02*
D03*
X4974993D02*
D03*
X5034993D02*
D03*
X4914993D02*
D03*
X4854993D02*
D03*
X6054991D02*
D03*
X6114991D02*
D03*
X6234990D02*
D03*
X6174990D02*
D03*
X5814991D02*
D03*
X5874991D02*
D03*
X5994991D02*
D03*
X5934991D02*
D03*
X5694991D02*
D03*
X5754991D02*
D03*
X5634992D02*
D03*
X5574992D02*
D03*
X6774989D02*
D03*
X6834989D02*
D03*
X6954989D02*
D03*
X6894989D02*
D03*
X6534990D02*
D03*
X6594990D02*
D03*
X6714989D02*
D03*
X6654989D02*
D03*
X6414990D02*
D03*
X6474990D02*
D03*
X6354990D02*
D03*
X6294990D02*
D03*
X7494988D02*
D03*
X7554988D02*
D03*
X7674987D02*
D03*
X7614988D02*
D03*
X7254988D02*
D03*
X7314988D02*
D03*
X7434988D02*
D03*
X7374988D02*
D03*
X7134989D02*
D03*
X7194988D02*
D03*
X7074989D02*
D03*
X7014989D02*
D03*
X8214986D02*
D03*
X8274986D02*
D03*
X7974987D02*
D03*
X8034987D02*
D03*
X8154986D02*
D03*
X8094987D02*
D03*
X7854987D02*
D03*
X7914987D02*
D03*
X7794987D02*
D03*
X7734987D02*
D03*
Y7142500D02*
D03*
X7794987D02*
D03*
X7914987D02*
D03*
X7854987D02*
D03*
X8094987D02*
D03*
X8154986D02*
D03*
X8034987D02*
D03*
X7974987D02*
D03*
X8274986D02*
D03*
X8214986D02*
D03*
X7014989D02*
D03*
X7074989D02*
D03*
X7194988D02*
D03*
X7134989D02*
D03*
X7374988D02*
D03*
X7434988D02*
D03*
X7314988D02*
D03*
X7254988D02*
D03*
X7614988D02*
D03*
X7674987D02*
D03*
X7554988D02*
D03*
X7494988D02*
D03*
X6294990D02*
D03*
X6354990D02*
D03*
X6474990D02*
D03*
X6414990D02*
D03*
X6654989D02*
D03*
X6714989D02*
D03*
X6594990D02*
D03*
X6534990D02*
D03*
X6894989D02*
D03*
X6954989D02*
D03*
X6834989D02*
D03*
X6774989D02*
D03*
X5574992D02*
D03*
X5634992D02*
D03*
X5754991D02*
D03*
X5694991D02*
D03*
X5934991D02*
D03*
X5994991D02*
D03*
X5874991D02*
D03*
X5814991D02*
D03*
X6174990D02*
D03*
X6234990D02*
D03*
X6114991D02*
D03*
X6054991D02*
D03*
X4854993D02*
D03*
X4914993D02*
D03*
X5034993D02*
D03*
X4974993D02*
D03*
X5214992D02*
D03*
X5274992D02*
D03*
X5154992D02*
D03*
X5094993D02*
D03*
X5454992D02*
D03*
X5514992D02*
D03*
X5394992D02*
D03*
X5334992D02*
D03*
X4134995D02*
D03*
X4194994D02*
D03*
X4314994D02*
D03*
X4254994D02*
D03*
X4494994D02*
D03*
X4554994D02*
D03*
X4434994D02*
D03*
X4374994D02*
D03*
X4734993D02*
D03*
X4794993D02*
D03*
X4674993D02*
D03*
X4614994D02*
D03*
X3414996D02*
D03*
X3474996D02*
D03*
X3594996D02*
D03*
X3534996D02*
D03*
X3774995D02*
D03*
X3834995D02*
D03*
X3714995D02*
D03*
X3654995D02*
D03*
X4014995D02*
D03*
X4074995D02*
D03*
X3954995D02*
D03*
X3894995D02*
D03*
X2694997D02*
D03*
X2754997D02*
D03*
X2874997D02*
D03*
X2814997D02*
D03*
X3054997D02*
D03*
X3114997D02*
D03*
X2994997D02*
D03*
X2934997D02*
D03*
X3294996D02*
D03*
X3354996D02*
D03*
X3234996D02*
D03*
X3174996D02*
D03*
X2454998D02*
D03*
X2514998D02*
D03*
X2634998D02*
D03*
X2574998D02*
D03*
X2214998D02*
D03*
X2274998D02*
D03*
X2394998D02*
D03*
X2334998D02*
D03*
X2094999D02*
D03*
X2154998D02*
D03*
X2034999D02*
D03*
X1974999D02*
D03*
X1914999D02*
D03*
X1852499Y7140000D02*
D03*
X1792499Y7122500D02*
D03*
X1734999Y7092500D02*
D03*
X1687499Y7052500D02*
D03*
X1644999Y7010000D02*
D03*
X1602499Y6967500D02*
D03*
X1552499Y6930000D02*
D03*
X1492499Y6915000D02*
D03*
X1432499Y6912499D02*
D03*
X1372499D02*
D03*
X1312500D02*
D03*
X1252500D02*
D03*
X1192500D02*
D03*
X1132500D02*
D03*
X1072500D02*
D03*
X1012500D02*
D03*
X952500D02*
D03*
X892500D02*
D03*
X832500D02*
D03*
X772501D02*
D03*
X712501D02*
D03*
Y7907501D02*
D03*
Y7847501D02*
D03*
Y7787501D02*
D03*
Y7727501D02*
D03*
Y7667501D02*
D03*
Y7607501D02*
D03*
X772499Y7552499D02*
D03*
X832499D02*
D03*
X892499D02*
D03*
X952498D02*
D03*
X1012498D02*
D03*
X1072498D02*
D03*
X1132498D02*
D03*
X1192498D02*
D03*
X1252498D02*
D03*
X1312499Y7510000D02*
D03*
X1372499Y7489999D02*
D03*
X1432499D02*
D03*
X1492499D02*
D03*
X1552499D02*
D03*
X1732498D02*
D03*
X1672498D02*
D03*
X1612498D02*
D03*
X1912498D02*
D03*
X1852498D02*
D03*
X1792498D02*
D03*
X2092497D02*
D03*
X2032498D02*
D03*
X1972498D02*
D03*
X2692496D02*
D03*
X2752496D02*
D03*
X2812496D02*
D03*
X2512497D02*
D03*
X2572497D02*
D03*
X2632496D02*
D03*
X2332497D02*
D03*
X2392497D02*
D03*
X2452497D02*
D03*
X2272497D02*
D03*
X2212497D02*
D03*
X2152497D02*
D03*
X3412495D02*
D03*
X3472495D02*
D03*
X3532495D02*
D03*
X3232495D02*
D03*
X3292495D02*
D03*
X3352495D02*
D03*
X3052496D02*
D03*
X3112495D02*
D03*
X3172495D02*
D03*
X2992496D02*
D03*
X2932496D02*
D03*
X2872496D02*
D03*
X4132493D02*
D03*
X4192493D02*
D03*
X4252493D02*
D03*
X3952494D02*
D03*
X4012494D02*
D03*
X4072494D02*
D03*
X3772494D02*
D03*
X3832494D02*
D03*
X3892494D02*
D03*
X3712494D02*
D03*
X3652494D02*
D03*
X3592494D02*
D03*
X4852492D02*
D03*
X4912492D02*
D03*
X4972492D02*
D03*
X4672492D02*
D03*
X4732492D02*
D03*
X4792492D02*
D03*
X4492493D02*
D03*
X4552493D02*
D03*
X4612492D02*
D03*
X4432493D02*
D03*
X4372493D02*
D03*
X4312493D02*
D03*
X5572491D02*
D03*
X5632490D02*
D03*
X5692490D02*
D03*
X5392491D02*
D03*
X5452491D02*
D03*
X5512491D02*
D03*
X5212491D02*
D03*
X5272491D02*
D03*
X5332491D02*
D03*
X5152491D02*
D03*
X5092491D02*
D03*
X5032492D02*
D03*
X6292489D02*
D03*
X6352489D02*
D03*
X6412489D02*
D03*
X6112489D02*
D03*
X6172489D02*
D03*
X6232489D02*
D03*
X5932490D02*
D03*
X5992490D02*
D03*
X6052490D02*
D03*
X5872490D02*
D03*
X5812490D02*
D03*
X5752490D02*
D03*
X7012488D02*
D03*
X7072488D02*
D03*
X7132487D02*
D03*
X6832488D02*
D03*
X6892488D02*
D03*
X6952488D02*
D03*
X6652488D02*
D03*
X6712488D02*
D03*
X6772488D02*
D03*
X6592488D02*
D03*
X6532489D02*
D03*
X6472489D02*
D03*
X7732486D02*
D03*
X7792486D02*
D03*
X7852486D02*
D03*
X7552487D02*
D03*
X7612486D02*
D03*
X7672486D02*
D03*
X7372487D02*
D03*
X7432487D02*
D03*
X7492487D02*
D03*
X7312487D02*
D03*
X7252487D02*
D03*
X7192487D02*
D03*
X8272485D02*
D03*
X8332485D02*
D03*
X8092485D02*
D03*
X8152485D02*
D03*
X8212485D02*
D03*
X8032486D02*
D03*
X7972486D02*
D03*
X7912486D02*
D03*
Y7390000D02*
D03*
X7972486D02*
D03*
X8032486D02*
D03*
X8212485D02*
D03*
X8152485D02*
D03*
X8092485D02*
D03*
X8332485D02*
D03*
X8272485D02*
D03*
X7192487D02*
D03*
X7252487D02*
D03*
X7312487D02*
D03*
X7492487D02*
D03*
X7432487D02*
D03*
X7372487D02*
D03*
X7672486D02*
D03*
X7612486D02*
D03*
X7552487D02*
D03*
X7852486D02*
D03*
X7792486D02*
D03*
X7732486D02*
D03*
X6472489D02*
D03*
X6532489D02*
D03*
X6592488D02*
D03*
X6772488D02*
D03*
X6712488D02*
D03*
X6652488D02*
D03*
X6952488D02*
D03*
X6892488D02*
D03*
X6832488D02*
D03*
X7132487D02*
D03*
X7072488D02*
D03*
X7012488D02*
D03*
X5752490D02*
D03*
X5812490D02*
D03*
X5872490D02*
D03*
X6052490D02*
D03*
X5992490D02*
D03*
X5932490D02*
D03*
X6232489D02*
D03*
X6172489D02*
D03*
X6112489D02*
D03*
X6412489D02*
D03*
X6352489D02*
D03*
X6292489D02*
D03*
X5032492D02*
D03*
X5092491D02*
D03*
X5152491D02*
D03*
X5332491D02*
D03*
X5272491D02*
D03*
X5212491D02*
D03*
X5512491D02*
D03*
X5452491D02*
D03*
X5392491D02*
D03*
X5692490D02*
D03*
X5632490D02*
D03*
X5572491D02*
D03*
X4312493D02*
D03*
X4372493D02*
D03*
X4432493D02*
D03*
X4612492D02*
D03*
X4552493D02*
D03*
X4492493D02*
D03*
X4792492D02*
D03*
X4732492D02*
D03*
X4672492D02*
D03*
X4972492D02*
D03*
X4912492D02*
D03*
X4852492D02*
D03*
X3592494D02*
D03*
X3652494D02*
D03*
X3712494D02*
D03*
X3892494D02*
D03*
X3832494D02*
D03*
X3772494D02*
D03*
X4072494D02*
D03*
X4012494D02*
D03*
X3952494D02*
D03*
X4252493D02*
D03*
X4192493D02*
D03*
X4132493D02*
D03*
X2872496D02*
D03*
X2932496D02*
D03*
X2992496D02*
D03*
X3172495D02*
D03*
X3112495D02*
D03*
X3052496D02*
D03*
X3352495D02*
D03*
X3292495D02*
D03*
X3232495D02*
D03*
X3532495D02*
D03*
X3472495D02*
D03*
X3412495D02*
D03*
X2152497D02*
D03*
X2212497D02*
D03*
X2272497D02*
D03*
X2452497D02*
D03*
X2392497D02*
D03*
X2332497D02*
D03*
X2632496D02*
D03*
X2572497D02*
D03*
X2512497D02*
D03*
X2812496D02*
D03*
X2752496D02*
D03*
X2692496D02*
D03*
X1972498D02*
D03*
X2032498D02*
D03*
X2092497D02*
D03*
X1792498D02*
D03*
X1852498D02*
D03*
X1912498D02*
D03*
X1612498D02*
D03*
X1672498D02*
D03*
X1732498D02*
D03*
X1552499D02*
D03*
X1492499D02*
D03*
X1432499D02*
D03*
X1372499D02*
D03*
X1312499Y7369999D02*
D03*
X1252498Y7327500D02*
D03*
X1192498D02*
D03*
X1132498D02*
D03*
X1072498D02*
D03*
X1012498D02*
D03*
X952498D02*
D03*
X892499D02*
D03*
X832499D02*
D03*
X772499D02*
D03*
X832500Y7847501D02*
D03*
Y7727501D02*
D03*
X952500Y7847501D02*
D03*
Y7727501D02*
D03*
X1072500Y7847501D02*
D03*
Y7727501D02*
D03*
X1192500Y7847501D02*
D03*
Y7727501D02*
D03*
X1312500Y7847501D02*
D03*
Y7727501D02*
D03*
X1432499D02*
D03*
Y7847501D02*
D03*
X1552499Y7727501D02*
D03*
Y7607501D02*
D03*
X1432499D02*
D03*
X1672499D02*
D03*
X1792499D02*
D03*
X1912498D02*
D03*
X1672499Y7727501D02*
D03*
X1552499Y7847501D02*
D03*
X1312500Y7607501D02*
D03*
X2032498D02*
D03*
X2152498D02*
D03*
X2992496D02*
D03*
X2872496D02*
D03*
X2752497D02*
D03*
X2632497D02*
D03*
X2512497D02*
D03*
X2272498D02*
D03*
X2392497D02*
D03*
X3832494D02*
D03*
X3712495D02*
D03*
X3592495D02*
D03*
X3472495D02*
D03*
X3352495D02*
D03*
X3112496D02*
D03*
X3232496D02*
D03*
X4672493D02*
D03*
X4552493D02*
D03*
X4432493D02*
D03*
X4312494D02*
D03*
X4192494D02*
D03*
X3952494D02*
D03*
X4072494D02*
D03*
X5512491D02*
D03*
X5392491D02*
D03*
X5272492D02*
D03*
X5152492D02*
D03*
X5032492D02*
D03*
X4792493D02*
D03*
X4912492D02*
D03*
X6352489D02*
D03*
X6232490D02*
D03*
X6112490D02*
D03*
X5992490D02*
D03*
X5872490D02*
D03*
X5632491D02*
D03*
X5752491D02*
D03*
X7192488D02*
D03*
X7072488D02*
D03*
X6952488D02*
D03*
X6832488D02*
D03*
X6712489D02*
D03*
X6472489D02*
D03*
X6592489D02*
D03*
X8032486D02*
D03*
X7912486D02*
D03*
X7792487D02*
D03*
X7672487D02*
D03*
X7552487D02*
D03*
X7312488D02*
D03*
X7432487D02*
D03*
X8152486D02*
D03*
X8272486D02*
D03*
X8272486Y7272499D02*
D03*
X8152486D02*
D03*
X7432488D02*
D03*
X7312488D02*
D03*
X7552487D02*
D03*
X7672487D02*
D03*
X7792487D02*
D03*
X7912487D02*
D03*
X8032486D02*
D03*
X6592489D02*
D03*
X6472489D02*
D03*
X6712489D02*
D03*
X6832489D02*
D03*
X6952489D02*
D03*
X7072488D02*
D03*
X7192488D02*
D03*
X5752491D02*
D03*
X5632491D02*
D03*
X5872491D02*
D03*
X5992490D02*
D03*
X6112490D02*
D03*
X6232490D02*
D03*
X6352490D02*
D03*
X4912493D02*
D03*
X4792493D02*
D03*
X5032492D02*
D03*
X5152492D02*
D03*
X5272492D02*
D03*
X5392492D02*
D03*
X5512491D02*
D03*
X4072494D02*
D03*
X3952495D02*
D03*
X4192494D02*
D03*
X4312494D02*
D03*
X4432494D02*
D03*
X4552493D02*
D03*
X4672493D02*
D03*
X3232496D02*
D03*
X3112496D02*
D03*
X3352496D02*
D03*
X3472495D02*
D03*
X3592495D02*
D03*
X3712495D02*
D03*
X3832495D02*
D03*
X2392498D02*
D03*
X2272498D02*
D03*
X2512497D02*
D03*
X2632497D02*
D03*
X2752497D02*
D03*
X2872497D02*
D03*
X2992496D02*
D03*
X2152498D02*
D03*
X2032498D02*
D03*
X1312500D02*
D03*
X1552499Y7032499D02*
D03*
X1672499Y7152499D02*
D03*
X1912499Y7272499D02*
D03*
X1792499D02*
D03*
X1672499D02*
D03*
X1432500D02*
D03*
X1552499D02*
D03*
Y7152499D02*
D03*
X1432500Y7032499D02*
D03*
Y7152499D02*
D03*
X1312500D02*
D03*
Y7032499D02*
D03*
X1192500Y7152499D02*
D03*
Y7032499D02*
D03*
X1072500Y7152499D02*
D03*
Y7032499D02*
D03*
X952501Y7152499D02*
D03*
Y7032499D02*
D03*
X832501Y7152499D02*
D03*
Y7032499D02*
D03*
X712501Y6972499D02*
D03*
Y7032499D02*
D03*
Y7092499D02*
D03*
Y7152499D02*
D03*
Y7212499D02*
D03*
Y7272499D02*
D03*
X8510524Y8497957D02*
D03*
X712502Y8592499D02*
D03*
Y8532499D02*
D03*
Y8472499D02*
D03*
Y8412499D02*
D03*
Y8352499D02*
D03*
Y8292500D02*
D03*
X832502Y8352500D02*
D03*
Y8472499D02*
D03*
X952502Y8352500D02*
D03*
Y8472499D02*
D03*
X1072501Y8352500D02*
D03*
Y8472499D02*
D03*
X1192501Y8352500D02*
D03*
Y8472499D02*
D03*
X1312501Y8352500D02*
D03*
Y8472499D02*
D03*
X1432501D02*
D03*
Y8352500D02*
D03*
X1552500Y8472499D02*
D03*
Y8592499D02*
D03*
X1432501D02*
D03*
X1672500D02*
D03*
X1792500D02*
D03*
X1912500D02*
D03*
X1672500Y8472499D02*
D03*
X1552500Y8352500D02*
D03*
X1312501Y8592499D02*
D03*
X2032499D02*
D03*
X2152499D02*
D03*
X2992497D02*
D03*
X2872498D02*
D03*
X2752498D02*
D03*
X2632498D02*
D03*
X2512498D02*
D03*
X2272499D02*
D03*
X2392499D02*
D03*
X3832496D02*
D03*
X3712496D02*
D03*
X3592496D02*
D03*
X3472496D02*
D03*
X3352497D02*
D03*
X3112497D02*
D03*
X3232497D02*
D03*
X4672494D02*
D03*
X4552494D02*
D03*
X4432495D02*
D03*
X4312495D02*
D03*
X4192495D02*
D03*
X3952496D02*
D03*
X4072495D02*
D03*
X5512492D02*
D03*
X5392493D02*
D03*
X5272493D02*
D03*
X5152493D02*
D03*
X5032493D02*
D03*
X4792494D02*
D03*
X4912494D02*
D03*
X6352491D02*
D03*
X6232491D02*
D03*
X6112491D02*
D03*
X5992491D02*
D03*
X5872492D02*
D03*
X5632492D02*
D03*
X5752492D02*
D03*
X7192489D02*
D03*
X7072489D02*
D03*
X6952490D02*
D03*
X6832490D02*
D03*
X6712490D02*
D03*
X6472490D02*
D03*
X6592490D02*
D03*
X8032487D02*
D03*
X7912488D02*
D03*
X7792488D02*
D03*
X7672488D02*
D03*
X7552488D02*
D03*
X7312489D02*
D03*
X7432489D02*
D03*
X8152487D02*
D03*
X8272487D02*
D03*
X8392487D02*
D03*
X8392486Y8927502D02*
D03*
X8272487D02*
D03*
X8152487D02*
D03*
X7432488D02*
D03*
X7312489D02*
D03*
X7552488D02*
D03*
X7672488D02*
D03*
X7792488D02*
D03*
X7912487D02*
D03*
X8032487D02*
D03*
X6592490D02*
D03*
X6472490D02*
D03*
X6712490D02*
D03*
X6832490D02*
D03*
X6952489D02*
D03*
X7072489D02*
D03*
X7192489D02*
D03*
X5752492D02*
D03*
X5632492D02*
D03*
X5872491D02*
D03*
X5992491D02*
D03*
X6112491D02*
D03*
X6232491D02*
D03*
X6352490D02*
D03*
X4912493D02*
D03*
X4792494D02*
D03*
X5032493D02*
D03*
X5152493D02*
D03*
X5272493D02*
D03*
X5392492D02*
D03*
X5512492D02*
D03*
X4072495D02*
D03*
X3952495D02*
D03*
X4192495D02*
D03*
X4312495D02*
D03*
X4432494D02*
D03*
X4552494D02*
D03*
X4672494D02*
D03*
X3232497D02*
D03*
X3112497D02*
D03*
X3352496D02*
D03*
X3472496D02*
D03*
X3592496D02*
D03*
X3712496D02*
D03*
X3832496D02*
D03*
X2392498D02*
D03*
X2272499D02*
D03*
X2512498D02*
D03*
X2632498D02*
D03*
X2752498D02*
D03*
X2872497D02*
D03*
X2992497D02*
D03*
X2152499D02*
D03*
X2032499D02*
D03*
X1312501D02*
D03*
X1552500Y9167501D02*
D03*
X1672500Y9047501D02*
D03*
X1912499Y8927502D02*
D03*
X1792500D02*
D03*
X1672500D02*
D03*
X1432500D02*
D03*
X1552500D02*
D03*
Y9047501D02*
D03*
X1432500Y9167501D02*
D03*
Y9047501D02*
D03*
X1312501D02*
D03*
Y9167501D02*
D03*
X1192501Y9047501D02*
D03*
Y9167501D02*
D03*
X1072501Y9047501D02*
D03*
Y9167501D02*
D03*
X952501Y9047501D02*
D03*
Y9167501D02*
D03*
X832502Y9047501D02*
D03*
Y9167501D02*
D03*
X772500Y8647500D02*
D03*
X832500D02*
D03*
X892500D02*
D03*
X952499D02*
D03*
X1012499D02*
D03*
X1072499D02*
D03*
X1132499D02*
D03*
X1192499D02*
D03*
X1252499D02*
D03*
X1312500Y8690000D02*
D03*
X1372500Y8710000D02*
D03*
X1432500D02*
D03*
X1492500D02*
D03*
X1552500D02*
D03*
X1732499D02*
D03*
X1672499D02*
D03*
X1612499D02*
D03*
X1912499D02*
D03*
X1852499D02*
D03*
X1792499D02*
D03*
X2092498D02*
D03*
X2032499D02*
D03*
X1972499D02*
D03*
X2692497D02*
D03*
X2752497D02*
D03*
X2812497D02*
D03*
X2512498D02*
D03*
X2572498D02*
D03*
X2632497D02*
D03*
X2332498D02*
D03*
X2392498D02*
D03*
X2452498D02*
D03*
X2272498D02*
D03*
X2212498D02*
D03*
X2152498D02*
D03*
X3412496D02*
D03*
X3472496D02*
D03*
X3532496D02*
D03*
X3232496D02*
D03*
X3292496D02*
D03*
X3352496D02*
D03*
X3052497D02*
D03*
X3112496D02*
D03*
X3172496D02*
D03*
X2992497D02*
D03*
X2932497D02*
D03*
X2872497D02*
D03*
X4132494D02*
D03*
X4192494D02*
D03*
X4252494D02*
D03*
X3952495D02*
D03*
X4012495D02*
D03*
X4072495D02*
D03*
X3772495D02*
D03*
X3832495D02*
D03*
X3892495D02*
D03*
X3712495D02*
D03*
X3652495D02*
D03*
X3592495D02*
D03*
X4852493D02*
D03*
X4912493D02*
D03*
X4972493D02*
D03*
X4672493D02*
D03*
X4732493D02*
D03*
X4792493D02*
D03*
X4492494D02*
D03*
X4552494D02*
D03*
X4612493D02*
D03*
X4432494D02*
D03*
X4372494D02*
D03*
X4312494D02*
D03*
X5572492D02*
D03*
X5632491D02*
D03*
X5692491D02*
D03*
X5392492D02*
D03*
X5452492D02*
D03*
X5512492D02*
D03*
X5212492D02*
D03*
X5272492D02*
D03*
X5332492D02*
D03*
X5152492D02*
D03*
X5092492D02*
D03*
X5032493D02*
D03*
X6292490D02*
D03*
X6352490D02*
D03*
X6412490D02*
D03*
X6112490D02*
D03*
X6172490D02*
D03*
X6232490D02*
D03*
X5932491D02*
D03*
X5992491D02*
D03*
X6052491D02*
D03*
X5872491D02*
D03*
X5812491D02*
D03*
X5752491D02*
D03*
X7012489D02*
D03*
X7072489D02*
D03*
X7132488D02*
D03*
X6832489D02*
D03*
X6892489D02*
D03*
X6952489D02*
D03*
X6652489D02*
D03*
X6712489D02*
D03*
X6772489D02*
D03*
X6592489D02*
D03*
X6532490D02*
D03*
X6472490D02*
D03*
X7732487D02*
D03*
X7792487D02*
D03*
X7852487D02*
D03*
X7552488D02*
D03*
X7612487D02*
D03*
X7672487D02*
D03*
X7372488D02*
D03*
X7432488D02*
D03*
X7492488D02*
D03*
X7312488D02*
D03*
X7252488D02*
D03*
X7192488D02*
D03*
X8452486D02*
D03*
X8512486D02*
D03*
X8572486D02*
D03*
X8272486D02*
D03*
X8332486D02*
D03*
X8392486D02*
D03*
X8092486D02*
D03*
X8152486D02*
D03*
X8212486D02*
D03*
X8032487D02*
D03*
X7972487D02*
D03*
X7912487D02*
D03*
X8632485D02*
D03*
Y8810000D02*
D03*
X7912487D02*
D03*
X7972487D02*
D03*
X8032487D02*
D03*
X8212486D02*
D03*
X8152486D02*
D03*
X8092486D02*
D03*
X8392486D02*
D03*
X8332486D02*
D03*
X8272486D02*
D03*
X8572486D02*
D03*
X8512486D02*
D03*
X8452486D02*
D03*
X7192488D02*
D03*
X7252488D02*
D03*
X7312488D02*
D03*
X7492488D02*
D03*
X7432488D02*
D03*
X7372488D02*
D03*
X7672487D02*
D03*
X7612487D02*
D03*
X7552488D02*
D03*
X7852487D02*
D03*
X7792487D02*
D03*
X7732487D02*
D03*
X6472490D02*
D03*
X6532490D02*
D03*
X6592489D02*
D03*
X6772489D02*
D03*
X6712489D02*
D03*
X6652489D02*
D03*
X6952489D02*
D03*
X6892489D02*
D03*
X6832489D02*
D03*
X7132488D02*
D03*
X7072489D02*
D03*
X7012489D02*
D03*
X5752491D02*
D03*
X5812491D02*
D03*
X5872491D02*
D03*
X6052491D02*
D03*
X5992491D02*
D03*
X5932491D02*
D03*
X6232490D02*
D03*
X6172490D02*
D03*
X6112490D02*
D03*
X6412490D02*
D03*
X6352490D02*
D03*
X6292490D02*
D03*
X5032493D02*
D03*
X5092492D02*
D03*
X5152492D02*
D03*
X5332492D02*
D03*
X5272492D02*
D03*
X5212492D02*
D03*
X5512492D02*
D03*
X5452492D02*
D03*
X5392492D02*
D03*
X5692491D02*
D03*
X5632491D02*
D03*
X5572492D02*
D03*
X4312494D02*
D03*
X4372494D02*
D03*
X4432494D02*
D03*
X4612493D02*
D03*
X4552494D02*
D03*
X4492494D02*
D03*
X4792493D02*
D03*
X4732493D02*
D03*
X4672493D02*
D03*
X4972493D02*
D03*
X4912493D02*
D03*
X4852493D02*
D03*
X3592495D02*
D03*
X3652495D02*
D03*
X3712495D02*
D03*
X3892495D02*
D03*
X3832495D02*
D03*
X3772495D02*
D03*
X4072495D02*
D03*
X4012495D02*
D03*
X3952495D02*
D03*
X4252494D02*
D03*
X4192494D02*
D03*
X4132494D02*
D03*
X2872497D02*
D03*
X2932497D02*
D03*
X2992497D02*
D03*
X3172496D02*
D03*
X3112496D02*
D03*
X3052497D02*
D03*
X3352496D02*
D03*
X3292496D02*
D03*
X3232496D02*
D03*
X3532496D02*
D03*
X3472496D02*
D03*
X3412496D02*
D03*
X2152498D02*
D03*
X2212498D02*
D03*
X2272498D02*
D03*
X2452498D02*
D03*
X2392498D02*
D03*
X2332498D02*
D03*
X2632497D02*
D03*
X2572498D02*
D03*
X2512498D02*
D03*
X2812497D02*
D03*
X2752497D02*
D03*
X2692497D02*
D03*
X1972499D02*
D03*
X2032499D02*
D03*
X2092498D02*
D03*
X1792499D02*
D03*
X1852499D02*
D03*
X1912499D02*
D03*
X1612499D02*
D03*
X1672499D02*
D03*
X1732499D02*
D03*
X1552500D02*
D03*
X1492500D02*
D03*
X1432500D02*
D03*
X1372500D02*
D03*
X1312500Y8830000D02*
D03*
X1252499Y8872500D02*
D03*
X1192499D02*
D03*
X1132499D02*
D03*
X1072499D02*
D03*
X1012499D02*
D03*
X952499D02*
D03*
X892500D02*
D03*
X832500D02*
D03*
X772500D02*
D03*
X712502Y8927502D02*
D03*
Y8987501D02*
D03*
Y9047501D02*
D03*
Y9107501D02*
D03*
Y9167501D02*
D03*
Y9227501D02*
D03*
X1210000Y8760001D02*
D03*
X712502Y8232500D02*
D03*
X772502D02*
D03*
X832502D02*
D03*
X892501D02*
D03*
X952501D02*
D03*
X1012501D02*
D03*
X1072501D02*
D03*
X1132501D02*
D03*
X1192501D02*
D03*
X1252501D02*
D03*
X1312501D02*
D03*
X1372500D02*
D03*
X1432500D02*
D03*
X1492500Y8235000D02*
D03*
X1552500Y8250001D02*
D03*
X1602500Y8287501D02*
D03*
X1645000Y8330001D02*
D03*
X1687500Y8372500D02*
D03*
X1735000Y8412501D02*
D03*
X1792500Y8442501D02*
D03*
X1852500Y8460001D02*
D03*
X1915000Y8462500D02*
D03*
X1975000D02*
D03*
X2035000D02*
D03*
X2154999D02*
D03*
X2095000D02*
D03*
X2334999D02*
D03*
X2394999D02*
D03*
X2274999D02*
D03*
X2214999D02*
D03*
X2574999D02*
D03*
X2634999D02*
D03*
X2514999D02*
D03*
X2454999D02*
D03*
X3174997D02*
D03*
X3234997D02*
D03*
X3354997D02*
D03*
X3294997D02*
D03*
X2934998D02*
D03*
X2994998D02*
D03*
X3114998D02*
D03*
X3054998D02*
D03*
X2814998D02*
D03*
X2874998D02*
D03*
X2754998D02*
D03*
X2694998D02*
D03*
X3894996D02*
D03*
X3954996D02*
D03*
X4074996D02*
D03*
X4014996D02*
D03*
X3654996D02*
D03*
X3714996D02*
D03*
X3834996D02*
D03*
X3774996D02*
D03*
X3534997D02*
D03*
X3594997D02*
D03*
X3474997D02*
D03*
X3414997D02*
D03*
X4614995D02*
D03*
X4674994D02*
D03*
X4794994D02*
D03*
X4734994D02*
D03*
X4374995D02*
D03*
X4434995D02*
D03*
X4554995D02*
D03*
X4494995D02*
D03*
X4254995D02*
D03*
X4314995D02*
D03*
X4194995D02*
D03*
X4134996D02*
D03*
X5334993D02*
D03*
X5394993D02*
D03*
X5514993D02*
D03*
X5454993D02*
D03*
X5094994D02*
D03*
X5154993D02*
D03*
X5274993D02*
D03*
X5214993D02*
D03*
X4974994D02*
D03*
X5034994D02*
D03*
X4914994D02*
D03*
X4854994D02*
D03*
X6054992D02*
D03*
X6114992D02*
D03*
X6234991D02*
D03*
X6174991D02*
D03*
X5814992D02*
D03*
X5874992D02*
D03*
X5994992D02*
D03*
X5934992D02*
D03*
X5694992D02*
D03*
X5754992D02*
D03*
X5634993D02*
D03*
X5574993D02*
D03*
X6774990D02*
D03*
X6834990D02*
D03*
X6954990D02*
D03*
X6894990D02*
D03*
X6534991D02*
D03*
X6594991D02*
D03*
X6714990D02*
D03*
X6654990D02*
D03*
X6414991D02*
D03*
X6474991D02*
D03*
X6354991D02*
D03*
X6294991D02*
D03*
X7494989D02*
D03*
X7554989D02*
D03*
X7674988D02*
D03*
X7614989D02*
D03*
X7254989D02*
D03*
X7314989D02*
D03*
X7434989D02*
D03*
X7374989D02*
D03*
X7134990D02*
D03*
X7194989D02*
D03*
X7074990D02*
D03*
X7014990D02*
D03*
X8214987D02*
D03*
X8274987D02*
D03*
X8394987D02*
D03*
X8334987D02*
D03*
X7974988D02*
D03*
X8034988D02*
D03*
X8154988D02*
D03*
X8094988D02*
D03*
X7854988D02*
D03*
X7914988D02*
D03*
X7794988D02*
D03*
X7734988D02*
D03*
X8455000Y8472500D02*
D03*
X8555000Y8540000D02*
D03*
X8597500Y8582500D02*
D03*
X8642500Y8627500D02*
D03*
X8690000Y8665000D02*
D03*
X8745000Y8692501D02*
D03*
X8802500Y8710001D02*
D03*
Y8810000D02*
D03*
X8745000Y8827500D02*
D03*
X8690000Y8855000D02*
D03*
X8642500Y8892500D02*
D03*
X8597500Y8935000D02*
D03*
X8555000Y8977500D02*
D03*
X8510000Y9017500D02*
D03*
X8455000Y9045000D02*
D03*
X7734988Y9057500D02*
D03*
X7794988D02*
D03*
X7914988D02*
D03*
X7854988D02*
D03*
X8094988D02*
D03*
X8154988D02*
D03*
X8034988D02*
D03*
X7974988D02*
D03*
X8334987D02*
D03*
X8395000Y9055000D02*
D03*
X8274987Y9057500D02*
D03*
X8214987D02*
D03*
X7014990D02*
D03*
X7074990D02*
D03*
X7194989D02*
D03*
X7134990D02*
D03*
X7374989D02*
D03*
X7434989D02*
D03*
X7314989D02*
D03*
X7254989D02*
D03*
X7614989D02*
D03*
X7674988D02*
D03*
X7554989D02*
D03*
X7494989D02*
D03*
X6294991D02*
D03*
X6354991D02*
D03*
X6474991D02*
D03*
X6414991D02*
D03*
X6654990D02*
D03*
X6714990D02*
D03*
X6594991D02*
D03*
X6534991D02*
D03*
X6894990D02*
D03*
X6954990D02*
D03*
X6834990D02*
D03*
X6774990D02*
D03*
X5574993D02*
D03*
X5634993D02*
D03*
X5754992D02*
D03*
X5694992D02*
D03*
X5934992D02*
D03*
X5994992D02*
D03*
X5874992D02*
D03*
X5814992D02*
D03*
X6174991D02*
D03*
X6234991D02*
D03*
X6114992D02*
D03*
X6054992D02*
D03*
X4854994D02*
D03*
X4914994D02*
D03*
X5034994D02*
D03*
X4974994D02*
D03*
X5214993D02*
D03*
X5274993D02*
D03*
X5154993D02*
D03*
X5094994D02*
D03*
X5454993D02*
D03*
X5514993D02*
D03*
X5394993D02*
D03*
X5334993D02*
D03*
X4134996D02*
D03*
X4194995D02*
D03*
X4314995D02*
D03*
X4254995D02*
D03*
X4494995D02*
D03*
X4554995D02*
D03*
X4434995D02*
D03*
X4374995D02*
D03*
X4734994D02*
D03*
X4794994D02*
D03*
X4674994D02*
D03*
X4614995D02*
D03*
X3414997D02*
D03*
X3474997D02*
D03*
X3594997D02*
D03*
X3534997D02*
D03*
X3774996D02*
D03*
X3834996D02*
D03*
X3714996D02*
D03*
X3654996D02*
D03*
X4014996D02*
D03*
X4074996D02*
D03*
X3954996D02*
D03*
X3894996D02*
D03*
X2694998D02*
D03*
X2754998D02*
D03*
X2874998D02*
D03*
X2814998D02*
D03*
X3054998D02*
D03*
X3114998D02*
D03*
X2994998D02*
D03*
X2934998D02*
D03*
X3294997D02*
D03*
X3354997D02*
D03*
X3234997D02*
D03*
X3174997D02*
D03*
X2454999D02*
D03*
X2514999D02*
D03*
X2634999D02*
D03*
X2574999D02*
D03*
X2214999D02*
D03*
X2274999D02*
D03*
X2394999D02*
D03*
X2334999D02*
D03*
X2095000D02*
D03*
X2154999D02*
D03*
X2035000D02*
D03*
X1975000D02*
D03*
X1915000D02*
D03*
X1852500Y9060000D02*
D03*
X1792500Y9077500D02*
D03*
X1735000Y9107500D02*
D03*
X1687500Y9147500D02*
D03*
X1645000Y9190000D02*
D03*
X1602500Y9232500D02*
D03*
X1552500Y9270000D02*
D03*
X1492500Y9285000D02*
D03*
X1432500Y9287501D02*
D03*
X1372500D02*
D03*
X1312501D02*
D03*
X1252501D02*
D03*
X1192501D02*
D03*
X1132501D02*
D03*
X1072501D02*
D03*
X1012501D02*
D03*
X952501D02*
D03*
X892501D02*
D03*
X832502D02*
D03*
X772502D02*
D03*
X712502D02*
D03*
X1210000Y7439999D02*
D03*
D18*
X7642154Y1481079D02*
G03*
X7630000Y1620003I787846J138918D01*
G01*
X8748204Y4706346D02*
G03*
X8730000Y4799998I231796J93652D01*
G01*
X8242815Y3367521D02*
G03*
X8230000Y3480000I487185J112476D01*
G01*
X1209999Y1619998D02*
X7630000D01*
X1209999Y1619997D02*
X1209999Y1619998D01*
X1210001Y4799998D02*
X8730000D01*
X1210000Y3479997D02*
X8230000D01*
X1210000Y3479996D02*
X1210000Y3479997D01*
Y4799997D02*
X1210001Y4799998D01*
X1210000Y6119999D02*
X8210000D01*
X1209999Y6119998D02*
X1210000Y6119999D01*
X1210001Y8760000D02*
X9300000D01*
X1210000Y8759999D02*
X1210001Y8760000D01*
X1210000Y7439999D02*
X1210001Y7440000D01*
X8690000D01*
%TF.MD5,19b0571b8605c8ed1d152651b3a5db5f*%
M02*
