M48
;Layer_Color=9474304
;FILE_FORMAT=4:4
METRIC,LZ
;TYPE=PLATED
T01F00S00C0.3000
;TYPE=NON_PLATED
T02F00S00C0.6000
T03F00S00C2.0000
%
T01
X00731499Y0013225
X00737499
X00744Y00132
X007505Y0013075
X007565Y0012825
X0076525Y0012725
X0076275Y001335
X0076075Y0013975
X007575Y001455
X00764215Y00148108
X0077025Y00145
X0077175Y00139
X0077425Y00133
X00777Y00127
X007805Y001215
X0078425Y00116
X007885Y00111
X0079325Y001065
X0079825Y0010225
X0080375Y000985
X008095Y0009525
X008155Y000925
X0082175Y0009025
X0082825Y0008875
X0083475Y0008775
X0084125Y000875
X0084775
X0085425Y0008825
X0086075Y000895
X0086725Y0009125
X0087325Y0009375
X0087925Y000965
X0088475Y001
X0089Y00104
X00895Y0010825
X008995Y00113
X009035Y0011825
X0090725Y0012375
X009105Y001295
X00913Y001355
X0091525Y0014175
X009165Y0014825
X009175Y0015475
X00928
X0092725Y0014825
X0092575Y0014175
X0092375Y0013525
X009215Y00129
X0091875Y00123
X009155Y0011725
X0091175Y0011175
X0090775Y001065
X0090325Y0010175
X008985Y0009725
X0089325Y0009325
X0088775Y000895
X00882Y0008625
X00876Y000835
X0086975Y00081
X0086325Y0007925
X0085675Y00078
X0085025Y00077
X0084375Y0007675
X0083725Y00077
X0083075Y0007775
X0082425Y0007875
X0081775Y000805
X008115Y0008275
X008055Y000855
X0079975Y0008875
X0079425Y0009225
X00789Y0009625
X00784Y001005
X007795Y0010525
X0077525Y0011025
X007715Y0011575
X00768Y0012125
X0075275Y0013825
X00743249Y0014525
X00743249Y00157
X00737249
X00731249
Y00167
X00737249
X00743249
X00749249
Y00157
X00755249
X00761249
X0076825Y00158
Y001645
X0076875Y00171
X0076975Y001775
X007715Y00184
X0077375Y0019025
X007765Y0019625
X0078Y00202
X0078375Y002075
X00788Y002125
X0079275Y0021725
X0079775Y002215
X0080325Y0022525
X00809Y002285
X00815Y0023125
X0082125Y002335
X0082775Y0023525
X0083425Y0023625
X0084075Y0023675
X0084725Y002365
X0085375Y00236
X0086025Y0023475
X008665Y0023275
X0087275Y002305
X0087875Y002275
X008845Y00224
X0089Y0022
X00895Y0021575
X008995Y0021075
X0090375Y0020575
X0090725Y0020025
X009105Y001945
X00913Y001885
X00915Y0018225
X009165Y0017575
X009175Y0016925
X0092775
X00927Y0017575
X0092575Y0018225
X00924Y0018875
X009215Y0019475
X00919Y0020075
X0091575Y002065
X00912Y00212
X00908Y0021725
X009035Y00222
X0089875Y002265
X008935Y0023075
X00888Y0023425
X0088225Y002375
X0087625Y002405
X0087Y0024275
X0086375Y0024475
X0085725Y00246
X0085075Y00247
X0084425Y0024725
X0083775Y00247
X0083125Y002465
X0082475Y0024525
X0081825Y002435
X00812Y002415
X00806Y0023875
X008Y0023575
X007945Y0023225
X0078925Y0022825
X007845Y0022375
X0077975Y0021925
X007755Y0021425
X0077175Y0020875
X007685Y00203
X007655Y00197
X00763Y00191
X00761Y0018475
X007595Y0017825
X0075825Y0017175
X0075325Y00185
X0075Y00193
X00743499Y0019175
X00737499
X00731499
X00731249Y0017875
X00743249
X00756Y001955
X00731249Y0014525
X00731499Y0031825
X00737499
X00743499
X00749499
X00755499
X00761499
X00767499
X00773499
X007805Y0031775
X007875Y00317
X007935Y0031625
X007995Y0031525
X008055Y00314
X008115Y003125
X0081725Y0031075
X00823Y00309
X0082875Y00307
X0083475Y003075
X0083975Y00304
X0084475Y003005
X0085025Y0029775
X00856Y002955
X0086175Y0029375
X0086775Y00293
X0087375Y0029275
X0087975Y0029325
X0088575Y0029425
X008915Y00296
X0089725Y0029825
X009025Y0030125
X009075Y0030475
X00912Y0030875
X00916Y0031325
X009195Y0031825
X009225Y003235
X00925Y00329
X009135
X009105Y0032375
X0090675Y0031875
X009025Y003145
X0089775Y0031075
X008925Y0030775
X0088675Y003055
X0088075Y00304
X0087475Y003035
X0086875
X0086275Y003045
X00857Y0030625
X008515Y0030875
X0084625Y00312
X0084175Y00316
X0083775Y003205
X0083425Y003255
X008315Y00331
X008215Y003285
X00824Y00323
X00827Y0031775
X0083075Y0031275
X00815249Y0031925
X00803249Y0033125
X00791249
X00779249
X00767249
X00755249
X00743249
X00731249
X00719249
X00707249
X00695249
X00683249
X00671249
X00659249
X00647249
X00635249
X00623249
X00611249
X00599249
X00587249
X00575249
X00563249
X00551249
X00539249
X00527249
X00515249
X00503249
X00491249
X00479249
X00467249
X00455249
X00443249
X00431249
X00419249
X00407249
X00395249
X00383249
X00371249
X00359249
X00347249
X00335249
X003355Y0031825
X00341499
X003475
X00353499
X003595
X00365499
X00371499
X003775
X00383499
X00389499
X00395499
X00401499
X00407499
X00413499
X00419499
X00425499
X00431499
X00437499
X00443499
X00449499
X00455499
X00461499
X00467499
X00473499
X00479499
X00485499
X00491499
X00497499
X00503499
X00509499
X00515499
X00521499
X00527499
X00533499
X00539499
X00545499
X00551499
X00557499
X00563499
X00569499
X00575499
X00581499
X00587499
X00593499
X00599499
X00605499
X00611499
X00617499
X00623499
X00629499
X00635499
X00641499
X00647499
X00653499
X00659499
X00665499
X00671499
X00677499
X00683499
X00689499
X00695499
X00701499
X00707499
X00713499
X00719499
X00725499
X00725499Y0019175
X00719499
X00713499
X00707499
X00701499
X00695499
X00689499
X00683499
X00677499
X00671499
X00665499
X00659499
X00653499
X00647499
X00641499
X00635499
X00629499
X00623499
X00617499
X00611499
X00605499
X00599499
X00593499
X00587499
X00581499
X00575499
X00569499
X00563499
X00557499
X00551499
X00545499
X00539499
X00533499
X00527499
X00521499
X00515499
X00509499
X00503499
X00497499
X00491499
X00485499
X00479499
X00473499
X00467499
X00461499
X00455499
X00449499
X00443499
X00437499
X00431499
X00425499
X00419499
X00413499
X00407499
X00401499
X00395499
X00389499
X00383499
X00377499
X00371499
X00365499
X003595
X00353499
X003475
X00341499
X00335499
X00335249Y0017875
X00335249Y00167
X00341249
X00347249
X00353249
X00359249
X00365249
X00371249
X00377249
X00383249
X00389249
X00395249
X00401249
X00407249
X00413249
X00419249
X00425249
X00431249
X00437249
X00443249
X00449249
X00455249
X00461249
X00467249
X00473249
X00479249
X00485249
X00491249
X00497249
X00503249
X00509249
X00515249
X00521249
X00527249
X00533249
X00539249
X00545249
X00551249
X00557249
X00563249
X00569249
X00575249
X00581249
X00587249
X00593249
X00599249
X00605249
X00611249
X00617249
X00623249
X00629249
X00635249
X00641249
X00647249
X00653249
X00659249
X00665249
X00671249
X00677249
X00683249
X00689249
X00695249
X00701249
X00707249
X00713249
X00719249
X00725249
Y00157
X00719249
X00713249
X00707249
X00701249
X00695249
X00689249
X00683249
X00677249
X00671249
X00665249
X00659249
X00653249
X00647249
X00641249
X00635249
X00629249
X00623249
X00617249
X00611249
X00605249
X00599249
X00593249
X00587249
X00581249
X00575249
X00569249
X00563249
X00557249
X00551249
X00545249
X00539249
X00533249
X00527249
X00521249
X00515249
X00509249
X00503249
X00497249
X00491249
X00485249
X00479249
X00473249
X00467249
X00461249
X00455249
X00449249
X00443249
X00437249
X00431249
X00425249
X00419249
X00413249
X00407249
X00401249
X00395249
X00389249
X00383249
X00377249
X00371249
X00365249
X00359249
X00353249
X00347249
X00341249
X00335249
X00335249Y0014525
X00347249
X00359249
X00371249
X00383249
X00395249
X00407249
X00419249
X00431249
X00443249
X00455249
X00467249
X00479249
X00491249
X00503249
X00515249
X00527249
X00539249
X00551249
X00563249
X00575249
X00587249
X00599249
X00611249
X00623249
X00635249
X00647249
X00659249
X00671249
X00683249
X00695249
X00707249
X00719249
X00719499Y0013225
X00725499
X00713499
X00707499
X00701499
X00695499
X00689499
X00683499
X00677499
X00671499
X00665499
X00659499
X00653499
X00647499
X00641499
X00635499
X00629499
X00623499
X00617499
X00611499
X00605499
X00599499
X00593499
X00587499
X00581499
X00575499
X00569499
X00563499
X00557499
X00551499
X00545499
X00539499
X00533499
X00527499
X00521499
X00515499
X00509499
X00503499
X00497499
X00491499
X00485499
X00479499
X00473499
X00467499
X00461499
X00455499
X00449499
X00443499
X00437499
X00431499
X00425499
X00419499
X00413499
X00407499
X00401499
X00395499
X00389499
X00383499
X00377499
X00371499
X00365499
X003595
X00353499
X003475
X00341499
X00335499
X00347249Y0017875
X00359249
X00371249
X00383249
X00395249
X00407249
X00419249
X00431249
X00443249
X00455249
X00467249
X00479249
X00491249
X00503249
X00515249
X00527249
X00539249
X00551249
X00563249
X00575249
X00587249
X00599249
X00611249
X00623249
X00635249
X00647249
X00659249
X00671249
X00683249
X00695249
X00707249
X00719249
X0032325
X00323249Y00167
X0031725
X0031125
X0030525
X00299249
X00293249
X0028725
X0028125
X0027525
X0026925
X0026325
X0025725
X0025125
X0024525
X0023925
X0023325
X0022725
X0022125
X0021525
X0020925
X0020325
X0019725
X0019125
X0018525
X0017925
X0017325
X0016725
X0016125
X0015525
X0014925
X0014325
X0013725
X0013125Y00169
X0013125Y0017875
X0012525Y0017325
X0011925
X0011325
X0010725
X0010125
X0009525
X0008925
X0008325
X0007725
X0007125Y0017875
Y0018475
Y0019075
Y0019675
Y0020275
Y0020875
Y0021475
X0007725
X0008325
X0008925
X0009525
X0010125
X0010725
X0011325
X0011925
X0012525
X0013125
X0013725
X0014325
X0014925Y002145
X0015525Y00213
X0016025Y0020925
X001645Y00205
X0016875Y0020075
X001735Y0019675
X0017925Y0019375
X0018525Y00192
X001915Y0019175
X001975
X002035
X002095
X002155
X002215
X002275
X002335
X002395
X002455
X002515
X002575
X002635
X002695
X002755
X002815
X002875
X002935
X002995
X003055
X003115
X003175
X003235
X003295
X00329249Y00167
Y00157
X00323249
X0031725
X0031125
X0030525
X00299249
X00293249
X0028725
X0028125
X0027525
X0026925
X0026325
X0025725
X0025125
X0024525
X0023925
X0023325
X0022725
X0022125
X0021525
X0020925
X0020325
X0019725
X0019125
X0018525
X0017925
X0017325
X0016725
X0016125
X0015525
X0014925
X0014325
X0013725
X0013125Y00155
X0013125Y0014525
X0012525Y0015075
X0011925
X0011325
X0010725
X0010125
X0009525
X0008925
X0008325
X0007725
X0007125Y0014525
Y0013925
Y0013325
Y0012725
Y0012125
Y0011525
Y0010925
X0007725
X0008325
X0008925
X0009525
X0010125
X0010725
X0011325
X0011925
X0012525
X0013125
X0013725
X0014325
X0014925Y001095
X0015525Y00111
X0016025Y0011475
X001645Y00119
X0016875Y0012325
X001735Y0012725
X0017925Y0013025
X0018525Y00132
X001915Y0013225
X001975
X002035
X002095
X002155
X002215
X002275
X002335
X002395
X002455
X002515
X002575
X002635
X002695
X002755
X002815
X002875
X002935
X002995
X003055
X003115
X003175
X003235
X003295
X0032325Y0014525
X0031125
X0029925
X0028725
X0027525
X0026325
X0025125
X0023925
X0022725
X0021525
X0020325
X0019125
X0017925
X0016725
X0015525
Y0013325
X0014325
X0013125
X0011925
X0010725
X0009525
X0008325
Y0012125
X0009525
X0010725
X0011925
X0013125
X0014325
X0015525
X0016725Y0013325
X0014325Y0014525
X0014325Y0017875
X0015525
X0016725
Y0019075
X0015525
Y0020275
X0014325
Y0019075
X0013125
Y0020275
X0011925
Y0019075
X0010725
Y0020275
X0009525
Y0019075
X0008325
Y0020275
X00121Y00162
X0017925Y0017875
X0019125
X0020325
X0021525
X0022725
X0023925
X0025125
X0026325
X0027525
X0028725
X00299249
X0031125
X003115Y0031825
X003055
X002995
X002935
X002875
X002815
X002755
X002695
X002635
X002575
X002515
X002455
X002395
X002335
X002275
X002215
X002155
X002095
X002035
X001975
X001915
X0018525Y00318
X0017925Y0031625
X001735Y0031325
X0016875Y0030925
X001645Y00305
X0016025Y0030075
X0015525Y00297
X0014925Y002955
X0014325Y0029525
X0013725
X0013125
X0012525
X0011925
X0011325
X0010725
X0010125
X0009525
X0008925
X0008325
X0007725
X0007125
Y0030125
Y0030725
Y00313249
Y00319249
Y00325249
Y0033125
X0008325Y0031925
X0009525
X0010725
X0011925
X0013125
Y0033125
X0014325
X0015525
X0016725
Y0031925
X0015525
Y0030725
X0014325
Y0031925
X0013125Y0030725
X0011925
X0010725
X0009525
X0008325
X0017925Y0033125
X0019125
X0020325
X0021525
X0022725
X0023925
X0025125
X0026325
X0027525
X0028725
X0029925
X0031125
X0032325
X003235Y0031825
X003295
X003175
X0031725Y00343
X0031125
X0030525
X00299249
X00293249
X0028725
X0028125
X0027525
X0026925
X0026325
X0025725
X0025125
X0024525
X0023925
X0023325
X0022725
X0022125
X0021525
X0020925
X0020325
X0019725
X0019125
X0018525
X0017925
X0017325
X0016725
X0016125
X0015525
X0014925
X0014325
X0013725
X0013125Y00341
X0012525Y0033675
X0011925
X0011325
X0010725
X0010125
X0009525
X0008925
X0008325
X0007725
Y0035925
X0008325
X0008925
X0009525
X0010125
X0010725
X0011325
X0011925
X0012525
X0013125Y00355
X0013725Y00353
X0014325
X0014925
X0015525
X0016125
X0016725
X0017325
X0017925
X0018525
X0019125
X0019725
X0020325
X0020925
X0021525
X0022125
X0022725
X0023325
X0023925
X0024525
X0025125
X0025725
X0026325
X0026925
X0027525
X0028125
X0028725
X00293249
X00299249
X0030525
X0031125
X0031725
X0032325
X00329249
Y00343
X0032325
X0032325Y0036475
X0031125
X0029925
X0028725
X0027525
X0026325
X0025125
X0023925
X0022725
X0021525
X0020325
X0019125
X0017925
X0016725
X0015525
Y0037675
X0014325
X0013125
X0011925
X0010725
X0009525
X0008325
X0007125
Y0038275
Y0038875
Y0039475
Y0040075
X0007725
X0008325
X0008925
X0009525
X0010125
X0010725
X0011325
X0011925
X0012525
X0013125
X0013725
X0014325
X0014925Y004005
X0015525Y00399
X0016025Y0039525
X001645Y00391
X0016875Y0038675
X001735Y0038275
X0017925Y0037975
X0018525Y00378
X001915Y0037775
X001975
X002035
X002095
X002155
X002215
X002275
X002335
X002395
X002455
X002515
X002575
X002635
X002695
X002755
X002815
X002875
X002935
X002995
X003055
X003115
X003175
X003235
X003295
X003295Y0045025
X003235
X003175
X003115
X003055
X002995
X002935
X002875
X002815
X002755
X002695
X002635
X002575
X002515
X002455
X002395
X002335
X002275
X002215
X002155
X002095
X002035
X001975
X001915
X0018525Y0045
X0017925Y0044825
X001735Y0044525
X0016875Y0044125
X001645Y00437
X0016025Y0043275
X0015525Y00429
X0014925Y004275
X0014325Y0042725
X0013725
X0013125
X0012525
X0011925
X0011325
X0010725
X0010125
X0009525
X0008925
X0008325
X0007725
X0007125
Y0043325
Y0043925
Y0044525
Y0045125
Y0045725
Y0046325
X0007725Y0046875
X0008325
X0008925
X0009525
X0010125
X0010725
X0011325
X0011925
X0012525
X0013125Y00473
X0013725Y00475
X0014325
X0014925
X0015525
X0016125
X0016725
X0017325
X0017925
X0018525
X0019125
X0019725
X0020325
X0020925
X0021525
X0022125
X0022725
X0023325
X0023925
X0024525
X0025125
X0025725
X0026325
X0026925
X0027525
X0028125
X0028725
X0029325
X0029925
X0030525
X0031125
X0031725
X0032325
X00329249
Y00485
X0032325
X0031725
X0031125
X0030525
X0029925
X0029325
X0028725
X0028125
X0027525
X0026925
X0026325
X0025725
X0025125
X0024525
X0023925
X0023325
X0022725
X0022125
X0021525
X0020925
X0020325
X0019725
X0019125
X0018525
X0017925
X0017325
X0016725
X0016125
X0015525
X0014925
X0014325
X0013725
X0013125Y00487
X0013125Y0049675
X0012525Y0049125
X0011925
X0011325
X0010725
X0010125
X0009525
X0008925
X0008325
X0007725
X0007125Y0049675
Y0050275
Y0050875
Y0051475
Y0052075
Y0052675
Y0053275
X0007725
X0008325
X0008925
X0009525
X0010125
X0010725
X0011325
X0011925
X0012525
X0013125
X0013725
X0014325
X0014925Y005325
X0015525Y00531
X0016025Y0052725
X001645Y00523
X0016875Y0051875
X001735Y0051475
X0017925Y0051175
X0018525Y0051
X001915Y0050975
X001975
X002035
X002095
X002155
X002215
X002275
X002335
X002395
X002455
X002515
X002575
X002635
X002695
X002755
X002815
X002875
X002935
X002995
X003055
X003115
X003175
X003235
X003295
X0032325Y0049675
X0031125
X0029925
X0028725
X0027525
X0026325
X0025125
X0023925
X0022725
X0021525
X0020325
X0019125
X0017925
X0016725
X0015525
Y0050875
X0014325
X0013125
X0011925
X0010725
X0009525
X0008325
Y0052075
X0009525
X0010725
X0011925
X0013125
X0014325
X0015525
X0016725Y0050875
X0014325Y0049675
X0014325Y0046325
X0013125
Y0045125
X0014325
X0015525
Y0043925
X0014325
X0013125
X0011925
Y0045125
X0010725
Y0043925
X0009525
Y0045125
X0008325
Y0043925
X0008325Y0038875
X0009525
X0010725
X0011925
X0013125
X0014325
X0015525
X0016725Y0037675
X0014325Y0036475
X0013125
X00121Y00348
X0007125Y0036475
Y0037075
X00121Y0048
X0015525Y0046325
X0016725
Y0045125
X0017925Y0046325
X0019125
X0020325
X0021525
X0022725
X0023925
X0025125
X0026325
X0027525
X0028725
X0029925
X0031125
X0032325
X003235Y0058225
X003175
X003115
X003055
X002995
X002935
X002875
X002815
X002755
X002695
X002635
X002575
X002515
X002455
X002395
X002335
X002275
X002215
X002155
X002095
X002035
X001975
X001915
X0018525Y00582
X0017925Y0058025
X001735Y0057725
X0016875Y0057325
X001645Y00569
X0016025Y0056475
X0015525Y00561
X0014925Y005595
X0014325Y0055925
X0013725
X0013125
X0012525
X0011925
X0011325
X0010725
X0010125
X0009525
X0008925
X0008325
X0007725
X0007125
Y0056525
Y0057125
Y0057725
Y0058325
Y0058925
Y0059525
X0007725Y0060075
X0008325
X0008925
X0009525
X0010125
X0010725
X0011325
X0011925
X0012525
X0013125Y00605
X0013725Y00607
X0014325
X0014925
X0015525
X0016125
X0016725
X0017325
X0017925
X0018525
X0019125
X0019725
X0020325
X0020925
X0021525
X0022125
X0022725
X0023325
X0023925
X0024525
X0025125
X0025725
X0026325
X0026925
X0027525
X0028125
X0028725
X00293249
X00299249
X0030525
X0031125
X0031725
X00323249
X00329249
Y00617
X00323249
X0031725
X0031125
X0030525
X00299249
X00293249
X0028725
X0028125
X0027525
X0026925
X0026325
X0025725
X0025125
X0024525
X0023925
X0023325
X0022725
X0022125
X0021525
X0020925
X0020325
X0019725
X0019125
X0018525
X0017925
X0017325
X0016725
X0016125
X0015525
X0014925
X0014325
X0013725
X0013125Y00619
X0013125Y0062875
X0012525Y0062325
X0011925
X0011325
X0010725
X0010125
X0009525
X0008925
X0008325
X0007725
X0007125Y0062875
Y0063475
Y0064075
Y0064675
Y0065275
Y0065875
Y0066475
X0007725
X0008325
X0008925
X0009525
X0010125
X0010725
X0011325
X0011925
X0012525
X0013125
X0013725
X0014325
X0014925Y006645
X0015525Y00663
X0016025Y0065925
X001645Y00655
X0016875Y0065075
X001735Y0064675
X0017925Y0064375
X0018525Y00642
X001915Y0064175
X001975
X002035
X002095
X002155
X002215
X002275
X002335
X002395
X002455
X002515
X002575
X002635
X002695
X002755
X002815
X002875
X002935
X002995
X003055
X003115
X003175
X003235
X003295
X0032325Y0062875
X0031125
X00299249
X0028725
X0027525
X0026325
X0025125
X0023925
X0022725
X0021525
X0020325
X0019125
X0017925
X0016725
Y0064075
X0015525
Y0065275
X0014325
Y0064075
Y0062875
X0015525
X0015525Y0059525
Y0058325
X0014325
X0013125
X0011925
X0010725
X0009525
X0008325
Y0057125
X0009525
X0010725
X0011925
X0013125
X0014325
X0015525
X0016725Y0058325
Y0059525
X0017925
X0019125
X0020325
X0021525
X0022725
X0023925
X0025125
X0026325
X0027525
X0028725
X0029925
X0031125
X0032325
X003295Y0058225
X003295Y0071425
X003235
X003175
X003115
X003055
X002995
X002935
X002875
X002815
X002755
X002695
X002635
X002575
X002515
X002455
X002395
X002335
X002275
X002215
X002155
X002095
X002035
X001975
X001915
X0018525Y00714
X0017925Y0071225
X001735Y0070925
X0016875Y0070525
X001645Y00701
X0016025Y0069675
X0015525Y00693
X0014925Y006915
X0014325Y0069125
X0013725
X0013125
X0012525
X0011925
X0011325
X0010725
X0010125
X0009525
X0008925
X0008325
X0007725
X0007125
Y0069725
Y0070325
Y0070925
Y0071525
Y0072125
Y0072725
X0008325Y0071525
X0009525
X0010725
X0011925
X0013125
Y0072725
X0014325
X0015525
X0016725
Y0071525
X0015525
Y0070325
X0014325
Y0071525
X0013125Y0070325
X0011925
X0010725
X0009525
X0008325
X0008325Y0065275
X0009525
X0010725
X0011925
X0013125
Y0064075
X0011925
X0010725
X0009525
X0008325
X00121Y00612
X0013125Y0059525
X0014325
X0017925Y0072725
X0019125
X0020325
X0021525
X0022725
X0023925
X0025125
X0026325
X0027525
X0028725
X0029925
X0031125
X0032325
X0033525
X00347249
X00359249
X0037125
X0038325
X00395249
X00407249
X00419249
X00431249
X00443249
X00455249
X00467249
X00479249
X00491249
X00503249
X00515249
X00527249
X00539249
X00551249
X00563249
X00575249
X00587249
X00599249
X00611249
X00623249
X00635249
X00647249
X00659249
X00671249
X00683249
X00695249
X00707249
X00719249
X00719499Y0071425
X00713499
X00707499
X00701499
X00695499
X00689499
X00683499
X00677499
X00671499
X00665499
X00659499
X00653499
X00647499
X00641499
X00635499
X00629499
X00623499
X00617499
X00611499
X00605499
X00599499
X00593499
X00587499
X00581499
X00575499
X00569499
X00563499
X00557499
X00551499
X00545499
X00539499
X00533499
X00527499
X00521499
X00515499
X00509499
X00503499
X00497499
X00491499
X00485499
X00479499
X00473499
X00467499
X00461499
X00455499
X00449499
X00443499
X00437499
X00431499
X00425499
X00419499
X00413499
X004075
X00401499
X00395499
X003895
X00383499
X003775
X00371499
X00365499
X003595
X003535
X003475
X003415
X003355
X00335499Y0064175
X00341499
X003475
X00353499
X003595
X00365499
X00371499
X00377499
X00383499
X00389499
X00395499
X00401499
X00407499
X00413499
X00419499
X00425499
X00431499
X00437499
X00443499
X00449499
X00455499
X00461499
X00467499
X00473499
X00479499
X00485499
X00491499
X00497499
X00503499
X00509499
X00515499
X00521499
X00527499
X00533499
X00539499
X00545499
X00551499
X00557499
X00563499
X00569499
X00575499
X00581499
X00587499
X00593499
X00599499
X00605499
X00611499
X00617499
X00623499
X00629499
X00635499
X00641499
X00647499
X00653499
X00659499
X00665499
X00671499
X00677499
X00683499
X00689499
X00695499
X00701499
X00707499
X00713499
X00719499
X00725499
X00719249Y0062875
X00719249Y00617
X00725249
Y00607
X00719249
X00713249
X00707249
X00701249
X00695249
X00689249
X00683249
X00677249
X00671249
X00665249
X00659249
X00653249
X00647249
X00641249
X00635249
X00629249
X00623249
X00617249
X00611249
X00605249
X00599249
X00593249
X00587249
X00581249
X00575249
X00569249
X00563249
X00557249
X00551249
X00545249
X00539249
X00533249
X00527249
X00521249
X00515249
X00509249
X00503249
X00497249
X00491249
X00485249
X00479249
X00473249
X00467249
X00461249
X00455249
X00449249
X00443249
X00437249
X00431249
X00425249
X00419249
X00413249
X00407249
X00401249
X00395249
X00389249
X00383249
X00377249
X00371249
X00365249
X00359249
X00353249
X00347249
X00341249
X00335249
Y00617
X00341249
X00347249
X00353249
X00359249
X00365249
X00371249
X00377249
X00383249
X00389249
X00395249
X00401249
X00407249
X00413249
X00419249
X00425249
X00431249
X00437249
X00443249
X00449249
X00455249
X00461249
X00467249
X00473249
X00479249
X00485249
X00491249
X00497249
X00503249
X00509249
X00515249
X00521249
X00527249
X00533249
X00539249
X00545249
X00551249
X00557249
X00563249
X00569249
X00575249
X00581249
X00587249
X00593249
X00599249
X00605249
X00611249
X00617249
X00623249
X00629249
X00635249
X00641249
X00647249
X00653249
X00659249
X00665249
X00671249
X00677249
X00683249
X00689249
X00695249
X00701249
X00707249
X00713249
X00707249Y0062875
X00695249
X00683249
X00671249
X00659249
X00647249
X00635249
X00623249
X00611249
X00599249
X00587249
X00575249
X00563249
X00551249
X00539249
X00527249
X00515249
X00503249
X00491249
X00479249
X00467249
X00455249
X00443249
X00431249
X00419249
X00407249
X00395249
X00383249
X00371249
X00359249
X00347249
X00335249
X00335249Y0059525
X00347249
X00359249
X00371249
X00383249
X00395249
X00407249
X00419249
X00431249
X00443249
X00455249
X00467249
X00479249
X00491249
X00503249
X00515249
X00527249
X00539249
X00551249
X00563249
X00575249
X00587249
X00599249
X00611249
X00623249
X00635249
X00647249
X00659249
X00671249
X00683249
X00695249
X00707249
X00719249
X00719499Y0058225
X00725499
X00713499
X00707499
X00701499
X00695499
X00689499
X00683499
X00677499
X00671499
X00665499
X00659499
X00653499
X00647499
X00641499
X00635499
X00629499
X00623499
X00617499
X00611499
X00605499
X00599499
X00593499
X00587499
X00581499
X00575499
X00569499
X00563499
X00557499
X00551499
X00545499
X00539499
X00533499
X00527499
X00521499
X00515499
X00509499
X00503499
X00497499
X00491499
X00485499
X00479499
X00473499
X00467499
X00461499
X00455499
X00449499
X00443499
X00437499
X00431499
X00425499
X00419499
X00413499
X00407499
X00401499
X00395499
X00389499
X00383499
X00377499
X00371499
X00365499
X003595
X00353499
X003475
X00341499
X00335499
X003355Y0050975
X003415
X003475
X003535
X003595
X003655
X003715
X003775
X00383499
X003895
X00395499
X00401499
X004075
X00413499
X004195
X00425499
X00431499
X00437499
X00443499
X00449499
X00455499
X00461499
X00467499
X00473499
X00479499
X00485499
X00491499
X00497499
X00503499
X00509499
X00515499
X00521499
X00527499
X00533499
X00539499
X00545499
X00551499
X00557499
X00563499
X00569499
X00575499
X00581499
X00587499
X00593499
X00599499
X00605499
X00611499
X00617499
X00623499
X00629499
X00635499
X00641499
X00647499
X00653499
X00659499
X00665499
X00671499
X00677499
X00683499
X00689499
X00695499
X00701499
X00707499
X00713499
X00719499
X00725499
X00719249Y0049675
X00719249Y00485
X00713249
X00707249
X00701249
X00695249
X00689249
X00683249
X00677249
X00671249
X00665249
X00659249
X00653249
X00647249
X00641249
X00635249
X00629249
X00623249
X00617249
X00611249
X00605249
X00599249
X00593249
X00587249
X00581249
X00575249
X00569249
X00563249
X00557249
X00551249
X00545249
X00539249
X00533249
X00527249
X00521249
X00515249
X00509249
X00503249
X00497249
X00491249
X00485249
X00479249
X00473249
X00467249
X00461249
X00455249
X00449249
X00443249
X00437249
X00431249
X00425249
X00419249
X00413249
X00407249
X00401249
X00395249
X00389249
X00383249
X00377249
X00371249
X00365249
X00359249
X0035325
X00347249
X0034125
X00335249
Y00475
X0034125
X00347249
X0035325
X00359249
X00365249
X00371249
X00377249
X00383249
X00389249
X00395249
X00401249
X00407249
X00413249
X00419249
X00425249
X00431249
X00437249
X00443249
X00449249
X00455249
X00461249
X00467249
X00473249
X00479249
X00485249
X00491249
X00497249
X00503249
X00509249
X00515249
X00521249
X00527249
X00533249
X00539249
X00545249
X00551249
X00557249
X00563249
X00569249
X00575249
X00581249
X00587249
X00593249
X00599249
X00605249
X00611249
X00617249
X00623249
X00629249
X00635249
X00641249
X00647249
X00653249
X00659249
X00665249
X00671249
X00677249
X00683249
X00689249
X00695249
X00701249
X00707249
X00713249
X00719249
X00725249
Y00485
X00719249Y0046325
X00707249
X00695249
X00683249
X00671249
X00659249
X00647249
X00635249
X00623249
X00611249
X00599249
X00587249
X00575249
X00563249
X00551249
X00539249
X00527249
X00515249
X00503249
X00491249
X00479249
X00467249
X00455249
X00443249
X00431249
X00419249
X00407249
X00395249
X0038325
X0037125
X00359249
X0034725
X0033525
X003355Y0045025
X003415
X003475
X003535
X003595
X003655
X003715
X003775
X00383499
X003895
X00395499
X00401499
X004075
X00413499
X004195
X00425499
X00431499
X00437499
X00443499
X00449499
X00455499
X00461499
X00467499
X00473499
X00479499
X00485499
X00491499
X00497499
X00503499
X00509499
X00515499
X00521499
X00527499
X00533499
X00539499
X00545499
X00551499
X00557499
X00563499
X00569499
X00575499
X00581499
X00587499
X00593499
X00599499
X00605499
X00611499
X00617499
X00623499
X00629499
X00635499
X00641499
X00647499
X00653499
X00659499
X00665499
X00671499
X00677499
X00683499
X00689499
X00695499
X00701499
X00707499
X00713499
X00719499
X00725499
X00707249Y0049675
X00695249
X00683249
X00671249
X00659249
X00647249
X00635249
X00623249
X00611249
X00599249
X00587249
X00575249
X00563249
X00551249
X00539249
X00527249
X00515249
X00503249
X00491249
X00479249
X00467249
X00455249
X00443249
X00431249
X00419249
X00407249
X00395249
X0038325
X0037125
X00359249
X00347249
X0033525
X003355Y0037775
X00341499
X003475
X00353499
X003595
X00365499
X00371499
X003775
X00383499
X00389499
X00395499
X00401499
X00407499
X00413499
X00419499
X00425499
X00431499
X00437499
X00443499
X00449499
X00455499
X00461499
X00467499
X00473499
X00479499
X00485499
X00491499
X00497499
X00503499
X00509499
X00515499
X00521499
X00527499
X00533499
X00539499
X00545499
X00551499
X00557499
X00563499
X00569499
X00575499
X00581499
X00587499
X00593499
X00599499
X00605499
X00611499
X00617499
X00623499
X00629499
X00635499
X00641499
X00647499
X00653499
X00659499
X00665499
X00671499
X00677499
X00683499
X00689499
X00695499
X00701499
X00707499
X00713499
X00719499
X00725499
X00719249Y0036475
X00719249Y00353
X00713249
X00707249
X00701249
X00695249
X00689249
X00683249
X00677249
X00671249
X00665249
X00659249
X00653249
X00647249
X00641249
X00635249
X00629249
X00623249
X00617249
X00611249
X00605249
X00599249
X00593249
X00587249
X00581249
X00575249
X00569249
X00563249
X00557249
X00551249
X00545249
X00539249
X00533249
X00527249
X00521249
X00515249
X00509249
X00503249
X00497249
X00491249
X00485249
X00479249
X00473249
X00467249
X00461249
X00455249
X00449249
X00443249
X00437249
X00431249
X00425249
X00419249
X00413249
X00407249
X00401249
X00395249
X00389249
X00383249
X00377249
X00371249
X00365249
X00359249
X00353249
X00347249
X00341249
X00335249
Y00343
X00341249
X00347249
X00353249
X00359249
X00365249
X00371249
X00377249
X00383249
X00389249
X00395249
X00401249
X00407249
X00413249
X00419249
X00425249
X00431249
X00437249
X00443249
X00449249
X00455249
X00461249
X00467249
X00473249
X00479249
X00485249
X00491249
X00497249
X00503249
X00509249
X00515249
X00521249
X00527249
X00533249
X00539249
X00545249
X00551249
X00557249
X00563249
X00569249
X00575249
X00581249
X00587249
X00593249
X00599249
X00605249
X00611249
X00617249
X00623249
X00629249
X00635249
X00641249
X00647249
X00653249
X00659249
X00665249
X00671249
X00677249
X00683249
X00689249
X00695249
X00701249
X00707249
X00713249
X00719249
X00725249
Y00353
X00707249Y0036475
X00695249
X00683249
X00671249
X00659249
X00647249
X00635249
X00623249
X00611249
X00599249
X00587249
X00575249
X00563249
X00551249
X00539249
X00527249
X00515249
X00503249
X00491249
X00479249
X00467249
X00455249
X00443249
X00431249
X00419249
X00407249
X00395249
X00383249
X00371249
X00359249
X00347249
X00335249
X00725499Y0071425
X00731499
X00737499
X00743499
X00749499
X00755499
X00761499
X00767499
X00773499
X00779499
X00785499
X00791499
X00797499
X00803499
X00809499
X00815499
X00821499
X00827499
X008335Y007155
X0083875Y00719
X00843Y0072325
X0084775Y00728
X00827249Y0072725
X00815249
X00803249
X00791249
X00779249
X00767249
X00755249
X00743249
X00731249
X00731499Y0064175
X00737499
X00743499
X00749499
X00755499
X00761499
X00767499
X00773499
X00779499
X00785499
X00791499
X00797499
X00803499
X00809499
X0081275Y006365
Y006285
Y00622
X00809249Y00617
X00803249
X00797249
X00791248
X00785248
X00779249
X00773249
X00767249
X00761249
X00755249
X00749249
X00743249
X00737249
X00731249
Y00607
X00737249
X00743249
X00749249
X00755249
X00761249
X00767249
X00773249
X00779249
X00785248
X00791248
X00797249
X00803249
X00809249
X0081275Y00602
Y00595
Y005875
X00809499Y0058225
X00803499
X00797499
X00791499
X00785499
X00779499
X00773499
X00767499
X00761499
X00755499
X00749499
X00743499
X00737499
X00731499
X00731249Y0059525
X00743249
X00755249
X00767249
X00779249
X00791249
X00803249
X00803249Y0062875
X00791249
X00779249
X00767249
X00755249
X00743249
X00731249
X00731499Y0050975
X00737499
X00743499
X00749499
X00755499
X00761499
X00767499
X00773499
X00779499
X00785499
X00791499
X00797499
X00803499
X00809499
X00815499
X00821499
X00827499
X00833499
X00839499
X00845499
X00851499
X00857499
X00863499
X00869499
X00875499
X008835Y005085
X008895Y0050925
X008955Y0051
X009015
X009075Y0050875
X00913Y0050625
X00918Y0050275
X0092225Y0049825
X009255Y00493
X009275Y0048725
X009165
X0091325Y004925
X0090875Y004965
X0090325Y0049925
X0089725Y005
X0089125Y0049875
X0088575Y0049575
X0088175Y0049125
X0087925Y0048575
X0087825Y0047975
X0087482Y00470635
X0088175Y00469
X0088575Y004645
X00891Y004615
X00897Y0046025
X00903Y0046075
X009085Y0046325
X00913Y0046725
X0091625Y0047275
X009275
X009255Y00467
X00922Y0046175
X00918Y0045725
X00913Y0045375
X009075Y0045125
X009015Y0045
X008955
X008895Y0045125
X0088375Y0045325
X0087875Y0045675
X008745Y0046125
X0087075Y00466
X00863249Y0046325
X00863249Y00475
X00857249
X00851248
X00845248
X00839249
X00833249
X00827249
X00821248
X00815249
X00809249
X00803249
X00797249
X00791249
X00785249
X00779249
X00773249
X00767249
X00761249
X00755249
X00749249
X00743249
X00737249
X00731249
Y00485
X00737249
X00743249
X00749249
X00755249
X00761249
X00767249
X00773249
X00779249
X00785249
X00791249
X00797249
X00803249
X00809249
X00815249
X00821248
X00827249
X00833249
X00839249
X00845248
X00851248
X00857249
X00863249
X008695Y0048925
X008715Y00495
X0087475Y0050025
X008795Y00504
X00863249Y0049675
X00851248
X00839249
X00827249
X00815249
X00803249
X00791249
X00779249
X00767249
X00755249
X00743249
X00731249
X00731249Y0046325
X00743249
X00755249
X00767249
X00779249
X00791249
X00803249
X00815249
X00827249
X00839249
X00851249
X00851499Y0045025
X00857499
X00863499
X00869499
X00875499
X00845499
X00839499
X00833499
X00827499
X00821499
X00815499
X00809499
X00803499
X00797499
X00791499
X00785499
X00779499
X00773499
X00767499
X00761499
X00755499
X00749499
X00743499
X00737499
X00731499
X00731499Y0037775
X00737499
X00743499
X00749499
X00755499
X00761499
X00767499
X00773499
X007795Y00378
X007855Y003785
X007915Y0037925
X007975Y0038025
X008035Y0038125
X008095Y0038275
X008155Y003845
X008215Y0038625
X0082725Y0038825
X00833Y003905
X00832Y003845
X00828Y0038
X00825Y0037475
X00822Y003695
X0082025Y0036375
X00819Y0035775
X00815248Y00353
X00809249
X00803249
X00797249
X00791248
X00785248
X00779249
X00773249
X00767249
X00761249
X00755249
X00749249
X00743249
X00737249
X00731249
Y00343
X00737249
X00743249
X00749249
X00755249
X00761249
X00767249
X00773249
X00779249
X00785248
X00791248
X00797249
X00803249
X00809249
X00815248
X00821248
X0082825Y003415
X00828Y003475
X008285Y003535
X0082975Y003595
X0083175Y0036525
X008345Y0037075
X00838Y0037575
X00842Y0038025
X008465Y0038425
X0085175Y003875
X0085725Y0039
X00863Y0039175
X00869Y0039275
X00875
X00881Y00392
X00887Y003905
X0089275Y0038825
X00898Y0038525
X0090275Y003815
X00907Y0037725
X009105Y0037225
X009135Y00367
X0091575Y0036125
X0091725Y0035525
X0092775
X0092675Y0036125
X00925Y00367
X009225Y003725
X009195Y00378
X0091575Y00383
X0091175Y003875
X00907Y003915
X00902Y00395
X008965Y00398
X0089075Y0040025
X00885Y00402
X00879Y00403
X00873Y0040325
X00867Y00403
X00861Y00402
X0085525Y0040025
X008495Y00398
X00844Y003955
X00839Y00392
X00815248Y0037675
X00803249Y0036475
X00791249
X00779249
X00767249
X00755249
X00743249
X00731249
X0081875Y00334
X00824281Y00336752
X0091575Y0033475
X0091725Y0034075
X0092775
X0092675Y0033475
X008525Y007325
X00851248Y00739
X00857249
Y00749
X00851248
X00845248
X00839249
X00833249
X00827249
X00821248
X00815248
X00809249
X00803249
X00797249
X00791249
X00785249
X00779249
X00773249
X00767249
X00761249
X00755249
X00749249
X00743249
X00737249
X00731249
Y00739
X00737249
X00743249
X00749249
X00755249
X00761249
X00767249
X00773249
X00779249
X00785249
X00791249
X00797249
X00803249
X00809249
X00815248
X00821248
X00827249
X00833249
X00839249
X00845248
X0084775Y0076
X008525Y007555
X00843Y0076475
X0083875Y00769
X008335Y007725
X00827499Y0077375
X00821499
X00815499
X00809499
X00803499
X00797499
X00791499
X00785499
X00779499
X00773499
X00767499
X00761499
X00755499
X00749499
X00743499
X00737499
X00731499
X00731249Y0076075
X00743249
X00755249
X00767249
X00779249
X00791249
X00803249
X00815249
X00827249
X00827499Y0084625
X00821499
X00815499
X00809499
X00803499
X00797499
X00791499
X00785499
X00779499
X00773499
X00767499
X00761499
X00755499
X00749499
X00743499
X00737499
X00731499
X00731249Y0085925
X00731249Y00871
X00737249
X00743249
X00749249
X00755249
X00761249
X00767249
X00773249
X00779249
X00785249
X00791249
X00797249
X00803249
X00809249
X00815249
X00821249
X00827249
X00833249
X00839249
X00845249
X00851249
X00857249
X00863249
X0086425Y0086275
X00869Y008665
X008745Y0086925
X0088025Y00871
Y00881
X008745Y0088275
X00869Y008855
X0086425Y0088925
X0085975Y008935
X008555Y0089775
X00851Y0090175
X008455Y009045
X008395Y009055
X00833499Y0090575
X00827499
X00821499
X00815499
X00809499
X00803499
X00797499
X00791499
X00785499
X00779499
X00773499
X00767499
X00761499
X00755499
X00749499
X00743499
X00737499
X00731499
X00731249Y0089275
X00731249Y00881
X00737249
X00743249
X00749249
X00755249
X00761249
X00767249
X00773249
X00779249
X00785249
X00791249
X00797249
X00803249
X00809249
X00815249
X00821249
X00827249
X00833249
X00839249
X00845249
X00851249
X00857249
X00863249
X0085975Y0085825
X008555Y00854
X00851052Y00849796
X008455Y0084725
X00839499Y0084625
X00833499
X00839249Y0085925
X00827249
X00815249
X00803249
X00791249
X00779249
X00767249
X00755249
X00743249
X00743249Y0089275
X00755249
X00767249
X00779249
X00791249
X00803249
X00815249
X00827249
X00839249
X00719249
X00719249Y00881
X00725249
Y00871
X00719249
X00713249
X00707249
X00701249
X00695249
X00689249
X00683249
X00677249
X00671249
X00665249
X00659249
X00653249
X00647249
X00641249
X00635249
X00629249
X00623249
X00617249
X00611249
X00605249
X00599249
X00593249
X00587249
X00581249
X00575249
X00569249
X00563249
X00557249
X00551249
X00545249
X00539249
X00533249
X00527249
X00521249
X00515249
X00509249
X00503249
X00497249
X00491249
X00485249
X00479249
X00473249
X00467249
X00461249
X00455249
X00449249
X00443249
X00437249
X00431249
X00425249
X00419249
X00413249
X00407249
X0040125
X00395249
X00389249
X0038325
X00377249
X0037125
X00365249
X00359249
X0035325
X0034725
X0034125
X0033525
Y00881
X0034125
X0034725
X0035325
X00359249
X00365249
X0037125
X00377249
X0038325
X00389249
X00395249
X0040125
X00407249
X00413249
X00419249
X00425249
X00431249
X00437249
X00443249
X00449249
X00455249
X00461249
X00467249
X00473249
X00479249
X00485249
X00491249
X00497249
X00503249
X00509249
X00515249
X00521249
X00527249
X00533249
X00539249
X00545249
X00551249
X00557249
X00563249
X00569249
X00575249
X00581249
X00587249
X00593249
X00599249
X00605249
X00611249
X00617249
X00623249
X00629249
X00635249
X00641249
X00647249
X00653249
X00659249
X00665249
X00671249
X00677249
X00683249
X00689249
X00695249
X00701249
X00707249
X00713249
X00707249Y0089275
X00695249
X00683249
X00671249
X00659249
X00647249
X00635249
X00623249
X00611249
X00599249
X00587249
X00575249
X00563249
X00551249
X00539249
X00527249
X00515249
X00503249
X00491249
X00479249
X00467249
X00455249
X00443249
X0043125
X00419249
X00407249
X00395249
X0038325
X0037125
X0035925
X0034725
X0033525
X003355Y0090575
X003415
X003475
X003535
X003595
X003655
X003715
X003775
X003835
X003895
X003955
X004015
X004075
X004135
X004195
X00425499
X00431499
X004375
X00443499
X004495
X00455499
X00461499
X00467499
X00473499
X00479499
X00485499
X00491499
X00497499
X00503499
X00509499
X00515499
X00521499
X00527499
X00533499
X00539499
X00545499
X00551499
X00557499
X00563499
X00569499
X00575499
X00581499
X00587499
X00593499
X00599499
X00605499
X00611499
X00617499
X00623499
X00629499
X00635499
X00641499
X00647499
X00653499
X00659499
X00665499
X00671499
X00677499
X00683499
X00689499
X00695499
X00701499
X00707499
X00713499
X00719499
X00725499
X00719249Y0085925
X00707249
X00695249
X00683249
X00671249
X00659249
X00647249
X00635249
X00623249
X00611249
X00599249
X00587249
X00575249
X00563249
X00551249
X00539249
X00527249
X00515249
X00503249
X00491249
X00479249
X00467249
X00455249
X0044325
X0043125
X00419249
X00407249
X0039525
X0038325
X0037125
X0035925
X0034725
X0033525
X003355Y0084625
X003415
X003475
X003535
X003595
X003655
X003715
X003775
X003835
X003895
X003955
X004015
X004075
X004135
X004195
X00425499
X00431499
X004375
X00443499
X004495
X00455499
X00461499
X00467499
X00473499
X00479499
X00485499
X00491499
X00497499
X00503499
X00509499
X00515499
X00521499
X00527499
X00533499
X00539499
X00545499
X00551499
X00557499
X00563499
X00569499
X00575499
X00581499
X00587499
X00593499
X00599499
X00605499
X00611499
X00617499
X00623499
X00629499
X00635499
X00641499
X00647499
X00653499
X00659499
X00665499
X00671499
X00677499
X00683499
X00689499
X00695499
X00701499
X00707499
X00713499
X00719499
X00725499
X00725499Y0077375
X00719499
X00713499
X00707499
X00701499
X00695499
X00689499
X00683499
X00677499
X00671499
X00665499
X00659499
X00653499
X00647499
X00641499
X00635499
X00629499
X00623499
X00617499
X00611499
X00605499
X00599499
X00593499
X00587499
X00581499
X00575499
X00569499
X00563499
X00557499
X00551499
X00545499
X00539499
X00533499
X00527499
X00521499
X00515499
X00509499
X00503499
X00497499
X00491499
X00485499
X00479499
X00473499
X00467499
X00461499
X00455499
X00449499
X00443499
X00437499
X00431499
X00425499
X00419499
X00413499
X004075
X00401499
X00395499
X003895
X00383499
X003775
X00371499
X00365499
X003595
X003535
X003475
X003415
X003355
X00335249Y0076075
X00335249Y00749
X0034125
X00347249
X0035325
X00359249
X00365249
X00371249
X00377249
X00383249
X00389249
X00395249
X00401249
X00407249
X00413249
X00419249
X00425249
X00431249
X00437249
X00443249
X00449249
X00455249
X00461249
X00467249
X00473249
X00479249
X00485249
X00491249
X00497249
X00503249
X00509249
X00515249
X00521249
X00527249
X00533249
X00539249
X00545249
X00551249
X00557249
X00563249
X00569249
X00575249
X00581249
X00587249
X00593249
X00599249
X00605249
X00611249
X00617249
X00623249
X00629249
X00635249
X00641249
X00647249
X00653249
X00659249
X00665249
X00671249
X00677249
X00683249
X00689249
X00695249
X00701249
X00707249
X00713249
X00719249
X00725249
Y00739
X00719249
X00713249
X00707249
X00701249
X00695249
X00689249
X00683249
X00677249
X00671249
X00665249
X00659249
X00653249
X00647249
X00641249
X00635249
X00629249
X00623249
X00617249
X00611249
X00605249
X00599249
X00593249
X00587249
X00581249
X00575249
X00569249
X00563249
X00557249
X00551249
X00545249
X00539249
X00533249
X00527249
X00521249
X00515249
X00509249
X00503249
X00497249
X00491249
X00485249
X00479249
X00473249
X00467249
X00461249
X00455249
X00449249
X00443249
X00437249
X00431249
X00425249
X00419249
X00413249
X00407249
X00401249
X00395249
X00389249
X00383249
X00377249
X00371249
X00365249
X00359249
X0035325
X00347249
X0034125
X00335249
X00347249Y0076075
X00359249
X0037125
X00383249
X00395249
X00407249
X00419249
X00431249
X00443249
X00455249
X00467249
X00479249
X00491249
X00503249
X00515249
X00527249
X00539249
X00551249
X00563249
X00575249
X00587249
X00599249
X00611249
X00623249
X00635249
X00647249
X00659249
X00671249
X00683249
X00695249
X00707249
X00719249
X0032325
X0032325Y00749
X00329249
Y00739
X0032325
X0031725
X0031125
X0030525
X0029925
X0029325
X0028725
X0028125
X0027525
X0026925
X0026325
X0025725
X0025125
X0024525
X0023925
X0023325
X0022725
X0022125
X0021525
X0020925
X0020325
X0019725
X0019125
X0018525
X0017925
X0017325
X0016725
X0016125
X0015525
X0014925
X0014325
X0013725
X0013125Y00737
X0012525Y0073275
X0011925
X0011325
X0010725
X0010125
X0009525
X0008925
X0008325
X0007725
Y0075525
X0008325
X0008925
X0009525
X0010125
X0010725
X0011325
X0011925
X0012525
X0013125Y00751
X0013725Y00749
X0014325
X0014925
X0015525
X0016125
X0016725
X0017325
X0017925
X0018525
X0019125
X0019725
X0020325
X0020925
X0021525
X0022125
X0022725
X0023325
X0023925
X0024525
X0025125
X0025725
X0026325
X0026925
X0027525
X0028125
X0028725
X0029325
X0029925
X0030525
X0031125
X0031725
X0031125Y0076075
X0029925
X0028725
X0027525
X0026325
X0025125
X0023925
X0022725
X0021525
X0020325
X0019125
X0017925
X0016725
X0015525
Y0077275
X0014325
X0013125
X0011925
X0010725
X0009525
X0008325
X0007125
Y0077875
Y0078475
Y0079075
Y0079675
X0007725
X0008325
X0008925
X0009525
X0010125
X0010725
X0011325
X0011925
X0012525
X0013125
X0013725
X0014325
X0014925Y007965
X0015525Y00795
X0016025Y0079125
X001645Y00787
X0016875Y0078275
X001735Y0077875
X0017925Y0077575
X0018525Y00774
X001915Y0077375
X001975
X002035
X002095
X002155
X002215
X002275
X002335
X002395
X002455
X002515
X002575
X002635
X002695
X002755
X002815
X002875
X002935
X002995
X003055
X003115
X003175
X003235
X003295
X003295Y0084625
X003235
X003175
X003115
X003055
X002995
X002935
X002875
X002815
X002755
X002695
X002635
X002575
X002515
X002455
X002395
X002335
X002275
X002215
X002155
X002095
X002035
X001975
X001915
X0018525Y00846
X0017925Y0084425
X001735Y0084125
X0016875Y0083725
X001645Y00833
X0016025Y0082875
X0015525Y00825
X0014925Y008235
X0014325Y0082325
X0013725
X0013125
X0012525
X0011925
X0011325
X0010725
X0010125
X0009525
X0008925
X0008325
X0007725
X0007125
Y0082925
Y0083525
Y0084125
Y0084725
Y0085325
Y0085925
X0007725Y0086475
X0008325
X0008925
X0009525
X0010125
X0010725
X0011325
X0011925
X0012525
X0013125Y00869
X0013725Y00871
X0014325
X0014925
X0015525
X0016125
X0016725
X0017325
X0017925
X0018525
X0019125
X0019725
X0020325
X0020925
X0021525
X0022125
X0022725
X0023325
X0023925
X0024525
X0025125
X0025725
X0026325
X0026925
X0027525
X0028125
X0028725
X0029325
X0029925
X0030525
X0031125
X0031725
X0032325
X0032925
Y00881
X0032325
X0031725
X0031125
X0030525
X0029925
X0029325
X0028725
X0028125
X0027525
X0026925
X0026325
X0025725
X0025125
X0024525
X0023925
X0023325
X0022725
X0022125
X0021525
X0020925
X0020325
X0019725
X0019125
X0018525
X0017925
X0017325
X0016725
X0016125
X0015525
X0014925
X0014325
X0013725
X0013125Y00883
X0013125Y0089275
X0012525Y0088725
X0011925
X0011325
X0010725
X0010125
X0009525
X0008925
X0008325
X0007725
X0007125Y0089275
Y0089875
Y0090475
Y0091075
Y0091675
Y0092275
Y0092875
X0007725
X0008325
X0008925
X0009525
X0010125
X0010725
X0011325
X0011925
X0012525
X0013125
X0013725
X0014325
X0014925Y009285
X0015525Y00927
X0016025Y0092325
X001645Y00919
X0016875Y0091475
X001735Y0091075
X0017925Y0090775
X0018525Y00906
X001915Y0090575
X001975
X002035
X002095
X002155
X002215
X002275
X002335
X002395
X002455
X002515
X002575
X002635
X002695
X002755
X002815
X002875
X002935
X002995
X003055
X003115
X003175
X003235
X003295
X0032325Y0089275
X0031125
X0029925
X0028725
X0027525
X0026325
X0025125
X0023925
X0022725
X0021525
X0020325
X0019125
X0017925
X0016725
Y0090475
X0015525
Y0091675
X0014325
Y0090475
Y0089275
X0015525
X0015525Y0085925
Y0084725
X0014325
X0013125
X0011925
X0010725
X0009525
X0008325
Y0083525
X0009525
X0010725
X0011925
X0013125
X0014325
X0015525
X0016725Y0084725
Y0085925
X0017925
X0019125
X0020325
X0021525
X0022725
X0023925
X0025125
X0026325
X0027525
X0028725
X0029925
X0031125
X0032325
X0014325
X0013125
X00121Y00876
X0011925Y0090475
X0013125
Y0091675
X0011925
X0010725
Y0090475
X0009525
Y0091675
X0008325
Y0090475
X0008325Y0078475
X0009525
X0010725
X0011925
X0013125
X0014325
X0015525
X0016725Y0077275
X0014325Y0076075
X0013125
X00121Y00744
X0007125Y0076075
Y0076675
T02
X00732Y00121
Y00203
X00732Y00306999
X00723
X00714
X00705
X00696
X00696Y00203
X00705
X00714
X00723
Y00121
X00714
X00705
X00696
X0049Y00121
X00481
X00472
X00463
X00454
X00454Y00203
X00463
X00472
X00481
X0049
X0049Y00307
X00481
X00472
X00463
X00454
X00248
X00239
X0023
X00221
X00212
X00212Y00203
X00221
X0023
X00239
X00248
X00248Y00121
X00239
X0023
X00221
X00212
X00212Y00389
X00221
X0023
X00239
X00248
Y00439
X00239
X0023
X00221
X00212
X00212Y00521
X00221
X0023
X00239
X00248
Y00571
X00239
X0023
X00221
X00212
X00212Y00653
X00221
X0023
X00239
X00248
Y00703
X00239
X0023
X00221
X00212
X00454
X00463
X00472
X00481
X0049
Y00653
X00481
X00472
X00463
X00454
X00454Y00571
X00463
X00472
X00481
X0049
Y00521
X00481
X00472
X00463
X00454
X00454Y00439
X00463
X00472
X00481
X0049
Y00389
X00481
X00472
X00463
X00454
X00696Y00389
X00705
X00714
X00723
Y00439
X00714
X00705
X00696
X00696Y00521
X00705
X00714
X00723
Y00571
X00714
X00705
X00696
X00696Y00653
X00705
X00714
X00723
Y00703
X00714
X00705
X00696
X00732
Y00653
X00732Y00571
Y00521
X00732Y00439
Y00389
X00732Y00785
Y00835
Y00917
X00723
X00714
X00705
X00696
Y00835
X00705
X00714
X00723
Y00785
X00714
X00705
X00696
X0049Y00785
X00481
X00472
X00463
X00454
Y00835
X00463
X00472
X00481
X0049
Y00917
X00481
X00472
X00463
X00454
X00248
X00239
X0023
X00221
X00212
Y00835
X00221
X0023
X00239
X00248
Y00785
X00239
X0023
X00221
X00212
T03
X00975Y00025
X00025
X00975Y00975
X00025
M30
